%TF.GenerationSoftware,KiCad,Pcbnew,(6.0.2)*%
%TF.CreationDate,2023-06-26T13:18:54+02:00*%
%TF.ProjectId,LTPS_A,4c545053-5f41-42e6-9b69-6361645f7063,rev?*%
%TF.SameCoordinates,Original*%
%TF.FileFunction,Copper,L2,Inr*%
%TF.FilePolarity,Positive*%
%FSLAX46Y46*%
G04 Gerber Fmt 4.6, Leading zero omitted, Abs format (unit mm)*
G04 Created by KiCad (PCBNEW (6.0.2)) date 2023-06-26 13:18:54*
%MOMM*%
%LPD*%
G01*
G04 APERTURE LIST*
G04 Aperture macros list*
%AMRoundRect*
0 Rectangle with rounded corners*
0 $1 Rounding radius*
0 $2 $3 $4 $5 $6 $7 $8 $9 X,Y pos of 4 corners*
0 Add a 4 corners polygon primitive as box body*
4,1,4,$2,$3,$4,$5,$6,$7,$8,$9,$2,$3,0*
0 Add four circle primitives for the rounded corners*
1,1,$1+$1,$2,$3*
1,1,$1+$1,$4,$5*
1,1,$1+$1,$6,$7*
1,1,$1+$1,$8,$9*
0 Add four rect primitives between the rounded corners*
20,1,$1+$1,$2,$3,$4,$5,0*
20,1,$1+$1,$4,$5,$6,$7,0*
20,1,$1+$1,$6,$7,$8,$9,0*
20,1,$1+$1,$8,$9,$2,$3,0*%
G04 Aperture macros list end*
%TA.AperFunction,ComponentPad*%
%ADD10R,5.000000X2.000000*%
%TD*%
%TA.AperFunction,ComponentPad*%
%ADD11C,3.600000*%
%TD*%
%TA.AperFunction,ComponentPad*%
%ADD12C,0.600000*%
%TD*%
%TA.AperFunction,ComponentPad*%
%ADD13R,1.800000X1.100000*%
%TD*%
%TA.AperFunction,ComponentPad*%
%ADD14RoundRect,0.275000X0.625000X-0.275000X0.625000X0.275000X-0.625000X0.275000X-0.625000X-0.275000X0*%
%TD*%
%TA.AperFunction,ComponentPad*%
%ADD15C,2.240000*%
%TD*%
%TA.AperFunction,ComponentPad*%
%ADD16C,2.740000*%
%TD*%
%TA.AperFunction,ComponentPad*%
%ADD17C,4.890000*%
%TD*%
%TA.AperFunction,ComponentPad*%
%ADD18C,1.860000*%
%TD*%
%TA.AperFunction,ViaPad*%
%ADD19C,0.800000*%
%TD*%
%TA.AperFunction,ViaPad*%
%ADD20C,1.000000*%
%TD*%
%TA.AperFunction,ViaPad*%
%ADD21C,0.600000*%
%TD*%
G04 APERTURE END LIST*
D10*
%TO.N,Net-(F1-Pad1)*%
%TO.C,G1*%
X175000000Y-58500000D03*
%TO.N,GND*%
X175000000Y-114000000D03*
%TD*%
%TO.N,Net-(F1-Pad1)*%
%TO.C,G3*%
X113010000Y-58500000D03*
%TO.N,GND*%
X113010000Y-114000000D03*
%TD*%
D11*
%TO.N,GND*%
%TO.C,MECH1*%
X87500000Y-134000000D03*
%TD*%
D12*
%TO.N,GND*%
%TO.C,N5*%
X97210000Y-127162000D03*
X97210000Y-129562000D03*
X99610000Y-127162000D03*
X99610000Y-129562000D03*
%TD*%
%TO.N,GND*%
%TO.C,N8*%
X132746000Y-127370000D03*
X130346000Y-127370000D03*
X132746000Y-129770000D03*
X130346000Y-129770000D03*
%TD*%
D11*
%TO.N,GND*%
%TO.C,MECH3*%
X200500000Y-41000000D03*
%TD*%
D13*
%TO.N,+3V3*%
%TO.C,N2*%
X146958000Y-52832000D03*
D14*
%TO.N,battery_temp*%
X144888000Y-51562000D03*
%TO.N,GND*%
X146958000Y-50292000D03*
%TD*%
D15*
%TO.N,Net-(R6-Pad2)*%
%TO.C,X1*%
X89290000Y-50290000D03*
D16*
%TO.N,GND*%
X91830000Y-52830000D03*
X91830000Y-47750000D03*
X86750000Y-52830000D03*
X86750000Y-47750000D03*
%TD*%
D11*
%TO.N,GND*%
%TO.C,MECH2*%
X200500000Y-134000000D03*
%TD*%
D12*
%TO.N,GND*%
%TO.C,N7*%
X113466000Y-127289000D03*
X115866000Y-129689000D03*
X113466000Y-129689000D03*
X115866000Y-127289000D03*
%TD*%
D17*
%TO.N,GND*%
%TO.C,X2*%
X159752000Y-127540000D03*
X193072000Y-127540000D03*
D18*
%TO.N,TPS_A_OC*%
X185000000Y-125000000D03*
%TO.N,TPS_B_OC*%
X182710000Y-125000000D03*
%TO.N,TPS_C_OC*%
X180420000Y-125000000D03*
%TO.N,TPS_A_S1*%
X178130000Y-125000000D03*
%TO.N,TPS_A_S2*%
X175840000Y-125000000D03*
%TO.N,TPS_B_S1*%
X173550000Y-125000000D03*
%TO.N,TPS_B_S2*%
X171260000Y-125000000D03*
%TO.N,TPS_C_S1*%
X168970000Y-125000000D03*
%TO.N,TPS_C_S2*%
X166680000Y-125000000D03*
%TO.N,GND*%
X186145000Y-127540000D03*
X183855000Y-127540000D03*
X181565000Y-127540000D03*
X179275000Y-127540000D03*
X176985000Y-127540000D03*
X174695000Y-127540000D03*
X172405000Y-127540000D03*
X170115000Y-127540000D03*
X167825000Y-127540000D03*
%TO.N,TPS_A_S1_CTRL*%
X185000000Y-130080000D03*
%TO.N,TPS_A_S2_CTRL*%
X182710000Y-130080000D03*
%TO.N,TPS_B_S1_CTRL*%
X180420000Y-130080000D03*
%TO.N,TPS_B_S2_CTRL*%
X178130000Y-130080000D03*
%TO.N,TPS_C_S1_CTRL*%
X175840000Y-130080000D03*
%TO.N,TPS_C_S2_CTRL*%
X173550000Y-130080000D03*
%TO.N,LTPS_SCL*%
X171260000Y-130080000D03*
%TO.N,LTPS_SDA*%
X168970000Y-130080000D03*
%TD*%
D11*
%TO.N,GND*%
%TO.C,MECH4*%
X87500000Y-41000000D03*
%TD*%
D10*
%TO.N,Net-(F1-Pad1)*%
%TO.C,G2*%
X144000000Y-58500000D03*
%TO.N,GND*%
X144000000Y-114000000D03*
%TD*%
D19*
%TO.N,+3V3*%
X149225000Y-115189000D03*
D20*
X139192000Y-39243000D03*
D19*
X161036000Y-54356000D03*
D21*
%TO.N,GND*%
X154444500Y-129318293D03*
X133900000Y-50500000D03*
X151765000Y-50419000D03*
D20*
X197993000Y-62484000D03*
D21*
X150241000Y-126365000D03*
D20*
X194691000Y-59436000D03*
X200025000Y-46990000D03*
D21*
X151765000Y-51689000D03*
D20*
X150114000Y-55626000D03*
D21*
X141732000Y-46228000D03*
X147193000Y-135255000D03*
D20*
X109347000Y-133350000D03*
D21*
X141732000Y-47752000D03*
X144780000Y-45339000D03*
X164109400Y-51866800D03*
D20*
X109347000Y-131064000D03*
X158877000Y-50419000D03*
X126111000Y-131064000D03*
X126111000Y-128524000D03*
X195707000Y-49911000D03*
X131582000Y-128534000D03*
X187706000Y-50038000D03*
X201930000Y-66802000D03*
D21*
X166141400Y-53644800D03*
D20*
X109347000Y-128524000D03*
X114719500Y-128435500D03*
X195150500Y-46832660D03*
D21*
X97500000Y-52500000D03*
X95235000Y-135347000D03*
X152273000Y-117348000D03*
X141224000Y-131699000D03*
X141224000Y-118364000D03*
D20*
X154559000Y-136271000D03*
D21*
X142367000Y-121285000D03*
D20*
X93218000Y-133350000D03*
D21*
X147193000Y-121569000D03*
X141732000Y-45466000D03*
X165379400Y-53644800D03*
X139202000Y-41098000D03*
D20*
X93218000Y-131064000D03*
D21*
X141224000Y-124714000D03*
X150160555Y-133004500D03*
X142367000Y-134620000D03*
X129413000Y-41783000D03*
X147193000Y-128397000D03*
D20*
X158877000Y-47244000D03*
X126111000Y-133350000D03*
X189611000Y-50419000D03*
D21*
X141732000Y-46990000D03*
D20*
X93218000Y-128524000D03*
X197612000Y-49911000D03*
D21*
X94727000Y-134331000D03*
X138750000Y-56428600D03*
D20*
X98410000Y-128362000D03*
D21*
X151765000Y-51054000D03*
X142367000Y-127635000D03*
X150241000Y-118376500D03*
X152293391Y-124102563D03*
D20*
X191897000Y-44450000D03*
%TO.N,main_battery_unregulated*%
X92837000Y-120015000D03*
X156210000Y-48514000D03*
X132207000Y-46736000D03*
X109093000Y-120269000D03*
D21*
X131000000Y-48641000D03*
D20*
X129032000Y-118237000D03*
D21*
X134000000Y-54100000D03*
D20*
X135636000Y-46736000D03*
%TO.N,main_voltage_sense*%
X192024000Y-53340000D03*
D21*
X148336000Y-42418000D03*
%TO.N,TPS_A*%
X150114000Y-123317000D03*
D19*
X155829000Y-117729000D03*
D20*
X101346000Y-133604000D03*
D21*
X147320000Y-118237000D03*
D20*
%TO.N,TPS_B*%
X117602000Y-133604000D03*
D19*
X193040000Y-113411000D03*
D21*
X149733000Y-129540000D03*
X145796000Y-123952000D03*
D20*
%TO.N,TPS_C*%
X134620000Y-133604000D03*
X150368000Y-136652000D03*
X144399000Y-130683000D03*
D21*
%TO.N,battery_temp*%
X193167000Y-55753000D03*
%TO.N,main_current_sense*%
X194310000Y-55880000D03*
X139700000Y-50038000D03*
D19*
%TO.N,LTPS_SCL*%
X196850000Y-43942000D03*
%TO.N,LTPS_SDA*%
X192151000Y-43053000D03*
D21*
%TO.N,Net-(R5-Pad1)*%
X98806000Y-51308000D03*
X120294400Y-51308000D03*
D19*
%TO.N,TPS_B_S1_CTRL*%
X147320000Y-126619000D03*
%TO.N,TPS_C_S1_CTRL*%
X147828000Y-133604000D03*
X162179000Y-134112000D03*
%TO.N,TPS_B_S2_CTRL*%
X164592000Y-131445000D03*
X164592000Y-134747000D03*
%TO.N,TPS_A_S1_CTRL*%
X140970000Y-120015000D03*
%TO.N,TPS_A_S2_CTRL*%
X159893000Y-130683000D03*
X154940000Y-121793000D03*
X158115000Y-132461000D03*
D21*
%TO.N,TPS_B_S1*%
X149098000Y-125349000D03*
D20*
%TO.N,TPS_C_S1*%
X149225000Y-131953000D03*
D21*
%TO.N,TPS_B_S2*%
X149098000Y-128397000D03*
D20*
%TO.N,TPS_C_S2*%
X148971000Y-135255000D03*
D21*
%TO.N,TPS_A_S1*%
X148844000Y-119507000D03*
%TO.N,TPS_A_S2*%
X149606000Y-121666000D03*
%TD*%
%TA.AperFunction,Conductor*%
%TO.N,GND*%
G36*
X139009841Y-38028002D02*
G01*
X139056334Y-38081658D01*
X139066438Y-38151932D01*
X139036944Y-38216512D01*
X138977294Y-38254874D01*
X138881674Y-38283016D01*
X138812381Y-38303410D01*
X138806923Y-38306263D01*
X138806919Y-38306265D01*
X138716147Y-38353720D01*
X138637110Y-38395040D01*
X138482975Y-38518968D01*
X138355846Y-38670474D01*
X138352879Y-38675872D01*
X138352875Y-38675877D01*
X138349397Y-38682204D01*
X138260567Y-38843787D01*
X138258706Y-38849654D01*
X138258705Y-38849656D01*
X138202627Y-39026436D01*
X138200765Y-39032306D01*
X138178719Y-39228851D01*
X138195268Y-39425934D01*
X138249783Y-39616050D01*
X138340187Y-39791956D01*
X138463035Y-39946953D01*
X138613650Y-40075136D01*
X138786294Y-40171624D01*
X138974392Y-40232740D01*
X139170777Y-40256158D01*
X139176912Y-40255686D01*
X139176914Y-40255686D01*
X139361830Y-40241457D01*
X139361834Y-40241456D01*
X139367972Y-40240984D01*
X139558463Y-40187798D01*
X139563967Y-40185018D01*
X139563969Y-40185017D01*
X139729495Y-40101404D01*
X139729497Y-40101403D01*
X139734996Y-40098625D01*
X139890847Y-39976861D01*
X140020078Y-39827145D01*
X140117769Y-39655179D01*
X140180197Y-39467513D01*
X140204985Y-39271295D01*
X140205380Y-39243000D01*
X140186080Y-39046167D01*
X140128916Y-38856831D01*
X140036066Y-38682204D01*
X139965709Y-38595938D01*
X139914960Y-38533713D01*
X139914957Y-38533710D01*
X139911065Y-38528938D01*
X139904724Y-38523692D01*
X139763425Y-38406799D01*
X139763421Y-38406797D01*
X139758675Y-38402870D01*
X139584701Y-38308802D01*
X139408842Y-38254365D01*
X139349682Y-38215114D01*
X139321135Y-38150110D01*
X139332263Y-38079991D01*
X139379534Y-38027019D01*
X139446101Y-38008000D01*
X203366000Y-38008000D01*
X203434121Y-38028002D01*
X203480614Y-38081658D01*
X203492000Y-38134000D01*
X203492000Y-136866000D01*
X203471998Y-136934121D01*
X203418342Y-136980614D01*
X203366000Y-136992000D01*
X151484526Y-136992000D01*
X151416405Y-136971998D01*
X151369912Y-136918342D01*
X151359520Y-136850208D01*
X151380542Y-136683799D01*
X151380985Y-136680295D01*
X151381380Y-136652000D01*
X151362080Y-136455167D01*
X151304916Y-136265831D01*
X151212066Y-136091204D01*
X151107463Y-135962948D01*
X151090960Y-135942713D01*
X151090957Y-135942710D01*
X151087065Y-135937938D01*
X151082316Y-135934009D01*
X150939425Y-135815799D01*
X150939421Y-135815797D01*
X150934675Y-135811870D01*
X150760701Y-135717802D01*
X150571768Y-135659318D01*
X150565643Y-135658674D01*
X150565642Y-135658674D01*
X150381204Y-135639289D01*
X150381202Y-135639289D01*
X150375075Y-135638645D01*
X150292576Y-135646153D01*
X150184251Y-135656011D01*
X150184248Y-135656012D01*
X150178112Y-135656570D01*
X150172202Y-135658310D01*
X150172199Y-135658310D01*
X150101355Y-135679160D01*
X150030359Y-135679204D01*
X149970608Y-135640858D01*
X149941075Y-135576296D01*
X149946223Y-135518514D01*
X149957250Y-135485365D01*
X149959197Y-135479513D01*
X149983985Y-135283295D01*
X149984380Y-135255000D01*
X149965080Y-135058167D01*
X149953294Y-135019128D01*
X149926494Y-134930365D01*
X149907916Y-134868831D01*
X149815066Y-134694204D01*
X149733129Y-134593740D01*
X149693960Y-134545713D01*
X149693957Y-134545710D01*
X149690065Y-134540938D01*
X149680015Y-134532624D01*
X149542425Y-134418799D01*
X149542421Y-134418797D01*
X149537675Y-134414870D01*
X149363701Y-134320802D01*
X149174768Y-134262318D01*
X149168643Y-134261674D01*
X149168642Y-134261674D01*
X148984204Y-134242289D01*
X148984202Y-134242289D01*
X148978075Y-134241645D01*
X148895576Y-134249153D01*
X148787251Y-134259011D01*
X148787248Y-134259012D01*
X148781112Y-134259570D01*
X148775202Y-134261310D01*
X148775199Y-134261310D01*
X148742913Y-134270812D01*
X148671917Y-134270856D01*
X148612166Y-134232510D01*
X148582633Y-134167948D01*
X148590641Y-134112000D01*
X161265496Y-134112000D01*
X161266186Y-134118565D01*
X161283863Y-134286749D01*
X161285458Y-134301928D01*
X161344473Y-134483556D01*
X161347776Y-134489278D01*
X161347777Y-134489279D01*
X161360392Y-134511128D01*
X161439960Y-134648944D01*
X161444378Y-134653851D01*
X161444379Y-134653852D01*
X161472390Y-134684961D01*
X161567747Y-134790866D01*
X161722248Y-134903118D01*
X161728276Y-134905802D01*
X161728278Y-134905803D01*
X161890681Y-134978109D01*
X161896712Y-134980794D01*
X161990112Y-135000647D01*
X162077056Y-135019128D01*
X162077061Y-135019128D01*
X162083513Y-135020500D01*
X162274487Y-135020500D01*
X162280939Y-135019128D01*
X162280944Y-135019128D01*
X162367888Y-135000647D01*
X162461288Y-134980794D01*
X162467319Y-134978109D01*
X162629722Y-134905803D01*
X162629724Y-134905802D01*
X162635752Y-134903118D01*
X162790253Y-134790866D01*
X162829750Y-134747000D01*
X163678496Y-134747000D01*
X163679186Y-134753565D01*
X163695187Y-134905803D01*
X163698458Y-134936928D01*
X163757473Y-135118556D01*
X163852960Y-135283944D01*
X163980747Y-135425866D01*
X164062640Y-135485365D01*
X164108266Y-135518514D01*
X164135248Y-135538118D01*
X164141276Y-135540802D01*
X164141278Y-135540803D01*
X164303681Y-135613109D01*
X164309712Y-135615794D01*
X164403113Y-135635647D01*
X164490056Y-135654128D01*
X164490061Y-135654128D01*
X164496513Y-135655500D01*
X164687487Y-135655500D01*
X164693939Y-135654128D01*
X164693944Y-135654128D01*
X164780887Y-135635647D01*
X164874288Y-135615794D01*
X164880319Y-135613109D01*
X165042722Y-135540803D01*
X165042724Y-135540802D01*
X165048752Y-135538118D01*
X165075735Y-135518514D01*
X165121360Y-135485365D01*
X165203253Y-135425866D01*
X165331040Y-135283944D01*
X165426527Y-135118556D01*
X165485542Y-134936928D01*
X165488814Y-134905803D01*
X165504814Y-134753565D01*
X165505504Y-134747000D01*
X165490312Y-134602457D01*
X165486232Y-134563635D01*
X165486232Y-134563633D01*
X165485542Y-134557072D01*
X165426527Y-134375444D01*
X165331040Y-134210056D01*
X165315515Y-134192813D01*
X165207675Y-134073045D01*
X165207674Y-134073044D01*
X165203253Y-134068134D01*
X165075831Y-133975556D01*
X165054094Y-133959763D01*
X165054093Y-133959762D01*
X165048752Y-133955882D01*
X165042724Y-133953198D01*
X165042722Y-133953197D01*
X164880319Y-133880891D01*
X164880318Y-133880891D01*
X164874288Y-133878206D01*
X164780888Y-133858353D01*
X164693944Y-133839872D01*
X164693939Y-133839872D01*
X164687487Y-133838500D01*
X164496513Y-133838500D01*
X164490061Y-133839872D01*
X164490056Y-133839872D01*
X164403112Y-133858353D01*
X164309712Y-133878206D01*
X164303682Y-133880891D01*
X164303681Y-133880891D01*
X164141278Y-133953197D01*
X164141276Y-133953198D01*
X164135248Y-133955882D01*
X164129907Y-133959762D01*
X164129906Y-133959763D01*
X164108169Y-133975556D01*
X163980747Y-134068134D01*
X163976326Y-134073044D01*
X163976325Y-134073045D01*
X163868486Y-134192813D01*
X163852960Y-134210056D01*
X163757473Y-134375444D01*
X163698458Y-134557072D01*
X163697768Y-134563633D01*
X163697768Y-134563635D01*
X163693688Y-134602457D01*
X163678496Y-134747000D01*
X162829750Y-134747000D01*
X162885610Y-134684961D01*
X162913621Y-134653852D01*
X162913622Y-134653851D01*
X162918040Y-134648944D01*
X162997608Y-134511128D01*
X163010223Y-134489279D01*
X163010224Y-134489278D01*
X163013527Y-134483556D01*
X163072542Y-134301928D01*
X163074138Y-134286749D01*
X163091814Y-134118565D01*
X163092504Y-134112000D01*
X163078765Y-133981279D01*
X163073232Y-133928635D01*
X163073232Y-133928633D01*
X163072542Y-133922072D01*
X163013527Y-133740444D01*
X162918040Y-133575056D01*
X162790253Y-133433134D01*
X162649907Y-133331166D01*
X162641094Y-133324763D01*
X162641093Y-133324762D01*
X162635752Y-133320882D01*
X162629724Y-133318198D01*
X162629722Y-133318197D01*
X162467319Y-133245891D01*
X162467318Y-133245891D01*
X162461288Y-133243206D01*
X162341909Y-133217831D01*
X162280944Y-133204872D01*
X162280939Y-133204872D01*
X162274487Y-133203500D01*
X162083513Y-133203500D01*
X162077061Y-133204872D01*
X162077056Y-133204872D01*
X162016091Y-133217831D01*
X161896712Y-133243206D01*
X161890682Y-133245891D01*
X161890681Y-133245891D01*
X161728278Y-133318197D01*
X161728276Y-133318198D01*
X161722248Y-133320882D01*
X161716907Y-133324762D01*
X161716906Y-133324763D01*
X161708093Y-133331166D01*
X161567747Y-133433134D01*
X161439960Y-133575056D01*
X161344473Y-133740444D01*
X161285458Y-133922072D01*
X161284768Y-133928633D01*
X161284768Y-133928635D01*
X161279235Y-133981279D01*
X161265496Y-134112000D01*
X148590641Y-134112000D01*
X148592693Y-134097668D01*
X148598220Y-134086938D01*
X148606242Y-134073045D01*
X148641407Y-134012137D01*
X148659223Y-133981279D01*
X148659224Y-133981278D01*
X148662527Y-133975556D01*
X148721542Y-133793928D01*
X148738901Y-133628771D01*
X148740814Y-133610565D01*
X148741504Y-133604000D01*
X148724062Y-133438045D01*
X148722232Y-133420635D01*
X148722232Y-133420633D01*
X148721542Y-133414072D01*
X148662527Y-133232444D01*
X148567040Y-133067056D01*
X148482460Y-132973121D01*
X148451744Y-132909114D01*
X148458037Y-132858532D01*
X148416002Y-132873379D01*
X148346902Y-132857078D01*
X148335160Y-132849506D01*
X148284752Y-132812882D01*
X148278724Y-132810198D01*
X148278722Y-132810197D01*
X148116319Y-132737891D01*
X148116318Y-132737891D01*
X148110288Y-132735206D01*
X148016888Y-132715353D01*
X147929944Y-132696872D01*
X147929939Y-132696872D01*
X147923487Y-132695500D01*
X147732513Y-132695500D01*
X147726061Y-132696872D01*
X147726056Y-132696872D01*
X147639112Y-132715353D01*
X147545712Y-132735206D01*
X147539682Y-132737891D01*
X147539681Y-132737891D01*
X147377278Y-132810197D01*
X147377276Y-132810198D01*
X147371248Y-132812882D01*
X147365907Y-132816762D01*
X147365906Y-132816763D01*
X147344169Y-132832556D01*
X147216747Y-132925134D01*
X147212326Y-132930044D01*
X147212325Y-132930045D01*
X147193472Y-132950984D01*
X147088960Y-133067056D01*
X146993473Y-133232444D01*
X146934458Y-133414072D01*
X146933768Y-133420633D01*
X146933768Y-133420635D01*
X146931938Y-133438045D01*
X146914496Y-133604000D01*
X146915186Y-133610565D01*
X146917100Y-133628771D01*
X146934458Y-133793928D01*
X146993473Y-133975556D01*
X146996776Y-133981278D01*
X146996777Y-133981279D01*
X147016927Y-134016179D01*
X147088960Y-134140944D01*
X147093378Y-134145851D01*
X147093379Y-134145852D01*
X147205933Y-134270856D01*
X147216747Y-134282866D01*
X147292441Y-134337861D01*
X147352820Y-134381729D01*
X147371248Y-134395118D01*
X147377276Y-134397802D01*
X147377278Y-134397803D01*
X147539681Y-134470109D01*
X147545712Y-134472794D01*
X147639112Y-134492647D01*
X147726056Y-134511128D01*
X147726061Y-134511128D01*
X147732513Y-134512500D01*
X147923487Y-134512500D01*
X147929939Y-134511128D01*
X147929944Y-134511128D01*
X147999768Y-134496286D01*
X148070559Y-134501688D01*
X148127191Y-134544505D01*
X148151685Y-134611143D01*
X148136264Y-134680444D01*
X148135473Y-134681726D01*
X148134846Y-134682474D01*
X148039567Y-134855787D01*
X148037706Y-134861654D01*
X148037705Y-134861656D01*
X148023701Y-134905803D01*
X147979765Y-135044306D01*
X147957719Y-135240851D01*
X147958235Y-135246995D01*
X147973581Y-135429749D01*
X147974268Y-135437934D01*
X147975967Y-135443858D01*
X148025269Y-135615794D01*
X148028783Y-135628050D01*
X148119187Y-135803956D01*
X148242035Y-135958953D01*
X148392650Y-136087136D01*
X148565294Y-136183624D01*
X148753392Y-136244740D01*
X148949777Y-136268158D01*
X148955912Y-136267686D01*
X148955914Y-136267686D01*
X149140830Y-136253457D01*
X149140834Y-136253456D01*
X149146972Y-136252984D01*
X149240194Y-136226956D01*
X149311183Y-136227903D01*
X149370392Y-136267079D01*
X149399021Y-136332048D01*
X149394178Y-136386413D01*
X149376765Y-136441306D01*
X149354719Y-136637851D01*
X149371268Y-136834934D01*
X149372969Y-136840865D01*
X149373407Y-136843253D01*
X149366031Y-136913865D01*
X149321651Y-136969281D01*
X149249477Y-136992000D01*
X84634000Y-136992000D01*
X84565879Y-136971998D01*
X84519386Y-136918342D01*
X84508000Y-136866000D01*
X84508000Y-133589851D01*
X100332719Y-133589851D01*
X100333235Y-133595995D01*
X100344884Y-133734721D01*
X100349268Y-133786934D01*
X100403783Y-133977050D01*
X100406602Y-133982535D01*
X100488014Y-134140944D01*
X100494187Y-134152956D01*
X100617035Y-134307953D01*
X100621728Y-134311947D01*
X100621729Y-134311948D01*
X100739219Y-134411939D01*
X100767650Y-134436136D01*
X100940294Y-134532624D01*
X101128392Y-134593740D01*
X101324777Y-134617158D01*
X101330912Y-134616686D01*
X101330914Y-134616686D01*
X101515830Y-134602457D01*
X101515834Y-134602456D01*
X101521972Y-134601984D01*
X101712463Y-134548798D01*
X101717967Y-134546018D01*
X101717969Y-134546017D01*
X101883495Y-134462404D01*
X101883497Y-134462403D01*
X101888996Y-134459625D01*
X102044847Y-134337861D01*
X102155165Y-134210056D01*
X102170049Y-134192813D01*
X102170050Y-134192811D01*
X102174078Y-134188145D01*
X102271769Y-134016179D01*
X102334197Y-133828513D01*
X102358985Y-133632295D01*
X102359380Y-133604000D01*
X102357993Y-133589851D01*
X116588719Y-133589851D01*
X116589235Y-133595995D01*
X116600884Y-133734721D01*
X116605268Y-133786934D01*
X116659783Y-133977050D01*
X116662602Y-133982535D01*
X116744014Y-134140944D01*
X116750187Y-134152956D01*
X116873035Y-134307953D01*
X116877728Y-134311947D01*
X116877729Y-134311948D01*
X116995219Y-134411939D01*
X117023650Y-134436136D01*
X117196294Y-134532624D01*
X117384392Y-134593740D01*
X117580777Y-134617158D01*
X117586912Y-134616686D01*
X117586914Y-134616686D01*
X117771830Y-134602457D01*
X117771834Y-134602456D01*
X117777972Y-134601984D01*
X117968463Y-134548798D01*
X117973967Y-134546018D01*
X117973969Y-134546017D01*
X118139495Y-134462404D01*
X118139497Y-134462403D01*
X118144996Y-134459625D01*
X118300847Y-134337861D01*
X118411165Y-134210056D01*
X118426049Y-134192813D01*
X118426050Y-134192811D01*
X118430078Y-134188145D01*
X118527769Y-134016179D01*
X118590197Y-133828513D01*
X118614985Y-133632295D01*
X118615380Y-133604000D01*
X118613993Y-133589851D01*
X133606719Y-133589851D01*
X133607235Y-133595995D01*
X133618884Y-133734721D01*
X133623268Y-133786934D01*
X133677783Y-133977050D01*
X133680602Y-133982535D01*
X133762014Y-134140944D01*
X133768187Y-134152956D01*
X133891035Y-134307953D01*
X133895728Y-134311947D01*
X133895729Y-134311948D01*
X134013219Y-134411939D01*
X134041650Y-134436136D01*
X134214294Y-134532624D01*
X134402392Y-134593740D01*
X134598777Y-134617158D01*
X134604912Y-134616686D01*
X134604914Y-134616686D01*
X134789830Y-134602457D01*
X134789834Y-134602456D01*
X134795972Y-134601984D01*
X134986463Y-134548798D01*
X134991967Y-134546018D01*
X134991969Y-134546017D01*
X135157495Y-134462404D01*
X135157497Y-134462403D01*
X135162996Y-134459625D01*
X135318847Y-134337861D01*
X135429165Y-134210056D01*
X135444049Y-134192813D01*
X135444050Y-134192811D01*
X135448078Y-134188145D01*
X135545769Y-134016179D01*
X135608197Y-133828513D01*
X135632985Y-133632295D01*
X135633380Y-133604000D01*
X135614080Y-133407167D01*
X135602294Y-133368128D01*
X135587218Y-133318197D01*
X135556916Y-133217831D01*
X135464066Y-133043204D01*
X135382129Y-132942740D01*
X135342960Y-132894713D01*
X135342957Y-132894710D01*
X135339065Y-132889938D01*
X135329015Y-132881624D01*
X135191425Y-132767799D01*
X135191421Y-132767797D01*
X135186675Y-132763870D01*
X135012701Y-132669802D01*
X134823768Y-132611318D01*
X134817643Y-132610674D01*
X134817642Y-132610674D01*
X134633204Y-132591289D01*
X134633202Y-132591289D01*
X134627075Y-132590645D01*
X134544576Y-132598153D01*
X134436251Y-132608011D01*
X134436248Y-132608012D01*
X134430112Y-132608570D01*
X134424206Y-132610308D01*
X134424202Y-132610309D01*
X134319076Y-132641249D01*
X134240381Y-132664410D01*
X134234923Y-132667263D01*
X134234919Y-132667265D01*
X134178287Y-132696872D01*
X134065110Y-132756040D01*
X133910975Y-132879968D01*
X133783846Y-133031474D01*
X133780879Y-133036872D01*
X133780875Y-133036877D01*
X133761141Y-133072774D01*
X133688567Y-133204787D01*
X133686706Y-133210654D01*
X133686705Y-133210656D01*
X133672701Y-133254803D01*
X133628765Y-133393306D01*
X133606719Y-133589851D01*
X118613993Y-133589851D01*
X118596080Y-133407167D01*
X118584294Y-133368128D01*
X118569218Y-133318197D01*
X118538916Y-133217831D01*
X118446066Y-133043204D01*
X118364129Y-132942740D01*
X118324960Y-132894713D01*
X118324957Y-132894710D01*
X118321065Y-132889938D01*
X118311015Y-132881624D01*
X118173425Y-132767799D01*
X118173421Y-132767797D01*
X118168675Y-132763870D01*
X117994701Y-132669802D01*
X117805768Y-132611318D01*
X117799643Y-132610674D01*
X117799642Y-132610674D01*
X117615204Y-132591289D01*
X117615202Y-132591289D01*
X117609075Y-132590645D01*
X117526576Y-132598153D01*
X117418251Y-132608011D01*
X117418248Y-132608012D01*
X117412112Y-132608570D01*
X117406206Y-132610308D01*
X117406202Y-132610309D01*
X117301076Y-132641249D01*
X117222381Y-132664410D01*
X117216923Y-132667263D01*
X117216919Y-132667265D01*
X117160287Y-132696872D01*
X117047110Y-132756040D01*
X116892975Y-132879968D01*
X116765846Y-133031474D01*
X116762879Y-133036872D01*
X116762875Y-133036877D01*
X116743141Y-133072774D01*
X116670567Y-133204787D01*
X116668706Y-133210654D01*
X116668705Y-133210656D01*
X116654701Y-133254803D01*
X116610765Y-133393306D01*
X116588719Y-133589851D01*
X102357993Y-133589851D01*
X102340080Y-133407167D01*
X102328294Y-133368128D01*
X102313218Y-133318197D01*
X102282916Y-133217831D01*
X102190066Y-133043204D01*
X102108129Y-132942740D01*
X102068960Y-132894713D01*
X102068957Y-132894710D01*
X102065065Y-132889938D01*
X102055015Y-132881624D01*
X101917425Y-132767799D01*
X101917421Y-132767797D01*
X101912675Y-132763870D01*
X101738701Y-132669802D01*
X101549768Y-132611318D01*
X101543643Y-132610674D01*
X101543642Y-132610674D01*
X101359204Y-132591289D01*
X101359202Y-132591289D01*
X101353075Y-132590645D01*
X101270576Y-132598153D01*
X101162251Y-132608011D01*
X101162248Y-132608012D01*
X101156112Y-132608570D01*
X101150206Y-132610308D01*
X101150202Y-132610309D01*
X101045076Y-132641249D01*
X100966381Y-132664410D01*
X100960923Y-132667263D01*
X100960919Y-132667265D01*
X100904287Y-132696872D01*
X100791110Y-132756040D01*
X100636975Y-132879968D01*
X100509846Y-133031474D01*
X100506879Y-133036872D01*
X100506875Y-133036877D01*
X100487141Y-133072774D01*
X100414567Y-133204787D01*
X100412706Y-133210654D01*
X100412705Y-133210656D01*
X100398701Y-133254803D01*
X100354765Y-133393306D01*
X100332719Y-133589851D01*
X84508000Y-133589851D01*
X84508000Y-131938851D01*
X148211719Y-131938851D01*
X148212235Y-131944995D01*
X148227581Y-132127749D01*
X148228268Y-132135934D01*
X148229967Y-132141858D01*
X148279269Y-132313794D01*
X148282783Y-132326050D01*
X148373187Y-132501956D01*
X148377013Y-132506783D01*
X148492211Y-132652129D01*
X148492214Y-132652132D01*
X148496035Y-132656953D01*
X148500000Y-132660328D01*
X148532780Y-132722934D01*
X148527942Y-132777222D01*
X148573700Y-132762835D01*
X148646288Y-132784828D01*
X148646650Y-132785136D01*
X148652029Y-132788142D01*
X148652030Y-132788143D01*
X148714782Y-132823214D01*
X148819294Y-132881624D01*
X149007392Y-132942740D01*
X149203777Y-132966158D01*
X149209912Y-132965686D01*
X149209914Y-132965686D01*
X149394830Y-132951457D01*
X149394834Y-132951456D01*
X149400972Y-132950984D01*
X149591463Y-132897798D01*
X149596967Y-132895018D01*
X149596969Y-132895017D01*
X149762495Y-132811404D01*
X149762497Y-132811403D01*
X149767996Y-132808625D01*
X149899146Y-132706160D01*
X149918991Y-132690655D01*
X149923847Y-132686861D01*
X150053078Y-132537145D01*
X150096335Y-132461000D01*
X157201496Y-132461000D01*
X157221458Y-132650928D01*
X157280473Y-132832556D01*
X157283776Y-132838278D01*
X157283777Y-132838279D01*
X157307067Y-132878618D01*
X157375960Y-132997944D01*
X157380378Y-133002851D01*
X157380379Y-133002852D01*
X157411015Y-133036877D01*
X157503747Y-133139866D01*
X157585677Y-133199392D01*
X157645982Y-133243206D01*
X157658248Y-133252118D01*
X157664276Y-133254802D01*
X157664278Y-133254803D01*
X157812695Y-133320882D01*
X157832712Y-133329794D01*
X157926113Y-133349647D01*
X158013056Y-133368128D01*
X158013061Y-133368128D01*
X158019513Y-133369500D01*
X158210487Y-133369500D01*
X158216939Y-133368128D01*
X158216944Y-133368128D01*
X158303887Y-133349647D01*
X158397288Y-133329794D01*
X158417305Y-133320882D01*
X158565722Y-133254803D01*
X158565724Y-133254802D01*
X158571752Y-133252118D01*
X158584019Y-133243206D01*
X158644323Y-133199392D01*
X158726253Y-133139866D01*
X158818985Y-133036877D01*
X158849621Y-133002852D01*
X158849622Y-133002851D01*
X158854040Y-132997944D01*
X158922933Y-132878618D01*
X158946223Y-132838279D01*
X158946224Y-132838278D01*
X158949527Y-132832556D01*
X159008542Y-132650928D01*
X159028504Y-132461000D01*
X159017818Y-132359326D01*
X159009232Y-132277635D01*
X159009232Y-132277633D01*
X159008542Y-132271072D01*
X158949527Y-132089444D01*
X158854040Y-131924056D01*
X158726253Y-131782134D01*
X158587033Y-131680984D01*
X158577094Y-131673763D01*
X158577093Y-131673762D01*
X158571752Y-131669882D01*
X158565724Y-131667198D01*
X158565722Y-131667197D01*
X158403319Y-131594891D01*
X158403318Y-131594891D01*
X158397288Y-131592206D01*
X158277909Y-131566831D01*
X158216944Y-131553872D01*
X158216939Y-131553872D01*
X158210487Y-131552500D01*
X158019513Y-131552500D01*
X158013061Y-131553872D01*
X158013056Y-131553872D01*
X157952091Y-131566831D01*
X157832712Y-131592206D01*
X157826682Y-131594891D01*
X157826681Y-131594891D01*
X157664278Y-131667197D01*
X157664276Y-131667198D01*
X157658248Y-131669882D01*
X157652907Y-131673762D01*
X157652906Y-131673763D01*
X157642967Y-131680984D01*
X157503747Y-131782134D01*
X157375960Y-131924056D01*
X157280473Y-132089444D01*
X157221458Y-132271072D01*
X157220768Y-132277633D01*
X157220768Y-132277635D01*
X157212182Y-132359326D01*
X157201496Y-132461000D01*
X150096335Y-132461000D01*
X150150769Y-132365179D01*
X150213197Y-132177513D01*
X150237985Y-131981295D01*
X150238380Y-131953000D01*
X150219080Y-131756167D01*
X150161916Y-131566831D01*
X150069066Y-131392204D01*
X149998709Y-131305938D01*
X149947960Y-131243713D01*
X149947957Y-131243710D01*
X149944065Y-131238938D01*
X149937724Y-131233692D01*
X149796425Y-131116799D01*
X149796421Y-131116797D01*
X149791675Y-131112870D01*
X149617701Y-131018802D01*
X149428768Y-130960318D01*
X149422643Y-130959674D01*
X149422642Y-130959674D01*
X149238204Y-130940289D01*
X149238202Y-130940289D01*
X149232075Y-130939645D01*
X149149576Y-130947153D01*
X149041251Y-130957011D01*
X149041248Y-130957012D01*
X149035112Y-130957570D01*
X149029206Y-130959308D01*
X149029202Y-130959309D01*
X148924076Y-130990249D01*
X148845381Y-131013410D01*
X148839923Y-131016263D01*
X148839919Y-131016265D01*
X148778698Y-131048271D01*
X148670110Y-131105040D01*
X148515975Y-131228968D01*
X148388846Y-131380474D01*
X148385879Y-131385872D01*
X148385875Y-131385877D01*
X148316404Y-131512246D01*
X148293567Y-131553787D01*
X148291706Y-131559654D01*
X148291705Y-131559656D01*
X148248635Y-131695429D01*
X148233765Y-131742306D01*
X148211719Y-131938851D01*
X84508000Y-131938851D01*
X84508000Y-130668851D01*
X143385719Y-130668851D01*
X143386235Y-130674995D01*
X143398309Y-130818782D01*
X143402268Y-130865934D01*
X143403967Y-130871858D01*
X143449258Y-131029806D01*
X143456783Y-131056050D01*
X143459602Y-131061535D01*
X143543666Y-131225104D01*
X143547187Y-131231956D01*
X143670035Y-131386953D01*
X143674728Y-131390947D01*
X143674729Y-131390948D01*
X143794106Y-131492545D01*
X143820650Y-131515136D01*
X143993294Y-131611624D01*
X144181392Y-131672740D01*
X144377777Y-131696158D01*
X144383912Y-131695686D01*
X144383914Y-131695686D01*
X144568830Y-131681457D01*
X144568834Y-131681456D01*
X144574972Y-131680984D01*
X144765463Y-131627798D01*
X144770967Y-131625018D01*
X144770969Y-131625017D01*
X144936495Y-131541404D01*
X144936497Y-131541403D01*
X144941996Y-131538625D01*
X145097847Y-131416861D01*
X145227078Y-131267145D01*
X145324769Y-131095179D01*
X145387197Y-130907513D01*
X145411985Y-130711295D01*
X145412380Y-130683000D01*
X158979496Y-130683000D01*
X158980186Y-130689565D01*
X158987826Y-130762251D01*
X158999458Y-130872928D01*
X159058473Y-131054556D01*
X159061776Y-131060278D01*
X159061777Y-131060279D01*
X159081927Y-131095179D01*
X159153960Y-131219944D01*
X159158378Y-131224851D01*
X159158379Y-131224852D01*
X159196460Y-131267145D01*
X159281747Y-131361866D01*
X159357441Y-131416861D01*
X159426655Y-131467148D01*
X159436248Y-131474118D01*
X159442276Y-131476802D01*
X159442278Y-131476803D01*
X159603071Y-131548392D01*
X159610712Y-131551794D01*
X159704113Y-131571647D01*
X159791056Y-131590128D01*
X159791061Y-131590128D01*
X159797513Y-131591500D01*
X159988487Y-131591500D01*
X159994939Y-131590128D01*
X159994944Y-131590128D01*
X160081887Y-131571647D01*
X160175288Y-131551794D01*
X160182929Y-131548392D01*
X160343722Y-131476803D01*
X160343724Y-131476802D01*
X160349752Y-131474118D01*
X160359346Y-131467148D01*
X160389830Y-131445000D01*
X163678496Y-131445000D01*
X163679186Y-131451565D01*
X163697709Y-131627798D01*
X163698458Y-131634928D01*
X163757473Y-131816556D01*
X163852960Y-131981944D01*
X163980747Y-132123866D01*
X164135248Y-132236118D01*
X164141276Y-132238802D01*
X164141278Y-132238803D01*
X164213756Y-132271072D01*
X164309712Y-132313794D01*
X164403113Y-132333647D01*
X164490056Y-132352128D01*
X164490061Y-132352128D01*
X164496513Y-132353500D01*
X164687487Y-132353500D01*
X164693939Y-132352128D01*
X164693944Y-132352128D01*
X164780887Y-132333647D01*
X164874288Y-132313794D01*
X164970244Y-132271072D01*
X165042722Y-132238803D01*
X165042724Y-132238802D01*
X165048752Y-132236118D01*
X165203253Y-132123866D01*
X165331040Y-131981944D01*
X165426527Y-131816556D01*
X165485542Y-131634928D01*
X165486292Y-131627798D01*
X165504814Y-131451565D01*
X165505504Y-131445000D01*
X165499048Y-131383575D01*
X165486232Y-131261635D01*
X165486232Y-131261633D01*
X165485542Y-131255072D01*
X165426527Y-131073444D01*
X165331040Y-130908056D01*
X165305064Y-130879206D01*
X165207675Y-130771045D01*
X165207674Y-130771044D01*
X165203253Y-130766134D01*
X165084005Y-130679495D01*
X165054094Y-130657763D01*
X165054093Y-130657762D01*
X165048752Y-130653882D01*
X165042724Y-130651198D01*
X165042722Y-130651197D01*
X164880319Y-130578891D01*
X164880318Y-130578891D01*
X164874288Y-130576206D01*
X164780887Y-130556353D01*
X164693944Y-130537872D01*
X164693939Y-130537872D01*
X164687487Y-130536500D01*
X164496513Y-130536500D01*
X164490061Y-130537872D01*
X164490056Y-130537872D01*
X164403113Y-130556353D01*
X164309712Y-130576206D01*
X164303682Y-130578891D01*
X164303681Y-130578891D01*
X164141278Y-130651197D01*
X164141276Y-130651198D01*
X164135248Y-130653882D01*
X164129907Y-130657762D01*
X164129906Y-130657763D01*
X164099995Y-130679495D01*
X163980747Y-130766134D01*
X163976326Y-130771044D01*
X163976325Y-130771045D01*
X163878937Y-130879206D01*
X163852960Y-130908056D01*
X163757473Y-131073444D01*
X163698458Y-131255072D01*
X163697768Y-131261633D01*
X163697768Y-131261635D01*
X163684952Y-131383575D01*
X163678496Y-131445000D01*
X160389830Y-131445000D01*
X160428559Y-131416861D01*
X160504253Y-131361866D01*
X160589540Y-131267145D01*
X160627621Y-131224852D01*
X160627622Y-131224851D01*
X160632040Y-131219944D01*
X160704073Y-131095179D01*
X160724223Y-131060279D01*
X160724224Y-131060278D01*
X160727527Y-131054556D01*
X160786542Y-130872928D01*
X160798175Y-130762251D01*
X160805814Y-130689565D01*
X160806504Y-130683000D01*
X160795280Y-130576206D01*
X160787232Y-130499635D01*
X160787232Y-130499633D01*
X160786542Y-130493072D01*
X160727527Y-130311444D01*
X160711177Y-130283124D01*
X160641149Y-130161834D01*
X160632040Y-130146056D01*
X160540809Y-130044734D01*
X167527001Y-130044734D01*
X167527298Y-130049887D01*
X167527298Y-130049890D01*
X167533291Y-130153829D01*
X167540617Y-130280887D01*
X167541754Y-130285933D01*
X167541755Y-130285939D01*
X167556967Y-130353438D01*
X167592621Y-130511644D01*
X167594563Y-130516426D01*
X167594564Y-130516430D01*
X167679671Y-130726023D01*
X167681615Y-130730810D01*
X167706271Y-130771045D01*
X167768705Y-130872928D01*
X167805209Y-130932498D01*
X167960085Y-131111291D01*
X167964060Y-131114591D01*
X167964063Y-131114594D01*
X167966719Y-131116799D01*
X168142083Y-131262389D01*
X168346314Y-131381732D01*
X168351139Y-131383574D01*
X168351140Y-131383575D01*
X168359986Y-131386953D01*
X168567296Y-131466117D01*
X168572362Y-131467148D01*
X168572363Y-131467148D01*
X168619820Y-131476803D01*
X168799092Y-131513276D01*
X168931766Y-131518141D01*
X169030314Y-131521755D01*
X169030318Y-131521755D01*
X169035478Y-131521944D01*
X169040598Y-131521288D01*
X169040600Y-131521288D01*
X169264979Y-131492545D01*
X169264982Y-131492544D01*
X169270106Y-131491888D01*
X169342272Y-131470237D01*
X169491728Y-131425398D01*
X169491729Y-131425397D01*
X169496674Y-131423914D01*
X169709098Y-131319848D01*
X169713301Y-131316850D01*
X169713306Y-131316847D01*
X169897469Y-131185485D01*
X169897471Y-131185483D01*
X169901673Y-131182486D01*
X169967590Y-131116799D01*
X170026059Y-131058534D01*
X170088431Y-131024618D01*
X170159238Y-131029806D01*
X170210234Y-131065286D01*
X170250085Y-131111291D01*
X170254060Y-131114591D01*
X170254064Y-131114595D01*
X170256719Y-131116799D01*
X170432083Y-131262389D01*
X170636314Y-131381732D01*
X170641139Y-131383574D01*
X170641140Y-131383575D01*
X170649986Y-131386953D01*
X170857296Y-131466117D01*
X170862362Y-131467148D01*
X170862363Y-131467148D01*
X170909820Y-131476803D01*
X171089092Y-131513276D01*
X171221766Y-131518141D01*
X171320314Y-131521755D01*
X171320318Y-131521755D01*
X171325478Y-131521944D01*
X171330598Y-131521288D01*
X171330600Y-131521288D01*
X171554979Y-131492545D01*
X171554982Y-131492544D01*
X171560106Y-131491888D01*
X171632272Y-131470237D01*
X171781728Y-131425398D01*
X171781729Y-131425397D01*
X171786674Y-131423914D01*
X171999098Y-131319848D01*
X172003301Y-131316850D01*
X172003306Y-131316847D01*
X172187469Y-131185485D01*
X172187471Y-131185483D01*
X172191673Y-131182486D01*
X172257590Y-131116799D01*
X172316059Y-131058534D01*
X172378431Y-131024618D01*
X172449238Y-131029806D01*
X172500234Y-131065286D01*
X172540085Y-131111291D01*
X172544060Y-131114591D01*
X172544064Y-131114595D01*
X172546719Y-131116799D01*
X172722083Y-131262389D01*
X172926314Y-131381732D01*
X172931139Y-131383574D01*
X172931140Y-131383575D01*
X172939986Y-131386953D01*
X173147296Y-131466117D01*
X173152362Y-131467148D01*
X173152363Y-131467148D01*
X173199820Y-131476803D01*
X173379092Y-131513276D01*
X173511766Y-131518141D01*
X173610314Y-131521755D01*
X173610318Y-131521755D01*
X173615478Y-131521944D01*
X173620598Y-131521288D01*
X173620600Y-131521288D01*
X173844979Y-131492545D01*
X173844982Y-131492544D01*
X173850106Y-131491888D01*
X173922272Y-131470237D01*
X174071728Y-131425398D01*
X174071729Y-131425397D01*
X174076674Y-131423914D01*
X174289098Y-131319848D01*
X174293301Y-131316850D01*
X174293306Y-131316847D01*
X174477469Y-131185485D01*
X174477471Y-131185483D01*
X174481673Y-131182486D01*
X174547590Y-131116799D01*
X174606059Y-131058534D01*
X174668431Y-131024618D01*
X174739238Y-131029806D01*
X174790234Y-131065286D01*
X174830085Y-131111291D01*
X174834060Y-131114591D01*
X174834064Y-131114595D01*
X174836719Y-131116799D01*
X175012083Y-131262389D01*
X175216314Y-131381732D01*
X175221139Y-131383574D01*
X175221140Y-131383575D01*
X175229986Y-131386953D01*
X175437296Y-131466117D01*
X175442362Y-131467148D01*
X175442363Y-131467148D01*
X175489820Y-131476803D01*
X175669092Y-131513276D01*
X175801766Y-131518141D01*
X175900314Y-131521755D01*
X175900318Y-131521755D01*
X175905478Y-131521944D01*
X175910598Y-131521288D01*
X175910600Y-131521288D01*
X176134979Y-131492545D01*
X176134982Y-131492544D01*
X176140106Y-131491888D01*
X176212272Y-131470237D01*
X176361728Y-131425398D01*
X176361729Y-131425397D01*
X176366674Y-131423914D01*
X176579098Y-131319848D01*
X176583301Y-131316850D01*
X176583306Y-131316847D01*
X176767469Y-131185485D01*
X176767471Y-131185483D01*
X176771673Y-131182486D01*
X176837590Y-131116799D01*
X176896059Y-131058534D01*
X176958431Y-131024618D01*
X177029238Y-131029806D01*
X177080234Y-131065286D01*
X177120085Y-131111291D01*
X177124060Y-131114591D01*
X177124064Y-131114595D01*
X177126719Y-131116799D01*
X177302083Y-131262389D01*
X177506314Y-131381732D01*
X177511139Y-131383574D01*
X177511140Y-131383575D01*
X177519986Y-131386953D01*
X177727296Y-131466117D01*
X177732362Y-131467148D01*
X177732363Y-131467148D01*
X177779820Y-131476803D01*
X177959092Y-131513276D01*
X178091766Y-131518141D01*
X178190314Y-131521755D01*
X178190318Y-131521755D01*
X178195478Y-131521944D01*
X178200598Y-131521288D01*
X178200600Y-131521288D01*
X178424979Y-131492545D01*
X178424982Y-131492544D01*
X178430106Y-131491888D01*
X178502272Y-131470237D01*
X178651728Y-131425398D01*
X178651729Y-131425397D01*
X178656674Y-131423914D01*
X178869098Y-131319848D01*
X178873301Y-131316850D01*
X178873306Y-131316847D01*
X179057469Y-131185485D01*
X179057471Y-131185483D01*
X179061673Y-131182486D01*
X179127590Y-131116799D01*
X179186059Y-131058534D01*
X179248431Y-131024618D01*
X179319238Y-131029806D01*
X179370234Y-131065286D01*
X179410085Y-131111291D01*
X179414060Y-131114591D01*
X179414064Y-131114595D01*
X179416719Y-131116799D01*
X179592083Y-131262389D01*
X179796314Y-131381732D01*
X179801139Y-131383574D01*
X179801140Y-131383575D01*
X179809986Y-131386953D01*
X180017296Y-131466117D01*
X180022362Y-131467148D01*
X180022363Y-131467148D01*
X180069820Y-131476803D01*
X180249092Y-131513276D01*
X180381766Y-131518141D01*
X180480314Y-131521755D01*
X180480318Y-131521755D01*
X180485478Y-131521944D01*
X180490598Y-131521288D01*
X180490600Y-131521288D01*
X180714979Y-131492545D01*
X180714982Y-131492544D01*
X180720106Y-131491888D01*
X180792272Y-131470237D01*
X180941728Y-131425398D01*
X180941729Y-131425397D01*
X180946674Y-131423914D01*
X181159098Y-131319848D01*
X181163301Y-131316850D01*
X181163306Y-131316847D01*
X181347469Y-131185485D01*
X181347471Y-131185483D01*
X181351673Y-131182486D01*
X181417590Y-131116799D01*
X181476059Y-131058534D01*
X181538431Y-131024618D01*
X181609238Y-131029806D01*
X181660234Y-131065286D01*
X181700085Y-131111291D01*
X181704060Y-131114591D01*
X181704064Y-131114595D01*
X181706719Y-131116799D01*
X181882083Y-131262389D01*
X182086314Y-131381732D01*
X182091139Y-131383574D01*
X182091140Y-131383575D01*
X182099986Y-131386953D01*
X182307296Y-131466117D01*
X182312362Y-131467148D01*
X182312363Y-131467148D01*
X182359820Y-131476803D01*
X182539092Y-131513276D01*
X182671766Y-131518141D01*
X182770314Y-131521755D01*
X182770318Y-131521755D01*
X182775478Y-131521944D01*
X182780598Y-131521288D01*
X182780600Y-131521288D01*
X183004979Y-131492545D01*
X183004982Y-131492544D01*
X183010106Y-131491888D01*
X183082272Y-131470237D01*
X183231728Y-131425398D01*
X183231729Y-131425397D01*
X183236674Y-131423914D01*
X183449098Y-131319848D01*
X183453301Y-131316850D01*
X183453306Y-131316847D01*
X183637469Y-131185485D01*
X183637471Y-131185483D01*
X183641673Y-131182486D01*
X183707590Y-131116799D01*
X183766059Y-131058534D01*
X183828431Y-131024618D01*
X183899238Y-131029806D01*
X183950234Y-131065286D01*
X183990085Y-131111291D01*
X183994060Y-131114591D01*
X183994064Y-131114595D01*
X183996719Y-131116799D01*
X184172083Y-131262389D01*
X184376314Y-131381732D01*
X184381139Y-131383574D01*
X184381140Y-131383575D01*
X184389986Y-131386953D01*
X184597296Y-131466117D01*
X184602362Y-131467148D01*
X184602363Y-131467148D01*
X184649820Y-131476803D01*
X184829092Y-131513276D01*
X184961766Y-131518141D01*
X185060314Y-131521755D01*
X185060318Y-131521755D01*
X185065478Y-131521944D01*
X185070598Y-131521288D01*
X185070600Y-131521288D01*
X185294979Y-131492545D01*
X185294982Y-131492544D01*
X185300106Y-131491888D01*
X185372272Y-131470237D01*
X185521728Y-131425398D01*
X185521729Y-131425397D01*
X185526674Y-131423914D01*
X185739098Y-131319848D01*
X185743301Y-131316850D01*
X185743306Y-131316847D01*
X185927469Y-131185485D01*
X185927471Y-131185483D01*
X185931673Y-131182486D01*
X186099227Y-131015516D01*
X186137582Y-130962140D01*
X186234243Y-130827621D01*
X186237261Y-130823421D01*
X186290946Y-130714799D01*
X186339773Y-130616004D01*
X186339774Y-130616002D01*
X186342067Y-130611362D01*
X186410831Y-130385033D01*
X186441707Y-130150511D01*
X186442399Y-130122204D01*
X186443348Y-130083365D01*
X186443348Y-130083361D01*
X186443430Y-130080000D01*
X186424048Y-129844250D01*
X186366422Y-129614832D01*
X186272100Y-129397906D01*
X186143615Y-129199298D01*
X186133743Y-129188448D01*
X185987895Y-129028164D01*
X185987893Y-129028163D01*
X185984417Y-129024342D01*
X185980366Y-129021143D01*
X185980362Y-129021139D01*
X185802836Y-128880937D01*
X185802831Y-128880933D01*
X185798782Y-128877736D01*
X185794266Y-128875243D01*
X185794263Y-128875241D01*
X185596219Y-128765915D01*
X185596215Y-128765913D01*
X185591695Y-128763418D01*
X185586826Y-128761694D01*
X185586822Y-128761692D01*
X185373593Y-128686184D01*
X185373589Y-128686183D01*
X185368718Y-128684458D01*
X185363625Y-128683551D01*
X185363622Y-128683550D01*
X185140928Y-128643882D01*
X185140922Y-128643881D01*
X185135839Y-128642976D01*
X185044887Y-128641865D01*
X184904480Y-128640149D01*
X184904478Y-128640149D01*
X184899311Y-128640086D01*
X184665488Y-128675866D01*
X184440648Y-128749355D01*
X184436060Y-128751743D01*
X184436056Y-128751745D01*
X184235419Y-128856190D01*
X184230830Y-128858579D01*
X184226697Y-128861682D01*
X184226694Y-128861684D01*
X184161125Y-128910915D01*
X184041669Y-129000606D01*
X184038097Y-129004344D01*
X183946078Y-129100636D01*
X183884553Y-129136066D01*
X183813641Y-129132609D01*
X183761791Y-129098385D01*
X183697895Y-129028164D01*
X183697893Y-129028163D01*
X183694417Y-129024342D01*
X183690366Y-129021143D01*
X183690362Y-129021139D01*
X183512836Y-128880937D01*
X183512831Y-128880933D01*
X183508782Y-128877736D01*
X183504266Y-128875243D01*
X183504263Y-128875241D01*
X183306219Y-128765915D01*
X183306215Y-128765913D01*
X183301695Y-128763418D01*
X183296826Y-128761694D01*
X183296822Y-128761692D01*
X183083593Y-128686184D01*
X183083589Y-128686183D01*
X183078718Y-128684458D01*
X183073625Y-128683551D01*
X183073622Y-128683550D01*
X182850928Y-128643882D01*
X182850922Y-128643881D01*
X182845839Y-128642976D01*
X182754887Y-128641865D01*
X182614480Y-128640149D01*
X182614478Y-128640149D01*
X182609311Y-128640086D01*
X182375488Y-128675866D01*
X182150648Y-128749355D01*
X182146060Y-128751743D01*
X182146056Y-128751745D01*
X181945419Y-128856190D01*
X181940830Y-128858579D01*
X181936697Y-128861682D01*
X181936694Y-128861684D01*
X181871125Y-128910915D01*
X181751669Y-129000606D01*
X181748097Y-129004344D01*
X181656078Y-129100636D01*
X181594553Y-129136066D01*
X181523641Y-129132609D01*
X181471791Y-129098385D01*
X181407895Y-129028164D01*
X181407893Y-129028163D01*
X181404417Y-129024342D01*
X181400366Y-129021143D01*
X181400362Y-129021139D01*
X181222836Y-128880937D01*
X181222831Y-128880933D01*
X181218782Y-128877736D01*
X181214266Y-128875243D01*
X181214263Y-128875241D01*
X181016219Y-128765915D01*
X181016215Y-128765913D01*
X181011695Y-128763418D01*
X181006826Y-128761694D01*
X181006822Y-128761692D01*
X180793593Y-128686184D01*
X180793589Y-128686183D01*
X180788718Y-128684458D01*
X180783625Y-128683551D01*
X180783622Y-128683550D01*
X180560928Y-128643882D01*
X180560922Y-128643881D01*
X180555839Y-128642976D01*
X180464887Y-128641865D01*
X180324480Y-128640149D01*
X180324478Y-128640149D01*
X180319311Y-128640086D01*
X180085488Y-128675866D01*
X179860648Y-128749355D01*
X179856060Y-128751743D01*
X179856056Y-128751745D01*
X179655419Y-128856190D01*
X179650830Y-128858579D01*
X179646697Y-128861682D01*
X179646694Y-128861684D01*
X179581125Y-128910915D01*
X179461669Y-129000606D01*
X179458097Y-129004344D01*
X179366078Y-129100636D01*
X179304553Y-129136066D01*
X179233641Y-129132609D01*
X179181791Y-129098385D01*
X179117895Y-129028164D01*
X179117893Y-129028163D01*
X179114417Y-129024342D01*
X179110366Y-129021143D01*
X179110362Y-129021139D01*
X178932836Y-128880937D01*
X178932831Y-128880933D01*
X178928782Y-128877736D01*
X178924266Y-128875243D01*
X178924263Y-128875241D01*
X178726219Y-128765915D01*
X178726215Y-128765913D01*
X178721695Y-128763418D01*
X178716826Y-128761694D01*
X178716822Y-128761692D01*
X178503593Y-128686184D01*
X178503589Y-128686183D01*
X178498718Y-128684458D01*
X178493625Y-128683551D01*
X178493622Y-128683550D01*
X178270928Y-128643882D01*
X178270922Y-128643881D01*
X178265839Y-128642976D01*
X178174887Y-128641865D01*
X178034480Y-128640149D01*
X178034478Y-128640149D01*
X178029311Y-128640086D01*
X177795488Y-128675866D01*
X177570648Y-128749355D01*
X177566060Y-128751743D01*
X177566056Y-128751745D01*
X177365419Y-128856190D01*
X177360830Y-128858579D01*
X177356697Y-128861682D01*
X177356694Y-128861684D01*
X177291125Y-128910915D01*
X177171669Y-129000606D01*
X177168097Y-129004344D01*
X177076078Y-129100636D01*
X177014553Y-129136066D01*
X176943641Y-129132609D01*
X176891791Y-129098385D01*
X176827895Y-129028164D01*
X176827893Y-129028163D01*
X176824417Y-129024342D01*
X176820366Y-129021143D01*
X176820362Y-129021139D01*
X176642836Y-128880937D01*
X176642831Y-128880933D01*
X176638782Y-128877736D01*
X176634266Y-128875243D01*
X176634263Y-128875241D01*
X176436219Y-128765915D01*
X176436215Y-128765913D01*
X176431695Y-128763418D01*
X176426826Y-128761694D01*
X176426822Y-128761692D01*
X176213593Y-128686184D01*
X176213589Y-128686183D01*
X176208718Y-128684458D01*
X176203625Y-128683551D01*
X176203622Y-128683550D01*
X175980928Y-128643882D01*
X175980922Y-128643881D01*
X175975839Y-128642976D01*
X175884887Y-128641865D01*
X175744480Y-128640149D01*
X175744478Y-128640149D01*
X175739311Y-128640086D01*
X175505488Y-128675866D01*
X175280648Y-128749355D01*
X175276060Y-128751743D01*
X175276056Y-128751745D01*
X175075419Y-128856190D01*
X175070830Y-128858579D01*
X175066697Y-128861682D01*
X175066694Y-128861684D01*
X175001125Y-128910915D01*
X174881669Y-129000606D01*
X174878097Y-129004344D01*
X174786078Y-129100636D01*
X174724553Y-129136066D01*
X174653641Y-129132609D01*
X174601791Y-129098385D01*
X174537895Y-129028164D01*
X174537893Y-129028163D01*
X174534417Y-129024342D01*
X174530366Y-129021143D01*
X174530362Y-129021139D01*
X174352836Y-128880937D01*
X174352831Y-128880933D01*
X174348782Y-128877736D01*
X174344266Y-128875243D01*
X174344263Y-128875241D01*
X174146219Y-128765915D01*
X174146215Y-128765913D01*
X174141695Y-128763418D01*
X174136826Y-128761694D01*
X174136822Y-128761692D01*
X173923593Y-128686184D01*
X173923589Y-128686183D01*
X173918718Y-128684458D01*
X173913625Y-128683551D01*
X173913622Y-128683550D01*
X173690928Y-128643882D01*
X173690922Y-128643881D01*
X173685839Y-128642976D01*
X173594887Y-128641865D01*
X173454480Y-128640149D01*
X173454478Y-128640149D01*
X173449311Y-128640086D01*
X173215488Y-128675866D01*
X172990648Y-128749355D01*
X172986060Y-128751743D01*
X172986056Y-128751745D01*
X172785419Y-128856190D01*
X172780830Y-128858579D01*
X172776697Y-128861682D01*
X172776694Y-128861684D01*
X172711125Y-128910915D01*
X172591669Y-129000606D01*
X172588097Y-129004344D01*
X172496078Y-129100636D01*
X172434553Y-129136066D01*
X172363641Y-129132609D01*
X172311791Y-129098385D01*
X172247895Y-129028164D01*
X172247893Y-129028163D01*
X172244417Y-129024342D01*
X172240366Y-129021143D01*
X172240362Y-129021139D01*
X172062836Y-128880937D01*
X172062831Y-128880933D01*
X172058782Y-128877736D01*
X172054266Y-128875243D01*
X172054263Y-128875241D01*
X171856219Y-128765915D01*
X171856215Y-128765913D01*
X171851695Y-128763418D01*
X171846826Y-128761694D01*
X171846822Y-128761692D01*
X171633593Y-128686184D01*
X171633589Y-128686183D01*
X171628718Y-128684458D01*
X171623625Y-128683551D01*
X171623622Y-128683550D01*
X171400928Y-128643882D01*
X171400922Y-128643881D01*
X171395839Y-128642976D01*
X171304887Y-128641865D01*
X171164480Y-128640149D01*
X171164478Y-128640149D01*
X171159311Y-128640086D01*
X170925488Y-128675866D01*
X170700648Y-128749355D01*
X170696060Y-128751743D01*
X170696056Y-128751745D01*
X170495419Y-128856190D01*
X170490830Y-128858579D01*
X170486697Y-128861682D01*
X170486694Y-128861684D01*
X170421125Y-128910915D01*
X170301669Y-129000606D01*
X170298097Y-129004344D01*
X170206078Y-129100636D01*
X170144553Y-129136066D01*
X170073641Y-129132609D01*
X170021791Y-129098385D01*
X169957895Y-129028164D01*
X169957893Y-129028163D01*
X169954417Y-129024342D01*
X169950366Y-129021143D01*
X169950362Y-129021139D01*
X169772836Y-128880937D01*
X169772831Y-128880933D01*
X169768782Y-128877736D01*
X169764266Y-128875243D01*
X169764263Y-128875241D01*
X169566219Y-128765915D01*
X169566215Y-128765913D01*
X169561695Y-128763418D01*
X169556826Y-128761694D01*
X169556822Y-128761692D01*
X169343593Y-128686184D01*
X169343589Y-128686183D01*
X169338718Y-128684458D01*
X169333625Y-128683551D01*
X169333622Y-128683550D01*
X169110928Y-128643882D01*
X169110922Y-128643881D01*
X169105839Y-128642976D01*
X169014887Y-128641865D01*
X168874480Y-128640149D01*
X168874478Y-128640149D01*
X168869311Y-128640086D01*
X168635488Y-128675866D01*
X168410648Y-128749355D01*
X168406060Y-128751743D01*
X168406056Y-128751745D01*
X168205419Y-128856190D01*
X168200830Y-128858579D01*
X168196697Y-128861682D01*
X168196694Y-128861684D01*
X168131125Y-128910915D01*
X168011669Y-129000606D01*
X167848244Y-129171620D01*
X167714945Y-129367029D01*
X167712769Y-129371718D01*
X167712765Y-129371724D01*
X167622289Y-129566639D01*
X167615351Y-129581586D01*
X167552137Y-129809528D01*
X167527001Y-130044734D01*
X160540809Y-130044734D01*
X160504253Y-130004134D01*
X160377307Y-129911902D01*
X160355094Y-129895763D01*
X160355093Y-129895762D01*
X160349752Y-129891882D01*
X160343724Y-129889198D01*
X160343722Y-129889197D01*
X160181319Y-129816891D01*
X160181318Y-129816891D01*
X160175288Y-129814206D01*
X160081887Y-129794353D01*
X159994944Y-129775872D01*
X159994939Y-129775872D01*
X159988487Y-129774500D01*
X159797513Y-129774500D01*
X159791061Y-129775872D01*
X159791056Y-129775872D01*
X159704113Y-129794353D01*
X159610712Y-129814206D01*
X159604682Y-129816891D01*
X159604681Y-129816891D01*
X159442278Y-129889197D01*
X159442276Y-129889198D01*
X159436248Y-129891882D01*
X159430907Y-129895762D01*
X159430906Y-129895763D01*
X159408693Y-129911902D01*
X159281747Y-130004134D01*
X159153960Y-130146056D01*
X159144851Y-130161834D01*
X159074824Y-130283124D01*
X159058473Y-130311444D01*
X158999458Y-130493072D01*
X158998768Y-130499633D01*
X158998768Y-130499635D01*
X158990720Y-130576206D01*
X158979496Y-130683000D01*
X145412380Y-130683000D01*
X145393080Y-130486167D01*
X145335916Y-130296831D01*
X145243066Y-130122204D01*
X145150776Y-130009045D01*
X145121960Y-129973713D01*
X145121957Y-129973710D01*
X145118065Y-129968938D01*
X145111724Y-129963692D01*
X144970425Y-129846799D01*
X144970421Y-129846797D01*
X144965675Y-129842870D01*
X144791701Y-129748802D01*
X144602768Y-129690318D01*
X144596643Y-129689674D01*
X144596642Y-129689674D01*
X144412204Y-129670289D01*
X144412202Y-129670289D01*
X144406075Y-129669645D01*
X144323576Y-129677153D01*
X144215251Y-129687011D01*
X144215248Y-129687012D01*
X144209112Y-129687570D01*
X144203206Y-129689308D01*
X144203202Y-129689309D01*
X144135754Y-129709160D01*
X144019381Y-129743410D01*
X144013923Y-129746263D01*
X144013919Y-129746265D01*
X143957287Y-129775872D01*
X143844110Y-129835040D01*
X143689975Y-129958968D01*
X143562846Y-130110474D01*
X143559879Y-130115872D01*
X143559875Y-130115877D01*
X143481095Y-130259180D01*
X143467567Y-130283787D01*
X143465706Y-130289654D01*
X143465705Y-130289656D01*
X143445675Y-130352800D01*
X143407765Y-130472306D01*
X143385719Y-130668851D01*
X84508000Y-130668851D01*
X84508000Y-128385640D01*
X148284463Y-128385640D01*
X148302163Y-128566160D01*
X148359418Y-128738273D01*
X148363065Y-128744295D01*
X148363066Y-128744297D01*
X148445818Y-128880937D01*
X148453380Y-128893424D01*
X148579382Y-129023902D01*
X148731159Y-129123222D01*
X148737763Y-129125678D01*
X148737765Y-129125679D01*
X148872039Y-129175615D01*
X148928915Y-129218107D01*
X148953789Y-129284604D01*
X148946521Y-129336804D01*
X148942197Y-129348685D01*
X148919463Y-129528640D01*
X148937163Y-129709160D01*
X148994418Y-129881273D01*
X148998065Y-129887295D01*
X148998066Y-129887297D01*
X149071799Y-130009045D01*
X149088380Y-130036424D01*
X149214382Y-130166902D01*
X149366159Y-130266222D01*
X149372763Y-130268678D01*
X149372765Y-130268679D01*
X149529558Y-130326990D01*
X149529560Y-130326990D01*
X149536168Y-130329448D01*
X149619995Y-130340633D01*
X149708980Y-130352507D01*
X149708984Y-130352507D01*
X149715961Y-130353438D01*
X149722972Y-130352800D01*
X149722976Y-130352800D01*
X149865459Y-130339832D01*
X149896600Y-130336998D01*
X149903302Y-130334820D01*
X149903304Y-130334820D01*
X150062409Y-130283124D01*
X150062412Y-130283123D01*
X150069108Y-130280947D01*
X150224912Y-130188069D01*
X150356266Y-130062982D01*
X150456643Y-129911902D01*
X150498423Y-129801917D01*
X150518555Y-129748920D01*
X150518556Y-129748918D01*
X150521055Y-129742338D01*
X150522035Y-129735366D01*
X150545748Y-129566639D01*
X150545748Y-129566636D01*
X150546299Y-129562717D01*
X150546616Y-129540000D01*
X150526397Y-129359745D01*
X150524080Y-129353091D01*
X150469064Y-129195106D01*
X150469062Y-129195103D01*
X150466745Y-129188448D01*
X150423577Y-129119364D01*
X150374359Y-129040598D01*
X150370626Y-129034624D01*
X150363810Y-129027760D01*
X150247778Y-128910915D01*
X150247774Y-128910912D01*
X150242815Y-128905918D01*
X150231108Y-128898488D01*
X150164456Y-128856190D01*
X150089666Y-128808727D01*
X150061620Y-128798740D01*
X149961464Y-128763076D01*
X149904000Y-128721382D01*
X149878200Y-128655239D01*
X149884033Y-128613319D01*
X149881802Y-128612746D01*
X149883555Y-128605920D01*
X149886055Y-128599338D01*
X149887035Y-128592366D01*
X149910748Y-128423639D01*
X149910748Y-128423636D01*
X149911299Y-128419717D01*
X149911616Y-128397000D01*
X149891397Y-128216745D01*
X149889080Y-128210091D01*
X149834064Y-128052106D01*
X149834062Y-128052103D01*
X149831745Y-128045448D01*
X149735626Y-127891624D01*
X149721941Y-127877843D01*
X149612778Y-127767915D01*
X149612774Y-127767912D01*
X149607815Y-127762918D01*
X149596697Y-127755862D01*
X149548538Y-127725300D01*
X149454666Y-127665727D01*
X149425463Y-127655328D01*
X149290425Y-127607243D01*
X149290420Y-127607242D01*
X149283790Y-127604881D01*
X149276802Y-127604048D01*
X149276799Y-127604047D01*
X149153698Y-127589368D01*
X149103680Y-127583404D01*
X149096677Y-127584140D01*
X149096676Y-127584140D01*
X148930288Y-127601628D01*
X148930286Y-127601629D01*
X148923288Y-127602364D01*
X148751579Y-127660818D01*
X148745575Y-127664512D01*
X148603095Y-127752166D01*
X148603092Y-127752168D01*
X148597088Y-127755862D01*
X148592053Y-127760793D01*
X148592050Y-127760795D01*
X148472525Y-127877843D01*
X148467493Y-127882771D01*
X148369235Y-128035238D01*
X148366826Y-128041858D01*
X148366824Y-128041861D01*
X148309606Y-128199066D01*
X148307197Y-128205685D01*
X148284463Y-128385640D01*
X84508000Y-128385640D01*
X84508000Y-126619000D01*
X146406496Y-126619000D01*
X146426458Y-126808928D01*
X146485473Y-126990556D01*
X146580960Y-127155944D01*
X146708747Y-127297866D01*
X146863248Y-127410118D01*
X146869276Y-127412802D01*
X146869278Y-127412803D01*
X147031681Y-127485109D01*
X147037712Y-127487794D01*
X147131112Y-127507647D01*
X147218056Y-127526128D01*
X147218061Y-127526128D01*
X147224513Y-127527500D01*
X147415487Y-127527500D01*
X147421939Y-127526128D01*
X147421944Y-127526128D01*
X147508888Y-127507647D01*
X147602288Y-127487794D01*
X147608319Y-127485109D01*
X147770722Y-127412803D01*
X147770724Y-127412802D01*
X147776752Y-127410118D01*
X147931253Y-127297866D01*
X148059040Y-127155944D01*
X148154527Y-126990556D01*
X148213542Y-126808928D01*
X148233504Y-126619000D01*
X148213542Y-126429072D01*
X148154527Y-126247444D01*
X148150142Y-126239848D01*
X148095957Y-126145998D01*
X148059040Y-126082056D01*
X147982518Y-125997069D01*
X147935675Y-125945045D01*
X147935674Y-125945044D01*
X147931253Y-125940134D01*
X147832157Y-125868136D01*
X147782094Y-125831763D01*
X147782093Y-125831762D01*
X147776752Y-125827882D01*
X147770724Y-125825198D01*
X147770722Y-125825197D01*
X147608319Y-125752891D01*
X147608318Y-125752891D01*
X147602288Y-125750206D01*
X147492045Y-125726773D01*
X147421944Y-125711872D01*
X147421939Y-125711872D01*
X147415487Y-125710500D01*
X147224513Y-125710500D01*
X147218061Y-125711872D01*
X147218056Y-125711872D01*
X147147955Y-125726773D01*
X147037712Y-125750206D01*
X147031682Y-125752891D01*
X147031681Y-125752891D01*
X146869278Y-125825197D01*
X146869276Y-125825198D01*
X146863248Y-125827882D01*
X146857907Y-125831762D01*
X146857906Y-125831763D01*
X146807843Y-125868136D01*
X146708747Y-125940134D01*
X146704326Y-125945044D01*
X146704325Y-125945045D01*
X146657483Y-125997069D01*
X146580960Y-126082056D01*
X146544043Y-126145998D01*
X146489859Y-126239848D01*
X146485473Y-126247444D01*
X146426458Y-126429072D01*
X146406496Y-126619000D01*
X84508000Y-126619000D01*
X84508000Y-125337640D01*
X148284463Y-125337640D01*
X148302163Y-125518160D01*
X148359418Y-125690273D01*
X148363065Y-125696295D01*
X148363066Y-125696297D01*
X148445107Y-125831763D01*
X148453380Y-125845424D01*
X148579382Y-125975902D01*
X148731159Y-126075222D01*
X148737763Y-126077678D01*
X148737765Y-126077679D01*
X148894558Y-126135990D01*
X148894560Y-126135990D01*
X148901168Y-126138448D01*
X148984995Y-126149633D01*
X149073980Y-126161507D01*
X149073984Y-126161507D01*
X149080961Y-126162438D01*
X149087972Y-126161800D01*
X149087976Y-126161800D01*
X149230459Y-126148832D01*
X149261600Y-126145998D01*
X149268302Y-126143820D01*
X149268304Y-126143820D01*
X149427409Y-126092124D01*
X149427412Y-126092123D01*
X149434108Y-126089947D01*
X149589912Y-125997069D01*
X149721266Y-125871982D01*
X149821643Y-125720902D01*
X149886055Y-125551338D01*
X149888210Y-125536004D01*
X149910748Y-125375639D01*
X149910748Y-125375636D01*
X149911299Y-125371717D01*
X149911616Y-125349000D01*
X149891397Y-125168745D01*
X149889080Y-125162091D01*
X149834064Y-125004106D01*
X149834062Y-125004103D01*
X149831745Y-124997448D01*
X149811303Y-124964734D01*
X165237001Y-124964734D01*
X165237298Y-124969887D01*
X165237298Y-124969890D01*
X165238542Y-124991469D01*
X165250617Y-125200887D01*
X165251754Y-125205933D01*
X165251755Y-125205939D01*
X165272932Y-125299906D01*
X165302621Y-125431644D01*
X165304563Y-125436426D01*
X165304564Y-125436430D01*
X165353896Y-125557920D01*
X165391615Y-125650810D01*
X165394314Y-125655214D01*
X165502503Y-125831763D01*
X165515209Y-125852498D01*
X165670085Y-126031291D01*
X165674060Y-126034591D01*
X165674063Y-126034594D01*
X165718353Y-126071364D01*
X165852083Y-126182389D01*
X166056314Y-126301732D01*
X166277296Y-126386117D01*
X166282362Y-126387148D01*
X166282363Y-126387148D01*
X166385561Y-126408143D01*
X166509092Y-126433276D01*
X166642344Y-126438162D01*
X166740314Y-126441755D01*
X166740318Y-126441755D01*
X166745478Y-126441944D01*
X166750598Y-126441288D01*
X166750600Y-126441288D01*
X166974979Y-126412545D01*
X166974982Y-126412544D01*
X166980106Y-126411888D01*
X166985056Y-126410403D01*
X167201728Y-126345398D01*
X167201729Y-126345397D01*
X167206674Y-126343914D01*
X167419098Y-126239848D01*
X167423301Y-126236850D01*
X167423306Y-126236847D01*
X167607469Y-126105485D01*
X167607471Y-126105483D01*
X167611673Y-126102486D01*
X167615330Y-126098842D01*
X167736059Y-125978534D01*
X167798431Y-125944618D01*
X167869238Y-125949806D01*
X167920234Y-125985286D01*
X167960085Y-126031291D01*
X167964060Y-126034591D01*
X167964064Y-126034595D01*
X168039680Y-126097372D01*
X168142083Y-126182389D01*
X168346314Y-126301732D01*
X168567296Y-126386117D01*
X168572362Y-126387148D01*
X168572363Y-126387148D01*
X168675561Y-126408143D01*
X168799092Y-126433276D01*
X168932344Y-126438162D01*
X169030314Y-126441755D01*
X169030318Y-126441755D01*
X169035478Y-126441944D01*
X169040598Y-126441288D01*
X169040600Y-126441288D01*
X169264979Y-126412545D01*
X169264982Y-126412544D01*
X169270106Y-126411888D01*
X169275056Y-126410403D01*
X169491728Y-126345398D01*
X169491729Y-126345397D01*
X169496674Y-126343914D01*
X169709098Y-126239848D01*
X169713301Y-126236850D01*
X169713306Y-126236847D01*
X169897469Y-126105485D01*
X169897471Y-126105483D01*
X169901673Y-126102486D01*
X169905330Y-126098842D01*
X170026059Y-125978534D01*
X170088431Y-125944618D01*
X170159238Y-125949806D01*
X170210234Y-125985286D01*
X170250085Y-126031291D01*
X170254060Y-126034591D01*
X170254064Y-126034595D01*
X170329680Y-126097372D01*
X170432083Y-126182389D01*
X170636314Y-126301732D01*
X170857296Y-126386117D01*
X170862362Y-126387148D01*
X170862363Y-126387148D01*
X170965561Y-126408143D01*
X171089092Y-126433276D01*
X171222344Y-126438162D01*
X171320314Y-126441755D01*
X171320318Y-126441755D01*
X171325478Y-126441944D01*
X171330598Y-126441288D01*
X171330600Y-126441288D01*
X171554979Y-126412545D01*
X171554982Y-126412544D01*
X171560106Y-126411888D01*
X171565056Y-126410403D01*
X171781728Y-126345398D01*
X171781729Y-126345397D01*
X171786674Y-126343914D01*
X171999098Y-126239848D01*
X172003301Y-126236850D01*
X172003306Y-126236847D01*
X172187469Y-126105485D01*
X172187471Y-126105483D01*
X172191673Y-126102486D01*
X172195330Y-126098842D01*
X172316059Y-125978534D01*
X172378431Y-125944618D01*
X172449238Y-125949806D01*
X172500234Y-125985286D01*
X172540085Y-126031291D01*
X172544060Y-126034591D01*
X172544064Y-126034595D01*
X172619680Y-126097372D01*
X172722083Y-126182389D01*
X172926314Y-126301732D01*
X173147296Y-126386117D01*
X173152362Y-126387148D01*
X173152363Y-126387148D01*
X173255561Y-126408143D01*
X173379092Y-126433276D01*
X173512344Y-126438162D01*
X173610314Y-126441755D01*
X173610318Y-126441755D01*
X173615478Y-126441944D01*
X173620598Y-126441288D01*
X173620600Y-126441288D01*
X173844979Y-126412545D01*
X173844982Y-126412544D01*
X173850106Y-126411888D01*
X173855056Y-126410403D01*
X174071728Y-126345398D01*
X174071729Y-126345397D01*
X174076674Y-126343914D01*
X174289098Y-126239848D01*
X174293301Y-126236850D01*
X174293306Y-126236847D01*
X174477469Y-126105485D01*
X174477471Y-126105483D01*
X174481673Y-126102486D01*
X174485330Y-126098842D01*
X174606059Y-125978534D01*
X174668431Y-125944618D01*
X174739238Y-125949806D01*
X174790234Y-125985286D01*
X174830085Y-126031291D01*
X174834060Y-126034591D01*
X174834064Y-126034595D01*
X174909680Y-126097372D01*
X175012083Y-126182389D01*
X175216314Y-126301732D01*
X175437296Y-126386117D01*
X175442362Y-126387148D01*
X175442363Y-126387148D01*
X175545561Y-126408143D01*
X175669092Y-126433276D01*
X175802344Y-126438162D01*
X175900314Y-126441755D01*
X175900318Y-126441755D01*
X175905478Y-126441944D01*
X175910598Y-126441288D01*
X175910600Y-126441288D01*
X176134979Y-126412545D01*
X176134982Y-126412544D01*
X176140106Y-126411888D01*
X176145056Y-126410403D01*
X176361728Y-126345398D01*
X176361729Y-126345397D01*
X176366674Y-126343914D01*
X176579098Y-126239848D01*
X176583301Y-126236850D01*
X176583306Y-126236847D01*
X176767469Y-126105485D01*
X176767471Y-126105483D01*
X176771673Y-126102486D01*
X176775330Y-126098842D01*
X176896059Y-125978534D01*
X176958431Y-125944618D01*
X177029238Y-125949806D01*
X177080234Y-125985286D01*
X177120085Y-126031291D01*
X177124060Y-126034591D01*
X177124064Y-126034595D01*
X177199680Y-126097372D01*
X177302083Y-126182389D01*
X177506314Y-126301732D01*
X177727296Y-126386117D01*
X177732362Y-126387148D01*
X177732363Y-126387148D01*
X177835561Y-126408143D01*
X177959092Y-126433276D01*
X178092344Y-126438162D01*
X178190314Y-126441755D01*
X178190318Y-126441755D01*
X178195478Y-126441944D01*
X178200598Y-126441288D01*
X178200600Y-126441288D01*
X178424979Y-126412545D01*
X178424982Y-126412544D01*
X178430106Y-126411888D01*
X178435056Y-126410403D01*
X178651728Y-126345398D01*
X178651729Y-126345397D01*
X178656674Y-126343914D01*
X178869098Y-126239848D01*
X178873301Y-126236850D01*
X178873306Y-126236847D01*
X179057469Y-126105485D01*
X179057471Y-126105483D01*
X179061673Y-126102486D01*
X179065330Y-126098842D01*
X179186059Y-125978534D01*
X179248431Y-125944618D01*
X179319238Y-125949806D01*
X179370234Y-125985286D01*
X179410085Y-126031291D01*
X179414060Y-126034591D01*
X179414064Y-126034595D01*
X179489680Y-126097372D01*
X179592083Y-126182389D01*
X179796314Y-126301732D01*
X180017296Y-126386117D01*
X180022362Y-126387148D01*
X180022363Y-126387148D01*
X180125561Y-126408143D01*
X180249092Y-126433276D01*
X180382344Y-126438162D01*
X180480314Y-126441755D01*
X180480318Y-126441755D01*
X180485478Y-126441944D01*
X180490598Y-126441288D01*
X180490600Y-126441288D01*
X180714979Y-126412545D01*
X180714982Y-126412544D01*
X180720106Y-126411888D01*
X180725056Y-126410403D01*
X180941728Y-126345398D01*
X180941729Y-126345397D01*
X180946674Y-126343914D01*
X181159098Y-126239848D01*
X181163301Y-126236850D01*
X181163306Y-126236847D01*
X181347469Y-126105485D01*
X181347471Y-126105483D01*
X181351673Y-126102486D01*
X181355330Y-126098842D01*
X181476059Y-125978534D01*
X181538431Y-125944618D01*
X181609238Y-125949806D01*
X181660234Y-125985286D01*
X181700085Y-126031291D01*
X181704060Y-126034591D01*
X181704064Y-126034595D01*
X181779680Y-126097372D01*
X181882083Y-126182389D01*
X182086314Y-126301732D01*
X182307296Y-126386117D01*
X182312362Y-126387148D01*
X182312363Y-126387148D01*
X182415561Y-126408143D01*
X182539092Y-126433276D01*
X182672344Y-126438162D01*
X182770314Y-126441755D01*
X182770318Y-126441755D01*
X182775478Y-126441944D01*
X182780598Y-126441288D01*
X182780600Y-126441288D01*
X183004979Y-126412545D01*
X183004982Y-126412544D01*
X183010106Y-126411888D01*
X183015056Y-126410403D01*
X183231728Y-126345398D01*
X183231729Y-126345397D01*
X183236674Y-126343914D01*
X183449098Y-126239848D01*
X183453301Y-126236850D01*
X183453306Y-126236847D01*
X183637469Y-126105485D01*
X183637471Y-126105483D01*
X183641673Y-126102486D01*
X183645330Y-126098842D01*
X183766059Y-125978534D01*
X183828431Y-125944618D01*
X183899238Y-125949806D01*
X183950234Y-125985286D01*
X183990085Y-126031291D01*
X183994060Y-126034591D01*
X183994064Y-126034595D01*
X184069680Y-126097372D01*
X184172083Y-126182389D01*
X184376314Y-126301732D01*
X184597296Y-126386117D01*
X184602362Y-126387148D01*
X184602363Y-126387148D01*
X184705561Y-126408143D01*
X184829092Y-126433276D01*
X184962344Y-126438162D01*
X185060314Y-126441755D01*
X185060318Y-126441755D01*
X185065478Y-126441944D01*
X185070598Y-126441288D01*
X185070600Y-126441288D01*
X185294979Y-126412545D01*
X185294982Y-126412544D01*
X185300106Y-126411888D01*
X185305056Y-126410403D01*
X185521728Y-126345398D01*
X185521729Y-126345397D01*
X185526674Y-126343914D01*
X185739098Y-126239848D01*
X185743301Y-126236850D01*
X185743306Y-126236847D01*
X185927469Y-126105485D01*
X185927471Y-126105483D01*
X185931673Y-126102486D01*
X186099227Y-125935516D01*
X186149100Y-125866111D01*
X186234243Y-125747621D01*
X186237261Y-125743421D01*
X186252854Y-125711872D01*
X186339773Y-125536004D01*
X186339774Y-125536002D01*
X186342067Y-125531362D01*
X186410831Y-125305033D01*
X186441707Y-125070511D01*
X186443430Y-125000000D01*
X186424048Y-124764250D01*
X186366422Y-124534832D01*
X186272100Y-124317906D01*
X186143615Y-124119298D01*
X186138793Y-124113998D01*
X185987895Y-123948164D01*
X185987893Y-123948163D01*
X185984417Y-123944342D01*
X185980366Y-123941143D01*
X185980362Y-123941139D01*
X185802836Y-123800937D01*
X185802831Y-123800933D01*
X185798782Y-123797736D01*
X185794266Y-123795243D01*
X185794263Y-123795241D01*
X185596219Y-123685915D01*
X185596215Y-123685913D01*
X185591695Y-123683418D01*
X185586826Y-123681694D01*
X185586822Y-123681692D01*
X185373593Y-123606184D01*
X185373589Y-123606183D01*
X185368718Y-123604458D01*
X185363625Y-123603551D01*
X185363622Y-123603550D01*
X185140928Y-123563882D01*
X185140922Y-123563881D01*
X185135839Y-123562976D01*
X185044887Y-123561865D01*
X184904480Y-123560149D01*
X184904478Y-123560149D01*
X184899311Y-123560086D01*
X184665488Y-123595866D01*
X184440648Y-123669355D01*
X184436060Y-123671743D01*
X184436056Y-123671745D01*
X184408836Y-123685915D01*
X184230830Y-123778579D01*
X184226697Y-123781682D01*
X184226694Y-123781684D01*
X184045804Y-123917501D01*
X184041669Y-123920606D01*
X184038097Y-123924344D01*
X183946078Y-124020636D01*
X183884553Y-124056066D01*
X183813641Y-124052609D01*
X183761791Y-124018385D01*
X183697895Y-123948164D01*
X183697893Y-123948163D01*
X183694417Y-123944342D01*
X183690366Y-123941143D01*
X183690362Y-123941139D01*
X183512836Y-123800937D01*
X183512831Y-123800933D01*
X183508782Y-123797736D01*
X183504266Y-123795243D01*
X183504263Y-123795241D01*
X183306219Y-123685915D01*
X183306215Y-123685913D01*
X183301695Y-123683418D01*
X183296826Y-123681694D01*
X183296822Y-123681692D01*
X183083593Y-123606184D01*
X183083589Y-123606183D01*
X183078718Y-123604458D01*
X183073625Y-123603551D01*
X183073622Y-123603550D01*
X182850928Y-123563882D01*
X182850922Y-123563881D01*
X182845839Y-123562976D01*
X182754887Y-123561865D01*
X182614480Y-123560149D01*
X182614478Y-123560149D01*
X182609311Y-123560086D01*
X182375488Y-123595866D01*
X182150648Y-123669355D01*
X182146060Y-123671743D01*
X182146056Y-123671745D01*
X182118836Y-123685915D01*
X181940830Y-123778579D01*
X181936697Y-123781682D01*
X181936694Y-123781684D01*
X181755804Y-123917501D01*
X181751669Y-123920606D01*
X181748097Y-123924344D01*
X181656078Y-124020636D01*
X181594553Y-124056066D01*
X181523641Y-124052609D01*
X181471791Y-124018385D01*
X181407895Y-123948164D01*
X181407893Y-123948163D01*
X181404417Y-123944342D01*
X181400366Y-123941143D01*
X181400362Y-123941139D01*
X181222836Y-123800937D01*
X181222831Y-123800933D01*
X181218782Y-123797736D01*
X181214266Y-123795243D01*
X181214263Y-123795241D01*
X181016219Y-123685915D01*
X181016215Y-123685913D01*
X181011695Y-123683418D01*
X181006826Y-123681694D01*
X181006822Y-123681692D01*
X180793593Y-123606184D01*
X180793589Y-123606183D01*
X180788718Y-123604458D01*
X180783625Y-123603551D01*
X180783622Y-123603550D01*
X180560928Y-123563882D01*
X180560922Y-123563881D01*
X180555839Y-123562976D01*
X180464887Y-123561865D01*
X180324480Y-123560149D01*
X180324478Y-123560149D01*
X180319311Y-123560086D01*
X180085488Y-123595866D01*
X179860648Y-123669355D01*
X179856060Y-123671743D01*
X179856056Y-123671745D01*
X179828836Y-123685915D01*
X179650830Y-123778579D01*
X179646697Y-123781682D01*
X179646694Y-123781684D01*
X179465804Y-123917501D01*
X179461669Y-123920606D01*
X179458097Y-123924344D01*
X179366078Y-124020636D01*
X179304553Y-124056066D01*
X179233641Y-124052609D01*
X179181791Y-124018385D01*
X179117895Y-123948164D01*
X179117893Y-123948163D01*
X179114417Y-123944342D01*
X179110366Y-123941143D01*
X179110362Y-123941139D01*
X178932836Y-123800937D01*
X178932831Y-123800933D01*
X178928782Y-123797736D01*
X178924266Y-123795243D01*
X178924263Y-123795241D01*
X178726219Y-123685915D01*
X178726215Y-123685913D01*
X178721695Y-123683418D01*
X178716826Y-123681694D01*
X178716822Y-123681692D01*
X178503593Y-123606184D01*
X178503589Y-123606183D01*
X178498718Y-123604458D01*
X178493625Y-123603551D01*
X178493622Y-123603550D01*
X178270928Y-123563882D01*
X178270922Y-123563881D01*
X178265839Y-123562976D01*
X178174887Y-123561865D01*
X178034480Y-123560149D01*
X178034478Y-123560149D01*
X178029311Y-123560086D01*
X177795488Y-123595866D01*
X177570648Y-123669355D01*
X177566060Y-123671743D01*
X177566056Y-123671745D01*
X177538836Y-123685915D01*
X177360830Y-123778579D01*
X177356697Y-123781682D01*
X177356694Y-123781684D01*
X177175804Y-123917501D01*
X177171669Y-123920606D01*
X177168097Y-123924344D01*
X177076078Y-124020636D01*
X177014553Y-124056066D01*
X176943641Y-124052609D01*
X176891791Y-124018385D01*
X176827895Y-123948164D01*
X176827893Y-123948163D01*
X176824417Y-123944342D01*
X176820366Y-123941143D01*
X176820362Y-123941139D01*
X176642836Y-123800937D01*
X176642831Y-123800933D01*
X176638782Y-123797736D01*
X176634266Y-123795243D01*
X176634263Y-123795241D01*
X176436219Y-123685915D01*
X176436215Y-123685913D01*
X176431695Y-123683418D01*
X176426826Y-123681694D01*
X176426822Y-123681692D01*
X176213593Y-123606184D01*
X176213589Y-123606183D01*
X176208718Y-123604458D01*
X176203625Y-123603551D01*
X176203622Y-123603550D01*
X175980928Y-123563882D01*
X175980922Y-123563881D01*
X175975839Y-123562976D01*
X175884887Y-123561865D01*
X175744480Y-123560149D01*
X175744478Y-123560149D01*
X175739311Y-123560086D01*
X175505488Y-123595866D01*
X175280648Y-123669355D01*
X175276060Y-123671743D01*
X175276056Y-123671745D01*
X175248836Y-123685915D01*
X175070830Y-123778579D01*
X175066697Y-123781682D01*
X175066694Y-123781684D01*
X174885804Y-123917501D01*
X174881669Y-123920606D01*
X174878097Y-123924344D01*
X174786078Y-124020636D01*
X174724553Y-124056066D01*
X174653641Y-124052609D01*
X174601791Y-124018385D01*
X174537895Y-123948164D01*
X174537893Y-123948163D01*
X174534417Y-123944342D01*
X174530366Y-123941143D01*
X174530362Y-123941139D01*
X174352836Y-123800937D01*
X174352831Y-123800933D01*
X174348782Y-123797736D01*
X174344266Y-123795243D01*
X174344263Y-123795241D01*
X174146219Y-123685915D01*
X174146215Y-123685913D01*
X174141695Y-123683418D01*
X174136826Y-123681694D01*
X174136822Y-123681692D01*
X173923593Y-123606184D01*
X173923589Y-123606183D01*
X173918718Y-123604458D01*
X173913625Y-123603551D01*
X173913622Y-123603550D01*
X173690928Y-123563882D01*
X173690922Y-123563881D01*
X173685839Y-123562976D01*
X173594887Y-123561865D01*
X173454480Y-123560149D01*
X173454478Y-123560149D01*
X173449311Y-123560086D01*
X173215488Y-123595866D01*
X172990648Y-123669355D01*
X172986060Y-123671743D01*
X172986056Y-123671745D01*
X172958836Y-123685915D01*
X172780830Y-123778579D01*
X172776697Y-123781682D01*
X172776694Y-123781684D01*
X172595804Y-123917501D01*
X172591669Y-123920606D01*
X172588097Y-123924344D01*
X172496078Y-124020636D01*
X172434553Y-124056066D01*
X172363641Y-124052609D01*
X172311791Y-124018385D01*
X172247895Y-123948164D01*
X172247893Y-123948163D01*
X172244417Y-123944342D01*
X172240366Y-123941143D01*
X172240362Y-123941139D01*
X172062836Y-123800937D01*
X172062831Y-123800933D01*
X172058782Y-123797736D01*
X172054266Y-123795243D01*
X172054263Y-123795241D01*
X171856219Y-123685915D01*
X171856215Y-123685913D01*
X171851695Y-123683418D01*
X171846826Y-123681694D01*
X171846822Y-123681692D01*
X171633593Y-123606184D01*
X171633589Y-123606183D01*
X171628718Y-123604458D01*
X171623625Y-123603551D01*
X171623622Y-123603550D01*
X171400928Y-123563882D01*
X171400922Y-123563881D01*
X171395839Y-123562976D01*
X171304887Y-123561865D01*
X171164480Y-123560149D01*
X171164478Y-123560149D01*
X171159311Y-123560086D01*
X170925488Y-123595866D01*
X170700648Y-123669355D01*
X170696060Y-123671743D01*
X170696056Y-123671745D01*
X170668836Y-123685915D01*
X170490830Y-123778579D01*
X170486697Y-123781682D01*
X170486694Y-123781684D01*
X170305804Y-123917501D01*
X170301669Y-123920606D01*
X170298097Y-123924344D01*
X170206078Y-124020636D01*
X170144553Y-124056066D01*
X170073641Y-124052609D01*
X170021791Y-124018385D01*
X169957895Y-123948164D01*
X169957893Y-123948163D01*
X169954417Y-123944342D01*
X169950366Y-123941143D01*
X169950362Y-123941139D01*
X169772836Y-123800937D01*
X169772831Y-123800933D01*
X169768782Y-123797736D01*
X169764266Y-123795243D01*
X169764263Y-123795241D01*
X169566219Y-123685915D01*
X169566215Y-123685913D01*
X169561695Y-123683418D01*
X169556826Y-123681694D01*
X169556822Y-123681692D01*
X169343593Y-123606184D01*
X169343589Y-123606183D01*
X169338718Y-123604458D01*
X169333625Y-123603551D01*
X169333622Y-123603550D01*
X169110928Y-123563882D01*
X169110922Y-123563881D01*
X169105839Y-123562976D01*
X169014887Y-123561865D01*
X168874480Y-123560149D01*
X168874478Y-123560149D01*
X168869311Y-123560086D01*
X168635488Y-123595866D01*
X168410648Y-123669355D01*
X168406060Y-123671743D01*
X168406056Y-123671745D01*
X168378836Y-123685915D01*
X168200830Y-123778579D01*
X168196697Y-123781682D01*
X168196694Y-123781684D01*
X168015804Y-123917501D01*
X168011669Y-123920606D01*
X168008097Y-123924344D01*
X167916078Y-124020636D01*
X167854553Y-124056066D01*
X167783641Y-124052609D01*
X167731791Y-124018385D01*
X167667895Y-123948164D01*
X167667893Y-123948163D01*
X167664417Y-123944342D01*
X167660366Y-123941143D01*
X167660362Y-123941139D01*
X167482836Y-123800937D01*
X167482831Y-123800933D01*
X167478782Y-123797736D01*
X167474266Y-123795243D01*
X167474263Y-123795241D01*
X167276219Y-123685915D01*
X167276215Y-123685913D01*
X167271695Y-123683418D01*
X167266826Y-123681694D01*
X167266822Y-123681692D01*
X167053593Y-123606184D01*
X167053589Y-123606183D01*
X167048718Y-123604458D01*
X167043625Y-123603551D01*
X167043622Y-123603550D01*
X166820928Y-123563882D01*
X166820922Y-123563881D01*
X166815839Y-123562976D01*
X166724887Y-123561865D01*
X166584480Y-123560149D01*
X166584478Y-123560149D01*
X166579311Y-123560086D01*
X166345488Y-123595866D01*
X166120648Y-123669355D01*
X166116060Y-123671743D01*
X166116056Y-123671745D01*
X166088836Y-123685915D01*
X165910830Y-123778579D01*
X165906697Y-123781682D01*
X165906694Y-123781684D01*
X165725804Y-123917501D01*
X165721669Y-123920606D01*
X165558244Y-124091620D01*
X165424945Y-124287029D01*
X165422769Y-124291718D01*
X165422765Y-124291724D01*
X165327530Y-124496891D01*
X165325351Y-124501586D01*
X165262137Y-124729528D01*
X165237001Y-124964734D01*
X149811303Y-124964734D01*
X149735626Y-124843624D01*
X149721941Y-124829843D01*
X149612778Y-124719915D01*
X149612774Y-124719912D01*
X149607815Y-124714918D01*
X149596697Y-124707862D01*
X149543912Y-124674364D01*
X149454666Y-124617727D01*
X149415209Y-124603677D01*
X149290425Y-124559243D01*
X149290420Y-124559242D01*
X149283790Y-124556881D01*
X149276802Y-124556048D01*
X149276799Y-124556047D01*
X149153698Y-124541368D01*
X149103680Y-124535404D01*
X149096677Y-124536140D01*
X149096676Y-124536140D01*
X148930288Y-124553628D01*
X148930286Y-124553629D01*
X148923288Y-124554364D01*
X148751579Y-124612818D01*
X148745575Y-124616512D01*
X148603095Y-124704166D01*
X148603092Y-124704168D01*
X148597088Y-124707862D01*
X148592053Y-124712793D01*
X148592050Y-124712795D01*
X148538293Y-124765438D01*
X148467493Y-124834771D01*
X148369235Y-124987238D01*
X148366826Y-124993858D01*
X148366824Y-124993861D01*
X148340145Y-125067161D01*
X148307197Y-125157685D01*
X148284463Y-125337640D01*
X84508000Y-125337640D01*
X84508000Y-123940640D01*
X144982463Y-123940640D01*
X145000163Y-124121160D01*
X145057418Y-124293273D01*
X145061065Y-124299295D01*
X145061066Y-124299297D01*
X145071978Y-124317314D01*
X145151380Y-124448424D01*
X145277382Y-124578902D01*
X145429159Y-124678222D01*
X145435763Y-124680678D01*
X145435765Y-124680679D01*
X145592558Y-124738990D01*
X145592560Y-124738990D01*
X145599168Y-124741448D01*
X145682995Y-124752633D01*
X145771980Y-124764507D01*
X145771984Y-124764507D01*
X145778961Y-124765438D01*
X145785972Y-124764800D01*
X145785976Y-124764800D01*
X145928459Y-124751832D01*
X145959600Y-124748998D01*
X145966302Y-124746820D01*
X145966304Y-124746820D01*
X146125409Y-124695124D01*
X146125412Y-124695123D01*
X146132108Y-124692947D01*
X146251951Y-124621506D01*
X146281860Y-124603677D01*
X146281862Y-124603676D01*
X146287912Y-124600069D01*
X146419266Y-124474982D01*
X146519643Y-124323902D01*
X146584055Y-124154338D01*
X146587545Y-124129507D01*
X146608748Y-123978639D01*
X146608748Y-123978636D01*
X146609299Y-123974717D01*
X146609452Y-123963738D01*
X146609561Y-123955962D01*
X146609561Y-123955957D01*
X146609616Y-123952000D01*
X146589397Y-123771745D01*
X146587080Y-123765091D01*
X146532064Y-123607106D01*
X146532062Y-123607103D01*
X146529745Y-123600448D01*
X146433626Y-123446624D01*
X146419941Y-123432843D01*
X146310778Y-123322915D01*
X146310774Y-123322912D01*
X146305815Y-123317918D01*
X146298164Y-123313062D01*
X146246538Y-123280300D01*
X146152666Y-123220727D01*
X146123463Y-123210328D01*
X145988425Y-123162243D01*
X145988420Y-123162242D01*
X145981790Y-123159881D01*
X145974802Y-123159048D01*
X145974799Y-123159047D01*
X145846462Y-123143744D01*
X145801680Y-123138404D01*
X145794677Y-123139140D01*
X145794676Y-123139140D01*
X145628288Y-123156628D01*
X145628286Y-123156629D01*
X145621288Y-123157364D01*
X145449579Y-123215818D01*
X145443575Y-123219512D01*
X145301095Y-123307166D01*
X145301092Y-123307168D01*
X145295088Y-123310862D01*
X145290053Y-123315793D01*
X145290050Y-123315795D01*
X145269666Y-123335757D01*
X145165493Y-123437771D01*
X145067235Y-123590238D01*
X145064826Y-123596858D01*
X145064824Y-123596861D01*
X145033948Y-123681692D01*
X145005197Y-123760685D01*
X144982463Y-123940640D01*
X84508000Y-123940640D01*
X84508000Y-121654640D01*
X148792463Y-121654640D01*
X148810163Y-121835160D01*
X148867418Y-122007273D01*
X148871065Y-122013295D01*
X148871066Y-122013297D01*
X148881978Y-122031314D01*
X148961380Y-122162424D01*
X148966269Y-122167487D01*
X148966270Y-122167488D01*
X148981357Y-122183111D01*
X149087382Y-122292902D01*
X149239159Y-122392222D01*
X149245763Y-122394678D01*
X149245765Y-122394679D01*
X149402558Y-122452990D01*
X149402560Y-122452990D01*
X149409168Y-122455448D01*
X149416153Y-122456380D01*
X149416157Y-122456381D01*
X149495407Y-122466955D01*
X149530656Y-122471658D01*
X149595532Y-122500494D01*
X149634520Y-122559827D01*
X149635241Y-122630820D01*
X149602149Y-122686574D01*
X149483493Y-122802771D01*
X149385235Y-122955238D01*
X149382826Y-122961858D01*
X149382824Y-122961861D01*
X149325606Y-123119066D01*
X149323197Y-123125685D01*
X149300463Y-123305640D01*
X149318163Y-123486160D01*
X149375418Y-123658273D01*
X149379065Y-123664295D01*
X149379066Y-123664297D01*
X149461818Y-123800937D01*
X149469380Y-123813424D01*
X149595382Y-123943902D01*
X149747159Y-124043222D01*
X149753763Y-124045678D01*
X149753765Y-124045679D01*
X149910558Y-124103990D01*
X149910560Y-124103990D01*
X149917168Y-124106448D01*
X150000995Y-124117633D01*
X150089980Y-124129507D01*
X150089984Y-124129507D01*
X150096961Y-124130438D01*
X150103972Y-124129800D01*
X150103976Y-124129800D01*
X150261404Y-124115472D01*
X150277600Y-124113998D01*
X150284302Y-124111820D01*
X150284304Y-124111820D01*
X150443409Y-124060124D01*
X150443412Y-124060123D01*
X150450108Y-124057947D01*
X150583148Y-123978639D01*
X150599860Y-123968677D01*
X150599862Y-123968676D01*
X150605912Y-123965069D01*
X150737266Y-123839982D01*
X150837643Y-123688902D01*
X150902055Y-123519338D01*
X150903035Y-123512366D01*
X150926748Y-123343639D01*
X150926748Y-123343636D01*
X150927299Y-123339717D01*
X150927452Y-123328738D01*
X150927561Y-123320962D01*
X150927561Y-123320957D01*
X150927616Y-123317000D01*
X150907397Y-123136745D01*
X150905080Y-123130091D01*
X150850064Y-122972106D01*
X150850062Y-122972103D01*
X150847745Y-122965448D01*
X150751626Y-122811624D01*
X150642268Y-122701500D01*
X150628778Y-122687915D01*
X150628774Y-122687912D01*
X150623815Y-122682918D01*
X150612697Y-122675862D01*
X150541721Y-122630820D01*
X150470666Y-122585727D01*
X150441463Y-122575328D01*
X150306425Y-122527243D01*
X150306420Y-122527242D01*
X150299790Y-122524881D01*
X150292802Y-122524048D01*
X150292799Y-122524047D01*
X150216947Y-122515002D01*
X150189519Y-122511732D01*
X150124246Y-122483805D01*
X150084433Y-122425021D01*
X150082721Y-122354045D01*
X150117546Y-122295373D01*
X150224159Y-122193846D01*
X150224162Y-122193843D01*
X150229266Y-122188982D01*
X150329643Y-122037902D01*
X150394055Y-121868338D01*
X150395035Y-121861366D01*
X150404643Y-121793000D01*
X154026496Y-121793000D01*
X154046458Y-121982928D01*
X154105473Y-122164556D01*
X154200960Y-122329944D01*
X154205378Y-122334851D01*
X154205379Y-122334852D01*
X154311751Y-122452990D01*
X154328747Y-122471866D01*
X154483248Y-122584118D01*
X154489276Y-122586802D01*
X154489278Y-122586803D01*
X154651681Y-122659109D01*
X154657712Y-122661794D01*
X154739332Y-122679143D01*
X154838056Y-122700128D01*
X154838061Y-122700128D01*
X154844513Y-122701500D01*
X155035487Y-122701500D01*
X155041939Y-122700128D01*
X155041944Y-122700128D01*
X155140668Y-122679143D01*
X155222288Y-122661794D01*
X155228319Y-122659109D01*
X155390722Y-122586803D01*
X155390724Y-122586802D01*
X155396752Y-122584118D01*
X155551253Y-122471866D01*
X155568249Y-122452990D01*
X155674621Y-122334852D01*
X155674622Y-122334851D01*
X155679040Y-122329944D01*
X155774527Y-122164556D01*
X155833542Y-121982928D01*
X155853504Y-121793000D01*
X155833542Y-121603072D01*
X155774527Y-121421444D01*
X155679040Y-121256056D01*
X155588614Y-121155627D01*
X155555675Y-121119045D01*
X155555674Y-121119044D01*
X155551253Y-121114134D01*
X155412033Y-121012984D01*
X155402094Y-121005763D01*
X155402093Y-121005762D01*
X155396752Y-121001882D01*
X155390724Y-120999198D01*
X155390722Y-120999197D01*
X155228319Y-120926891D01*
X155228318Y-120926891D01*
X155222288Y-120924206D01*
X155128888Y-120904353D01*
X155041944Y-120885872D01*
X155041939Y-120885872D01*
X155035487Y-120884500D01*
X154844513Y-120884500D01*
X154838061Y-120885872D01*
X154838056Y-120885872D01*
X154751112Y-120904353D01*
X154657712Y-120924206D01*
X154651682Y-120926891D01*
X154651681Y-120926891D01*
X154489278Y-120999197D01*
X154489276Y-120999198D01*
X154483248Y-121001882D01*
X154477907Y-121005762D01*
X154477906Y-121005763D01*
X154467967Y-121012984D01*
X154328747Y-121114134D01*
X154324326Y-121119044D01*
X154324325Y-121119045D01*
X154291387Y-121155627D01*
X154200960Y-121256056D01*
X154105473Y-121421444D01*
X154046458Y-121603072D01*
X154026496Y-121793000D01*
X150404643Y-121793000D01*
X150418748Y-121692639D01*
X150418748Y-121692636D01*
X150419299Y-121688717D01*
X150419616Y-121666000D01*
X150399397Y-121485745D01*
X150397080Y-121479091D01*
X150342064Y-121321106D01*
X150342062Y-121321103D01*
X150339745Y-121314448D01*
X150310382Y-121267457D01*
X150247359Y-121166598D01*
X150243626Y-121160624D01*
X150210637Y-121127404D01*
X150120778Y-121036915D01*
X150120774Y-121036912D01*
X150115815Y-121031918D01*
X150109147Y-121027686D01*
X150029196Y-120976948D01*
X149962666Y-120934727D01*
X149933463Y-120924328D01*
X149798425Y-120876243D01*
X149798420Y-120876242D01*
X149791790Y-120873881D01*
X149784802Y-120873048D01*
X149784799Y-120873047D01*
X149657041Y-120857813D01*
X149611680Y-120852404D01*
X149604677Y-120853140D01*
X149604676Y-120853140D01*
X149438288Y-120870628D01*
X149438286Y-120870629D01*
X149431288Y-120871364D01*
X149259579Y-120929818D01*
X149208151Y-120961457D01*
X149111095Y-121021166D01*
X149111092Y-121021168D01*
X149105088Y-121024862D01*
X149100053Y-121029793D01*
X149100050Y-121029795D01*
X148980525Y-121146843D01*
X148975493Y-121151771D01*
X148877235Y-121304238D01*
X148874826Y-121310858D01*
X148874824Y-121310861D01*
X148817606Y-121468066D01*
X148815197Y-121474685D01*
X148792463Y-121654640D01*
X84508000Y-121654640D01*
X84508000Y-120000851D01*
X91823719Y-120000851D01*
X91824235Y-120006995D01*
X91836972Y-120158677D01*
X91840268Y-120197934D01*
X91859641Y-120265495D01*
X91875396Y-120320438D01*
X91894783Y-120388050D01*
X91897602Y-120393535D01*
X91979014Y-120551944D01*
X91985187Y-120563956D01*
X92108035Y-120718953D01*
X92112728Y-120722947D01*
X92112729Y-120722948D01*
X92224364Y-120817956D01*
X92258650Y-120847136D01*
X92431294Y-120943624D01*
X92619392Y-121004740D01*
X92815777Y-121028158D01*
X92821912Y-121027686D01*
X92821914Y-121027686D01*
X93006830Y-121013457D01*
X93006834Y-121013456D01*
X93012972Y-121012984D01*
X93203463Y-120959798D01*
X93208967Y-120957018D01*
X93208969Y-120957017D01*
X93374495Y-120873404D01*
X93374497Y-120873403D01*
X93379996Y-120870625D01*
X93535847Y-120748861D01*
X93665078Y-120599145D01*
X93762769Y-120427179D01*
X93820095Y-120254851D01*
X108079719Y-120254851D01*
X108083212Y-120296448D01*
X108094640Y-120432542D01*
X108096268Y-120451934D01*
X108097967Y-120457858D01*
X108139819Y-120603813D01*
X108150783Y-120642050D01*
X108241187Y-120817956D01*
X108364035Y-120972953D01*
X108368728Y-120976947D01*
X108368729Y-120976948D01*
X108399148Y-121002836D01*
X108514650Y-121101136D01*
X108687294Y-121197624D01*
X108875392Y-121258740D01*
X109071777Y-121282158D01*
X109077912Y-121281686D01*
X109077914Y-121281686D01*
X109262830Y-121267457D01*
X109262834Y-121267456D01*
X109268972Y-121266984D01*
X109459463Y-121213798D01*
X109464967Y-121211018D01*
X109464969Y-121211017D01*
X109630495Y-121127404D01*
X109630497Y-121127403D01*
X109635996Y-121124625D01*
X109791847Y-121002861D01*
X109896940Y-120881109D01*
X109917049Y-120857813D01*
X109917050Y-120857811D01*
X109921078Y-120853145D01*
X110018769Y-120681179D01*
X110081197Y-120493513D01*
X110105985Y-120297295D01*
X110106380Y-120269000D01*
X110087080Y-120072167D01*
X110069820Y-120015000D01*
X140056496Y-120015000D01*
X140057186Y-120021565D01*
X140059100Y-120039771D01*
X140076458Y-120204928D01*
X140135473Y-120386556D01*
X140138776Y-120392278D01*
X140138777Y-120392279D01*
X140158927Y-120427179D01*
X140230960Y-120551944D01*
X140235378Y-120556851D01*
X140235379Y-120556852D01*
X140352152Y-120686542D01*
X140358747Y-120693866D01*
X140513248Y-120806118D01*
X140519276Y-120808802D01*
X140519278Y-120808803D01*
X140664890Y-120873633D01*
X140687712Y-120883794D01*
X140781112Y-120903647D01*
X140868056Y-120922128D01*
X140868061Y-120922128D01*
X140874513Y-120923500D01*
X141065487Y-120923500D01*
X141071939Y-120922128D01*
X141071944Y-120922128D01*
X141158888Y-120903647D01*
X141252288Y-120883794D01*
X141275110Y-120873633D01*
X141420722Y-120808803D01*
X141420724Y-120808802D01*
X141426752Y-120806118D01*
X141581253Y-120693866D01*
X141587848Y-120686542D01*
X141704621Y-120556852D01*
X141704622Y-120556851D01*
X141709040Y-120551944D01*
X141781073Y-120427179D01*
X141801223Y-120392279D01*
X141801224Y-120392278D01*
X141804527Y-120386556D01*
X141863542Y-120204928D01*
X141880901Y-120039771D01*
X141882814Y-120021565D01*
X141883504Y-120015000D01*
X141866614Y-119854297D01*
X141864232Y-119831635D01*
X141864232Y-119831633D01*
X141863542Y-119825072D01*
X141804527Y-119643444D01*
X141719192Y-119495640D01*
X148030463Y-119495640D01*
X148048163Y-119676160D01*
X148105418Y-119848273D01*
X148109065Y-119854295D01*
X148109066Y-119854297D01*
X148122002Y-119875656D01*
X148199380Y-120003424D01*
X148204269Y-120008487D01*
X148204270Y-120008488D01*
X148219357Y-120024111D01*
X148325382Y-120133902D01*
X148477159Y-120233222D01*
X148483763Y-120235678D01*
X148483765Y-120235679D01*
X148640558Y-120293990D01*
X148640560Y-120293990D01*
X148647168Y-120296448D01*
X148730995Y-120307633D01*
X148819980Y-120319507D01*
X148819984Y-120319507D01*
X148826961Y-120320438D01*
X148833972Y-120319800D01*
X148833976Y-120319800D01*
X148976459Y-120306832D01*
X149007600Y-120303998D01*
X149014302Y-120301820D01*
X149014304Y-120301820D01*
X149173409Y-120250124D01*
X149173412Y-120250123D01*
X149180108Y-120247947D01*
X149335912Y-120155069D01*
X149467266Y-120029982D01*
X149567643Y-119878902D01*
X149632055Y-119709338D01*
X149634527Y-119691747D01*
X149656748Y-119533639D01*
X149656748Y-119533636D01*
X149657299Y-119529717D01*
X149657616Y-119507000D01*
X149637397Y-119326745D01*
X149635080Y-119320091D01*
X149580064Y-119162106D01*
X149580062Y-119162103D01*
X149577745Y-119155448D01*
X149567662Y-119139312D01*
X149485359Y-119007598D01*
X149481626Y-119001624D01*
X149451077Y-118970861D01*
X149358778Y-118877915D01*
X149358774Y-118877912D01*
X149353815Y-118872918D01*
X149345688Y-118867760D01*
X149279589Y-118825813D01*
X149200666Y-118775727D01*
X149139961Y-118754111D01*
X149036425Y-118717243D01*
X149036420Y-118717242D01*
X149029790Y-118714881D01*
X149022802Y-118714048D01*
X149022799Y-118714047D01*
X148899698Y-118699368D01*
X148849680Y-118693404D01*
X148842677Y-118694140D01*
X148842676Y-118694140D01*
X148676288Y-118711628D01*
X148676286Y-118711629D01*
X148669288Y-118712364D01*
X148497579Y-118770818D01*
X148491575Y-118774512D01*
X148349095Y-118862166D01*
X148349092Y-118862168D01*
X148343088Y-118865862D01*
X148338053Y-118870793D01*
X148338050Y-118870795D01*
X148218525Y-118987843D01*
X148213493Y-118992771D01*
X148115235Y-119145238D01*
X148112826Y-119151858D01*
X148112824Y-119151861D01*
X148055606Y-119309066D01*
X148053197Y-119315685D01*
X148030463Y-119495640D01*
X141719192Y-119495640D01*
X141709040Y-119478056D01*
X141668291Y-119432799D01*
X141585675Y-119341045D01*
X141585674Y-119341044D01*
X141581253Y-119336134D01*
X141442033Y-119234984D01*
X141432094Y-119227763D01*
X141432093Y-119227762D01*
X141426752Y-119223882D01*
X141420724Y-119221198D01*
X141420722Y-119221197D01*
X141258319Y-119148891D01*
X141258318Y-119148891D01*
X141252288Y-119146206D01*
X141158887Y-119126353D01*
X141071944Y-119107872D01*
X141071939Y-119107872D01*
X141065487Y-119106500D01*
X140874513Y-119106500D01*
X140868061Y-119107872D01*
X140868056Y-119107872D01*
X140781113Y-119126353D01*
X140687712Y-119146206D01*
X140681682Y-119148891D01*
X140681681Y-119148891D01*
X140519278Y-119221197D01*
X140519276Y-119221198D01*
X140513248Y-119223882D01*
X140507907Y-119227762D01*
X140507906Y-119227763D01*
X140497967Y-119234984D01*
X140358747Y-119336134D01*
X140354326Y-119341044D01*
X140354325Y-119341045D01*
X140271710Y-119432799D01*
X140230960Y-119478056D01*
X140135473Y-119643444D01*
X140076458Y-119825072D01*
X140075768Y-119831633D01*
X140075768Y-119831635D01*
X140073386Y-119854297D01*
X140056496Y-120015000D01*
X110069820Y-120015000D01*
X110029916Y-119882831D01*
X109937066Y-119708204D01*
X109857292Y-119610392D01*
X109815960Y-119559713D01*
X109815957Y-119559710D01*
X109812065Y-119554938D01*
X109805724Y-119549692D01*
X109664425Y-119432799D01*
X109664421Y-119432797D01*
X109659675Y-119428870D01*
X109485701Y-119334802D01*
X109296768Y-119276318D01*
X109290643Y-119275674D01*
X109290642Y-119275674D01*
X109106204Y-119256289D01*
X109106202Y-119256289D01*
X109100075Y-119255645D01*
X109017576Y-119263153D01*
X108909251Y-119273011D01*
X108909248Y-119273012D01*
X108903112Y-119273570D01*
X108897206Y-119275308D01*
X108897202Y-119275309D01*
X108810122Y-119300938D01*
X108713381Y-119329410D01*
X108707923Y-119332263D01*
X108707919Y-119332265D01*
X108691125Y-119341045D01*
X108538110Y-119421040D01*
X108383975Y-119544968D01*
X108256846Y-119696474D01*
X108253879Y-119701872D01*
X108253875Y-119701877D01*
X108200792Y-119798436D01*
X108161567Y-119869787D01*
X108159706Y-119875654D01*
X108159705Y-119875656D01*
X108107645Y-120039771D01*
X108101765Y-120058306D01*
X108079719Y-120254851D01*
X93820095Y-120254851D01*
X93825197Y-120239513D01*
X93849985Y-120043295D01*
X93850380Y-120015000D01*
X93831080Y-119818167D01*
X93773916Y-119628831D01*
X93681066Y-119454204D01*
X93586074Y-119337732D01*
X93559960Y-119305713D01*
X93559957Y-119305710D01*
X93556065Y-119300938D01*
X93549724Y-119295692D01*
X93408425Y-119178799D01*
X93408421Y-119178797D01*
X93403675Y-119174870D01*
X93229701Y-119080802D01*
X93040768Y-119022318D01*
X93034643Y-119021674D01*
X93034642Y-119021674D01*
X92850204Y-119002289D01*
X92850202Y-119002289D01*
X92844075Y-119001645D01*
X92761576Y-119009153D01*
X92653251Y-119019011D01*
X92653248Y-119019012D01*
X92647112Y-119019570D01*
X92641206Y-119021308D01*
X92641202Y-119021309D01*
X92545393Y-119049507D01*
X92457381Y-119075410D01*
X92451923Y-119078263D01*
X92451919Y-119078265D01*
X92395287Y-119107872D01*
X92282110Y-119167040D01*
X92127975Y-119290968D01*
X92000846Y-119442474D01*
X91997879Y-119447872D01*
X91997875Y-119447877D01*
X91955061Y-119525757D01*
X91905567Y-119615787D01*
X91903706Y-119621654D01*
X91903705Y-119621656D01*
X91876250Y-119708204D01*
X91845765Y-119804306D01*
X91823719Y-120000851D01*
X84508000Y-120000851D01*
X84508000Y-118222851D01*
X128018719Y-118222851D01*
X128019235Y-118228995D01*
X128034673Y-118412844D01*
X128035268Y-118419934D01*
X128045436Y-118455393D01*
X128087565Y-118602314D01*
X128089783Y-118610050D01*
X128106885Y-118643326D01*
X128174306Y-118774512D01*
X128180187Y-118785956D01*
X128303035Y-118940953D01*
X128307728Y-118944947D01*
X128307729Y-118944948D01*
X128413114Y-119034637D01*
X128453650Y-119069136D01*
X128626294Y-119165624D01*
X128814392Y-119226740D01*
X129010777Y-119250158D01*
X129016912Y-119249686D01*
X129016914Y-119249686D01*
X129201830Y-119235457D01*
X129201834Y-119235456D01*
X129207972Y-119234984D01*
X129398463Y-119181798D01*
X129403967Y-119179018D01*
X129403969Y-119179017D01*
X129569495Y-119095404D01*
X129569497Y-119095403D01*
X129574996Y-119092625D01*
X129730847Y-118970861D01*
X129860078Y-118821145D01*
X129957769Y-118649179D01*
X130020197Y-118461513D01*
X130044985Y-118265295D01*
X130045380Y-118237000D01*
X130044266Y-118225640D01*
X146506463Y-118225640D01*
X146524163Y-118406160D01*
X146581418Y-118578273D01*
X146585065Y-118584295D01*
X146585066Y-118584297D01*
X146665581Y-118717243D01*
X146675380Y-118733424D01*
X146801382Y-118863902D01*
X146953159Y-118963222D01*
X146959763Y-118965678D01*
X146959765Y-118965679D01*
X147116558Y-119023990D01*
X147116560Y-119023990D01*
X147123168Y-119026448D01*
X147206995Y-119037633D01*
X147295980Y-119049507D01*
X147295984Y-119049507D01*
X147302961Y-119050438D01*
X147309972Y-119049800D01*
X147309976Y-119049800D01*
X147452459Y-119036832D01*
X147483600Y-119033998D01*
X147490302Y-119031820D01*
X147490304Y-119031820D01*
X147649409Y-118980124D01*
X147649412Y-118980123D01*
X147656108Y-118977947D01*
X147811912Y-118885069D01*
X147943266Y-118759982D01*
X148043643Y-118608902D01*
X148085423Y-118498917D01*
X148105555Y-118445920D01*
X148105556Y-118445918D01*
X148108055Y-118439338D01*
X148109035Y-118432366D01*
X148132748Y-118263639D01*
X148132748Y-118263636D01*
X148133299Y-118259717D01*
X148133616Y-118237000D01*
X148113397Y-118056745D01*
X148109760Y-118046301D01*
X148056064Y-117892106D01*
X148056062Y-117892103D01*
X148053745Y-117885448D01*
X148032114Y-117850831D01*
X147961359Y-117737598D01*
X147957626Y-117731624D01*
X147955020Y-117729000D01*
X154915496Y-117729000D01*
X154935458Y-117918928D01*
X154994473Y-118100556D01*
X155089960Y-118265944D01*
X155217747Y-118407866D01*
X155372248Y-118520118D01*
X155378276Y-118522802D01*
X155378278Y-118522803D01*
X155516397Y-118584297D01*
X155546712Y-118597794D01*
X155640112Y-118617647D01*
X155727056Y-118636128D01*
X155727061Y-118636128D01*
X155733513Y-118637500D01*
X155924487Y-118637500D01*
X155930939Y-118636128D01*
X155930944Y-118636128D01*
X156017888Y-118617647D01*
X156111288Y-118597794D01*
X156141603Y-118584297D01*
X156279722Y-118522803D01*
X156279724Y-118522802D01*
X156285752Y-118520118D01*
X156440253Y-118407866D01*
X156568040Y-118265944D01*
X156663527Y-118100556D01*
X156722542Y-117918928D01*
X156742504Y-117729000D01*
X156729778Y-117607915D01*
X156723232Y-117545635D01*
X156723232Y-117545633D01*
X156722542Y-117539072D01*
X156663527Y-117357444D01*
X156568040Y-117192056D01*
X156440253Y-117050134D01*
X156285752Y-116937882D01*
X156279724Y-116935198D01*
X156279722Y-116935197D01*
X156117319Y-116862891D01*
X156117318Y-116862891D01*
X156111288Y-116860206D01*
X156017888Y-116840353D01*
X155930944Y-116821872D01*
X155930939Y-116821872D01*
X155924487Y-116820500D01*
X155733513Y-116820500D01*
X155727061Y-116821872D01*
X155727056Y-116821872D01*
X155640112Y-116840353D01*
X155546712Y-116860206D01*
X155540682Y-116862891D01*
X155540681Y-116862891D01*
X155378278Y-116935197D01*
X155378276Y-116935198D01*
X155372248Y-116937882D01*
X155217747Y-117050134D01*
X155089960Y-117192056D01*
X154994473Y-117357444D01*
X154935458Y-117539072D01*
X154934768Y-117545633D01*
X154934768Y-117545635D01*
X154928222Y-117607915D01*
X154915496Y-117729000D01*
X147955020Y-117729000D01*
X147907995Y-117681645D01*
X147834778Y-117607915D01*
X147834774Y-117607912D01*
X147829815Y-117602918D01*
X147818697Y-117595862D01*
X147729209Y-117539072D01*
X147676666Y-117505727D01*
X147647463Y-117495328D01*
X147512425Y-117447243D01*
X147512420Y-117447242D01*
X147505790Y-117444881D01*
X147498802Y-117444048D01*
X147498799Y-117444047D01*
X147375698Y-117429368D01*
X147325680Y-117423404D01*
X147318677Y-117424140D01*
X147318676Y-117424140D01*
X147152288Y-117441628D01*
X147152286Y-117441629D01*
X147145288Y-117442364D01*
X146973579Y-117500818D01*
X146959457Y-117509506D01*
X146825095Y-117592166D01*
X146825092Y-117592168D01*
X146819088Y-117595862D01*
X146814053Y-117600793D01*
X146814050Y-117600795D01*
X146731489Y-117681645D01*
X146689493Y-117722771D01*
X146591235Y-117875238D01*
X146588826Y-117881858D01*
X146588824Y-117881861D01*
X146575333Y-117918928D01*
X146529197Y-118045685D01*
X146506463Y-118225640D01*
X130044266Y-118225640D01*
X130026080Y-118040167D01*
X129968916Y-117850831D01*
X129876066Y-117676204D01*
X129805709Y-117589938D01*
X129754960Y-117527713D01*
X129754957Y-117527710D01*
X129751065Y-117522938D01*
X129744724Y-117517692D01*
X129603425Y-117400799D01*
X129603421Y-117400797D01*
X129598675Y-117396870D01*
X129424701Y-117302802D01*
X129235768Y-117244318D01*
X129229643Y-117243674D01*
X129229642Y-117243674D01*
X129045204Y-117224289D01*
X129045202Y-117224289D01*
X129039075Y-117223645D01*
X128956576Y-117231153D01*
X128848251Y-117241011D01*
X128848248Y-117241012D01*
X128842112Y-117241570D01*
X128836206Y-117243308D01*
X128836202Y-117243309D01*
X128731076Y-117274249D01*
X128652381Y-117297410D01*
X128646923Y-117300263D01*
X128646919Y-117300265D01*
X128556147Y-117347720D01*
X128477110Y-117389040D01*
X128322975Y-117512968D01*
X128195846Y-117664474D01*
X128192879Y-117669872D01*
X128192875Y-117669877D01*
X128155646Y-117737598D01*
X128100567Y-117837787D01*
X128098706Y-117843654D01*
X128098705Y-117843656D01*
X128086586Y-117881861D01*
X128040765Y-118026306D01*
X128018719Y-118222851D01*
X84508000Y-118222851D01*
X84508000Y-115189000D01*
X148311496Y-115189000D01*
X148331458Y-115378928D01*
X148390473Y-115560556D01*
X148485960Y-115725944D01*
X148613747Y-115867866D01*
X148768248Y-115980118D01*
X148774276Y-115982802D01*
X148774278Y-115982803D01*
X148936681Y-116055109D01*
X148942712Y-116057794D01*
X149036113Y-116077647D01*
X149123056Y-116096128D01*
X149123061Y-116096128D01*
X149129513Y-116097500D01*
X149320487Y-116097500D01*
X149326939Y-116096128D01*
X149326944Y-116096128D01*
X149413887Y-116077647D01*
X149507288Y-116057794D01*
X149513319Y-116055109D01*
X149675722Y-115982803D01*
X149675724Y-115982802D01*
X149681752Y-115980118D01*
X149836253Y-115867866D01*
X149964040Y-115725944D01*
X150059527Y-115560556D01*
X150118542Y-115378928D01*
X150138504Y-115189000D01*
X150118542Y-114999072D01*
X150059527Y-114817444D01*
X149964040Y-114652056D01*
X149836253Y-114510134D01*
X149681752Y-114397882D01*
X149675724Y-114395198D01*
X149675722Y-114395197D01*
X149513319Y-114322891D01*
X149513318Y-114322891D01*
X149507288Y-114320206D01*
X149413887Y-114300353D01*
X149326944Y-114281872D01*
X149326939Y-114281872D01*
X149320487Y-114280500D01*
X149129513Y-114280500D01*
X149123061Y-114281872D01*
X149123056Y-114281872D01*
X149036113Y-114300353D01*
X148942712Y-114320206D01*
X148936682Y-114322891D01*
X148936681Y-114322891D01*
X148774278Y-114395197D01*
X148774276Y-114395198D01*
X148768248Y-114397882D01*
X148613747Y-114510134D01*
X148485960Y-114652056D01*
X148390473Y-114817444D01*
X148331458Y-114999072D01*
X148311496Y-115189000D01*
X84508000Y-115189000D01*
X84508000Y-113411000D01*
X192126496Y-113411000D01*
X192146458Y-113600928D01*
X192205473Y-113782556D01*
X192300960Y-113947944D01*
X192428747Y-114089866D01*
X192583248Y-114202118D01*
X192589276Y-114204802D01*
X192589278Y-114204803D01*
X192751681Y-114277109D01*
X192757712Y-114279794D01*
X192851113Y-114299647D01*
X192938056Y-114318128D01*
X192938061Y-114318128D01*
X192944513Y-114319500D01*
X193135487Y-114319500D01*
X193141939Y-114318128D01*
X193141944Y-114318128D01*
X193228887Y-114299647D01*
X193322288Y-114279794D01*
X193328319Y-114277109D01*
X193490722Y-114204803D01*
X193490724Y-114204802D01*
X193496752Y-114202118D01*
X193651253Y-114089866D01*
X193779040Y-113947944D01*
X193874527Y-113782556D01*
X193933542Y-113600928D01*
X193953504Y-113411000D01*
X193933542Y-113221072D01*
X193874527Y-113039444D01*
X193779040Y-112874056D01*
X193764464Y-112857867D01*
X193655675Y-112737045D01*
X193655674Y-112737044D01*
X193651253Y-112732134D01*
X193538277Y-112650052D01*
X193502094Y-112623763D01*
X193502093Y-112623762D01*
X193496752Y-112619882D01*
X193490724Y-112617198D01*
X193490722Y-112617197D01*
X193328319Y-112544891D01*
X193328318Y-112544891D01*
X193322288Y-112542206D01*
X193228888Y-112522353D01*
X193141944Y-112503872D01*
X193141939Y-112503872D01*
X193135487Y-112502500D01*
X192944513Y-112502500D01*
X192938061Y-112503872D01*
X192938056Y-112503872D01*
X192851112Y-112522353D01*
X192757712Y-112542206D01*
X192751682Y-112544891D01*
X192751681Y-112544891D01*
X192589278Y-112617197D01*
X192589276Y-112617198D01*
X192583248Y-112619882D01*
X192577907Y-112623762D01*
X192577906Y-112623763D01*
X192541723Y-112650052D01*
X192428747Y-112732134D01*
X192424326Y-112737044D01*
X192424325Y-112737045D01*
X192315537Y-112857867D01*
X192300960Y-112874056D01*
X192205473Y-113039444D01*
X192146458Y-113221072D01*
X192126496Y-113411000D01*
X84508000Y-113411000D01*
X84508000Y-112569652D01*
X102501524Y-112569652D01*
X102503990Y-112578281D01*
X102503991Y-112578286D01*
X102509639Y-112598048D01*
X102513217Y-112614809D01*
X102516130Y-112635152D01*
X102516133Y-112635162D01*
X102517405Y-112644045D01*
X102528021Y-112667395D01*
X102534464Y-112684907D01*
X102541512Y-112709565D01*
X102557274Y-112734548D01*
X102565404Y-112749614D01*
X102577633Y-112776510D01*
X102594374Y-112795939D01*
X102605479Y-112810947D01*
X102619160Y-112832631D01*
X102625888Y-112838573D01*
X102641296Y-112852181D01*
X102653341Y-112864374D01*
X102666611Y-112879774D01*
X102672619Y-112886747D01*
X102680147Y-112891626D01*
X102680150Y-112891629D01*
X102694139Y-112900696D01*
X102709013Y-112911986D01*
X102728228Y-112928956D01*
X102736354Y-112932771D01*
X102736355Y-112932772D01*
X102742021Y-112935432D01*
X102754966Y-112941510D01*
X102769935Y-112949824D01*
X102794727Y-112965893D01*
X102811650Y-112970954D01*
X102819290Y-112973239D01*
X102836736Y-112979901D01*
X102859948Y-112990799D01*
X102889130Y-112995343D01*
X102905849Y-112999126D01*
X102925536Y-113005014D01*
X102925539Y-113005015D01*
X102934141Y-113007587D01*
X102943116Y-113007642D01*
X102943117Y-113007642D01*
X102949810Y-113007683D01*
X102968556Y-113007797D01*
X102969328Y-113007830D01*
X102970423Y-113008000D01*
X103001298Y-113008000D01*
X103002068Y-113008002D01*
X103075716Y-113008452D01*
X103075717Y-113008452D01*
X103079652Y-113008476D01*
X103080996Y-113008092D01*
X103082341Y-113008000D01*
X123001298Y-113008000D01*
X123002069Y-113008002D01*
X123079652Y-113008476D01*
X123088281Y-113006010D01*
X123088286Y-113006009D01*
X123108048Y-113000361D01*
X123124809Y-112996783D01*
X123145152Y-112993870D01*
X123145162Y-112993867D01*
X123154045Y-112992595D01*
X123177395Y-112981979D01*
X123194907Y-112975536D01*
X123210937Y-112970954D01*
X123219565Y-112968488D01*
X123244548Y-112952726D01*
X123259614Y-112944596D01*
X123286510Y-112932367D01*
X123305939Y-112915626D01*
X123320947Y-112904521D01*
X123335039Y-112895630D01*
X123342631Y-112890840D01*
X123362182Y-112868703D01*
X123374374Y-112856659D01*
X123389949Y-112843239D01*
X123389950Y-112843237D01*
X123396747Y-112837381D01*
X123401626Y-112829853D01*
X123401629Y-112829850D01*
X123410696Y-112815861D01*
X123421986Y-112800987D01*
X123433012Y-112788502D01*
X123438956Y-112781772D01*
X123451510Y-112755034D01*
X123459824Y-112740065D01*
X123475893Y-112715273D01*
X123483239Y-112690709D01*
X123489901Y-112673264D01*
X123496983Y-112658179D01*
X123500799Y-112650052D01*
X123505343Y-112620870D01*
X123509126Y-112604151D01*
X123515014Y-112584464D01*
X123515015Y-112584461D01*
X123517587Y-112575859D01*
X123517625Y-112569652D01*
X133491524Y-112569652D01*
X133493990Y-112578281D01*
X133493991Y-112578286D01*
X133499639Y-112598048D01*
X133503217Y-112614809D01*
X133506130Y-112635152D01*
X133506133Y-112635162D01*
X133507405Y-112644045D01*
X133518021Y-112667395D01*
X133524464Y-112684907D01*
X133531512Y-112709565D01*
X133547274Y-112734548D01*
X133555404Y-112749614D01*
X133567633Y-112776510D01*
X133584374Y-112795939D01*
X133595479Y-112810947D01*
X133609160Y-112832631D01*
X133615888Y-112838573D01*
X133631296Y-112852181D01*
X133643341Y-112864374D01*
X133656611Y-112879774D01*
X133662619Y-112886747D01*
X133670147Y-112891626D01*
X133670150Y-112891629D01*
X133684139Y-112900696D01*
X133699013Y-112911986D01*
X133718228Y-112928956D01*
X133726354Y-112932771D01*
X133726355Y-112932772D01*
X133732021Y-112935432D01*
X133744966Y-112941510D01*
X133759935Y-112949824D01*
X133784727Y-112965893D01*
X133801650Y-112970954D01*
X133809290Y-112973239D01*
X133826736Y-112979901D01*
X133849948Y-112990799D01*
X133879130Y-112995343D01*
X133895849Y-112999126D01*
X133915536Y-113005014D01*
X133915539Y-113005015D01*
X133924141Y-113007587D01*
X133933116Y-113007642D01*
X133933117Y-113007642D01*
X133939810Y-113007683D01*
X133958556Y-113007797D01*
X133959328Y-113007830D01*
X133960423Y-113008000D01*
X133991298Y-113008000D01*
X133992068Y-113008002D01*
X134065716Y-113008452D01*
X134065717Y-113008452D01*
X134069652Y-113008476D01*
X134070996Y-113008092D01*
X134072341Y-113008000D01*
X153991298Y-113008000D01*
X153992069Y-113008002D01*
X154069652Y-113008476D01*
X154078281Y-113006010D01*
X154078286Y-113006009D01*
X154098048Y-113000361D01*
X154114809Y-112996783D01*
X154135152Y-112993870D01*
X154135162Y-112993867D01*
X154144045Y-112992595D01*
X154167395Y-112981979D01*
X154184907Y-112975536D01*
X154200937Y-112970954D01*
X154209565Y-112968488D01*
X154234548Y-112952726D01*
X154249614Y-112944596D01*
X154276510Y-112932367D01*
X154295939Y-112915626D01*
X154310947Y-112904521D01*
X154325039Y-112895630D01*
X154332631Y-112890840D01*
X154352182Y-112868703D01*
X154364374Y-112856659D01*
X154379949Y-112843239D01*
X154379950Y-112843237D01*
X154386747Y-112837381D01*
X154391626Y-112829853D01*
X154391629Y-112829850D01*
X154400696Y-112815861D01*
X154411986Y-112800987D01*
X154423012Y-112788502D01*
X154428956Y-112781772D01*
X154441510Y-112755034D01*
X154449824Y-112740065D01*
X154465893Y-112715273D01*
X154473239Y-112690709D01*
X154479901Y-112673264D01*
X154486983Y-112658179D01*
X154490799Y-112650052D01*
X154495343Y-112620870D01*
X154499126Y-112604151D01*
X154505014Y-112584464D01*
X154505015Y-112584461D01*
X154507587Y-112575859D01*
X154507625Y-112569652D01*
X164491524Y-112569652D01*
X164493990Y-112578281D01*
X164493991Y-112578286D01*
X164499639Y-112598048D01*
X164503217Y-112614809D01*
X164506130Y-112635152D01*
X164506133Y-112635162D01*
X164507405Y-112644045D01*
X164518021Y-112667395D01*
X164524464Y-112684907D01*
X164531512Y-112709565D01*
X164547274Y-112734548D01*
X164555404Y-112749614D01*
X164567633Y-112776510D01*
X164584374Y-112795939D01*
X164595479Y-112810947D01*
X164609160Y-112832631D01*
X164615888Y-112838573D01*
X164631296Y-112852181D01*
X164643341Y-112864374D01*
X164656611Y-112879774D01*
X164662619Y-112886747D01*
X164670147Y-112891626D01*
X164670150Y-112891629D01*
X164684139Y-112900696D01*
X164699013Y-112911986D01*
X164718228Y-112928956D01*
X164726354Y-112932771D01*
X164726355Y-112932772D01*
X164732021Y-112935432D01*
X164744966Y-112941510D01*
X164759935Y-112949824D01*
X164784727Y-112965893D01*
X164801650Y-112970954D01*
X164809290Y-112973239D01*
X164826736Y-112979901D01*
X164849948Y-112990799D01*
X164879130Y-112995343D01*
X164895849Y-112999126D01*
X164915536Y-113005014D01*
X164915539Y-113005015D01*
X164924141Y-113007587D01*
X164933116Y-113007642D01*
X164933117Y-113007642D01*
X164939810Y-113007683D01*
X164958556Y-113007797D01*
X164959328Y-113007830D01*
X164960423Y-113008000D01*
X164991298Y-113008000D01*
X164992068Y-113008002D01*
X165065716Y-113008452D01*
X165065717Y-113008452D01*
X165069652Y-113008476D01*
X165070996Y-113008092D01*
X165072341Y-113008000D01*
X184991298Y-113008000D01*
X184992069Y-113008002D01*
X185069652Y-113008476D01*
X185078281Y-113006010D01*
X185078286Y-113006009D01*
X185098048Y-113000361D01*
X185114809Y-112996783D01*
X185135152Y-112993870D01*
X185135162Y-112993867D01*
X185144045Y-112992595D01*
X185167395Y-112981979D01*
X185184907Y-112975536D01*
X185200937Y-112970954D01*
X185209565Y-112968488D01*
X185234548Y-112952726D01*
X185249614Y-112944596D01*
X185276510Y-112932367D01*
X185295939Y-112915626D01*
X185310947Y-112904521D01*
X185325039Y-112895630D01*
X185332631Y-112890840D01*
X185352182Y-112868703D01*
X185364374Y-112856659D01*
X185379949Y-112843239D01*
X185379950Y-112843237D01*
X185386747Y-112837381D01*
X185391626Y-112829853D01*
X185391629Y-112829850D01*
X185400696Y-112815861D01*
X185411986Y-112800987D01*
X185423012Y-112788502D01*
X185428956Y-112781772D01*
X185441510Y-112755034D01*
X185449824Y-112740065D01*
X185465893Y-112715273D01*
X185473239Y-112690709D01*
X185479901Y-112673264D01*
X185486983Y-112658179D01*
X185490799Y-112650052D01*
X185495343Y-112620870D01*
X185499126Y-112604151D01*
X185505014Y-112584464D01*
X185505015Y-112584461D01*
X185507587Y-112575859D01*
X185507797Y-112541444D01*
X185507830Y-112540672D01*
X185508000Y-112539577D01*
X185508000Y-112508702D01*
X185508002Y-112507932D01*
X185508452Y-112434284D01*
X185508452Y-112434283D01*
X185508476Y-112430348D01*
X185508092Y-112429004D01*
X185508000Y-112427659D01*
X185508000Y-102485858D01*
X187487222Y-102485858D01*
X187503763Y-102682844D01*
X187558251Y-102872865D01*
X187648609Y-103048684D01*
X187652432Y-103053508D01*
X187652435Y-103053512D01*
X187676485Y-103083855D01*
X187771397Y-103203603D01*
X187921937Y-103331723D01*
X187927315Y-103334729D01*
X187927317Y-103334730D01*
X188008217Y-103379943D01*
X188094496Y-103428163D01*
X188282500Y-103489249D01*
X188478788Y-103512655D01*
X188484923Y-103512183D01*
X188484925Y-103512183D01*
X188669742Y-103497962D01*
X188669746Y-103497961D01*
X188675884Y-103497489D01*
X188866281Y-103444329D01*
X188871785Y-103441549D01*
X188871787Y-103441548D01*
X189037226Y-103357979D01*
X189037228Y-103357978D01*
X189042727Y-103355200D01*
X189198500Y-103233497D01*
X189327667Y-103083855D01*
X189425309Y-102911974D01*
X189487706Y-102724401D01*
X189512482Y-102528281D01*
X189512877Y-102500000D01*
X189493587Y-102303264D01*
X189436451Y-102114023D01*
X189343647Y-101939482D01*
X189273331Y-101853266D01*
X189222603Y-101791067D01*
X189222600Y-101791064D01*
X189218708Y-101786292D01*
X189212367Y-101781046D01*
X189071144Y-101664216D01*
X189071140Y-101664214D01*
X189066394Y-101660287D01*
X188892506Y-101566266D01*
X188798087Y-101537039D01*
X188709554Y-101509633D01*
X188709551Y-101509632D01*
X188703667Y-101507811D01*
X188697542Y-101507167D01*
X188697541Y-101507167D01*
X188513199Y-101487792D01*
X188513198Y-101487792D01*
X188507071Y-101487148D01*
X188424460Y-101494666D01*
X188316345Y-101504505D01*
X188316342Y-101504506D01*
X188310206Y-101505064D01*
X188304300Y-101506802D01*
X188304296Y-101506803D01*
X188165685Y-101547599D01*
X188120570Y-101560877D01*
X187945386Y-101652461D01*
X187791327Y-101776327D01*
X187664262Y-101927758D01*
X187661296Y-101933153D01*
X187661292Y-101933159D01*
X187654825Y-101944923D01*
X187569029Y-102100985D01*
X187509257Y-102289411D01*
X187487222Y-102485858D01*
X185508000Y-102485858D01*
X185508000Y-86485858D01*
X187487222Y-86485858D01*
X187503763Y-86682844D01*
X187558251Y-86872865D01*
X187648609Y-87048684D01*
X187652432Y-87053508D01*
X187652435Y-87053512D01*
X187676485Y-87083855D01*
X187771397Y-87203603D01*
X187921937Y-87331723D01*
X187927315Y-87334729D01*
X187927317Y-87334730D01*
X188008216Y-87379943D01*
X188094496Y-87428163D01*
X188282500Y-87489249D01*
X188478788Y-87512655D01*
X188484923Y-87512183D01*
X188484925Y-87512183D01*
X188669742Y-87497962D01*
X188669746Y-87497961D01*
X188675884Y-87497489D01*
X188866281Y-87444329D01*
X188871785Y-87441549D01*
X188871787Y-87441548D01*
X189037226Y-87357979D01*
X189037228Y-87357978D01*
X189042727Y-87355200D01*
X189198500Y-87233497D01*
X189327667Y-87083855D01*
X189425309Y-86911974D01*
X189487706Y-86724401D01*
X189512482Y-86528281D01*
X189512877Y-86500000D01*
X189493587Y-86303264D01*
X189436451Y-86114023D01*
X189343647Y-85939482D01*
X189273331Y-85853266D01*
X189222603Y-85791067D01*
X189222600Y-85791064D01*
X189218708Y-85786292D01*
X189212367Y-85781046D01*
X189071144Y-85664216D01*
X189071140Y-85664214D01*
X189066394Y-85660287D01*
X188892506Y-85566266D01*
X188798087Y-85537039D01*
X188709554Y-85509633D01*
X188709551Y-85509632D01*
X188703667Y-85507811D01*
X188697542Y-85507167D01*
X188697541Y-85507167D01*
X188513199Y-85487792D01*
X188513198Y-85487792D01*
X188507071Y-85487148D01*
X188424460Y-85494666D01*
X188316345Y-85504505D01*
X188316342Y-85504506D01*
X188310206Y-85505064D01*
X188304300Y-85506802D01*
X188304296Y-85506803D01*
X188165685Y-85547599D01*
X188120570Y-85560877D01*
X187945386Y-85652461D01*
X187791327Y-85776327D01*
X187664262Y-85927758D01*
X187661296Y-85933153D01*
X187661292Y-85933159D01*
X187654825Y-85944923D01*
X187569029Y-86100985D01*
X187509257Y-86289411D01*
X187487222Y-86485858D01*
X185508000Y-86485858D01*
X185508000Y-70485858D01*
X187487222Y-70485858D01*
X187503763Y-70682844D01*
X187558251Y-70872865D01*
X187648609Y-71048684D01*
X187652432Y-71053508D01*
X187652435Y-71053512D01*
X187676485Y-71083855D01*
X187771397Y-71203603D01*
X187921937Y-71331723D01*
X187927315Y-71334729D01*
X187927317Y-71334730D01*
X188008217Y-71379943D01*
X188094496Y-71428163D01*
X188282500Y-71489249D01*
X188478788Y-71512655D01*
X188484923Y-71512183D01*
X188484925Y-71512183D01*
X188669742Y-71497962D01*
X188669746Y-71497961D01*
X188675884Y-71497489D01*
X188866281Y-71444329D01*
X188871785Y-71441549D01*
X188871787Y-71441548D01*
X189037226Y-71357979D01*
X189037228Y-71357978D01*
X189042727Y-71355200D01*
X189198500Y-71233497D01*
X189327667Y-71083855D01*
X189425309Y-70911974D01*
X189487706Y-70724401D01*
X189512482Y-70528281D01*
X189512877Y-70500000D01*
X189493587Y-70303264D01*
X189436451Y-70114023D01*
X189343647Y-69939482D01*
X189273331Y-69853266D01*
X189222603Y-69791067D01*
X189222600Y-69791064D01*
X189218708Y-69786292D01*
X189212367Y-69781046D01*
X189071144Y-69664216D01*
X189071140Y-69664214D01*
X189066394Y-69660287D01*
X188892506Y-69566266D01*
X188798086Y-69537038D01*
X188709554Y-69509633D01*
X188709551Y-69509632D01*
X188703667Y-69507811D01*
X188697542Y-69507167D01*
X188697541Y-69507167D01*
X188513199Y-69487792D01*
X188513198Y-69487792D01*
X188507071Y-69487148D01*
X188424460Y-69494666D01*
X188316345Y-69504505D01*
X188316342Y-69504506D01*
X188310206Y-69505064D01*
X188304300Y-69506802D01*
X188304296Y-69506803D01*
X188165685Y-69547599D01*
X188120570Y-69560877D01*
X187945386Y-69652461D01*
X187791327Y-69776327D01*
X187664262Y-69927758D01*
X187661296Y-69933153D01*
X187661292Y-69933159D01*
X187654825Y-69944923D01*
X187569029Y-70100985D01*
X187509257Y-70289411D01*
X187487222Y-70485858D01*
X185508000Y-70485858D01*
X185508000Y-60508702D01*
X185508002Y-60507932D01*
X185508421Y-60439322D01*
X185508476Y-60430348D01*
X185506010Y-60421719D01*
X185506009Y-60421714D01*
X185500361Y-60401952D01*
X185496783Y-60385191D01*
X185493870Y-60364848D01*
X185493867Y-60364838D01*
X185492595Y-60355955D01*
X185481979Y-60332605D01*
X185475536Y-60315093D01*
X185470954Y-60299063D01*
X185468488Y-60290435D01*
X185452726Y-60265452D01*
X185444596Y-60250386D01*
X185432367Y-60223490D01*
X185415626Y-60204061D01*
X185404521Y-60189053D01*
X185395630Y-60174961D01*
X185390840Y-60167369D01*
X185368703Y-60147818D01*
X185356659Y-60135626D01*
X185343239Y-60120051D01*
X185343237Y-60120050D01*
X185337381Y-60113253D01*
X185329853Y-60108374D01*
X185329850Y-60108371D01*
X185315861Y-60099304D01*
X185300987Y-60088014D01*
X185288502Y-60076988D01*
X185281772Y-60071044D01*
X185273646Y-60067229D01*
X185273645Y-60067228D01*
X185267979Y-60064568D01*
X185255034Y-60058490D01*
X185240065Y-60050176D01*
X185215273Y-60034107D01*
X185190709Y-60026761D01*
X185173264Y-60020099D01*
X185168827Y-60018016D01*
X185150052Y-60009201D01*
X185120870Y-60004657D01*
X185104151Y-60000874D01*
X185084464Y-59994986D01*
X185084461Y-59994985D01*
X185075859Y-59992413D01*
X185066884Y-59992358D01*
X185066883Y-59992358D01*
X185060190Y-59992317D01*
X185041444Y-59992203D01*
X185040672Y-59992170D01*
X185039577Y-59992000D01*
X185008702Y-59992000D01*
X185007932Y-59991998D01*
X184934284Y-59991548D01*
X184934283Y-59991548D01*
X184930348Y-59991524D01*
X184929004Y-59991908D01*
X184927659Y-59992000D01*
X178018667Y-59992000D01*
X177950546Y-59971998D01*
X177904053Y-59918342D01*
X177893949Y-59848068D01*
X177917841Y-59790435D01*
X177945229Y-59753891D01*
X177950615Y-59746705D01*
X178001745Y-59610316D01*
X178008500Y-59548134D01*
X178008500Y-57451866D01*
X178001745Y-57389684D01*
X177950615Y-57253295D01*
X177863261Y-57136739D01*
X177746705Y-57049385D01*
X177610316Y-56998255D01*
X177548134Y-56991500D01*
X172451866Y-56991500D01*
X172389684Y-56998255D01*
X172253295Y-57049385D01*
X172136739Y-57136739D01*
X172049385Y-57253295D01*
X171998255Y-57389684D01*
X171991500Y-57451866D01*
X171991500Y-59548134D01*
X171998255Y-59610316D01*
X172049385Y-59746705D01*
X172054771Y-59753891D01*
X172082159Y-59790435D01*
X172107007Y-59856941D01*
X172091954Y-59926324D01*
X172041780Y-59976554D01*
X171981333Y-59992000D01*
X165008702Y-59992000D01*
X165007932Y-59991998D01*
X165007078Y-59991993D01*
X164930348Y-59991524D01*
X164921719Y-59993990D01*
X164921714Y-59993991D01*
X164901952Y-59999639D01*
X164885191Y-60003217D01*
X164864848Y-60006130D01*
X164864838Y-60006133D01*
X164855955Y-60007405D01*
X164832605Y-60018021D01*
X164815093Y-60024464D01*
X164807057Y-60026761D01*
X164790435Y-60031512D01*
X164765452Y-60047274D01*
X164750386Y-60055404D01*
X164723490Y-60067633D01*
X164704061Y-60084374D01*
X164689053Y-60095479D01*
X164667369Y-60109160D01*
X164661427Y-60115888D01*
X164647819Y-60131296D01*
X164635627Y-60143340D01*
X164613253Y-60162619D01*
X164608374Y-60170147D01*
X164608371Y-60170150D01*
X164599304Y-60184139D01*
X164588014Y-60199013D01*
X164571044Y-60218228D01*
X164558490Y-60244966D01*
X164550176Y-60259935D01*
X164534107Y-60284727D01*
X164531535Y-60293327D01*
X164526761Y-60309290D01*
X164520099Y-60326736D01*
X164509201Y-60349948D01*
X164504658Y-60379128D01*
X164500874Y-60395849D01*
X164494986Y-60415536D01*
X164494985Y-60415539D01*
X164492413Y-60424141D01*
X164492358Y-60433116D01*
X164492358Y-60433117D01*
X164492203Y-60458546D01*
X164492170Y-60459328D01*
X164492000Y-60460423D01*
X164492000Y-60491298D01*
X164491998Y-60492068D01*
X164491524Y-60569652D01*
X164491908Y-60570996D01*
X164492000Y-60572341D01*
X164492000Y-112491298D01*
X164491998Y-112492068D01*
X164491524Y-112569652D01*
X154507625Y-112569652D01*
X154507797Y-112541444D01*
X154507830Y-112540672D01*
X154508000Y-112539577D01*
X154508000Y-112508702D01*
X154508002Y-112507932D01*
X154508452Y-112434284D01*
X154508452Y-112434283D01*
X154508476Y-112430348D01*
X154508092Y-112429004D01*
X154508000Y-112427659D01*
X154508000Y-102485858D01*
X156487222Y-102485858D01*
X156503763Y-102682844D01*
X156558251Y-102872865D01*
X156648609Y-103048684D01*
X156652432Y-103053508D01*
X156652435Y-103053512D01*
X156676485Y-103083855D01*
X156771397Y-103203603D01*
X156921937Y-103331723D01*
X156927315Y-103334729D01*
X156927317Y-103334730D01*
X157008217Y-103379943D01*
X157094496Y-103428163D01*
X157282500Y-103489249D01*
X157478788Y-103512655D01*
X157484923Y-103512183D01*
X157484925Y-103512183D01*
X157669742Y-103497962D01*
X157669746Y-103497961D01*
X157675884Y-103497489D01*
X157866281Y-103444329D01*
X157871785Y-103441549D01*
X157871787Y-103441548D01*
X158037226Y-103357979D01*
X158037228Y-103357978D01*
X158042727Y-103355200D01*
X158198500Y-103233497D01*
X158327667Y-103083855D01*
X158425309Y-102911974D01*
X158487706Y-102724401D01*
X158512482Y-102528281D01*
X158512877Y-102500000D01*
X158511490Y-102485858D01*
X160487222Y-102485858D01*
X160503763Y-102682844D01*
X160558251Y-102872865D01*
X160648609Y-103048684D01*
X160652432Y-103053508D01*
X160652435Y-103053512D01*
X160676485Y-103083855D01*
X160771397Y-103203603D01*
X160921937Y-103331723D01*
X160927315Y-103334729D01*
X160927317Y-103334730D01*
X161008217Y-103379943D01*
X161094496Y-103428163D01*
X161282500Y-103489249D01*
X161478788Y-103512655D01*
X161484923Y-103512183D01*
X161484925Y-103512183D01*
X161669742Y-103497962D01*
X161669746Y-103497961D01*
X161675884Y-103497489D01*
X161866281Y-103444329D01*
X161871785Y-103441549D01*
X161871787Y-103441548D01*
X162037226Y-103357979D01*
X162037228Y-103357978D01*
X162042727Y-103355200D01*
X162198500Y-103233497D01*
X162327667Y-103083855D01*
X162425309Y-102911974D01*
X162487706Y-102724401D01*
X162512482Y-102528281D01*
X162512877Y-102500000D01*
X162493587Y-102303264D01*
X162436451Y-102114023D01*
X162343647Y-101939482D01*
X162273331Y-101853266D01*
X162222603Y-101791067D01*
X162222600Y-101791064D01*
X162218708Y-101786292D01*
X162212367Y-101781046D01*
X162071144Y-101664216D01*
X162071140Y-101664214D01*
X162066394Y-101660287D01*
X161892506Y-101566266D01*
X161798087Y-101537039D01*
X161709554Y-101509633D01*
X161709551Y-101509632D01*
X161703667Y-101507811D01*
X161697542Y-101507167D01*
X161697541Y-101507167D01*
X161513199Y-101487792D01*
X161513198Y-101487792D01*
X161507071Y-101487148D01*
X161424460Y-101494666D01*
X161316345Y-101504505D01*
X161316342Y-101504506D01*
X161310206Y-101505064D01*
X161304300Y-101506802D01*
X161304296Y-101506803D01*
X161165685Y-101547599D01*
X161120570Y-101560877D01*
X160945386Y-101652461D01*
X160791327Y-101776327D01*
X160664262Y-101927758D01*
X160661296Y-101933153D01*
X160661292Y-101933159D01*
X160654825Y-101944923D01*
X160569029Y-102100985D01*
X160509257Y-102289411D01*
X160487222Y-102485858D01*
X158511490Y-102485858D01*
X158493587Y-102303264D01*
X158436451Y-102114023D01*
X158343647Y-101939482D01*
X158273331Y-101853266D01*
X158222603Y-101791067D01*
X158222600Y-101791064D01*
X158218708Y-101786292D01*
X158212367Y-101781046D01*
X158071144Y-101664216D01*
X158071140Y-101664214D01*
X158066394Y-101660287D01*
X157892506Y-101566266D01*
X157798087Y-101537039D01*
X157709554Y-101509633D01*
X157709551Y-101509632D01*
X157703667Y-101507811D01*
X157697542Y-101507167D01*
X157697541Y-101507167D01*
X157513199Y-101487792D01*
X157513198Y-101487792D01*
X157507071Y-101487148D01*
X157424460Y-101494666D01*
X157316345Y-101504505D01*
X157316342Y-101504506D01*
X157310206Y-101505064D01*
X157304300Y-101506802D01*
X157304296Y-101506803D01*
X157165685Y-101547599D01*
X157120570Y-101560877D01*
X156945386Y-101652461D01*
X156791327Y-101776327D01*
X156664262Y-101927758D01*
X156661296Y-101933153D01*
X156661292Y-101933159D01*
X156654825Y-101944923D01*
X156569029Y-102100985D01*
X156509257Y-102289411D01*
X156487222Y-102485858D01*
X154508000Y-102485858D01*
X154508000Y-86485858D01*
X156487222Y-86485858D01*
X156503763Y-86682844D01*
X156558251Y-86872865D01*
X156648609Y-87048684D01*
X156652432Y-87053508D01*
X156652435Y-87053512D01*
X156676485Y-87083855D01*
X156771397Y-87203603D01*
X156921937Y-87331723D01*
X156927315Y-87334729D01*
X156927317Y-87334730D01*
X157008216Y-87379943D01*
X157094496Y-87428163D01*
X157282500Y-87489249D01*
X157478788Y-87512655D01*
X157484923Y-87512183D01*
X157484925Y-87512183D01*
X157669742Y-87497962D01*
X157669746Y-87497961D01*
X157675884Y-87497489D01*
X157866281Y-87444329D01*
X157871785Y-87441549D01*
X157871787Y-87441548D01*
X158037226Y-87357979D01*
X158037228Y-87357978D01*
X158042727Y-87355200D01*
X158198500Y-87233497D01*
X158327667Y-87083855D01*
X158425309Y-86911974D01*
X158487706Y-86724401D01*
X158512482Y-86528281D01*
X158512877Y-86500000D01*
X158511490Y-86485858D01*
X160487222Y-86485858D01*
X160503763Y-86682844D01*
X160558251Y-86872865D01*
X160648609Y-87048684D01*
X160652432Y-87053508D01*
X160652435Y-87053512D01*
X160676485Y-87083855D01*
X160771397Y-87203603D01*
X160921937Y-87331723D01*
X160927315Y-87334729D01*
X160927317Y-87334730D01*
X161008216Y-87379943D01*
X161094496Y-87428163D01*
X161282500Y-87489249D01*
X161478788Y-87512655D01*
X161484923Y-87512183D01*
X161484925Y-87512183D01*
X161669742Y-87497962D01*
X161669746Y-87497961D01*
X161675884Y-87497489D01*
X161866281Y-87444329D01*
X161871785Y-87441549D01*
X161871787Y-87441548D01*
X162037226Y-87357979D01*
X162037228Y-87357978D01*
X162042727Y-87355200D01*
X162198500Y-87233497D01*
X162327667Y-87083855D01*
X162425309Y-86911974D01*
X162487706Y-86724401D01*
X162512482Y-86528281D01*
X162512877Y-86500000D01*
X162493587Y-86303264D01*
X162436451Y-86114023D01*
X162343647Y-85939482D01*
X162273331Y-85853266D01*
X162222603Y-85791067D01*
X162222600Y-85791064D01*
X162218708Y-85786292D01*
X162212367Y-85781046D01*
X162071144Y-85664216D01*
X162071140Y-85664214D01*
X162066394Y-85660287D01*
X161892506Y-85566266D01*
X161798087Y-85537039D01*
X161709554Y-85509633D01*
X161709551Y-85509632D01*
X161703667Y-85507811D01*
X161697542Y-85507167D01*
X161697541Y-85507167D01*
X161513199Y-85487792D01*
X161513198Y-85487792D01*
X161507071Y-85487148D01*
X161424460Y-85494666D01*
X161316345Y-85504505D01*
X161316342Y-85504506D01*
X161310206Y-85505064D01*
X161304300Y-85506802D01*
X161304296Y-85506803D01*
X161165685Y-85547599D01*
X161120570Y-85560877D01*
X160945386Y-85652461D01*
X160791327Y-85776327D01*
X160664262Y-85927758D01*
X160661296Y-85933153D01*
X160661292Y-85933159D01*
X160654825Y-85944923D01*
X160569029Y-86100985D01*
X160509257Y-86289411D01*
X160487222Y-86485858D01*
X158511490Y-86485858D01*
X158493587Y-86303264D01*
X158436451Y-86114023D01*
X158343647Y-85939482D01*
X158273331Y-85853266D01*
X158222603Y-85791067D01*
X158222600Y-85791064D01*
X158218708Y-85786292D01*
X158212367Y-85781046D01*
X158071144Y-85664216D01*
X158071140Y-85664214D01*
X158066394Y-85660287D01*
X157892506Y-85566266D01*
X157798087Y-85537039D01*
X157709554Y-85509633D01*
X157709551Y-85509632D01*
X157703667Y-85507811D01*
X157697542Y-85507167D01*
X157697541Y-85507167D01*
X157513199Y-85487792D01*
X157513198Y-85487792D01*
X157507071Y-85487148D01*
X157424460Y-85494666D01*
X157316345Y-85504505D01*
X157316342Y-85504506D01*
X157310206Y-85505064D01*
X157304300Y-85506802D01*
X157304296Y-85506803D01*
X157165685Y-85547599D01*
X157120570Y-85560877D01*
X156945386Y-85652461D01*
X156791327Y-85776327D01*
X156664262Y-85927758D01*
X156661296Y-85933153D01*
X156661292Y-85933159D01*
X156654825Y-85944923D01*
X156569029Y-86100985D01*
X156509257Y-86289411D01*
X156487222Y-86485858D01*
X154508000Y-86485858D01*
X154508000Y-70485858D01*
X156487222Y-70485858D01*
X156503763Y-70682844D01*
X156558251Y-70872865D01*
X156648609Y-71048684D01*
X156652432Y-71053508D01*
X156652435Y-71053512D01*
X156676485Y-71083855D01*
X156771397Y-71203603D01*
X156921937Y-71331723D01*
X156927315Y-71334729D01*
X156927317Y-71334730D01*
X157008217Y-71379943D01*
X157094496Y-71428163D01*
X157282500Y-71489249D01*
X157478788Y-71512655D01*
X157484923Y-71512183D01*
X157484925Y-71512183D01*
X157669742Y-71497962D01*
X157669746Y-71497961D01*
X157675884Y-71497489D01*
X157866281Y-71444329D01*
X157871785Y-71441549D01*
X157871787Y-71441548D01*
X158037226Y-71357979D01*
X158037228Y-71357978D01*
X158042727Y-71355200D01*
X158198500Y-71233497D01*
X158327667Y-71083855D01*
X158425309Y-70911974D01*
X158487706Y-70724401D01*
X158512482Y-70528281D01*
X158512877Y-70500000D01*
X158511490Y-70485858D01*
X160487222Y-70485858D01*
X160503763Y-70682844D01*
X160558251Y-70872865D01*
X160648609Y-71048684D01*
X160652432Y-71053508D01*
X160652435Y-71053512D01*
X160676485Y-71083855D01*
X160771397Y-71203603D01*
X160921937Y-71331723D01*
X160927315Y-71334729D01*
X160927317Y-71334730D01*
X161008217Y-71379943D01*
X161094496Y-71428163D01*
X161282500Y-71489249D01*
X161478788Y-71512655D01*
X161484923Y-71512183D01*
X161484925Y-71512183D01*
X161669742Y-71497962D01*
X161669746Y-71497961D01*
X161675884Y-71497489D01*
X161866281Y-71444329D01*
X161871785Y-71441549D01*
X161871787Y-71441548D01*
X162037226Y-71357979D01*
X162037228Y-71357978D01*
X162042727Y-71355200D01*
X162198500Y-71233497D01*
X162327667Y-71083855D01*
X162425309Y-70911974D01*
X162487706Y-70724401D01*
X162512482Y-70528281D01*
X162512877Y-70500000D01*
X162493587Y-70303264D01*
X162436451Y-70114023D01*
X162343647Y-69939482D01*
X162273331Y-69853266D01*
X162222603Y-69791067D01*
X162222600Y-69791064D01*
X162218708Y-69786292D01*
X162212367Y-69781046D01*
X162071144Y-69664216D01*
X162071140Y-69664214D01*
X162066394Y-69660287D01*
X161892506Y-69566266D01*
X161798086Y-69537038D01*
X161709554Y-69509633D01*
X161709551Y-69509632D01*
X161703667Y-69507811D01*
X161697542Y-69507167D01*
X161697541Y-69507167D01*
X161513199Y-69487792D01*
X161513198Y-69487792D01*
X161507071Y-69487148D01*
X161424460Y-69494666D01*
X161316345Y-69504505D01*
X161316342Y-69504506D01*
X161310206Y-69505064D01*
X161304300Y-69506802D01*
X161304296Y-69506803D01*
X161165685Y-69547599D01*
X161120570Y-69560877D01*
X160945386Y-69652461D01*
X160791327Y-69776327D01*
X160664262Y-69927758D01*
X160661296Y-69933153D01*
X160661292Y-69933159D01*
X160654825Y-69944923D01*
X160569029Y-70100985D01*
X160509257Y-70289411D01*
X160487222Y-70485858D01*
X158511490Y-70485858D01*
X158493587Y-70303264D01*
X158436451Y-70114023D01*
X158343647Y-69939482D01*
X158273331Y-69853266D01*
X158222603Y-69791067D01*
X158222600Y-69791064D01*
X158218708Y-69786292D01*
X158212367Y-69781046D01*
X158071144Y-69664216D01*
X158071140Y-69664214D01*
X158066394Y-69660287D01*
X157892506Y-69566266D01*
X157798086Y-69537038D01*
X157709554Y-69509633D01*
X157709551Y-69509632D01*
X157703667Y-69507811D01*
X157697542Y-69507167D01*
X157697541Y-69507167D01*
X157513199Y-69487792D01*
X157513198Y-69487792D01*
X157507071Y-69487148D01*
X157424460Y-69494666D01*
X157316345Y-69504505D01*
X157316342Y-69504506D01*
X157310206Y-69505064D01*
X157304300Y-69506802D01*
X157304296Y-69506803D01*
X157165685Y-69547599D01*
X157120570Y-69560877D01*
X156945386Y-69652461D01*
X156791327Y-69776327D01*
X156664262Y-69927758D01*
X156661296Y-69933153D01*
X156661292Y-69933159D01*
X156654825Y-69944923D01*
X156569029Y-70100985D01*
X156509257Y-70289411D01*
X156487222Y-70485858D01*
X154508000Y-70485858D01*
X154508000Y-60508702D01*
X154508002Y-60507932D01*
X154508421Y-60439322D01*
X154508476Y-60430348D01*
X154506010Y-60421719D01*
X154506009Y-60421714D01*
X154500361Y-60401952D01*
X154496783Y-60385191D01*
X154493870Y-60364848D01*
X154493867Y-60364838D01*
X154492595Y-60355955D01*
X154481979Y-60332605D01*
X154475536Y-60315093D01*
X154470954Y-60299063D01*
X154468488Y-60290435D01*
X154452726Y-60265452D01*
X154444596Y-60250386D01*
X154432367Y-60223490D01*
X154415626Y-60204061D01*
X154404521Y-60189053D01*
X154395630Y-60174961D01*
X154390840Y-60167369D01*
X154368703Y-60147818D01*
X154356659Y-60135626D01*
X154343239Y-60120051D01*
X154343237Y-60120050D01*
X154337381Y-60113253D01*
X154329853Y-60108374D01*
X154329850Y-60108371D01*
X154315861Y-60099304D01*
X154300987Y-60088014D01*
X154288502Y-60076988D01*
X154281772Y-60071044D01*
X154273646Y-60067229D01*
X154273645Y-60067228D01*
X154267979Y-60064568D01*
X154255034Y-60058490D01*
X154240065Y-60050176D01*
X154215273Y-60034107D01*
X154190709Y-60026761D01*
X154173264Y-60020099D01*
X154168827Y-60018016D01*
X154150052Y-60009201D01*
X154120870Y-60004657D01*
X154104151Y-60000874D01*
X154084464Y-59994986D01*
X154084461Y-59994985D01*
X154075859Y-59992413D01*
X154066884Y-59992358D01*
X154066883Y-59992358D01*
X154060190Y-59992317D01*
X154041444Y-59992203D01*
X154040672Y-59992170D01*
X154039577Y-59992000D01*
X154008702Y-59992000D01*
X154007932Y-59991998D01*
X153934284Y-59991548D01*
X153934283Y-59991548D01*
X153930348Y-59991524D01*
X153929004Y-59991908D01*
X153927659Y-59992000D01*
X147018667Y-59992000D01*
X146950546Y-59971998D01*
X146904053Y-59918342D01*
X146893949Y-59848068D01*
X146917841Y-59790435D01*
X146945229Y-59753891D01*
X146950615Y-59746705D01*
X147001745Y-59610316D01*
X147008500Y-59548134D01*
X147008500Y-57451866D01*
X147001745Y-57389684D01*
X146950615Y-57253295D01*
X146863261Y-57136739D01*
X146746705Y-57049385D01*
X146610316Y-56998255D01*
X146548134Y-56991500D01*
X141451866Y-56991500D01*
X141389684Y-56998255D01*
X141253295Y-57049385D01*
X141136739Y-57136739D01*
X141049385Y-57253295D01*
X140998255Y-57389684D01*
X140991500Y-57451866D01*
X140991500Y-59548134D01*
X140998255Y-59610316D01*
X141049385Y-59746705D01*
X141054771Y-59753891D01*
X141082159Y-59790435D01*
X141107007Y-59856941D01*
X141091954Y-59926324D01*
X141041780Y-59976554D01*
X140981333Y-59992000D01*
X134008702Y-59992000D01*
X134007932Y-59991998D01*
X134007078Y-59991993D01*
X133930348Y-59991524D01*
X133921719Y-59993990D01*
X133921714Y-59993991D01*
X133901952Y-59999639D01*
X133885191Y-60003217D01*
X133864848Y-60006130D01*
X133864838Y-60006133D01*
X133855955Y-60007405D01*
X133832605Y-60018021D01*
X133815093Y-60024464D01*
X133807057Y-60026761D01*
X133790435Y-60031512D01*
X133765452Y-60047274D01*
X133750386Y-60055404D01*
X133723490Y-60067633D01*
X133704061Y-60084374D01*
X133689053Y-60095479D01*
X133667369Y-60109160D01*
X133661427Y-60115888D01*
X133647819Y-60131296D01*
X133635627Y-60143340D01*
X133613253Y-60162619D01*
X133608374Y-60170147D01*
X133608371Y-60170150D01*
X133599304Y-60184139D01*
X133588014Y-60199013D01*
X133571044Y-60218228D01*
X133558490Y-60244966D01*
X133550176Y-60259935D01*
X133534107Y-60284727D01*
X133531535Y-60293327D01*
X133526761Y-60309290D01*
X133520099Y-60326736D01*
X133509201Y-60349948D01*
X133504658Y-60379128D01*
X133500874Y-60395849D01*
X133494986Y-60415536D01*
X133494985Y-60415539D01*
X133492413Y-60424141D01*
X133492358Y-60433116D01*
X133492358Y-60433117D01*
X133492203Y-60458546D01*
X133492170Y-60459328D01*
X133492000Y-60460423D01*
X133492000Y-60491298D01*
X133491998Y-60492068D01*
X133491524Y-60569652D01*
X133491908Y-60570996D01*
X133492000Y-60572341D01*
X133492000Y-112491298D01*
X133491998Y-112492068D01*
X133491524Y-112569652D01*
X123517625Y-112569652D01*
X123517797Y-112541444D01*
X123517830Y-112540672D01*
X123518000Y-112539577D01*
X123518000Y-112508702D01*
X123518002Y-112507932D01*
X123518452Y-112434284D01*
X123518452Y-112434283D01*
X123518476Y-112430348D01*
X123518092Y-112429004D01*
X123518000Y-112427659D01*
X123518000Y-102485858D01*
X125497222Y-102485858D01*
X125513763Y-102682844D01*
X125568251Y-102872865D01*
X125658609Y-103048684D01*
X125662432Y-103053508D01*
X125662435Y-103053512D01*
X125686485Y-103083855D01*
X125781397Y-103203603D01*
X125931937Y-103331723D01*
X125937315Y-103334729D01*
X125937317Y-103334730D01*
X126018217Y-103379943D01*
X126104496Y-103428163D01*
X126292500Y-103489249D01*
X126488788Y-103512655D01*
X126494923Y-103512183D01*
X126494925Y-103512183D01*
X126679742Y-103497962D01*
X126679746Y-103497961D01*
X126685884Y-103497489D01*
X126876281Y-103444329D01*
X126881785Y-103441549D01*
X126881787Y-103441548D01*
X127047226Y-103357979D01*
X127047228Y-103357978D01*
X127052727Y-103355200D01*
X127208500Y-103233497D01*
X127337667Y-103083855D01*
X127435309Y-102911974D01*
X127497706Y-102724401D01*
X127522482Y-102528281D01*
X127522877Y-102500000D01*
X127521490Y-102485858D01*
X129487222Y-102485858D01*
X129503763Y-102682844D01*
X129558251Y-102872865D01*
X129648609Y-103048684D01*
X129652432Y-103053508D01*
X129652435Y-103053512D01*
X129676485Y-103083855D01*
X129771397Y-103203603D01*
X129921937Y-103331723D01*
X129927315Y-103334729D01*
X129927317Y-103334730D01*
X130008217Y-103379943D01*
X130094496Y-103428163D01*
X130282500Y-103489249D01*
X130478788Y-103512655D01*
X130484923Y-103512183D01*
X130484925Y-103512183D01*
X130669742Y-103497962D01*
X130669746Y-103497961D01*
X130675884Y-103497489D01*
X130866281Y-103444329D01*
X130871785Y-103441549D01*
X130871787Y-103441548D01*
X131037226Y-103357979D01*
X131037228Y-103357978D01*
X131042727Y-103355200D01*
X131198500Y-103233497D01*
X131327667Y-103083855D01*
X131425309Y-102911974D01*
X131487706Y-102724401D01*
X131512482Y-102528281D01*
X131512877Y-102500000D01*
X131493587Y-102303264D01*
X131436451Y-102114023D01*
X131343647Y-101939482D01*
X131273331Y-101853266D01*
X131222603Y-101791067D01*
X131222600Y-101791064D01*
X131218708Y-101786292D01*
X131212367Y-101781046D01*
X131071144Y-101664216D01*
X131071140Y-101664214D01*
X131066394Y-101660287D01*
X130892506Y-101566266D01*
X130798087Y-101537039D01*
X130709554Y-101509633D01*
X130709551Y-101509632D01*
X130703667Y-101507811D01*
X130697542Y-101507167D01*
X130697541Y-101507167D01*
X130513199Y-101487792D01*
X130513198Y-101487792D01*
X130507071Y-101487148D01*
X130424460Y-101494666D01*
X130316345Y-101504505D01*
X130316342Y-101504506D01*
X130310206Y-101505064D01*
X130304300Y-101506802D01*
X130304296Y-101506803D01*
X130165685Y-101547599D01*
X130120570Y-101560877D01*
X129945386Y-101652461D01*
X129791327Y-101776327D01*
X129664262Y-101927758D01*
X129661296Y-101933153D01*
X129661292Y-101933159D01*
X129654825Y-101944923D01*
X129569029Y-102100985D01*
X129509257Y-102289411D01*
X129487222Y-102485858D01*
X127521490Y-102485858D01*
X127503587Y-102303264D01*
X127446451Y-102114023D01*
X127353647Y-101939482D01*
X127283331Y-101853266D01*
X127232603Y-101791067D01*
X127232600Y-101791064D01*
X127228708Y-101786292D01*
X127222367Y-101781046D01*
X127081144Y-101664216D01*
X127081140Y-101664214D01*
X127076394Y-101660287D01*
X126902506Y-101566266D01*
X126808087Y-101537039D01*
X126719554Y-101509633D01*
X126719551Y-101509632D01*
X126713667Y-101507811D01*
X126707542Y-101507167D01*
X126707541Y-101507167D01*
X126523199Y-101487792D01*
X126523198Y-101487792D01*
X126517071Y-101487148D01*
X126434460Y-101494666D01*
X126326345Y-101504505D01*
X126326342Y-101504506D01*
X126320206Y-101505064D01*
X126314300Y-101506802D01*
X126314296Y-101506803D01*
X126175685Y-101547599D01*
X126130570Y-101560877D01*
X125955386Y-101652461D01*
X125801327Y-101776327D01*
X125674262Y-101927758D01*
X125671296Y-101933153D01*
X125671292Y-101933159D01*
X125664825Y-101944923D01*
X125579029Y-102100985D01*
X125519257Y-102289411D01*
X125497222Y-102485858D01*
X123518000Y-102485858D01*
X123518000Y-86485858D01*
X125497222Y-86485858D01*
X125513763Y-86682844D01*
X125568251Y-86872865D01*
X125658609Y-87048684D01*
X125662432Y-87053508D01*
X125662435Y-87053512D01*
X125686485Y-87083855D01*
X125781397Y-87203603D01*
X125931937Y-87331723D01*
X125937315Y-87334729D01*
X125937317Y-87334730D01*
X126018216Y-87379943D01*
X126104496Y-87428163D01*
X126292500Y-87489249D01*
X126488788Y-87512655D01*
X126494923Y-87512183D01*
X126494925Y-87512183D01*
X126679742Y-87497962D01*
X126679746Y-87497961D01*
X126685884Y-87497489D01*
X126876281Y-87444329D01*
X126881785Y-87441549D01*
X126881787Y-87441548D01*
X127047226Y-87357979D01*
X127047228Y-87357978D01*
X127052727Y-87355200D01*
X127208500Y-87233497D01*
X127337667Y-87083855D01*
X127435309Y-86911974D01*
X127497706Y-86724401D01*
X127522482Y-86528281D01*
X127522877Y-86500000D01*
X127521490Y-86485858D01*
X129487222Y-86485858D01*
X129503763Y-86682844D01*
X129558251Y-86872865D01*
X129648609Y-87048684D01*
X129652432Y-87053508D01*
X129652435Y-87053512D01*
X129676485Y-87083855D01*
X129771397Y-87203603D01*
X129921937Y-87331723D01*
X129927315Y-87334729D01*
X129927317Y-87334730D01*
X130008216Y-87379943D01*
X130094496Y-87428163D01*
X130282500Y-87489249D01*
X130478788Y-87512655D01*
X130484923Y-87512183D01*
X130484925Y-87512183D01*
X130669742Y-87497962D01*
X130669746Y-87497961D01*
X130675884Y-87497489D01*
X130866281Y-87444329D01*
X130871785Y-87441549D01*
X130871787Y-87441548D01*
X131037226Y-87357979D01*
X131037228Y-87357978D01*
X131042727Y-87355200D01*
X131198500Y-87233497D01*
X131327667Y-87083855D01*
X131425309Y-86911974D01*
X131487706Y-86724401D01*
X131512482Y-86528281D01*
X131512877Y-86500000D01*
X131493587Y-86303264D01*
X131436451Y-86114023D01*
X131343647Y-85939482D01*
X131273331Y-85853266D01*
X131222603Y-85791067D01*
X131222600Y-85791064D01*
X131218708Y-85786292D01*
X131212367Y-85781046D01*
X131071144Y-85664216D01*
X131071140Y-85664214D01*
X131066394Y-85660287D01*
X130892506Y-85566266D01*
X130798087Y-85537039D01*
X130709554Y-85509633D01*
X130709551Y-85509632D01*
X130703667Y-85507811D01*
X130697542Y-85507167D01*
X130697541Y-85507167D01*
X130513199Y-85487792D01*
X130513198Y-85487792D01*
X130507071Y-85487148D01*
X130424460Y-85494666D01*
X130316345Y-85504505D01*
X130316342Y-85504506D01*
X130310206Y-85505064D01*
X130304300Y-85506802D01*
X130304296Y-85506803D01*
X130165685Y-85547599D01*
X130120570Y-85560877D01*
X129945386Y-85652461D01*
X129791327Y-85776327D01*
X129664262Y-85927758D01*
X129661296Y-85933153D01*
X129661292Y-85933159D01*
X129654825Y-85944923D01*
X129569029Y-86100985D01*
X129509257Y-86289411D01*
X129487222Y-86485858D01*
X127521490Y-86485858D01*
X127503587Y-86303264D01*
X127446451Y-86114023D01*
X127353647Y-85939482D01*
X127283331Y-85853266D01*
X127232603Y-85791067D01*
X127232600Y-85791064D01*
X127228708Y-85786292D01*
X127222367Y-85781046D01*
X127081144Y-85664216D01*
X127081140Y-85664214D01*
X127076394Y-85660287D01*
X126902506Y-85566266D01*
X126808087Y-85537039D01*
X126719554Y-85509633D01*
X126719551Y-85509632D01*
X126713667Y-85507811D01*
X126707542Y-85507167D01*
X126707541Y-85507167D01*
X126523199Y-85487792D01*
X126523198Y-85487792D01*
X126517071Y-85487148D01*
X126434460Y-85494666D01*
X126326345Y-85504505D01*
X126326342Y-85504506D01*
X126320206Y-85505064D01*
X126314300Y-85506802D01*
X126314296Y-85506803D01*
X126175685Y-85547599D01*
X126130570Y-85560877D01*
X125955386Y-85652461D01*
X125801327Y-85776327D01*
X125674262Y-85927758D01*
X125671296Y-85933153D01*
X125671292Y-85933159D01*
X125664825Y-85944923D01*
X125579029Y-86100985D01*
X125519257Y-86289411D01*
X125497222Y-86485858D01*
X123518000Y-86485858D01*
X123518000Y-70485858D01*
X125497222Y-70485858D01*
X125513763Y-70682844D01*
X125568251Y-70872865D01*
X125658609Y-71048684D01*
X125662432Y-71053508D01*
X125662435Y-71053512D01*
X125686485Y-71083855D01*
X125781397Y-71203603D01*
X125931937Y-71331723D01*
X125937315Y-71334729D01*
X125937317Y-71334730D01*
X126018217Y-71379943D01*
X126104496Y-71428163D01*
X126292500Y-71489249D01*
X126488788Y-71512655D01*
X126494923Y-71512183D01*
X126494925Y-71512183D01*
X126679742Y-71497962D01*
X126679746Y-71497961D01*
X126685884Y-71497489D01*
X126876281Y-71444329D01*
X126881785Y-71441549D01*
X126881787Y-71441548D01*
X127047226Y-71357979D01*
X127047228Y-71357978D01*
X127052727Y-71355200D01*
X127208500Y-71233497D01*
X127337667Y-71083855D01*
X127435309Y-70911974D01*
X127497706Y-70724401D01*
X127522482Y-70528281D01*
X127522877Y-70500000D01*
X127521490Y-70485858D01*
X129487222Y-70485858D01*
X129503763Y-70682844D01*
X129558251Y-70872865D01*
X129648609Y-71048684D01*
X129652432Y-71053508D01*
X129652435Y-71053512D01*
X129676485Y-71083855D01*
X129771397Y-71203603D01*
X129921937Y-71331723D01*
X129927315Y-71334729D01*
X129927317Y-71334730D01*
X130008217Y-71379943D01*
X130094496Y-71428163D01*
X130282500Y-71489249D01*
X130478788Y-71512655D01*
X130484923Y-71512183D01*
X130484925Y-71512183D01*
X130669742Y-71497962D01*
X130669746Y-71497961D01*
X130675884Y-71497489D01*
X130866281Y-71444329D01*
X130871785Y-71441549D01*
X130871787Y-71441548D01*
X131037226Y-71357979D01*
X131037228Y-71357978D01*
X131042727Y-71355200D01*
X131198500Y-71233497D01*
X131327667Y-71083855D01*
X131425309Y-70911974D01*
X131487706Y-70724401D01*
X131512482Y-70528281D01*
X131512877Y-70500000D01*
X131493587Y-70303264D01*
X131436451Y-70114023D01*
X131343647Y-69939482D01*
X131273331Y-69853266D01*
X131222603Y-69791067D01*
X131222600Y-69791064D01*
X131218708Y-69786292D01*
X131212367Y-69781046D01*
X131071144Y-69664216D01*
X131071140Y-69664214D01*
X131066394Y-69660287D01*
X130892506Y-69566266D01*
X130798086Y-69537038D01*
X130709554Y-69509633D01*
X130709551Y-69509632D01*
X130703667Y-69507811D01*
X130697542Y-69507167D01*
X130697541Y-69507167D01*
X130513199Y-69487792D01*
X130513198Y-69487792D01*
X130507071Y-69487148D01*
X130424460Y-69494666D01*
X130316345Y-69504505D01*
X130316342Y-69504506D01*
X130310206Y-69505064D01*
X130304300Y-69506802D01*
X130304296Y-69506803D01*
X130165685Y-69547599D01*
X130120570Y-69560877D01*
X129945386Y-69652461D01*
X129791327Y-69776327D01*
X129664262Y-69927758D01*
X129661296Y-69933153D01*
X129661292Y-69933159D01*
X129654825Y-69944923D01*
X129569029Y-70100985D01*
X129509257Y-70289411D01*
X129487222Y-70485858D01*
X127521490Y-70485858D01*
X127503587Y-70303264D01*
X127446451Y-70114023D01*
X127353647Y-69939482D01*
X127283331Y-69853266D01*
X127232603Y-69791067D01*
X127232600Y-69791064D01*
X127228708Y-69786292D01*
X127222367Y-69781046D01*
X127081144Y-69664216D01*
X127081140Y-69664214D01*
X127076394Y-69660287D01*
X126902506Y-69566266D01*
X126808086Y-69537038D01*
X126719554Y-69509633D01*
X126719551Y-69509632D01*
X126713667Y-69507811D01*
X126707542Y-69507167D01*
X126707541Y-69507167D01*
X126523199Y-69487792D01*
X126523198Y-69487792D01*
X126517071Y-69487148D01*
X126434460Y-69494666D01*
X126326345Y-69504505D01*
X126326342Y-69504506D01*
X126320206Y-69505064D01*
X126314300Y-69506802D01*
X126314296Y-69506803D01*
X126175685Y-69547599D01*
X126130570Y-69560877D01*
X125955386Y-69652461D01*
X125801327Y-69776327D01*
X125674262Y-69927758D01*
X125671296Y-69933153D01*
X125671292Y-69933159D01*
X125664825Y-69944923D01*
X125579029Y-70100985D01*
X125519257Y-70289411D01*
X125497222Y-70485858D01*
X123518000Y-70485858D01*
X123518000Y-60508702D01*
X123518002Y-60507932D01*
X123518421Y-60439322D01*
X123518476Y-60430348D01*
X123516010Y-60421719D01*
X123516009Y-60421714D01*
X123510361Y-60401952D01*
X123506783Y-60385191D01*
X123503870Y-60364848D01*
X123503867Y-60364838D01*
X123502595Y-60355955D01*
X123491979Y-60332605D01*
X123485536Y-60315093D01*
X123480954Y-60299063D01*
X123478488Y-60290435D01*
X123462726Y-60265452D01*
X123454596Y-60250386D01*
X123442367Y-60223490D01*
X123425626Y-60204061D01*
X123414521Y-60189053D01*
X123405630Y-60174961D01*
X123400840Y-60167369D01*
X123378703Y-60147818D01*
X123366659Y-60135626D01*
X123353239Y-60120051D01*
X123353237Y-60120050D01*
X123347381Y-60113253D01*
X123339853Y-60108374D01*
X123339850Y-60108371D01*
X123325861Y-60099304D01*
X123310987Y-60088014D01*
X123298502Y-60076988D01*
X123291772Y-60071044D01*
X123283646Y-60067229D01*
X123283645Y-60067228D01*
X123277979Y-60064568D01*
X123265034Y-60058490D01*
X123250065Y-60050176D01*
X123225273Y-60034107D01*
X123200709Y-60026761D01*
X123183264Y-60020099D01*
X123178827Y-60018016D01*
X123160052Y-60009201D01*
X123130870Y-60004657D01*
X123114151Y-60000874D01*
X123094464Y-59994986D01*
X123094461Y-59994985D01*
X123085859Y-59992413D01*
X123076884Y-59992358D01*
X123076883Y-59992358D01*
X123070190Y-59992317D01*
X123051444Y-59992203D01*
X123050672Y-59992170D01*
X123049577Y-59992000D01*
X123018702Y-59992000D01*
X123017932Y-59991998D01*
X122944284Y-59991548D01*
X122944283Y-59991548D01*
X122940348Y-59991524D01*
X122939004Y-59991908D01*
X122937659Y-59992000D01*
X116028667Y-59992000D01*
X115960546Y-59971998D01*
X115914053Y-59918342D01*
X115903949Y-59848068D01*
X115927841Y-59790435D01*
X115955229Y-59753891D01*
X115960615Y-59746705D01*
X116011745Y-59610316D01*
X116018500Y-59548134D01*
X116018500Y-57451866D01*
X116011745Y-57389684D01*
X115960615Y-57253295D01*
X115873261Y-57136739D01*
X115756705Y-57049385D01*
X115620316Y-56998255D01*
X115558134Y-56991500D01*
X110461866Y-56991500D01*
X110399684Y-56998255D01*
X110263295Y-57049385D01*
X110146739Y-57136739D01*
X110059385Y-57253295D01*
X110008255Y-57389684D01*
X110001500Y-57451866D01*
X110001500Y-59548134D01*
X110008255Y-59610316D01*
X110059385Y-59746705D01*
X110064771Y-59753891D01*
X110092159Y-59790435D01*
X110117007Y-59856941D01*
X110101954Y-59926324D01*
X110051780Y-59976554D01*
X109991333Y-59992000D01*
X103018702Y-59992000D01*
X103017932Y-59991998D01*
X103017078Y-59991993D01*
X102940348Y-59991524D01*
X102931719Y-59993990D01*
X102931714Y-59993991D01*
X102911952Y-59999639D01*
X102895191Y-60003217D01*
X102874848Y-60006130D01*
X102874838Y-60006133D01*
X102865955Y-60007405D01*
X102842605Y-60018021D01*
X102825093Y-60024464D01*
X102817057Y-60026761D01*
X102800435Y-60031512D01*
X102775452Y-60047274D01*
X102760386Y-60055404D01*
X102733490Y-60067633D01*
X102714061Y-60084374D01*
X102699053Y-60095479D01*
X102677369Y-60109160D01*
X102671427Y-60115888D01*
X102657819Y-60131296D01*
X102645627Y-60143340D01*
X102623253Y-60162619D01*
X102618374Y-60170147D01*
X102618371Y-60170150D01*
X102609304Y-60184139D01*
X102598014Y-60199013D01*
X102581044Y-60218228D01*
X102568490Y-60244966D01*
X102560176Y-60259935D01*
X102544107Y-60284727D01*
X102541535Y-60293327D01*
X102536761Y-60309290D01*
X102530099Y-60326736D01*
X102519201Y-60349948D01*
X102514658Y-60379128D01*
X102510874Y-60395849D01*
X102504986Y-60415536D01*
X102504985Y-60415539D01*
X102502413Y-60424141D01*
X102502358Y-60433116D01*
X102502358Y-60433117D01*
X102502203Y-60458546D01*
X102502170Y-60459328D01*
X102502000Y-60460423D01*
X102502000Y-60491298D01*
X102501998Y-60492068D01*
X102501524Y-60569652D01*
X102501908Y-60570996D01*
X102502000Y-60572341D01*
X102502000Y-112491298D01*
X102501998Y-112492068D01*
X102501524Y-112569652D01*
X84508000Y-112569652D01*
X84508000Y-102485858D01*
X98497222Y-102485858D01*
X98513763Y-102682844D01*
X98568251Y-102872865D01*
X98658609Y-103048684D01*
X98662432Y-103053508D01*
X98662435Y-103053512D01*
X98686485Y-103083855D01*
X98781397Y-103203603D01*
X98931937Y-103331723D01*
X98937315Y-103334729D01*
X98937317Y-103334730D01*
X99018217Y-103379943D01*
X99104496Y-103428163D01*
X99292500Y-103489249D01*
X99488788Y-103512655D01*
X99494923Y-103512183D01*
X99494925Y-103512183D01*
X99679742Y-103497962D01*
X99679746Y-103497961D01*
X99685884Y-103497489D01*
X99876281Y-103444329D01*
X99881785Y-103441549D01*
X99881787Y-103441548D01*
X100047226Y-103357979D01*
X100047228Y-103357978D01*
X100052727Y-103355200D01*
X100208500Y-103233497D01*
X100337667Y-103083855D01*
X100435309Y-102911974D01*
X100497706Y-102724401D01*
X100522482Y-102528281D01*
X100522877Y-102500000D01*
X100503587Y-102303264D01*
X100446451Y-102114023D01*
X100353647Y-101939482D01*
X100283331Y-101853266D01*
X100232603Y-101791067D01*
X100232600Y-101791064D01*
X100228708Y-101786292D01*
X100222367Y-101781046D01*
X100081144Y-101664216D01*
X100081140Y-101664214D01*
X100076394Y-101660287D01*
X99902506Y-101566266D01*
X99808087Y-101537039D01*
X99719554Y-101509633D01*
X99719551Y-101509632D01*
X99713667Y-101507811D01*
X99707542Y-101507167D01*
X99707541Y-101507167D01*
X99523199Y-101487792D01*
X99523198Y-101487792D01*
X99517071Y-101487148D01*
X99434460Y-101494666D01*
X99326345Y-101504505D01*
X99326342Y-101504506D01*
X99320206Y-101505064D01*
X99314300Y-101506802D01*
X99314296Y-101506803D01*
X99175685Y-101547599D01*
X99130570Y-101560877D01*
X98955386Y-101652461D01*
X98801327Y-101776327D01*
X98674262Y-101927758D01*
X98671296Y-101933153D01*
X98671292Y-101933159D01*
X98664825Y-101944923D01*
X98579029Y-102100985D01*
X98519257Y-102289411D01*
X98497222Y-102485858D01*
X84508000Y-102485858D01*
X84508000Y-86485858D01*
X98497222Y-86485858D01*
X98513763Y-86682844D01*
X98568251Y-86872865D01*
X98658609Y-87048684D01*
X98662432Y-87053508D01*
X98662435Y-87053512D01*
X98686485Y-87083855D01*
X98781397Y-87203603D01*
X98931937Y-87331723D01*
X98937315Y-87334729D01*
X98937317Y-87334730D01*
X99018216Y-87379943D01*
X99104496Y-87428163D01*
X99292500Y-87489249D01*
X99488788Y-87512655D01*
X99494923Y-87512183D01*
X99494925Y-87512183D01*
X99679742Y-87497962D01*
X99679746Y-87497961D01*
X99685884Y-87497489D01*
X99876281Y-87444329D01*
X99881785Y-87441549D01*
X99881787Y-87441548D01*
X100047226Y-87357979D01*
X100047228Y-87357978D01*
X100052727Y-87355200D01*
X100208500Y-87233497D01*
X100337667Y-87083855D01*
X100435309Y-86911974D01*
X100497706Y-86724401D01*
X100522482Y-86528281D01*
X100522877Y-86500000D01*
X100503587Y-86303264D01*
X100446451Y-86114023D01*
X100353647Y-85939482D01*
X100283331Y-85853266D01*
X100232603Y-85791067D01*
X100232600Y-85791064D01*
X100228708Y-85786292D01*
X100222367Y-85781046D01*
X100081144Y-85664216D01*
X100081140Y-85664214D01*
X100076394Y-85660287D01*
X99902506Y-85566266D01*
X99808087Y-85537039D01*
X99719554Y-85509633D01*
X99719551Y-85509632D01*
X99713667Y-85507811D01*
X99707542Y-85507167D01*
X99707541Y-85507167D01*
X99523199Y-85487792D01*
X99523198Y-85487792D01*
X99517071Y-85487148D01*
X99434460Y-85494666D01*
X99326345Y-85504505D01*
X99326342Y-85504506D01*
X99320206Y-85505064D01*
X99314300Y-85506802D01*
X99314296Y-85506803D01*
X99175685Y-85547599D01*
X99130570Y-85560877D01*
X98955386Y-85652461D01*
X98801327Y-85776327D01*
X98674262Y-85927758D01*
X98671296Y-85933153D01*
X98671292Y-85933159D01*
X98664825Y-85944923D01*
X98579029Y-86100985D01*
X98519257Y-86289411D01*
X98497222Y-86485858D01*
X84508000Y-86485858D01*
X84508000Y-70485858D01*
X98497222Y-70485858D01*
X98513763Y-70682844D01*
X98568251Y-70872865D01*
X98658609Y-71048684D01*
X98662432Y-71053508D01*
X98662435Y-71053512D01*
X98686485Y-71083855D01*
X98781397Y-71203603D01*
X98931937Y-71331723D01*
X98937315Y-71334729D01*
X98937317Y-71334730D01*
X99018217Y-71379943D01*
X99104496Y-71428163D01*
X99292500Y-71489249D01*
X99488788Y-71512655D01*
X99494923Y-71512183D01*
X99494925Y-71512183D01*
X99679742Y-71497962D01*
X99679746Y-71497961D01*
X99685884Y-71497489D01*
X99876281Y-71444329D01*
X99881785Y-71441549D01*
X99881787Y-71441548D01*
X100047226Y-71357979D01*
X100047228Y-71357978D01*
X100052727Y-71355200D01*
X100208500Y-71233497D01*
X100337667Y-71083855D01*
X100435309Y-70911974D01*
X100497706Y-70724401D01*
X100522482Y-70528281D01*
X100522877Y-70500000D01*
X100503587Y-70303264D01*
X100446451Y-70114023D01*
X100353647Y-69939482D01*
X100283331Y-69853266D01*
X100232603Y-69791067D01*
X100232600Y-69791064D01*
X100228708Y-69786292D01*
X100222367Y-69781046D01*
X100081144Y-69664216D01*
X100081140Y-69664214D01*
X100076394Y-69660287D01*
X99902506Y-69566266D01*
X99808086Y-69537038D01*
X99719554Y-69509633D01*
X99719551Y-69509632D01*
X99713667Y-69507811D01*
X99707542Y-69507167D01*
X99707541Y-69507167D01*
X99523199Y-69487792D01*
X99523198Y-69487792D01*
X99517071Y-69487148D01*
X99434460Y-69494666D01*
X99326345Y-69504505D01*
X99326342Y-69504506D01*
X99320206Y-69505064D01*
X99314300Y-69506802D01*
X99314296Y-69506803D01*
X99175685Y-69547599D01*
X99130570Y-69560877D01*
X98955386Y-69652461D01*
X98801327Y-69776327D01*
X98674262Y-69927758D01*
X98671296Y-69933153D01*
X98671292Y-69933159D01*
X98664825Y-69944923D01*
X98579029Y-70100985D01*
X98519257Y-70289411D01*
X98497222Y-70485858D01*
X84508000Y-70485858D01*
X84508000Y-55741640D01*
X192353463Y-55741640D01*
X192371163Y-55922160D01*
X192428418Y-56094273D01*
X192522380Y-56249424D01*
X192527269Y-56254487D01*
X192527270Y-56254488D01*
X192604121Y-56334068D01*
X192648382Y-56379902D01*
X192800159Y-56479222D01*
X192806763Y-56481678D01*
X192806765Y-56481679D01*
X192963558Y-56539990D01*
X192963560Y-56539990D01*
X192970168Y-56542448D01*
X193053995Y-56553633D01*
X193142980Y-56565507D01*
X193142984Y-56565507D01*
X193149961Y-56566438D01*
X193156972Y-56565800D01*
X193156976Y-56565800D01*
X193299459Y-56552832D01*
X193330600Y-56549998D01*
X193337302Y-56547820D01*
X193337304Y-56547820D01*
X193496409Y-56496124D01*
X193496412Y-56496123D01*
X193503108Y-56493947D01*
X193592340Y-56440754D01*
X193661094Y-56423054D01*
X193728504Y-56445336D01*
X193747492Y-56461455D01*
X193786483Y-56501830D01*
X193786488Y-56501834D01*
X193791382Y-56506902D01*
X193943159Y-56606222D01*
X193949763Y-56608678D01*
X193949765Y-56608679D01*
X194106558Y-56666990D01*
X194106560Y-56666990D01*
X194113168Y-56669448D01*
X194196995Y-56680633D01*
X194285980Y-56692507D01*
X194285984Y-56692507D01*
X194292961Y-56693438D01*
X194299972Y-56692800D01*
X194299976Y-56692800D01*
X194442459Y-56679832D01*
X194473600Y-56676998D01*
X194480302Y-56674820D01*
X194480304Y-56674820D01*
X194639409Y-56623124D01*
X194639412Y-56623123D01*
X194646108Y-56620947D01*
X194765126Y-56549998D01*
X194795860Y-56531677D01*
X194795862Y-56531676D01*
X194801912Y-56528069D01*
X194933266Y-56402982D01*
X195033643Y-56251902D01*
X195091233Y-56100297D01*
X195095555Y-56088920D01*
X195095556Y-56088918D01*
X195098055Y-56082338D01*
X195119627Y-55928844D01*
X195122748Y-55906639D01*
X195122748Y-55906636D01*
X195123299Y-55902717D01*
X195123616Y-55880000D01*
X195103397Y-55699745D01*
X195057754Y-55568675D01*
X195046064Y-55535106D01*
X195046062Y-55535103D01*
X195043745Y-55528448D01*
X194962146Y-55397861D01*
X194951359Y-55380598D01*
X194947626Y-55374624D01*
X194838268Y-55264500D01*
X194824778Y-55250915D01*
X194824774Y-55250912D01*
X194819815Y-55245918D01*
X194808697Y-55238862D01*
X194729937Y-55188880D01*
X194666666Y-55148727D01*
X194596986Y-55123915D01*
X194502425Y-55090243D01*
X194502420Y-55090242D01*
X194495790Y-55087881D01*
X194488802Y-55087048D01*
X194488799Y-55087047D01*
X194365698Y-55072368D01*
X194315680Y-55066404D01*
X194308677Y-55067140D01*
X194308676Y-55067140D01*
X194142288Y-55084628D01*
X194142286Y-55084629D01*
X194135288Y-55085364D01*
X193963579Y-55143818D01*
X193885975Y-55191561D01*
X193817476Y-55210219D01*
X193749761Y-55188880D01*
X193730548Y-55173027D01*
X193681778Y-55123915D01*
X193681774Y-55123912D01*
X193676815Y-55118918D01*
X193665697Y-55111862D01*
X193595380Y-55067238D01*
X193523666Y-55021727D01*
X193494463Y-55011328D01*
X193359425Y-54963243D01*
X193359420Y-54963242D01*
X193352790Y-54960881D01*
X193345802Y-54960048D01*
X193345799Y-54960047D01*
X193222698Y-54945368D01*
X193172680Y-54939404D01*
X193165677Y-54940140D01*
X193165676Y-54940140D01*
X192999288Y-54957628D01*
X192999286Y-54957629D01*
X192992288Y-54958364D01*
X192820579Y-55016818D01*
X192791243Y-55034866D01*
X192672095Y-55108166D01*
X192672092Y-55108168D01*
X192666088Y-55111862D01*
X192661053Y-55116793D01*
X192661050Y-55116795D01*
X192541525Y-55233843D01*
X192536493Y-55238771D01*
X192438235Y-55391238D01*
X192435826Y-55397858D01*
X192435824Y-55397861D01*
X192388294Y-55528448D01*
X192376197Y-55561685D01*
X192353463Y-55741640D01*
X84508000Y-55741640D01*
X84508000Y-54088640D01*
X133186463Y-54088640D01*
X133204163Y-54269160D01*
X133261418Y-54441273D01*
X133265065Y-54447295D01*
X133265066Y-54447297D01*
X133324799Y-54545928D01*
X133355380Y-54596424D01*
X133481382Y-54726902D01*
X133633159Y-54826222D01*
X133639763Y-54828678D01*
X133639765Y-54828679D01*
X133796558Y-54886990D01*
X133796560Y-54886990D01*
X133803168Y-54889448D01*
X133886995Y-54900633D01*
X133975980Y-54912507D01*
X133975984Y-54912507D01*
X133982961Y-54913438D01*
X133989972Y-54912800D01*
X133989976Y-54912800D01*
X134154216Y-54897852D01*
X134163600Y-54896998D01*
X134170302Y-54894820D01*
X134170304Y-54894820D01*
X134329409Y-54843124D01*
X134329412Y-54843123D01*
X134336108Y-54840947D01*
X134491912Y-54748069D01*
X134623266Y-54622982D01*
X134723643Y-54471902D01*
X134767671Y-54356000D01*
X160122496Y-54356000D01*
X160123186Y-54362565D01*
X160132092Y-54447297D01*
X160142458Y-54545928D01*
X160201473Y-54727556D01*
X160296960Y-54892944D01*
X160301378Y-54897851D01*
X160301379Y-54897852D01*
X160416319Y-55025506D01*
X160424747Y-55034866D01*
X160579248Y-55147118D01*
X160585276Y-55149802D01*
X160585278Y-55149803D01*
X160747681Y-55222109D01*
X160753712Y-55224794D01*
X160835332Y-55242143D01*
X160934056Y-55263128D01*
X160934061Y-55263128D01*
X160940513Y-55264500D01*
X161131487Y-55264500D01*
X161137939Y-55263128D01*
X161137944Y-55263128D01*
X161236668Y-55242143D01*
X161318288Y-55224794D01*
X161324319Y-55222109D01*
X161486722Y-55149803D01*
X161486724Y-55149802D01*
X161492752Y-55147118D01*
X161647253Y-55034866D01*
X161655681Y-55025506D01*
X161770621Y-54897852D01*
X161770622Y-54897851D01*
X161775040Y-54892944D01*
X161870527Y-54727556D01*
X161929542Y-54545928D01*
X161939909Y-54447297D01*
X161948814Y-54362565D01*
X161949504Y-54356000D01*
X161942195Y-54286457D01*
X161930232Y-54172635D01*
X161930232Y-54172633D01*
X161929542Y-54166072D01*
X161870527Y-53984444D01*
X161775040Y-53819056D01*
X161696936Y-53732312D01*
X161651675Y-53682045D01*
X161651674Y-53682044D01*
X161647253Y-53677134D01*
X161529654Y-53591693D01*
X161498094Y-53568763D01*
X161498093Y-53568762D01*
X161492752Y-53564882D01*
X161486724Y-53562198D01*
X161486722Y-53562197D01*
X161324319Y-53489891D01*
X161324318Y-53489891D01*
X161318288Y-53487206D01*
X161224888Y-53467353D01*
X161137944Y-53448872D01*
X161137939Y-53448872D01*
X161131487Y-53447500D01*
X160940513Y-53447500D01*
X160934061Y-53448872D01*
X160934056Y-53448872D01*
X160847113Y-53467353D01*
X160753712Y-53487206D01*
X160747682Y-53489891D01*
X160747681Y-53489891D01*
X160585278Y-53562197D01*
X160585276Y-53562198D01*
X160579248Y-53564882D01*
X160573907Y-53568762D01*
X160573906Y-53568763D01*
X160542346Y-53591693D01*
X160424747Y-53677134D01*
X160420326Y-53682044D01*
X160420325Y-53682045D01*
X160375065Y-53732312D01*
X160296960Y-53819056D01*
X160201473Y-53984444D01*
X160142458Y-54166072D01*
X160141768Y-54172633D01*
X160141768Y-54172635D01*
X160129805Y-54286457D01*
X160122496Y-54356000D01*
X134767671Y-54356000D01*
X134788055Y-54302338D01*
X134790911Y-54282017D01*
X134812748Y-54126639D01*
X134812748Y-54126636D01*
X134813299Y-54122717D01*
X134813616Y-54100000D01*
X134793397Y-53919745D01*
X134791080Y-53913091D01*
X134736064Y-53755106D01*
X134736062Y-53755103D01*
X134733745Y-53748448D01*
X134723662Y-53732312D01*
X134641359Y-53600598D01*
X134637626Y-53594624D01*
X134608091Y-53564882D01*
X134514778Y-53470915D01*
X134514774Y-53470912D01*
X134509815Y-53465918D01*
X134498697Y-53458862D01*
X134448044Y-53426717D01*
X134356666Y-53368727D01*
X134285885Y-53343523D01*
X134192425Y-53310243D01*
X134192420Y-53310242D01*
X134185790Y-53307881D01*
X134178802Y-53307048D01*
X134178799Y-53307047D01*
X134055698Y-53292368D01*
X134005680Y-53286404D01*
X133998677Y-53287140D01*
X133998676Y-53287140D01*
X133832288Y-53304628D01*
X133832286Y-53304629D01*
X133825288Y-53305364D01*
X133653579Y-53363818D01*
X133639457Y-53372506D01*
X133505095Y-53455166D01*
X133505092Y-53455168D01*
X133499088Y-53458862D01*
X133494053Y-53463793D01*
X133494050Y-53463795D01*
X133397450Y-53558393D01*
X133369493Y-53585771D01*
X133271235Y-53738238D01*
X133268826Y-53744858D01*
X133268824Y-53744861D01*
X133236884Y-53832615D01*
X133209197Y-53908685D01*
X133186463Y-54088640D01*
X84508000Y-54088640D01*
X84508000Y-50290000D01*
X87656464Y-50290000D01*
X87676576Y-50545541D01*
X87677730Y-50550348D01*
X87677731Y-50550354D01*
X87711180Y-50689677D01*
X87736415Y-50794790D01*
X87738308Y-50799361D01*
X87738309Y-50799363D01*
X87831815Y-51025105D01*
X87834509Y-51031610D01*
X87968442Y-51250168D01*
X87971654Y-51253928D01*
X87971657Y-51253933D01*
X88017835Y-51308000D01*
X88134916Y-51445084D01*
X88138678Y-51448297D01*
X88326067Y-51608343D01*
X88326072Y-51608346D01*
X88329832Y-51611558D01*
X88548390Y-51745491D01*
X88552960Y-51747384D01*
X88552964Y-51747386D01*
X88780637Y-51841691D01*
X88785210Y-51843585D01*
X88871119Y-51864210D01*
X89029646Y-51902269D01*
X89029652Y-51902270D01*
X89034459Y-51903424D01*
X89290000Y-51923536D01*
X89545541Y-51903424D01*
X89550348Y-51902270D01*
X89550354Y-51902269D01*
X89708881Y-51864210D01*
X89794790Y-51843585D01*
X89799363Y-51841691D01*
X90027036Y-51747386D01*
X90027040Y-51747384D01*
X90031610Y-51745491D01*
X90250168Y-51611558D01*
X90253928Y-51608346D01*
X90253933Y-51608343D01*
X90441322Y-51448297D01*
X90445084Y-51445084D01*
X90562165Y-51308000D01*
X90571867Y-51296640D01*
X97992463Y-51296640D01*
X98010163Y-51477160D01*
X98067418Y-51649273D01*
X98071065Y-51655295D01*
X98071066Y-51655297D01*
X98148423Y-51783029D01*
X98161380Y-51804424D01*
X98166269Y-51809487D01*
X98166270Y-51809488D01*
X98200313Y-51844740D01*
X98287382Y-51934902D01*
X98439159Y-52034222D01*
X98445763Y-52036678D01*
X98445765Y-52036679D01*
X98602558Y-52094990D01*
X98602560Y-52094990D01*
X98609168Y-52097448D01*
X98692995Y-52108633D01*
X98781980Y-52120507D01*
X98781984Y-52120507D01*
X98788961Y-52121438D01*
X98795972Y-52120800D01*
X98795976Y-52120800D01*
X98938459Y-52107832D01*
X98969600Y-52104998D01*
X98976302Y-52102820D01*
X98976304Y-52102820D01*
X99135409Y-52051124D01*
X99135412Y-52051123D01*
X99142108Y-52048947D01*
X99297912Y-51956069D01*
X99429266Y-51830982D01*
X99529643Y-51679902D01*
X99594055Y-51510338D01*
X99595035Y-51503366D01*
X99618748Y-51334639D01*
X99618748Y-51334636D01*
X99619299Y-51330717D01*
X99619616Y-51308000D01*
X99618342Y-51296640D01*
X119480863Y-51296640D01*
X119498563Y-51477160D01*
X119555818Y-51649273D01*
X119559465Y-51655295D01*
X119559466Y-51655297D01*
X119636823Y-51783029D01*
X119649780Y-51804424D01*
X119654669Y-51809487D01*
X119654670Y-51809488D01*
X119688713Y-51844740D01*
X119775782Y-51934902D01*
X119927559Y-52034222D01*
X119934163Y-52036678D01*
X119934165Y-52036679D01*
X120090958Y-52094990D01*
X120090960Y-52094990D01*
X120097568Y-52097448D01*
X120181395Y-52108633D01*
X120270380Y-52120507D01*
X120270384Y-52120507D01*
X120277361Y-52121438D01*
X120284372Y-52120800D01*
X120284376Y-52120800D01*
X120426859Y-52107832D01*
X120458000Y-52104998D01*
X120464702Y-52102820D01*
X120464704Y-52102820D01*
X120623809Y-52051124D01*
X120623812Y-52051123D01*
X120630508Y-52048947D01*
X120786312Y-51956069D01*
X120821046Y-51922992D01*
X143479500Y-51922992D01*
X143479767Y-51927623D01*
X143519309Y-52098895D01*
X143522375Y-52105237D01*
X143586208Y-52237283D01*
X143595812Y-52257151D01*
X143705476Y-52394524D01*
X143842849Y-52504188D01*
X144001105Y-52580691D01*
X144172377Y-52620233D01*
X144177008Y-52620500D01*
X145423500Y-52620500D01*
X145491621Y-52640502D01*
X145538114Y-52694158D01*
X145549500Y-52746500D01*
X145549500Y-53430134D01*
X145556255Y-53492316D01*
X145607385Y-53628705D01*
X145694739Y-53745261D01*
X145811295Y-53832615D01*
X145947684Y-53883745D01*
X146009866Y-53890500D01*
X147906134Y-53890500D01*
X147968316Y-53883745D01*
X148104705Y-53832615D01*
X148221261Y-53745261D01*
X148308615Y-53628705D01*
X148359745Y-53492316D01*
X148366500Y-53430134D01*
X148366500Y-53325851D01*
X191010719Y-53325851D01*
X191011235Y-53331995D01*
X191024153Y-53485834D01*
X191027268Y-53522934D01*
X191040409Y-53568763D01*
X191070371Y-53673251D01*
X191081783Y-53713050D01*
X191172187Y-53888956D01*
X191295035Y-54043953D01*
X191299728Y-54047947D01*
X191299729Y-54047948D01*
X191387583Y-54122717D01*
X191445650Y-54172136D01*
X191618294Y-54268624D01*
X191806392Y-54329740D01*
X192002777Y-54353158D01*
X192008912Y-54352686D01*
X192008914Y-54352686D01*
X192193830Y-54338457D01*
X192193834Y-54338456D01*
X192199972Y-54337984D01*
X192390463Y-54284798D01*
X192395967Y-54282018D01*
X192395969Y-54282017D01*
X192561495Y-54198404D01*
X192561497Y-54198403D01*
X192566996Y-54195625D01*
X192722847Y-54073861D01*
X192852078Y-53924145D01*
X192949769Y-53752179D01*
X193012197Y-53564513D01*
X193036985Y-53368295D01*
X193037380Y-53340000D01*
X193018080Y-53143167D01*
X192960916Y-52953831D01*
X192868066Y-52779204D01*
X192797709Y-52692938D01*
X192746960Y-52630713D01*
X192746957Y-52630710D01*
X192743065Y-52625938D01*
X192736169Y-52620233D01*
X192595425Y-52503799D01*
X192595421Y-52503797D01*
X192590675Y-52499870D01*
X192416701Y-52405802D01*
X192227768Y-52347318D01*
X192221643Y-52346674D01*
X192221642Y-52346674D01*
X192037204Y-52327289D01*
X192037202Y-52327289D01*
X192031075Y-52326645D01*
X191948576Y-52334153D01*
X191840251Y-52344011D01*
X191840248Y-52344012D01*
X191834112Y-52344570D01*
X191828206Y-52346308D01*
X191828202Y-52346309D01*
X191723076Y-52377249D01*
X191644381Y-52400410D01*
X191638923Y-52403263D01*
X191638919Y-52403265D01*
X191548147Y-52450720D01*
X191469110Y-52492040D01*
X191314975Y-52615968D01*
X191187846Y-52767474D01*
X191184879Y-52772872D01*
X191184875Y-52772877D01*
X191181397Y-52779204D01*
X191092567Y-52940787D01*
X191090706Y-52946654D01*
X191090705Y-52946656D01*
X191034627Y-53123436D01*
X191032765Y-53129306D01*
X191010719Y-53325851D01*
X148366500Y-53325851D01*
X148366500Y-52233866D01*
X148359745Y-52171684D01*
X148308615Y-52035295D01*
X148221261Y-51918739D01*
X148104705Y-51831385D01*
X147968316Y-51780255D01*
X147906134Y-51773500D01*
X146422500Y-51773500D01*
X146354379Y-51753498D01*
X146307886Y-51699842D01*
X146296500Y-51647500D01*
X146296500Y-51201008D01*
X146296233Y-51196377D01*
X146256691Y-51025105D01*
X146180188Y-50866849D01*
X146070524Y-50729476D01*
X145933151Y-50619812D01*
X145774895Y-50543309D01*
X145603623Y-50503767D01*
X145598992Y-50503500D01*
X144177008Y-50503500D01*
X144172377Y-50503767D01*
X144001105Y-50543309D01*
X143842849Y-50619812D01*
X143705476Y-50729476D01*
X143595812Y-50866849D01*
X143519309Y-51025105D01*
X143479767Y-51196377D01*
X143479500Y-51201008D01*
X143479500Y-51922992D01*
X120821046Y-51922992D01*
X120917666Y-51830982D01*
X121018043Y-51679902D01*
X121082455Y-51510338D01*
X121083435Y-51503366D01*
X121107148Y-51334639D01*
X121107148Y-51334636D01*
X121107699Y-51330717D01*
X121108016Y-51308000D01*
X121087797Y-51127745D01*
X121085480Y-51121091D01*
X121030464Y-50963106D01*
X121030462Y-50963103D01*
X121028145Y-50956448D01*
X120932026Y-50802624D01*
X120927064Y-50797627D01*
X120809178Y-50678915D01*
X120809174Y-50678912D01*
X120804215Y-50673918D01*
X120796088Y-50668760D01*
X120714124Y-50616745D01*
X120651066Y-50576727D01*
X120577002Y-50550354D01*
X120486825Y-50518243D01*
X120486820Y-50518242D01*
X120480190Y-50515881D01*
X120473202Y-50515048D01*
X120473199Y-50515047D01*
X120350098Y-50500368D01*
X120300080Y-50494404D01*
X120293077Y-50495140D01*
X120293076Y-50495140D01*
X120126688Y-50512628D01*
X120126686Y-50512629D01*
X120119688Y-50513364D01*
X119947979Y-50571818D01*
X119941975Y-50575512D01*
X119799495Y-50663166D01*
X119799492Y-50663168D01*
X119793488Y-50666862D01*
X119788453Y-50671793D01*
X119788450Y-50671795D01*
X119668925Y-50788843D01*
X119663893Y-50793771D01*
X119565635Y-50946238D01*
X119563226Y-50952858D01*
X119563224Y-50952861D01*
X119534562Y-51031610D01*
X119503597Y-51116685D01*
X119480863Y-51296640D01*
X99618342Y-51296640D01*
X99599397Y-51127745D01*
X99597080Y-51121091D01*
X99542064Y-50963106D01*
X99542062Y-50963103D01*
X99539745Y-50956448D01*
X99443626Y-50802624D01*
X99438664Y-50797627D01*
X99320778Y-50678915D01*
X99320774Y-50678912D01*
X99315815Y-50673918D01*
X99307688Y-50668760D01*
X99225724Y-50616745D01*
X99162666Y-50576727D01*
X99088602Y-50550354D01*
X98998425Y-50518243D01*
X98998420Y-50518242D01*
X98991790Y-50515881D01*
X98984802Y-50515048D01*
X98984799Y-50515047D01*
X98861698Y-50500368D01*
X98811680Y-50494404D01*
X98804677Y-50495140D01*
X98804676Y-50495140D01*
X98638288Y-50512628D01*
X98638286Y-50512629D01*
X98631288Y-50513364D01*
X98459579Y-50571818D01*
X98453575Y-50575512D01*
X98311095Y-50663166D01*
X98311092Y-50663168D01*
X98305088Y-50666862D01*
X98300053Y-50671793D01*
X98300050Y-50671795D01*
X98180525Y-50788843D01*
X98175493Y-50793771D01*
X98077235Y-50946238D01*
X98074826Y-50952858D01*
X98074824Y-50952861D01*
X98046162Y-51031610D01*
X98015197Y-51116685D01*
X97992463Y-51296640D01*
X90571867Y-51296640D01*
X90608343Y-51253933D01*
X90608346Y-51253928D01*
X90611558Y-51250168D01*
X90745491Y-51031610D01*
X90748186Y-51025105D01*
X90841691Y-50799363D01*
X90841692Y-50799361D01*
X90843585Y-50794790D01*
X90868820Y-50689677D01*
X90902269Y-50550354D01*
X90902270Y-50550348D01*
X90903424Y-50545541D01*
X90923536Y-50290000D01*
X90903424Y-50034459D01*
X90901547Y-50026640D01*
X138886463Y-50026640D01*
X138904163Y-50207160D01*
X138961418Y-50379273D01*
X138965065Y-50385295D01*
X138965066Y-50385297D01*
X139045581Y-50518243D01*
X139055380Y-50534424D01*
X139060269Y-50539487D01*
X139060270Y-50539488D01*
X139075357Y-50555111D01*
X139181382Y-50664902D01*
X139187278Y-50668760D01*
X139280062Y-50729476D01*
X139333159Y-50764222D01*
X139339763Y-50766678D01*
X139339765Y-50766679D01*
X139496558Y-50824990D01*
X139496560Y-50824990D01*
X139503168Y-50827448D01*
X139586995Y-50838633D01*
X139675980Y-50850507D01*
X139675984Y-50850507D01*
X139682961Y-50851438D01*
X139689972Y-50850800D01*
X139689976Y-50850800D01*
X139832459Y-50837832D01*
X139863600Y-50834998D01*
X139870302Y-50832820D01*
X139870304Y-50832820D01*
X140029409Y-50781124D01*
X140029412Y-50781123D01*
X140036108Y-50778947D01*
X140191912Y-50686069D01*
X140323266Y-50560982D01*
X140423643Y-50409902D01*
X140488055Y-50240338D01*
X140489035Y-50233366D01*
X140512748Y-50064639D01*
X140512748Y-50064636D01*
X140513299Y-50060717D01*
X140513616Y-50038000D01*
X140493397Y-49857745D01*
X140491080Y-49851091D01*
X140436064Y-49693106D01*
X140436062Y-49693103D01*
X140433745Y-49686448D01*
X140337626Y-49532624D01*
X140332198Y-49527158D01*
X140214778Y-49408915D01*
X140214774Y-49408912D01*
X140209815Y-49403918D01*
X140198697Y-49396862D01*
X140112473Y-49342143D01*
X140056666Y-49306727D01*
X140017209Y-49292677D01*
X139892425Y-49248243D01*
X139892420Y-49248242D01*
X139885790Y-49245881D01*
X139878802Y-49245048D01*
X139878799Y-49245047D01*
X139755698Y-49230368D01*
X139705680Y-49224404D01*
X139698677Y-49225140D01*
X139698676Y-49225140D01*
X139532288Y-49242628D01*
X139532286Y-49242629D01*
X139525288Y-49243364D01*
X139353579Y-49301818D01*
X139347575Y-49305512D01*
X139205095Y-49393166D01*
X139205092Y-49393168D01*
X139199088Y-49396862D01*
X139194053Y-49401793D01*
X139194050Y-49401795D01*
X139081529Y-49511984D01*
X139069493Y-49523771D01*
X138971235Y-49676238D01*
X138968826Y-49682858D01*
X138968824Y-49682861D01*
X138931572Y-49785210D01*
X138909197Y-49846685D01*
X138886463Y-50026640D01*
X90901547Y-50026640D01*
X90843585Y-49785210D01*
X90841691Y-49780637D01*
X90747386Y-49552964D01*
X90747384Y-49552960D01*
X90745491Y-49548390D01*
X90611558Y-49329832D01*
X90608346Y-49326072D01*
X90608343Y-49326067D01*
X90448297Y-49138678D01*
X90445084Y-49134916D01*
X90395754Y-49092784D01*
X90253933Y-48971657D01*
X90253928Y-48971654D01*
X90250168Y-48968442D01*
X90031610Y-48834509D01*
X90027040Y-48832616D01*
X90027036Y-48832614D01*
X89799363Y-48738309D01*
X89799361Y-48738308D01*
X89794790Y-48736415D01*
X89708881Y-48715790D01*
X89550354Y-48677731D01*
X89550348Y-48677730D01*
X89545541Y-48676576D01*
X89290000Y-48656464D01*
X89034459Y-48676576D01*
X89029652Y-48677730D01*
X89029646Y-48677731D01*
X88871119Y-48715790D01*
X88785210Y-48736415D01*
X88780639Y-48738308D01*
X88780637Y-48738309D01*
X88552964Y-48832614D01*
X88552960Y-48832616D01*
X88548390Y-48834509D01*
X88329832Y-48968442D01*
X88326072Y-48971654D01*
X88326067Y-48971657D01*
X88184246Y-49092784D01*
X88134916Y-49134916D01*
X88131703Y-49138678D01*
X87971657Y-49326067D01*
X87971654Y-49326072D01*
X87968442Y-49329832D01*
X87834509Y-49548390D01*
X87832616Y-49552960D01*
X87832614Y-49552964D01*
X87738309Y-49780637D01*
X87736415Y-49785210D01*
X87676576Y-50034459D01*
X87656464Y-50290000D01*
X84508000Y-50290000D01*
X84508000Y-48629640D01*
X130186463Y-48629640D01*
X130204163Y-48810160D01*
X130261418Y-48982273D01*
X130265065Y-48988295D01*
X130265066Y-48988297D01*
X130306963Y-49057477D01*
X130355380Y-49137424D01*
X130481382Y-49267902D01*
X130487278Y-49271760D01*
X130570268Y-49326067D01*
X130633159Y-49367222D01*
X130639763Y-49369678D01*
X130639765Y-49369679D01*
X130796558Y-49427990D01*
X130796560Y-49427990D01*
X130803168Y-49430448D01*
X130871893Y-49439618D01*
X130975980Y-49453507D01*
X130975984Y-49453507D01*
X130982961Y-49454438D01*
X130989972Y-49453800D01*
X130989976Y-49453800D01*
X131132459Y-49440832D01*
X131163600Y-49437998D01*
X131170302Y-49435820D01*
X131170304Y-49435820D01*
X131329409Y-49384124D01*
X131329412Y-49384123D01*
X131336108Y-49381947D01*
X131455951Y-49310506D01*
X131485860Y-49292677D01*
X131485862Y-49292676D01*
X131491912Y-49289069D01*
X131623266Y-49163982D01*
X131723643Y-49012902D01*
X131788055Y-48843338D01*
X131789562Y-48832614D01*
X131812748Y-48667639D01*
X131812748Y-48667636D01*
X131813299Y-48663717D01*
X131813616Y-48641000D01*
X131797783Y-48499851D01*
X155196719Y-48499851D01*
X155197235Y-48505995D01*
X155211656Y-48677731D01*
X155213268Y-48696934D01*
X155214967Y-48702858D01*
X155255249Y-48843338D01*
X155267783Y-48887050D01*
X155270602Y-48892535D01*
X155332463Y-49012902D01*
X155358187Y-49062956D01*
X155481035Y-49217953D01*
X155485728Y-49221947D01*
X155485729Y-49221948D01*
X155582566Y-49304362D01*
X155631650Y-49346136D01*
X155804294Y-49442624D01*
X155992392Y-49503740D01*
X156188777Y-49527158D01*
X156194912Y-49526686D01*
X156194914Y-49526686D01*
X156379830Y-49512457D01*
X156379834Y-49512456D01*
X156385972Y-49511984D01*
X156576463Y-49458798D01*
X156581967Y-49456018D01*
X156581969Y-49456017D01*
X156747495Y-49372404D01*
X156747497Y-49372403D01*
X156752996Y-49369625D01*
X156908847Y-49247861D01*
X157038078Y-49098145D01*
X157135769Y-48926179D01*
X157198197Y-48738513D01*
X157222985Y-48542295D01*
X157223380Y-48514000D01*
X157204080Y-48317167D01*
X157146916Y-48127831D01*
X157054066Y-47953204D01*
X156983709Y-47866938D01*
X156932960Y-47804713D01*
X156932957Y-47804710D01*
X156929065Y-47799938D01*
X156922724Y-47794692D01*
X156781425Y-47677799D01*
X156781421Y-47677797D01*
X156776675Y-47673870D01*
X156602701Y-47579802D01*
X156413768Y-47521318D01*
X156407643Y-47520674D01*
X156407642Y-47520674D01*
X156223204Y-47501289D01*
X156223202Y-47501289D01*
X156217075Y-47500645D01*
X156134576Y-47508153D01*
X156026251Y-47518011D01*
X156026248Y-47518012D01*
X156020112Y-47518570D01*
X156014206Y-47520308D01*
X156014202Y-47520309D01*
X155909076Y-47551249D01*
X155830381Y-47574410D01*
X155824923Y-47577263D01*
X155824919Y-47577265D01*
X155792136Y-47594404D01*
X155655110Y-47666040D01*
X155500975Y-47789968D01*
X155373846Y-47941474D01*
X155370879Y-47946872D01*
X155370875Y-47946877D01*
X155367397Y-47953204D01*
X155278567Y-48114787D01*
X155276706Y-48120654D01*
X155276705Y-48120656D01*
X155271957Y-48135624D01*
X155218765Y-48303306D01*
X155196719Y-48499851D01*
X131797783Y-48499851D01*
X131793397Y-48460745D01*
X131791080Y-48454091D01*
X131736064Y-48296106D01*
X131736062Y-48296103D01*
X131733745Y-48289448D01*
X131637626Y-48135624D01*
X131616934Y-48114787D01*
X131514778Y-48011915D01*
X131514774Y-48011912D01*
X131509815Y-48006918D01*
X131498697Y-47999862D01*
X131406691Y-47941474D01*
X131356666Y-47909727D01*
X131327463Y-47899328D01*
X131192425Y-47851243D01*
X131192420Y-47851242D01*
X131185790Y-47848881D01*
X131178802Y-47848048D01*
X131178799Y-47848047D01*
X131055698Y-47833368D01*
X131005680Y-47827404D01*
X130998677Y-47828140D01*
X130998676Y-47828140D01*
X130832288Y-47845628D01*
X130832286Y-47845629D01*
X130825288Y-47846364D01*
X130653579Y-47904818D01*
X130593996Y-47941474D01*
X130505095Y-47996166D01*
X130505092Y-47996168D01*
X130499088Y-47999862D01*
X130494053Y-48004793D01*
X130494050Y-48004795D01*
X130375737Y-48120656D01*
X130369493Y-48126771D01*
X130271235Y-48279238D01*
X130268826Y-48285858D01*
X130268824Y-48285861D01*
X130259578Y-48311264D01*
X130209197Y-48449685D01*
X130186463Y-48629640D01*
X84508000Y-48629640D01*
X84508000Y-46721851D01*
X131193719Y-46721851D01*
X131210268Y-46918934D01*
X131264783Y-47109050D01*
X131355187Y-47284956D01*
X131478035Y-47439953D01*
X131628650Y-47568136D01*
X131801294Y-47664624D01*
X131989392Y-47725740D01*
X132185777Y-47749158D01*
X132191912Y-47748686D01*
X132191914Y-47748686D01*
X132376830Y-47734457D01*
X132376834Y-47734456D01*
X132382972Y-47733984D01*
X132573463Y-47680798D01*
X132578967Y-47678018D01*
X132578969Y-47678017D01*
X132744495Y-47594404D01*
X132744497Y-47594403D01*
X132749996Y-47591625D01*
X132905847Y-47469861D01*
X133035078Y-47320145D01*
X133132769Y-47148179D01*
X133195197Y-46960513D01*
X133219985Y-46764295D01*
X133220380Y-46736000D01*
X133218993Y-46721851D01*
X134622719Y-46721851D01*
X134639268Y-46918934D01*
X134693783Y-47109050D01*
X134784187Y-47284956D01*
X134907035Y-47439953D01*
X135057650Y-47568136D01*
X135230294Y-47664624D01*
X135418392Y-47725740D01*
X135614777Y-47749158D01*
X135620912Y-47748686D01*
X135620914Y-47748686D01*
X135805830Y-47734457D01*
X135805834Y-47734456D01*
X135811972Y-47733984D01*
X136002463Y-47680798D01*
X136007967Y-47678018D01*
X136007969Y-47678017D01*
X136173495Y-47594404D01*
X136173497Y-47594403D01*
X136178996Y-47591625D01*
X136334847Y-47469861D01*
X136464078Y-47320145D01*
X136561769Y-47148179D01*
X136624197Y-46960513D01*
X136648985Y-46764295D01*
X136649380Y-46736000D01*
X136630080Y-46539167D01*
X136572916Y-46349831D01*
X136480066Y-46175204D01*
X136409709Y-46088938D01*
X136358960Y-46026713D01*
X136358957Y-46026710D01*
X136355065Y-46021938D01*
X136348724Y-46016692D01*
X136207425Y-45899799D01*
X136207421Y-45899797D01*
X136202675Y-45895870D01*
X136028701Y-45801802D01*
X135839768Y-45743318D01*
X135833643Y-45742674D01*
X135833642Y-45742674D01*
X135649204Y-45723289D01*
X135649202Y-45723289D01*
X135643075Y-45722645D01*
X135560576Y-45730153D01*
X135452251Y-45740011D01*
X135452248Y-45740012D01*
X135446112Y-45740570D01*
X135440206Y-45742308D01*
X135440202Y-45742309D01*
X135335076Y-45773249D01*
X135256381Y-45796410D01*
X135250923Y-45799263D01*
X135250919Y-45799265D01*
X135160147Y-45846720D01*
X135081110Y-45888040D01*
X134926975Y-46011968D01*
X134799846Y-46163474D01*
X134796879Y-46168872D01*
X134796875Y-46168877D01*
X134793397Y-46175204D01*
X134704567Y-46336787D01*
X134702706Y-46342654D01*
X134702705Y-46342656D01*
X134646627Y-46519436D01*
X134644765Y-46525306D01*
X134622719Y-46721851D01*
X133218993Y-46721851D01*
X133201080Y-46539167D01*
X133143916Y-46349831D01*
X133051066Y-46175204D01*
X132980709Y-46088938D01*
X132929960Y-46026713D01*
X132929957Y-46026710D01*
X132926065Y-46021938D01*
X132919724Y-46016692D01*
X132778425Y-45899799D01*
X132778421Y-45899797D01*
X132773675Y-45895870D01*
X132599701Y-45801802D01*
X132410768Y-45743318D01*
X132404643Y-45742674D01*
X132404642Y-45742674D01*
X132220204Y-45723289D01*
X132220202Y-45723289D01*
X132214075Y-45722645D01*
X132131576Y-45730153D01*
X132023251Y-45740011D01*
X132023248Y-45740012D01*
X132017112Y-45740570D01*
X132011206Y-45742308D01*
X132011202Y-45742309D01*
X131906076Y-45773249D01*
X131827381Y-45796410D01*
X131821923Y-45799263D01*
X131821919Y-45799265D01*
X131731147Y-45846720D01*
X131652110Y-45888040D01*
X131497975Y-46011968D01*
X131370846Y-46163474D01*
X131367879Y-46168872D01*
X131367875Y-46168877D01*
X131364397Y-46175204D01*
X131275567Y-46336787D01*
X131273706Y-46342654D01*
X131273705Y-46342656D01*
X131217627Y-46519436D01*
X131215765Y-46525306D01*
X131193719Y-46721851D01*
X84508000Y-46721851D01*
X84508000Y-42406640D01*
X147522463Y-42406640D01*
X147540163Y-42587160D01*
X147597418Y-42759273D01*
X147601065Y-42765295D01*
X147601066Y-42765297D01*
X147611978Y-42783314D01*
X147691380Y-42914424D01*
X147817382Y-43044902D01*
X147969159Y-43144222D01*
X147975763Y-43146678D01*
X147975765Y-43146679D01*
X148132558Y-43204990D01*
X148132560Y-43204990D01*
X148139168Y-43207448D01*
X148222995Y-43218633D01*
X148311980Y-43230507D01*
X148311984Y-43230507D01*
X148318961Y-43231438D01*
X148325972Y-43230800D01*
X148325976Y-43230800D01*
X148468459Y-43217832D01*
X148499600Y-43214998D01*
X148506302Y-43212820D01*
X148506304Y-43212820D01*
X148665409Y-43161124D01*
X148665412Y-43161123D01*
X148672108Y-43158947D01*
X148768513Y-43101478D01*
X148821860Y-43069677D01*
X148821862Y-43069676D01*
X148827912Y-43066069D01*
X148841636Y-43053000D01*
X191237496Y-43053000D01*
X191238186Y-43059565D01*
X191256153Y-43230507D01*
X191257458Y-43242928D01*
X191316473Y-43424556D01*
X191411960Y-43589944D01*
X191539747Y-43731866D01*
X191694248Y-43844118D01*
X191700276Y-43846802D01*
X191700278Y-43846803D01*
X191862681Y-43919109D01*
X191868712Y-43921794D01*
X191932888Y-43935435D01*
X192049056Y-43960128D01*
X192049061Y-43960128D01*
X192055513Y-43961500D01*
X192246487Y-43961500D01*
X192252939Y-43960128D01*
X192252944Y-43960128D01*
X192338227Y-43942000D01*
X195936496Y-43942000D01*
X195937186Y-43948565D01*
X195938546Y-43961500D01*
X195956458Y-44131928D01*
X196015473Y-44313556D01*
X196110960Y-44478944D01*
X196238747Y-44620866D01*
X196393248Y-44733118D01*
X196399276Y-44735802D01*
X196399278Y-44735803D01*
X196561681Y-44808109D01*
X196567712Y-44810794D01*
X196661112Y-44830647D01*
X196748056Y-44849128D01*
X196748061Y-44849128D01*
X196754513Y-44850500D01*
X196945487Y-44850500D01*
X196951939Y-44849128D01*
X196951944Y-44849128D01*
X197038887Y-44830647D01*
X197132288Y-44810794D01*
X197138319Y-44808109D01*
X197300722Y-44735803D01*
X197300724Y-44735802D01*
X197306752Y-44733118D01*
X197461253Y-44620866D01*
X197589040Y-44478944D01*
X197684527Y-44313556D01*
X197743542Y-44131928D01*
X197761455Y-43961500D01*
X197762814Y-43948565D01*
X197763504Y-43942000D01*
X197762814Y-43935435D01*
X197744232Y-43758635D01*
X197744232Y-43758633D01*
X197743542Y-43752072D01*
X197684527Y-43570444D01*
X197589040Y-43405056D01*
X197461253Y-43263134D01*
X197320849Y-43161124D01*
X197312094Y-43154763D01*
X197312093Y-43154762D01*
X197306752Y-43150882D01*
X197300724Y-43148198D01*
X197300722Y-43148197D01*
X197138319Y-43075891D01*
X197138318Y-43075891D01*
X197132288Y-43073206D01*
X197037227Y-43053000D01*
X196951944Y-43034872D01*
X196951939Y-43034872D01*
X196945487Y-43033500D01*
X196754513Y-43033500D01*
X196748061Y-43034872D01*
X196748056Y-43034872D01*
X196662773Y-43053000D01*
X196567712Y-43073206D01*
X196561682Y-43075891D01*
X196561681Y-43075891D01*
X196399278Y-43148197D01*
X196399276Y-43148198D01*
X196393248Y-43150882D01*
X196387907Y-43154762D01*
X196387906Y-43154763D01*
X196379151Y-43161124D01*
X196238747Y-43263134D01*
X196110960Y-43405056D01*
X196015473Y-43570444D01*
X195956458Y-43752072D01*
X195955768Y-43758633D01*
X195955768Y-43758635D01*
X195937186Y-43935435D01*
X195936496Y-43942000D01*
X192338227Y-43942000D01*
X192369112Y-43935435D01*
X192433288Y-43921794D01*
X192439319Y-43919109D01*
X192601722Y-43846803D01*
X192601724Y-43846802D01*
X192607752Y-43844118D01*
X192762253Y-43731866D01*
X192890040Y-43589944D01*
X192985527Y-43424556D01*
X193044542Y-43242928D01*
X193045848Y-43230507D01*
X193063814Y-43059565D01*
X193064504Y-43053000D01*
X193062599Y-43034872D01*
X193045232Y-42869635D01*
X193045232Y-42869633D01*
X193044542Y-42863072D01*
X192985527Y-42681444D01*
X192954048Y-42626920D01*
X192893341Y-42521774D01*
X192890040Y-42516056D01*
X192805318Y-42421962D01*
X192766675Y-42379045D01*
X192766674Y-42379044D01*
X192762253Y-42374134D01*
X192607752Y-42261882D01*
X192601724Y-42259198D01*
X192601722Y-42259197D01*
X192439319Y-42186891D01*
X192439318Y-42186891D01*
X192433288Y-42184206D01*
X192339888Y-42164353D01*
X192252944Y-42145872D01*
X192252939Y-42145872D01*
X192246487Y-42144500D01*
X192055513Y-42144500D01*
X192049061Y-42145872D01*
X192049056Y-42145872D01*
X191962112Y-42164353D01*
X191868712Y-42184206D01*
X191862682Y-42186891D01*
X191862681Y-42186891D01*
X191700278Y-42259197D01*
X191700276Y-42259198D01*
X191694248Y-42261882D01*
X191539747Y-42374134D01*
X191535326Y-42379044D01*
X191535325Y-42379045D01*
X191496683Y-42421962D01*
X191411960Y-42516056D01*
X191408659Y-42521774D01*
X191347953Y-42626920D01*
X191316473Y-42681444D01*
X191257458Y-42863072D01*
X191256768Y-42869633D01*
X191256768Y-42869635D01*
X191239401Y-43034872D01*
X191237496Y-43053000D01*
X148841636Y-43053000D01*
X148959266Y-42940982D01*
X149059643Y-42789902D01*
X149124055Y-42620338D01*
X149125035Y-42613366D01*
X149148748Y-42444639D01*
X149148748Y-42444636D01*
X149149299Y-42440717D01*
X149149616Y-42418000D01*
X149129397Y-42237745D01*
X149127080Y-42231091D01*
X149072064Y-42073106D01*
X149072062Y-42073103D01*
X149069745Y-42066448D01*
X148973626Y-41912624D01*
X148959941Y-41898843D01*
X148850778Y-41788915D01*
X148850774Y-41788912D01*
X148845815Y-41783918D01*
X148834697Y-41776862D01*
X148786538Y-41746300D01*
X148692666Y-41686727D01*
X148663463Y-41676328D01*
X148528425Y-41628243D01*
X148528420Y-41628242D01*
X148521790Y-41625881D01*
X148514802Y-41625048D01*
X148514799Y-41625047D01*
X148391698Y-41610368D01*
X148341680Y-41604404D01*
X148334677Y-41605140D01*
X148334676Y-41605140D01*
X148168288Y-41622628D01*
X148168286Y-41622629D01*
X148161288Y-41623364D01*
X147989579Y-41681818D01*
X147983575Y-41685512D01*
X147841095Y-41773166D01*
X147841092Y-41773168D01*
X147835088Y-41776862D01*
X147830053Y-41781793D01*
X147830050Y-41781795D01*
X147710525Y-41898843D01*
X147705493Y-41903771D01*
X147607235Y-42056238D01*
X147604826Y-42062858D01*
X147604824Y-42062861D01*
X147560658Y-42184206D01*
X147545197Y-42226685D01*
X147522463Y-42406640D01*
X84508000Y-42406640D01*
X84508000Y-38134000D01*
X84528002Y-38065879D01*
X84581658Y-38019386D01*
X84634000Y-38008000D01*
X138941720Y-38008000D01*
X139009841Y-38028002D01*
G37*
%TD.AperFunction*%
%TD*%
M02*
