M48
; DRILL file {KiCad (6.0.2)} date Mon Jun 26 13:18:55 2023
; FORMAT={-:-/ absolute / inch / decimal}
; #@! TF.CreationDate,2023-06-26T13:18:55+02:00
; #@! TF.GenerationSoftware,Kicad,Pcbnew,(6.0.2)
; #@! TF.FileFunction,MixedPlating,1,4
FMAT,2
INCH
; #@! TA.AperFunction,Plated,PTH,ViaDrill
T1C0.0118
; #@! TA.AperFunction,Plated,PTH,ComponentDrill
T2C0.0118
; #@! TA.AperFunction,Plated,PTH,ViaDrill
T3C0.0157
; #@! TA.AperFunction,Plated,PTH,ViaDrill
T4C0.0197
; #@! TA.AperFunction,Plated,PTH,ComponentDrill
T5C0.0295
; #@! TA.AperFunction,Plated,PTH,ComponentDrill
T6C0.0394
; #@! TA.AperFunction,Plated,PTH,ComponentDrill
T7C0.0472
; #@! TA.AperFunction,Plated,PTH,ComponentDrill
T8C0.0488
; #@! TA.AperFunction,Plated,PTH,ComponentDrill
T9C0.0669
; #@! TA.AperFunction,Plated,PTH,ComponentDrill
T10C0.1260
; #@! TA.AperFunction,Plated,PTH,ComponentDrill
T11C0.1283
%
G90
G05
T1
X3.7294Y-5.2886
X3.7494Y-5.3286
X3.8386Y-2.0669
X3.89Y-2.02
X4.736Y-2.02
X5.095Y-1.645
X5.1575Y-1.915
X5.2717Y-1.9882
X5.2756Y-2.1299
X5.4626Y-2.2216
X5.4804Y-1.618
X5.5Y-1.97
X5.56Y-4.66
X5.56Y-4.91
X5.56Y-5.185
X5.58Y-1.79
X5.58Y-1.82
X5.58Y-1.85
X5.58Y-1.88
X5.605Y-4.775
X5.605Y-5.025
X5.605Y-5.3
X5.7Y-1.785
X5.74Y-4.88
X5.795Y-4.7862
X5.795Y-5.055
X5.795Y-5.325
X5.8Y-4.655
X5.84Y-1.67
X5.86Y-4.705
X5.87Y-4.935
X5.87Y-5.055
X5.89Y-4.79
X5.895Y-5.1
X5.91Y-4.855
X5.9118Y-5.2364
X5.915Y-4.6605
X5.915Y-4.975
X5.975Y-1.985
X5.975Y-2.01
X5.975Y-2.035
X5.995Y-4.62
X5.9958Y-4.8859
X6.0805Y-5.0913
X6.461Y-2.042
X6.511Y-2.112
X6.541Y-2.112
X7.605Y-2.195
X7.65Y-2.2
T2
X3.8272Y-5.0064
X3.8272Y-5.1009
X3.9217Y-5.0064
X3.9217Y-5.1009
X4.4672Y-5.0114
X4.4672Y-5.1059
X4.5617Y-5.0114
X4.5617Y-5.1059
X5.1317Y-5.0146
X5.1317Y-5.1091
X5.2262Y-5.0146
X5.2262Y-5.1091
T3
X5.55Y-4.725
X5.8Y-4.985
X5.82Y-5.26
X5.875Y-4.535
X6.1Y-4.795
X6.135Y-4.635
X6.225Y-5.215
X6.295Y-5.145
X6.34Y-2.14
X6.385Y-5.28
X6.48Y-5.175
X6.48Y-5.305
X7.565Y-1.695
X7.6Y-4.465
X7.75Y-1.73
T4
X3.655Y-4.725
X3.67Y-5.06
X3.67Y-5.16
X3.67Y-5.25
X3.8744Y-5.0536
X3.99Y-5.26
X4.295Y-4.735
X4.305Y-5.06
X4.305Y-5.16
X4.305Y-5.25
X4.5165Y-5.0565
X4.63Y-5.26
X4.965Y-5.06
X4.965Y-5.16
X4.965Y-5.25
X5.08Y-4.655
X5.1804Y-5.0604
X5.205Y-1.84
X5.3Y-5.26
X5.34Y-1.84
X5.48Y-1.545
X5.685Y-5.145
X5.865Y-5.325
X5.875Y-5.195
X5.91Y-2.19
X5.92Y-5.38
X6.085Y-5.365
X6.15Y-1.91
X6.255Y-1.86
X6.255Y-1.985
X7.39Y-1.97
X7.465Y-1.985
X7.555Y-1.75
X7.56Y-2.1
X7.665Y-2.34
X7.6831Y-1.8438
X7.705Y-1.965
X7.78Y-1.965
X7.795Y-2.46
X7.875Y-1.85
X7.95Y-2.63
T5
X5.72Y-2.03
X5.77Y-1.98
X5.77Y-2.08
T7
X3.5154Y-1.9799
T8
X6.5622Y-4.9213
X6.6073Y-5.0213
X6.6524Y-4.9213
X6.6524Y-5.1213
X6.6974Y-5.0213
X6.7425Y-4.9213
X6.7425Y-5.1213
X6.7876Y-5.0213
X6.8327Y-4.9213
X6.8327Y-5.1213
X6.8778Y-5.0213
X6.9228Y-4.9213
X6.9228Y-5.1213
X6.9679Y-5.0213
X7.013Y-4.9213
X7.013Y-5.1213
X7.0581Y-5.0213
X7.1031Y-4.9213
X7.1031Y-5.1213
X7.1482Y-5.0213
X7.1933Y-4.9213
X7.1933Y-5.1213
X7.2384Y-5.0213
X7.2835Y-4.9213
X7.2835Y-5.1213
X7.3285Y-5.0213
T9
X3.4154Y-1.8799
X3.4154Y-2.0799
X3.6154Y-1.8799
X3.6154Y-2.0799
T10
X3.4449Y-1.6142
X3.4449Y-5.2756
X7.8937Y-1.6142
X7.8937Y-5.2756
T11
X6.2894Y-5.0213
X7.6013Y-5.0213
T6
G00X4.3902Y-2.3031
M15
G01X4.5083Y-2.3031
M16
G05
G00X4.3902Y-4.4882
M15
G01X4.5083Y-4.4882
M16
G05
G00X5.6102Y-2.3031
M15
G01X5.7283Y-2.3031
M16
G05
G00X5.6102Y-4.4882
M15
G01X5.7283Y-4.4882
M16
G05
G00X6.8307Y-2.3031
M15
G01X6.9488Y-2.3031
M16
G05
G00X6.8307Y-4.4882
M15
G01X6.9488Y-4.4882
M16
G05
T0
M30
