%TF.GenerationSoftware,KiCad,Pcbnew,(6.0.2)*%
%TF.CreationDate,2023-06-26T13:18:54+02:00*%
%TF.ProjectId,LTPS_A,4c545053-5f41-42e6-9b69-6361645f7063,rev?*%
%TF.SameCoordinates,Original*%
%TF.FileFunction,Paste,Top*%
%TF.FilePolarity,Positive*%
%FSLAX46Y46*%
G04 Gerber Fmt 4.6, Leading zero omitted, Abs format (unit mm)*
G04 Created by KiCad (PCBNEW (6.0.2)) date 2023-06-26 13:18:54*
%MOMM*%
%LPD*%
G01*
G04 APERTURE LIST*
G04 Aperture macros list*
%AMRoundRect*
0 Rectangle with rounded corners*
0 $1 Rounding radius*
0 $2 $3 $4 $5 $6 $7 $8 $9 X,Y pos of 4 corners*
0 Add a 4 corners polygon primitive as box body*
4,1,4,$2,$3,$4,$5,$6,$7,$8,$9,$2,$3,0*
0 Add four circle primitives for the rounded corners*
1,1,$1+$1,$2,$3*
1,1,$1+$1,$4,$5*
1,1,$1+$1,$6,$7*
1,1,$1+$1,$8,$9*
0 Add four rect primitives between the rounded corners*
20,1,$1+$1,$2,$3,$4,$5,0*
20,1,$1+$1,$4,$5,$6,$7,0*
20,1,$1+$1,$6,$7,$8,$9,0*
20,1,$1+$1,$8,$9,$2,$3,0*%
G04 Aperture macros list end*
%ADD10RoundRect,0.200000X0.275000X-0.200000X0.275000X0.200000X-0.275000X0.200000X-0.275000X-0.200000X0*%
%ADD11RoundRect,0.250000X-0.325000X-0.650000X0.325000X-0.650000X0.325000X0.650000X-0.325000X0.650000X0*%
%ADD12RoundRect,0.200000X0.200000X0.275000X-0.200000X0.275000X-0.200000X-0.275000X0.200000X-0.275000X0*%
%ADD13RoundRect,0.100000X-0.637500X-0.100000X0.637500X-0.100000X0.637500X0.100000X-0.637500X0.100000X0*%
%ADD14RoundRect,0.100000X0.100000X-0.712500X0.100000X0.712500X-0.100000X0.712500X-0.100000X-0.712500X0*%
%ADD15RoundRect,0.200000X-0.275000X0.200000X-0.275000X-0.200000X0.275000X-0.200000X0.275000X0.200000X0*%
%ADD16RoundRect,0.218750X-0.218750X-0.256250X0.218750X-0.256250X0.218750X0.256250X-0.218750X0.256250X0*%
%ADD17RoundRect,0.250000X-0.250000X-0.475000X0.250000X-0.475000X0.250000X0.475000X-0.250000X0.475000X0*%
%ADD18RoundRect,0.250000X-0.312500X-0.625000X0.312500X-0.625000X0.312500X0.625000X-0.312500X0.625000X0*%
%ADD19RoundRect,0.250000X-0.475000X0.250000X-0.475000X-0.250000X0.475000X-0.250000X0.475000X0.250000X0*%
%ADD20R,2.950000X3.500000*%
%ADD21RoundRect,0.250001X-0.354999X0.354999X-0.354999X-0.354999X0.354999X-0.354999X0.354999X0.354999X0*%
%ADD22RoundRect,0.100000X-0.100000X0.675000X-0.100000X-0.675000X0.100000X-0.675000X0.100000X0.675000X0*%
%ADD23RoundRect,0.150000X-0.512500X-0.150000X0.512500X-0.150000X0.512500X0.150000X-0.512500X0.150000X0*%
%ADD24RoundRect,0.150000X-0.587500X-0.150000X0.587500X-0.150000X0.587500X0.150000X-0.587500X0.150000X0*%
%ADD25RoundRect,0.250000X0.625000X-0.375000X0.625000X0.375000X-0.625000X0.375000X-0.625000X-0.375000X0*%
%ADD26RoundRect,0.250000X-0.650000X0.325000X-0.650000X-0.325000X0.650000X-0.325000X0.650000X0.325000X0*%
%ADD27RoundRect,0.150000X-0.150000X0.512500X-0.150000X-0.512500X0.150000X-0.512500X0.150000X0.512500X0*%
%ADD28RoundRect,0.200000X-0.200000X-0.275000X0.200000X-0.275000X0.200000X0.275000X-0.200000X0.275000X0*%
%ADD29RoundRect,0.250000X-0.787500X-1.025000X0.787500X-1.025000X0.787500X1.025000X-0.787500X1.025000X0*%
%ADD30R,2.000000X1.500000*%
%ADD31R,2.000000X3.800000*%
%ADD32RoundRect,0.250000X0.325000X0.650000X-0.325000X0.650000X-0.325000X-0.650000X0.325000X-0.650000X0*%
%ADD33R,2.200000X6.300000*%
%ADD34RoundRect,0.250000X1.025000X-0.787500X1.025000X0.787500X-1.025000X0.787500X-1.025000X-0.787500X0*%
%ADD35RoundRect,0.100000X0.100000X-0.637500X0.100000X0.637500X-0.100000X0.637500X-0.100000X-0.637500X0*%
G04 APERTURE END LIST*
D10*
%TO.C,R26*%
X153416000Y-118965000D03*
X153416000Y-117315000D03*
%TD*%
D11*
%TO.C,C13*%
X187550000Y-44450000D03*
X190500000Y-44450000D03*
%TD*%
D12*
%TO.C,R11*%
X191197000Y-62738000D03*
X189547000Y-62738000D03*
%TD*%
D13*
%TO.C,N11*%
X145854500Y-131953000D03*
X145854500Y-132603000D03*
X145854500Y-133253000D03*
X145854500Y-133903000D03*
X145854500Y-134553000D03*
X145854500Y-135203000D03*
X145854500Y-135853000D03*
X145854500Y-136503000D03*
X151579500Y-136503000D03*
X151579500Y-135853000D03*
X151579500Y-135203000D03*
X151579500Y-134553000D03*
X151579500Y-133903000D03*
X151579500Y-133253000D03*
X151579500Y-132603000D03*
X151579500Y-131953000D03*
%TD*%
D14*
%TO.C,N1*%
X157800400Y-53090300D03*
X158450400Y-53090300D03*
X159100400Y-53090300D03*
X159750400Y-53090300D03*
X159750400Y-48865300D03*
X159100400Y-48865300D03*
X158450400Y-48865300D03*
X157800400Y-48865300D03*
%TD*%
D15*
%TO.C,R20*%
X168148000Y-52769000D03*
X168148000Y-54419000D03*
%TD*%
D12*
%TO.C,R6*%
X96962500Y-48250000D03*
X95312500Y-48250000D03*
%TD*%
D16*
%TO.C,Z1*%
X137012500Y-50100000D03*
X138587500Y-50100000D03*
%TD*%
D17*
%TO.C,C10*%
X136850000Y-54900000D03*
X138750000Y-54900000D03*
%TD*%
D18*
%TO.C,R4*%
X128075000Y-46800000D03*
X131000000Y-46800000D03*
%TD*%
D19*
%TO.C,C7*%
X146812000Y-42484000D03*
X146812000Y-44384000D03*
%TD*%
D15*
%TO.C,R35*%
X153416000Y-134557000D03*
X153416000Y-136207000D03*
%TD*%
D10*
%TO.C,R19*%
X168148000Y-51371000D03*
X168148000Y-49721000D03*
%TD*%
D15*
%TO.C,R30*%
X153416000Y-127699000D03*
X153416000Y-129349000D03*
%TD*%
%TO.C,R2*%
X144780000Y-42482000D03*
X144780000Y-44132000D03*
%TD*%
D19*
%TO.C,C2*%
X137777000Y-39248000D03*
X137777000Y-41148000D03*
%TD*%
D20*
%TO.C,L4*%
X128821000Y-120950000D03*
X134271000Y-120950000D03*
%TD*%
D12*
%TO.C,R5*%
X122325000Y-54100000D03*
X120675000Y-54100000D03*
%TD*%
D21*
%TO.C,N5*%
X97660000Y-127612000D03*
X99160000Y-127612000D03*
X97660000Y-129112000D03*
X99160000Y-129112000D03*
D22*
X100685000Y-125487000D03*
X100035000Y-125487000D03*
X99385000Y-125487000D03*
X98735000Y-125487000D03*
X98085000Y-125487000D03*
X97435000Y-125487000D03*
X96785000Y-125487000D03*
X96135000Y-125487000D03*
X96135000Y-131237000D03*
X96785000Y-131237000D03*
X97435000Y-131237000D03*
X98085000Y-131237000D03*
X98735000Y-131237000D03*
X99385000Y-131237000D03*
X100035000Y-131237000D03*
X100685000Y-131237000D03*
%TD*%
D13*
%TO.C,N9*%
X145854500Y-118364000D03*
X145854500Y-119014000D03*
X145854500Y-119664000D03*
X145854500Y-120314000D03*
X145854500Y-120964000D03*
X145854500Y-121614000D03*
X145854500Y-122264000D03*
X145854500Y-122914000D03*
X151579500Y-122914000D03*
X151579500Y-122264000D03*
X151579500Y-121614000D03*
X151579500Y-120964000D03*
X151579500Y-120314000D03*
X151579500Y-119664000D03*
X151579500Y-119014000D03*
X151579500Y-118364000D03*
%TD*%
D17*
%TO.C,C17*%
X192852000Y-60960000D03*
X194752000Y-60960000D03*
%TD*%
D23*
%TO.C,N3*%
X130950000Y-40782000D03*
X130950000Y-41732000D03*
X130950000Y-42682000D03*
X133225000Y-42682000D03*
X133225000Y-40782000D03*
%TD*%
D24*
%TO.C,V2*%
X95312500Y-50350000D03*
X95312500Y-52250000D03*
X97187500Y-51300000D03*
%TD*%
D10*
%TO.C,R34*%
X142240000Y-133350000D03*
X142240000Y-131700000D03*
%TD*%
%TO.C,R1*%
X144780000Y-40957000D03*
X144780000Y-39307000D03*
%TD*%
D25*
%TO.C,F1*%
X113000000Y-54200000D03*
X113000000Y-51400000D03*
%TD*%
D15*
%TO.C,R3*%
X128075000Y-42725000D03*
X128075000Y-44375000D03*
%TD*%
D21*
%TO.C,N8*%
X130796000Y-129320000D03*
X132296000Y-127820000D03*
X132296000Y-129320000D03*
X130796000Y-127820000D03*
D22*
X133821000Y-125695000D03*
X133171000Y-125695000D03*
X132521000Y-125695000D03*
X131871000Y-125695000D03*
X131221000Y-125695000D03*
X130571000Y-125695000D03*
X129921000Y-125695000D03*
X129271000Y-125695000D03*
X129271000Y-131445000D03*
X129921000Y-131445000D03*
X130571000Y-131445000D03*
X131221000Y-131445000D03*
X131871000Y-131445000D03*
X132521000Y-131445000D03*
X133171000Y-131445000D03*
X133821000Y-131445000D03*
%TD*%
D12*
%TO.C,R16*%
X112443000Y-133315000D03*
X110793000Y-133315000D03*
%TD*%
D26*
%TO.C,C16*%
X92695000Y-122012000D03*
X92695000Y-124962000D03*
%TD*%
%TO.C,C27*%
X125831000Y-122142000D03*
X125831000Y-125092000D03*
%TD*%
D27*
%TO.C,N4*%
X134850000Y-51800000D03*
X133900000Y-51800000D03*
X132950000Y-51800000D03*
X132950000Y-54075000D03*
X134850000Y-54075000D03*
%TD*%
D16*
%TO.C,Z2*%
X189712500Y-46736000D03*
X191287500Y-46736000D03*
%TD*%
D12*
%TO.C,R17*%
X198437000Y-70104000D03*
X196787000Y-70104000D03*
%TD*%
D10*
%TO.C,R31*%
X153416000Y-125984000D03*
X153416000Y-124334000D03*
%TD*%
D19*
%TO.C,C15*%
X191262000Y-48580000D03*
X191262000Y-50480000D03*
%TD*%
D15*
%TO.C,R23*%
X144018000Y-119235000D03*
X144018000Y-120885000D03*
%TD*%
D28*
%TO.C,R18*%
X199898000Y-70104000D03*
X201548000Y-70104000D03*
%TD*%
D12*
%TO.C,R8*%
X96314000Y-133188000D03*
X94664000Y-133188000D03*
%TD*%
D28*
%TO.C,R12*%
X192723000Y-62738000D03*
X194373000Y-62738000D03*
%TD*%
D19*
%TO.C,C14*%
X187706000Y-46802000D03*
X187706000Y-48702000D03*
%TD*%
D29*
%TO.C,C8*%
X133731000Y-46736000D03*
X139956000Y-46736000D03*
%TD*%
D10*
%TO.C,R29*%
X142240000Y-126365000D03*
X142240000Y-124715000D03*
%TD*%
D30*
%TO.C,V1*%
X122250000Y-51300000D03*
D31*
X115950000Y-49000000D03*
D30*
X122250000Y-49000000D03*
X122250000Y-46700000D03*
%TD*%
D32*
%TO.C,C6*%
X156034000Y-51054000D03*
X153084000Y-51054000D03*
%TD*%
D33*
%TO.C,L1*%
X156777000Y-43746000D03*
X160787000Y-43746000D03*
%TD*%
D15*
%TO.C,R28*%
X143891000Y-125540000D03*
X143891000Y-127190000D03*
%TD*%
%TO.C,R25*%
X153416000Y-121061000D03*
X153416000Y-122711000D03*
%TD*%
D21*
%TO.C,N7*%
X113916000Y-127739000D03*
X113916000Y-129239000D03*
X115416000Y-127739000D03*
X115416000Y-129239000D03*
D22*
X116941000Y-125614000D03*
X116291000Y-125614000D03*
X115641000Y-125614000D03*
X114991000Y-125614000D03*
X114341000Y-125614000D03*
X113691000Y-125614000D03*
X113041000Y-125614000D03*
X112391000Y-125614000D03*
X112391000Y-131364000D03*
X113041000Y-131364000D03*
X113691000Y-131364000D03*
X114341000Y-131364000D03*
X114991000Y-131364000D03*
X115641000Y-131364000D03*
X116291000Y-131364000D03*
X116941000Y-131364000D03*
%TD*%
D17*
%TO.C,C1*%
X146878000Y-55626000D03*
X148778000Y-55626000D03*
%TD*%
D10*
%TO.C,R24*%
X142367000Y-120045000D03*
X142367000Y-118395000D03*
%TD*%
D15*
%TO.C,R10*%
X195326000Y-42292000D03*
X195326000Y-43942000D03*
%TD*%
D17*
%TO.C,C9*%
X136850000Y-52700000D03*
X138750000Y-52700000D03*
%TD*%
D26*
%TO.C,C23*%
X109078000Y-122061000D03*
X109078000Y-125011000D03*
%TD*%
D19*
%TO.C,C3*%
X135527000Y-39248000D03*
X135527000Y-41148000D03*
%TD*%
D12*
%TO.C,R27*%
X144018000Y-122428000D03*
X142368000Y-122428000D03*
%TD*%
%TO.C,R7*%
X99362000Y-133188000D03*
X97712000Y-133188000D03*
%TD*%
%TO.C,R37*%
X143954000Y-135763000D03*
X142304000Y-135763000D03*
%TD*%
D17*
%TO.C,C22*%
X200027000Y-68326000D03*
X201927000Y-68326000D03*
%TD*%
D19*
%TO.C,C24*%
X170180000Y-52832000D03*
X170180000Y-54732000D03*
%TD*%
D20*
%TO.C,L3*%
X112068000Y-120869000D03*
X117518000Y-120869000D03*
%TD*%
D12*
%TO.C,R13*%
X194690000Y-66294000D03*
X193040000Y-66294000D03*
%TD*%
D20*
%TO.C,L2*%
X95812000Y-120742000D03*
X101262000Y-120742000D03*
%TD*%
D13*
%TO.C,N10*%
X145854500Y-125106000D03*
X145854500Y-125756000D03*
X145854500Y-126406000D03*
X145854500Y-127056000D03*
X145854500Y-127706000D03*
X145854500Y-128356000D03*
X145854500Y-129006000D03*
X145854500Y-129656000D03*
X151579500Y-129656000D03*
X151579500Y-129006000D03*
X151579500Y-128356000D03*
X151579500Y-127706000D03*
X151579500Y-127056000D03*
X151579500Y-126406000D03*
X151579500Y-125756000D03*
X151579500Y-125106000D03*
%TD*%
D17*
%TO.C,C18*%
X196471000Y-64516000D03*
X198371000Y-64516000D03*
%TD*%
D34*
%TO.C,C25*%
X136915500Y-133298000D03*
X136915500Y-127073000D03*
%TD*%
D28*
%TO.C,R14*%
X196342000Y-66294000D03*
X197992000Y-66294000D03*
%TD*%
D17*
%TO.C,C5*%
X162331400Y-54152800D03*
X164231400Y-54152800D03*
%TD*%
D15*
%TO.C,R9*%
X193675000Y-42292000D03*
X193675000Y-43942000D03*
%TD*%
D32*
%TO.C,C26*%
X132386000Y-135428000D03*
X129436000Y-135428000D03*
%TD*%
D12*
%TO.C,R21*%
X132562000Y-133396000D03*
X130912000Y-133396000D03*
%TD*%
D35*
%TO.C,N6*%
X193051000Y-54170500D03*
X193701000Y-54170500D03*
X194351000Y-54170500D03*
X195001000Y-54170500D03*
X195651000Y-54170500D03*
X196301000Y-54170500D03*
X196951000Y-54170500D03*
X197601000Y-54170500D03*
X197601000Y-48445500D03*
X196951000Y-48445500D03*
X196301000Y-48445500D03*
X195651000Y-48445500D03*
X195001000Y-48445500D03*
X194351000Y-48445500D03*
X193701000Y-48445500D03*
X193051000Y-48445500D03*
%TD*%
D12*
%TO.C,R32*%
X143954000Y-128778000D03*
X142304000Y-128778000D03*
%TD*%
%TO.C,R15*%
X115555000Y-133315000D03*
X113905000Y-133315000D03*
%TD*%
D11*
%TO.C,C4*%
X162331400Y-51866800D03*
X165281400Y-51866800D03*
%TD*%
D12*
%TO.C,R22*%
X129514000Y-133396000D03*
X127864000Y-133396000D03*
%TD*%
D32*
%TO.C,C21*%
X115506000Y-135347000D03*
X112556000Y-135347000D03*
%TD*%
D10*
%TO.C,R36*%
X153416000Y-132842000D03*
X153416000Y-131192000D03*
%TD*%
D17*
%TO.C,C19*%
X196916000Y-46228000D03*
X198816000Y-46228000D03*
%TD*%
D15*
%TO.C,R33*%
X143891000Y-132525000D03*
X143891000Y-134175000D03*
%TD*%
D32*
%TO.C,C12*%
X99377000Y-135347000D03*
X96427000Y-135347000D03*
%TD*%
D34*
%TO.C,C11*%
X103744000Y-133061000D03*
X103744000Y-126836000D03*
%TD*%
%TO.C,C20*%
X120000000Y-133188000D03*
X120000000Y-126963000D03*
%TD*%
M02*
