%TF.GenerationSoftware,KiCad,Pcbnew,(6.0.2)*%
%TF.CreationDate,2023-06-26T13:18:54+02:00*%
%TF.ProjectId,LTPS_A,4c545053-5f41-42e6-9b69-6361645f7063,rev?*%
%TF.SameCoordinates,Original*%
%TF.FileFunction,Copper,L4,Bot*%
%TF.FilePolarity,Positive*%
%FSLAX46Y46*%
G04 Gerber Fmt 4.6, Leading zero omitted, Abs format (unit mm)*
G04 Created by KiCad (PCBNEW (6.0.2)) date 2023-06-26 13:18:54*
%MOMM*%
%LPD*%
G01*
G04 APERTURE LIST*
G04 Aperture macros list*
%AMRoundRect*
0 Rectangle with rounded corners*
0 $1 Rounding radius*
0 $2 $3 $4 $5 $6 $7 $8 $9 X,Y pos of 4 corners*
0 Add a 4 corners polygon primitive as box body*
4,1,4,$2,$3,$4,$5,$6,$7,$8,$9,$2,$3,0*
0 Add four circle primitives for the rounded corners*
1,1,$1+$1,$2,$3*
1,1,$1+$1,$4,$5*
1,1,$1+$1,$6,$7*
1,1,$1+$1,$8,$9*
0 Add four rect primitives between the rounded corners*
20,1,$1+$1,$2,$3,$4,$5,0*
20,1,$1+$1,$4,$5,$6,$7,0*
20,1,$1+$1,$6,$7,$8,$9,0*
20,1,$1+$1,$8,$9,$2,$3,0*%
G04 Aperture macros list end*
%ADD10C,0.250000*%
%TA.AperFunction,NonConductor*%
%ADD11C,0.250000*%
%TD*%
%TA.AperFunction,ComponentPad*%
%ADD12R,5.000000X2.000000*%
%TD*%
%TA.AperFunction,ComponentPad*%
%ADD13C,3.600000*%
%TD*%
%TA.AperFunction,ConnectorPad*%
%ADD14C,5.700000*%
%TD*%
%TA.AperFunction,ComponentPad*%
%ADD15C,0.600000*%
%TD*%
%TA.AperFunction,SMDPad,CuDef*%
%ADD16R,3.000000X3.000000*%
%TD*%
%TA.AperFunction,ComponentPad*%
%ADD17R,1.800000X1.100000*%
%TD*%
%TA.AperFunction,ComponentPad*%
%ADD18RoundRect,0.275000X0.625000X-0.275000X0.625000X0.275000X-0.625000X0.275000X-0.625000X-0.275000X0*%
%TD*%
%TA.AperFunction,ComponentPad*%
%ADD19C,2.240000*%
%TD*%
%TA.AperFunction,ComponentPad*%
%ADD20C,2.740000*%
%TD*%
%TA.AperFunction,ComponentPad*%
%ADD21C,4.890000*%
%TD*%
%TA.AperFunction,ComponentPad*%
%ADD22C,1.860000*%
%TD*%
%TA.AperFunction,ViaPad*%
%ADD23C,0.800000*%
%TD*%
%TA.AperFunction,ViaPad*%
%ADD24C,1.000000*%
%TD*%
%TA.AperFunction,ViaPad*%
%ADD25C,0.600000*%
%TD*%
%TA.AperFunction,Conductor*%
%ADD26C,0.500000*%
%TD*%
%TA.AperFunction,Conductor*%
%ADD27C,0.200000*%
%TD*%
%TA.AperFunction,Conductor*%
%ADD28C,3.000000*%
%TD*%
G04 APERTURE END LIST*
D10*
D11*
X183546666Y-119630619D02*
X182784761Y-119630619D01*
X182784761Y-119630619D02*
X182022857Y-119630619D01*
X181118095Y-119630619D02*
X181213333Y-119583000D01*
X181308571Y-119487761D01*
X181451428Y-119344904D01*
X181546666Y-119297285D01*
X181641904Y-119297285D01*
X181594285Y-119535380D02*
X181689523Y-119487761D01*
X181784761Y-119392523D01*
X181832380Y-119202047D01*
X181832380Y-118868714D01*
X181784761Y-118678238D01*
X181689523Y-118583000D01*
X181594285Y-118535380D01*
X181403809Y-118535380D01*
X181308571Y-118583000D01*
X181213333Y-118678238D01*
X181165714Y-118868714D01*
X181165714Y-119202047D01*
X181213333Y-119392523D01*
X181308571Y-119487761D01*
X181403809Y-119535380D01*
X181594285Y-119535380D01*
X180070476Y-119630619D02*
X180165714Y-119583000D01*
X180260952Y-119487761D01*
X180403809Y-119344904D01*
X180499047Y-119297285D01*
X180594285Y-119297285D01*
X180546666Y-119535380D02*
X180641904Y-119487761D01*
X180737142Y-119392523D01*
X180784761Y-119202047D01*
X180784761Y-118868714D01*
X180737142Y-118678238D01*
X180641904Y-118583000D01*
X180546666Y-118535380D01*
X180356190Y-118535380D01*
X180260952Y-118583000D01*
X180165714Y-118678238D01*
X180118095Y-118868714D01*
X180118095Y-119202047D01*
X180165714Y-119392523D01*
X180260952Y-119487761D01*
X180356190Y-119535380D01*
X180546666Y-119535380D01*
X186022857Y-120764428D02*
X185975238Y-120716809D01*
X185880000Y-120669190D01*
X185689523Y-120764428D01*
X185594285Y-120716809D01*
X185546666Y-120669190D01*
X185308571Y-120764428D02*
X185260952Y-120716809D01*
X185165714Y-120669190D01*
X184975238Y-120764428D01*
X184880000Y-120716809D01*
X184832380Y-120669190D01*
X184165714Y-121526333D02*
X184213333Y-121478714D01*
X184308571Y-121335857D01*
X184356190Y-121240619D01*
X184403809Y-121097761D01*
X184451428Y-120859666D01*
X184451428Y-120669190D01*
X184403809Y-120431095D01*
X184356190Y-120288238D01*
X184308571Y-120193000D01*
X184213333Y-120050142D01*
X184165714Y-120002523D01*
X184022857Y-121240619D02*
X183260952Y-121240619D01*
X183118095Y-121526333D02*
X183070476Y-121478714D01*
X182975238Y-121335857D01*
X182927619Y-121240619D01*
X182880000Y-121097761D01*
X182832380Y-120859666D01*
X182832380Y-120669190D01*
X182880000Y-120431095D01*
X182927619Y-120288238D01*
X182975238Y-120193000D01*
X183070476Y-120050142D01*
X183118095Y-120002523D01*
X182594285Y-121240619D02*
X181832380Y-121240619D01*
X181546666Y-120145380D02*
X181641904Y-120335857D01*
X181070476Y-120145380D02*
X181165714Y-120335857D01*
X180641904Y-120478714D02*
X179880000Y-120764428D01*
X180641904Y-121050142D01*
D12*
%TO.P,G1,1,+*%
%TO.N,Net-(F1-Pad1)*%
X175000000Y-58500000D03*
%TO.P,G1,2,-*%
%TO.N,GND*%
X175000000Y-114000000D03*
%TD*%
%TO.P,G3,1,+*%
%TO.N,Net-(F1-Pad1)*%
X113010000Y-58500000D03*
%TO.P,G3,2,-*%
%TO.N,GND*%
X113010000Y-114000000D03*
%TD*%
D13*
%TO.P,MECH1,1,1*%
%TO.N,GND*%
X87500000Y-134000000D03*
D14*
X87500000Y-134000000D03*
%TD*%
D15*
%TO.P,N5,17,EPAD*%
%TO.N,GND*%
X97210000Y-127162000D03*
X97210000Y-129562000D03*
D16*
X98410000Y-128362000D03*
D15*
X99610000Y-127162000D03*
X99610000Y-129562000D03*
%TD*%
%TO.P,N8,17,EPAD*%
%TO.N,GND*%
X132746000Y-127370000D03*
X130346000Y-127370000D03*
X132746000Y-129770000D03*
X130346000Y-129770000D03*
D16*
X131546000Y-128570000D03*
%TD*%
D13*
%TO.P,MECH3,1,1*%
%TO.N,GND*%
X200500000Y-41000000D03*
D14*
X200500000Y-41000000D03*
%TD*%
D17*
%TO.P,N2,1,+VS*%
%TO.N,+3V3*%
X146958000Y-52832000D03*
D18*
%TO.P,N2,2,Vout*%
%TO.N,battery_temp*%
X144888000Y-51562000D03*
%TO.P,N2,3,GND*%
%TO.N,GND*%
X146958000Y-50292000D03*
%TD*%
D19*
%TO.P,X1,1,In*%
%TO.N,Net-(R6-Pad2)*%
X89290000Y-50290000D03*
D20*
%TO.P,X1,2,Ext*%
%TO.N,GND*%
X91830000Y-52830000D03*
X91830000Y-47750000D03*
X86750000Y-52830000D03*
X86750000Y-47750000D03*
%TD*%
D13*
%TO.P,MECH2,1,1*%
%TO.N,GND*%
X200500000Y-134000000D03*
D14*
X200500000Y-134000000D03*
%TD*%
D16*
%TO.P,N7,17,EPAD*%
%TO.N,GND*%
X114666000Y-128489000D03*
D15*
X113466000Y-127289000D03*
X115866000Y-129689000D03*
X113466000Y-129689000D03*
X115866000Y-127289000D03*
%TD*%
D21*
%TO.P,X2,0*%
%TO.N,GND*%
X159752000Y-127540000D03*
X193072000Y-127540000D03*
D22*
%TO.P,X2,1*%
%TO.N,TPS_A_OC*%
X185000000Y-125000000D03*
%TO.P,X2,2*%
%TO.N,TPS_B_OC*%
X182710000Y-125000000D03*
%TO.P,X2,3*%
%TO.N,TPS_C_OC*%
X180420000Y-125000000D03*
%TO.P,X2,4*%
%TO.N,TPS_A_S1*%
X178130000Y-125000000D03*
%TO.P,X2,5*%
%TO.N,TPS_A_S2*%
X175840000Y-125000000D03*
%TO.P,X2,6*%
%TO.N,TPS_B_S1*%
X173550000Y-125000000D03*
%TO.P,X2,7*%
%TO.N,TPS_B_S2*%
X171260000Y-125000000D03*
%TO.P,X2,8*%
%TO.N,TPS_C_S1*%
X168970000Y-125000000D03*
%TO.P,X2,9*%
%TO.N,TPS_C_S2*%
X166680000Y-125000000D03*
%TO.P,X2,10*%
%TO.N,GND*%
X186145000Y-127540000D03*
%TO.P,X2,11*%
X183855000Y-127540000D03*
%TO.P,X2,12*%
X181565000Y-127540000D03*
%TO.P,X2,13*%
X179275000Y-127540000D03*
%TO.P,X2,14*%
X176985000Y-127540000D03*
%TO.P,X2,15*%
X174695000Y-127540000D03*
%TO.P,X2,16*%
X172405000Y-127540000D03*
%TO.P,X2,17*%
X170115000Y-127540000D03*
%TO.P,X2,18*%
X167825000Y-127540000D03*
%TO.P,X2,19*%
%TO.N,TPS_A_S1_CTRL*%
X185000000Y-130080000D03*
%TO.P,X2,20*%
%TO.N,TPS_A_S2_CTRL*%
X182710000Y-130080000D03*
%TO.P,X2,21*%
%TO.N,TPS_B_S1_CTRL*%
X180420000Y-130080000D03*
%TO.P,X2,22*%
%TO.N,TPS_B_S2_CTRL*%
X178130000Y-130080000D03*
%TO.P,X2,23*%
%TO.N,TPS_C_S1_CTRL*%
X175840000Y-130080000D03*
%TO.P,X2,24*%
%TO.N,TPS_C_S2_CTRL*%
X173550000Y-130080000D03*
%TO.P,X2,25*%
%TO.N,LTPS_SCL*%
X171260000Y-130080000D03*
%TO.P,X2,26*%
%TO.N,LTPS_SDA*%
X168970000Y-130080000D03*
%TD*%
D14*
%TO.P,MECH4,1,1*%
%TO.N,GND*%
X87500000Y-41000000D03*
D13*
X87500000Y-41000000D03*
%TD*%
D12*
%TO.P,G2,1,+*%
%TO.N,Net-(F1-Pad1)*%
X144000000Y-58500000D03*
%TO.P,G2,2,-*%
%TO.N,GND*%
X144000000Y-114000000D03*
%TD*%
D23*
%TO.N,+3V3*%
X149225000Y-115189000D03*
D24*
X139192000Y-39243000D03*
D23*
X161036000Y-54356000D03*
D25*
%TO.N,GND*%
X154444500Y-129318293D03*
X133900000Y-50500000D03*
X151765000Y-50419000D03*
D24*
X197993000Y-62484000D03*
D25*
X150241000Y-126365000D03*
D24*
X194691000Y-59436000D03*
X200025000Y-46990000D03*
D25*
X151765000Y-51689000D03*
D24*
X150114000Y-55626000D03*
D25*
X141732000Y-46228000D03*
X147193000Y-135255000D03*
D24*
X109347000Y-133350000D03*
D25*
X141732000Y-47752000D03*
X144780000Y-45339000D03*
X164109400Y-51866800D03*
D24*
X109347000Y-131064000D03*
X158877000Y-50419000D03*
X126111000Y-131064000D03*
X126111000Y-128524000D03*
X195707000Y-49911000D03*
X131582000Y-128534000D03*
X187706000Y-50038000D03*
X201930000Y-66802000D03*
D25*
X166141400Y-53644800D03*
D24*
X109347000Y-128524000D03*
X114719500Y-128435500D03*
X195150500Y-46832660D03*
D25*
X97500000Y-52500000D03*
X95235000Y-135347000D03*
X152273000Y-117348000D03*
X141224000Y-131699000D03*
X141224000Y-118364000D03*
D24*
X154559000Y-136271000D03*
D25*
X142367000Y-121285000D03*
D24*
X93218000Y-133350000D03*
D25*
X147193000Y-121569000D03*
X141732000Y-45466000D03*
X165379400Y-53644800D03*
X139202000Y-41098000D03*
D24*
X93218000Y-131064000D03*
D25*
X141224000Y-124714000D03*
X150160555Y-133004500D03*
X142367000Y-134620000D03*
X129413000Y-41783000D03*
X147193000Y-128397000D03*
D24*
X158877000Y-47244000D03*
X126111000Y-133350000D03*
X189611000Y-50419000D03*
D25*
X141732000Y-46990000D03*
D24*
X93218000Y-128524000D03*
X197612000Y-49911000D03*
D25*
X94727000Y-134331000D03*
X138750000Y-56428600D03*
D24*
X98410000Y-128362000D03*
D25*
X151765000Y-51054000D03*
X142367000Y-127635000D03*
X150241000Y-118376500D03*
X152293391Y-124102563D03*
D24*
X191897000Y-44450000D03*
%TO.N,main_battery_unregulated*%
X92837000Y-120015000D03*
X156210000Y-48514000D03*
X132207000Y-46736000D03*
X109093000Y-120269000D03*
D25*
X131000000Y-48641000D03*
D24*
X129032000Y-118237000D03*
D25*
X134000000Y-54100000D03*
D24*
X135636000Y-46736000D03*
%TO.N,main_voltage_sense*%
X192024000Y-53340000D03*
D25*
X148336000Y-42418000D03*
%TO.N,TPS_A*%
X150114000Y-123317000D03*
D23*
X155829000Y-117729000D03*
D24*
X101346000Y-133604000D03*
D25*
X147320000Y-118237000D03*
D24*
%TO.N,TPS_B*%
X117602000Y-133604000D03*
D23*
X193040000Y-113411000D03*
D25*
X149733000Y-129540000D03*
X145796000Y-123952000D03*
D24*
%TO.N,TPS_C*%
X134620000Y-133604000D03*
X150368000Y-136652000D03*
X144399000Y-130683000D03*
D25*
%TO.N,battery_temp*%
X193167000Y-55753000D03*
%TO.N,main_current_sense*%
X194310000Y-55880000D03*
X139700000Y-50038000D03*
D23*
%TO.N,LTPS_SCL*%
X196850000Y-43942000D03*
%TO.N,LTPS_SDA*%
X192151000Y-43053000D03*
D25*
%TO.N,Net-(R5-Pad1)*%
X98806000Y-51308000D03*
X120294400Y-51308000D03*
D23*
%TO.N,TPS_B_S1_CTRL*%
X147320000Y-126619000D03*
%TO.N,TPS_C_S1_CTRL*%
X147828000Y-133604000D03*
X162179000Y-134112000D03*
%TO.N,TPS_B_S2_CTRL*%
X164592000Y-131445000D03*
X164592000Y-134747000D03*
%TO.N,TPS_A_S1_CTRL*%
X140970000Y-120015000D03*
%TO.N,TPS_A_S2_CTRL*%
X159893000Y-130683000D03*
X154940000Y-121793000D03*
X158115000Y-132461000D03*
D25*
%TO.N,TPS_B_S1*%
X149098000Y-125349000D03*
D24*
%TO.N,TPS_C_S1*%
X149225000Y-131953000D03*
D25*
%TO.N,TPS_B_S2*%
X149098000Y-128397000D03*
D24*
%TO.N,TPS_C_S2*%
X148971000Y-135255000D03*
D25*
%TO.N,TPS_A_S1*%
X148844000Y-119507000D03*
%TO.N,TPS_A_S2*%
X149606000Y-121666000D03*
%TD*%
D26*
%TO.N,+3V3*%
X149098000Y-52197000D02*
X149098000Y-48514000D01*
X141478000Y-39243000D02*
X139192000Y-39243000D01*
X146558000Y-52832000D02*
X148463000Y-52832000D01*
X148463000Y-52832000D02*
X149098000Y-52197000D01*
X142875000Y-45212000D02*
X142875000Y-45085000D01*
X147447000Y-46863000D02*
X144526000Y-46863000D01*
X149098000Y-48514000D02*
X148336000Y-47752000D01*
X144526000Y-46863000D02*
X142875000Y-45212000D01*
X142875000Y-40640000D02*
X141732000Y-39497000D01*
X142875000Y-45085000D02*
X142875000Y-40640000D01*
X141732000Y-39497000D02*
X141478000Y-39243000D01*
X148336000Y-47752000D02*
X147447000Y-46863000D01*
D27*
%TO.N,main_battery_unregulated*%
X131600000Y-54100000D02*
X131000000Y-53500000D01*
X134000000Y-54100000D02*
X131600000Y-54100000D01*
X131000000Y-53500000D02*
X131000000Y-48641000D01*
%TO.N,main_voltage_sense*%
X185547000Y-45593000D02*
X185801000Y-45847000D01*
X148336000Y-42418000D02*
X182372000Y-42418000D01*
X185801000Y-50419000D02*
X188722000Y-53340000D01*
X188722000Y-53340000D02*
X192024000Y-53340000D01*
X185801000Y-45847000D02*
X185801000Y-50419000D01*
X182372000Y-42418000D02*
X185547000Y-45593000D01*
D26*
%TO.N,TPS_A*%
X148209000Y-122555000D02*
X148209000Y-120777000D01*
X148209000Y-120777000D02*
X148209000Y-120269000D01*
X150114000Y-123317000D02*
X148971000Y-123317000D01*
X148209000Y-120269000D02*
X147447000Y-119507000D01*
X148971000Y-123317000D02*
X148844000Y-123190000D01*
X148844000Y-123190000D02*
X148209000Y-122555000D01*
X147320000Y-119380000D02*
X147320000Y-118237000D01*
X147447000Y-119507000D02*
X147320000Y-119380000D01*
%TO.N,TPS_B*%
X148209000Y-124841000D02*
X148209000Y-129159000D01*
X148209000Y-129159000D02*
X148590000Y-129540000D01*
X147320000Y-123952000D02*
X148209000Y-124841000D01*
X148590000Y-129540000D02*
X149733000Y-129540000D01*
X145796000Y-123952000D02*
X147320000Y-123952000D01*
D27*
X190246000Y-116205000D02*
X147701000Y-116205000D01*
X193040000Y-113411000D02*
X190246000Y-116205000D01*
X147701000Y-116205000D02*
X145796000Y-118110000D01*
X145796000Y-118110000D02*
X145796000Y-123952000D01*
D26*
%TO.N,TPS_C*%
X144907000Y-130556000D02*
X144526000Y-130556000D01*
X146431000Y-136652000D02*
X145796000Y-136017000D01*
X144526000Y-130556000D02*
X144399000Y-130683000D01*
X145796000Y-131445000D02*
X144907000Y-130556000D01*
X145796000Y-136017000D02*
X145796000Y-131445000D01*
X150368000Y-136652000D02*
X146431000Y-136652000D01*
D28*
%TO.N,Net-(F1-Pad1)*%
X113010000Y-58500000D02*
X175000000Y-58500000D01*
D27*
%TO.N,LTPS_SCL*%
X196215000Y-129159000D02*
X198882000Y-126492000D01*
X198882000Y-45974000D02*
X196850000Y-43942000D01*
X172085000Y-133096000D02*
X190627000Y-133096000D01*
X171260000Y-130080000D02*
X171260000Y-132271000D01*
X198882000Y-48895000D02*
X198882000Y-45974000D01*
X192278000Y-133096000D02*
X196215000Y-129159000D01*
X190627000Y-133096000D02*
X192278000Y-133096000D01*
X198882000Y-126492000D02*
X198882000Y-48895000D01*
X171260000Y-132271000D02*
X172085000Y-133096000D01*
%TO.N,LTPS_SDA*%
X193167000Y-134620000D02*
X200751501Y-127035499D01*
X197866000Y-43053000D02*
X192151000Y-43053000D01*
X168970000Y-130080000D02*
X168970000Y-132775000D01*
X200751501Y-45938501D02*
X197866000Y-43053000D01*
X200751501Y-127035499D02*
X200751501Y-45938501D01*
X168970000Y-132775000D02*
X170815000Y-134620000D01*
X170815000Y-134620000D02*
X193167000Y-134620000D01*
%TO.N,Net-(R5-Pad1)*%
X98806000Y-51308000D02*
X120294400Y-51308000D01*
X120294400Y-51308000D02*
X120319800Y-51333400D01*
X98729800Y-51308000D02*
X98806000Y-51308000D01*
%TO.N,TPS_C_S1_CTRL*%
X147828000Y-133604000D02*
X161671000Y-133604000D01*
X161671000Y-133604000D02*
X162179000Y-134112000D01*
%TO.N,TPS_B_S2_CTRL*%
X164592000Y-134747000D02*
X164592000Y-131445000D01*
%TO.N,TPS_A_S2_CTRL*%
X159893000Y-130683000D02*
X158115000Y-132461000D01*
D26*
%TO.N,TPS_B_S1*%
X173550000Y-123004000D02*
X171450000Y-120904000D01*
X149733000Y-125349000D02*
X149098000Y-125349000D01*
X154178000Y-120904000D02*
X149733000Y-125349000D01*
X173550000Y-125000000D02*
X173550000Y-123004000D01*
X171450000Y-120904000D02*
X154178000Y-120904000D01*
%TO.N,TPS_C_S1*%
X155194000Y-131445000D02*
X154686000Y-131953000D01*
X155194000Y-125222000D02*
X155194000Y-131445000D01*
X154686000Y-131953000D02*
X149225000Y-131953000D01*
X168970000Y-125000000D02*
X168970000Y-123250000D01*
X168529000Y-122809000D02*
X157607000Y-122809000D01*
X157607000Y-122809000D02*
X155194000Y-125222000D01*
X168970000Y-123250000D02*
X168529000Y-122809000D01*
%TO.N,TPS_B_S2*%
X150241000Y-128397000D02*
X149098000Y-128397000D01*
X156845000Y-121793000D02*
X150241000Y-128397000D01*
X171260000Y-125000000D02*
X171260000Y-123762000D01*
X169291000Y-121793000D02*
X156845000Y-121793000D01*
X171260000Y-123762000D02*
X169291000Y-121793000D01*
%TO.N,TPS_C_S2*%
X164687000Y-125000000D02*
X163449000Y-126238000D01*
X166680000Y-125000000D02*
X164687000Y-125000000D01*
X162306000Y-135255000D02*
X148971000Y-135255000D01*
X163449000Y-126238000D02*
X163449000Y-134112000D01*
X163449000Y-134112000D02*
X162306000Y-135255000D01*
%TO.N,TPS_A_S1*%
X178130000Y-123266000D02*
X173990000Y-119126000D01*
X149225000Y-119126000D02*
X148844000Y-119507000D01*
X173990000Y-119126000D02*
X149225000Y-119126000D01*
X178130000Y-125000000D02*
X178130000Y-123266000D01*
%TO.N,TPS_A_S2*%
X175840000Y-123008000D02*
X172847000Y-120015000D01*
X175840000Y-125000000D02*
X175840000Y-123008000D01*
X172847000Y-120015000D02*
X151257000Y-120015000D01*
X151257000Y-120015000D02*
X149606000Y-121666000D01*
%TD*%
M02*
