%TF.GenerationSoftware,KiCad,Pcbnew,(6.0.2)*%
%TF.CreationDate,2023-06-26T13:18:54+02:00*%
%TF.ProjectId,LTPS_A,4c545053-5f41-42e6-9b69-6361645f7063,rev?*%
%TF.SameCoordinates,Original*%
%TF.FileFunction,Copper,L1,Top*%
%TF.FilePolarity,Positive*%
%FSLAX46Y46*%
G04 Gerber Fmt 4.6, Leading zero omitted, Abs format (unit mm)*
G04 Created by KiCad (PCBNEW (6.0.2)) date 2023-06-26 13:18:54*
%MOMM*%
%LPD*%
G01*
G04 APERTURE LIST*
G04 Aperture macros list*
%AMRoundRect*
0 Rectangle with rounded corners*
0 $1 Rounding radius*
0 $2 $3 $4 $5 $6 $7 $8 $9 X,Y pos of 4 corners*
0 Add a 4 corners polygon primitive as box body*
4,1,4,$2,$3,$4,$5,$6,$7,$8,$9,$2,$3,0*
0 Add four circle primitives for the rounded corners*
1,1,$1+$1,$2,$3*
1,1,$1+$1,$4,$5*
1,1,$1+$1,$6,$7*
1,1,$1+$1,$8,$9*
0 Add four rect primitives between the rounded corners*
20,1,$1+$1,$2,$3,$4,$5,0*
20,1,$1+$1,$4,$5,$6,$7,0*
20,1,$1+$1,$6,$7,$8,$9,0*
20,1,$1+$1,$8,$9,$2,$3,0*%
G04 Aperture macros list end*
%ADD10C,0.300000*%
%TA.AperFunction,NonConductor*%
%ADD11C,0.300000*%
%TD*%
%ADD12C,0.250000*%
%TA.AperFunction,NonConductor*%
%ADD13C,0.250000*%
%TD*%
%ADD14C,0.750000*%
%TA.AperFunction,NonConductor*%
%ADD15C,0.750000*%
%TD*%
%TA.AperFunction,SMDPad,CuDef*%
%ADD16RoundRect,0.200000X0.275000X-0.200000X0.275000X0.200000X-0.275000X0.200000X-0.275000X-0.200000X0*%
%TD*%
%TA.AperFunction,ComponentPad*%
%ADD17R,5.000000X2.000000*%
%TD*%
%TA.AperFunction,SMDPad,CuDef*%
%ADD18RoundRect,0.250000X-0.325000X-0.650000X0.325000X-0.650000X0.325000X0.650000X-0.325000X0.650000X0*%
%TD*%
%TA.AperFunction,SMDPad,CuDef*%
%ADD19RoundRect,0.200000X0.200000X0.275000X-0.200000X0.275000X-0.200000X-0.275000X0.200000X-0.275000X0*%
%TD*%
%TA.AperFunction,SMDPad,CuDef*%
%ADD20RoundRect,0.100000X-0.637500X-0.100000X0.637500X-0.100000X0.637500X0.100000X-0.637500X0.100000X0*%
%TD*%
%TA.AperFunction,SMDPad,CuDef*%
%ADD21RoundRect,0.100000X0.100000X-0.712500X0.100000X0.712500X-0.100000X0.712500X-0.100000X-0.712500X0*%
%TD*%
%TA.AperFunction,SMDPad,CuDef*%
%ADD22RoundRect,0.200000X-0.275000X0.200000X-0.275000X-0.200000X0.275000X-0.200000X0.275000X0.200000X0*%
%TD*%
%TA.AperFunction,SMDPad,CuDef*%
%ADD23RoundRect,0.218750X-0.218750X-0.256250X0.218750X-0.256250X0.218750X0.256250X-0.218750X0.256250X0*%
%TD*%
%TA.AperFunction,SMDPad,CuDef*%
%ADD24RoundRect,0.250000X-0.250000X-0.475000X0.250000X-0.475000X0.250000X0.475000X-0.250000X0.475000X0*%
%TD*%
%TA.AperFunction,SMDPad,CuDef*%
%ADD25RoundRect,0.250000X-0.312500X-0.625000X0.312500X-0.625000X0.312500X0.625000X-0.312500X0.625000X0*%
%TD*%
%TA.AperFunction,SMDPad,CuDef*%
%ADD26RoundRect,0.250000X-0.475000X0.250000X-0.475000X-0.250000X0.475000X-0.250000X0.475000X0.250000X0*%
%TD*%
%TA.AperFunction,SMDPad,CuDef*%
%ADD27R,2.950000X3.500000*%
%TD*%
%TA.AperFunction,ComponentPad*%
%ADD28C,3.600000*%
%TD*%
%TA.AperFunction,ConnectorPad*%
%ADD29C,5.700000*%
%TD*%
%TA.AperFunction,SMDPad,CuDef*%
%ADD30RoundRect,0.100000X-0.100000X0.675000X-0.100000X-0.675000X0.100000X-0.675000X0.100000X0.675000X0*%
%TD*%
%TA.AperFunction,ComponentPad*%
%ADD31C,0.600000*%
%TD*%
%TA.AperFunction,SMDPad,CuDef*%
%ADD32R,3.000000X3.000000*%
%TD*%
%TA.AperFunction,SMDPad,CuDef*%
%ADD33RoundRect,0.150000X-0.512500X-0.150000X0.512500X-0.150000X0.512500X0.150000X-0.512500X0.150000X0*%
%TD*%
%TA.AperFunction,SMDPad,CuDef*%
%ADD34RoundRect,0.150000X-0.587500X-0.150000X0.587500X-0.150000X0.587500X0.150000X-0.587500X0.150000X0*%
%TD*%
%TA.AperFunction,SMDPad,CuDef*%
%ADD35RoundRect,0.250000X0.625000X-0.375000X0.625000X0.375000X-0.625000X0.375000X-0.625000X-0.375000X0*%
%TD*%
%TA.AperFunction,SMDPad,CuDef*%
%ADD36RoundRect,0.250000X-0.650000X0.325000X-0.650000X-0.325000X0.650000X-0.325000X0.650000X0.325000X0*%
%TD*%
%TA.AperFunction,SMDPad,CuDef*%
%ADD37RoundRect,0.150000X-0.150000X0.512500X-0.150000X-0.512500X0.150000X-0.512500X0.150000X0.512500X0*%
%TD*%
%TA.AperFunction,ComponentPad*%
%ADD38R,1.800000X1.100000*%
%TD*%
%TA.AperFunction,ComponentPad*%
%ADD39RoundRect,0.275000X0.625000X-0.275000X0.625000X0.275000X-0.625000X0.275000X-0.625000X-0.275000X0*%
%TD*%
%TA.AperFunction,ComponentPad*%
%ADD40C,2.240000*%
%TD*%
%TA.AperFunction,ComponentPad*%
%ADD41C,2.740000*%
%TD*%
%TA.AperFunction,SMDPad,CuDef*%
%ADD42RoundRect,0.200000X-0.200000X-0.275000X0.200000X-0.275000X0.200000X0.275000X-0.200000X0.275000X0*%
%TD*%
%TA.AperFunction,SMDPad,CuDef*%
%ADD43RoundRect,0.250000X-0.787500X-1.025000X0.787500X-1.025000X0.787500X1.025000X-0.787500X1.025000X0*%
%TD*%
%TA.AperFunction,SMDPad,CuDef*%
%ADD44R,2.000000X1.500000*%
%TD*%
%TA.AperFunction,SMDPad,CuDef*%
%ADD45R,2.000000X3.800000*%
%TD*%
%TA.AperFunction,SMDPad,CuDef*%
%ADD46RoundRect,0.250000X0.325000X0.650000X-0.325000X0.650000X-0.325000X-0.650000X0.325000X-0.650000X0*%
%TD*%
%TA.AperFunction,SMDPad,CuDef*%
%ADD47R,2.200000X6.300000*%
%TD*%
%TA.AperFunction,ComponentPad*%
%ADD48C,4.890000*%
%TD*%
%TA.AperFunction,ComponentPad*%
%ADD49C,1.860000*%
%TD*%
%TA.AperFunction,SMDPad,CuDef*%
%ADD50RoundRect,0.250000X1.025000X-0.787500X1.025000X0.787500X-1.025000X0.787500X-1.025000X-0.787500X0*%
%TD*%
%TA.AperFunction,SMDPad,CuDef*%
%ADD51RoundRect,0.100000X0.100000X-0.637500X0.100000X0.637500X-0.100000X0.637500X-0.100000X-0.637500X0*%
%TD*%
%TA.AperFunction,ViaPad*%
%ADD52C,0.800000*%
%TD*%
%TA.AperFunction,ViaPad*%
%ADD53C,1.000000*%
%TD*%
%TA.AperFunction,ViaPad*%
%ADD54C,0.600000*%
%TD*%
%TA.AperFunction,Conductor*%
%ADD55C,0.500000*%
%TD*%
%TA.AperFunction,Conductor*%
%ADD56C,0.200000*%
%TD*%
%TA.AperFunction,Conductor*%
%ADD57C,0.250000*%
%TD*%
%TA.AperFunction,Conductor*%
%ADD58C,1.000000*%
%TD*%
%TA.AperFunction,Conductor*%
%ADD59C,1.500000*%
%TD*%
%TA.AperFunction,Conductor*%
%ADD60C,0.300000*%
%TD*%
G04 APERTURE END LIST*
D10*
D11*
X92160428Y-84788571D02*
X92160428Y-84074285D01*
X93660428Y-84074285D01*
X93660428Y-85074285D02*
X93660428Y-85931428D01*
X92160428Y-85502857D02*
X93660428Y-85502857D01*
X92160428Y-86431428D02*
X93660428Y-86431428D01*
X93660428Y-87002857D01*
X93589000Y-87145714D01*
X93517571Y-87217142D01*
X93374714Y-87288571D01*
X93160428Y-87288571D01*
X93017571Y-87217142D01*
X92946142Y-87145714D01*
X92874714Y-87002857D01*
X92874714Y-86431428D01*
X92231857Y-87860000D02*
X92160428Y-88074285D01*
X92160428Y-88431428D01*
X92231857Y-88574285D01*
X92303285Y-88645714D01*
X92446142Y-88717142D01*
X92589000Y-88717142D01*
X92731857Y-88645714D01*
X92803285Y-88574285D01*
X92874714Y-88431428D01*
X92946142Y-88145714D01*
X93017571Y-88002857D01*
X93089000Y-87931428D01*
X93231857Y-87860000D01*
X93374714Y-87860000D01*
X93517571Y-87931428D01*
X93589000Y-88002857D01*
X93660428Y-88145714D01*
X93660428Y-88502857D01*
X93589000Y-88717142D01*
X89745428Y-81181428D02*
X91245428Y-81181428D01*
X90174000Y-81681428D01*
X91245428Y-82181428D01*
X89745428Y-82181428D01*
X89745428Y-83538571D02*
X90531142Y-83538571D01*
X90674000Y-83467142D01*
X90745428Y-83324285D01*
X90745428Y-83038571D01*
X90674000Y-82895714D01*
X89816857Y-83538571D02*
X89745428Y-83395714D01*
X89745428Y-83038571D01*
X89816857Y-82895714D01*
X89959714Y-82824285D01*
X90102571Y-82824285D01*
X90245428Y-82895714D01*
X90316857Y-83038571D01*
X90316857Y-83395714D01*
X90388285Y-83538571D01*
X90745428Y-84110000D02*
X89745428Y-84467142D01*
X90745428Y-84824285D02*
X89745428Y-84467142D01*
X89388285Y-84324285D01*
X89316857Y-84252857D01*
X89245428Y-84110000D01*
X91102571Y-86467142D02*
X91174000Y-86538571D01*
X91245428Y-86681428D01*
X91245428Y-87038571D01*
X91174000Y-87181428D01*
X91102571Y-87252857D01*
X90959714Y-87324285D01*
X90816857Y-87324285D01*
X90602571Y-87252857D01*
X89745428Y-86395714D01*
X89745428Y-87324285D01*
X91245428Y-88252857D02*
X91245428Y-88395714D01*
X91174000Y-88538571D01*
X91102571Y-88610000D01*
X90959714Y-88681428D01*
X90674000Y-88752857D01*
X90316857Y-88752857D01*
X90031142Y-88681428D01*
X89888285Y-88610000D01*
X89816857Y-88538571D01*
X89745428Y-88395714D01*
X89745428Y-88252857D01*
X89816857Y-88110000D01*
X89888285Y-88038571D01*
X90031142Y-87967142D01*
X90316857Y-87895714D01*
X90674000Y-87895714D01*
X90959714Y-87967142D01*
X91102571Y-88038571D01*
X91174000Y-88110000D01*
X91245428Y-88252857D01*
X91102571Y-89324285D02*
X91174000Y-89395714D01*
X91245428Y-89538571D01*
X91245428Y-89895714D01*
X91174000Y-90038571D01*
X91102571Y-90110000D01*
X90959714Y-90181428D01*
X90816857Y-90181428D01*
X90602571Y-90110000D01*
X89745428Y-89252857D01*
X89745428Y-90181428D01*
X91245428Y-90681428D02*
X91245428Y-91610000D01*
X90674000Y-91110000D01*
X90674000Y-91324285D01*
X90602571Y-91467142D01*
X90531142Y-91538571D01*
X90388285Y-91610000D01*
X90031142Y-91610000D01*
X89888285Y-91538571D01*
X89816857Y-91467142D01*
X89745428Y-91324285D01*
X89745428Y-90895714D01*
X89816857Y-90752857D01*
X89888285Y-90681428D01*
X88830428Y-80074285D02*
X87330428Y-80574285D01*
X88830428Y-81074285D01*
X87401857Y-82145714D02*
X87330428Y-82002857D01*
X87330428Y-81717142D01*
X87401857Y-81574285D01*
X87544714Y-81502857D01*
X88116142Y-81502857D01*
X88259000Y-81574285D01*
X88330428Y-81717142D01*
X88330428Y-82002857D01*
X88259000Y-82145714D01*
X88116142Y-82217142D01*
X87973285Y-82217142D01*
X87830428Y-81502857D01*
X87330428Y-82860000D02*
X88330428Y-82860000D01*
X88044714Y-82860000D02*
X88187571Y-82931428D01*
X88259000Y-83002857D01*
X88330428Y-83145714D01*
X88330428Y-83288571D01*
X87401857Y-83717142D02*
X87330428Y-83860000D01*
X87330428Y-84145714D01*
X87401857Y-84288571D01*
X87544714Y-84360000D01*
X87616142Y-84360000D01*
X87759000Y-84288571D01*
X87830428Y-84145714D01*
X87830428Y-83931428D01*
X87901857Y-83788571D01*
X88044714Y-83717142D01*
X88116142Y-83717142D01*
X88259000Y-83788571D01*
X88330428Y-83931428D01*
X88330428Y-84145714D01*
X88259000Y-84288571D01*
X87330428Y-85002857D02*
X88330428Y-85002857D01*
X88830428Y-85002857D02*
X88759000Y-84931428D01*
X88687571Y-85002857D01*
X88759000Y-85074285D01*
X88830428Y-85002857D01*
X88687571Y-85002857D01*
X87330428Y-85931428D02*
X87401857Y-85788571D01*
X87473285Y-85717142D01*
X87616142Y-85645714D01*
X88044714Y-85645714D01*
X88187571Y-85717142D01*
X88259000Y-85788571D01*
X88330428Y-85931428D01*
X88330428Y-86145714D01*
X88259000Y-86288571D01*
X88187571Y-86360000D01*
X88044714Y-86431428D01*
X87616142Y-86431428D01*
X87473285Y-86360000D01*
X87401857Y-86288571D01*
X87330428Y-86145714D01*
X87330428Y-85931428D01*
X88330428Y-87074285D02*
X87330428Y-87074285D01*
X88187571Y-87074285D02*
X88259000Y-87145714D01*
X88330428Y-87288571D01*
X88330428Y-87502857D01*
X88259000Y-87645714D01*
X88116142Y-87717142D01*
X87330428Y-87717142D01*
X87330428Y-90360000D02*
X87330428Y-89502857D01*
X87330428Y-89931428D02*
X88830428Y-89931428D01*
X88616142Y-89788571D01*
X88473285Y-89645714D01*
X88401857Y-89502857D01*
X87473285Y-91002857D02*
X87401857Y-91074285D01*
X87330428Y-91002857D01*
X87401857Y-90931428D01*
X87473285Y-91002857D01*
X87330428Y-91002857D01*
X87330428Y-92502857D02*
X87330428Y-91645714D01*
X87330428Y-92074285D02*
X88830428Y-92074285D01*
X88616142Y-91931428D01*
X88473285Y-91788571D01*
X88401857Y-91645714D01*
D12*
D13*
X92877714Y-43124380D02*
X92544380Y-42648190D01*
X92306285Y-43124380D02*
X92306285Y-42124380D01*
X92687238Y-42124380D01*
X92782476Y-42172000D01*
X92830095Y-42219619D01*
X92877714Y-42314857D01*
X92877714Y-42457714D01*
X92830095Y-42552952D01*
X92782476Y-42600571D01*
X92687238Y-42648190D01*
X92306285Y-42648190D01*
X93306285Y-42600571D02*
X93639619Y-42600571D01*
X93782476Y-43124380D02*
X93306285Y-43124380D01*
X93306285Y-42124380D01*
X93782476Y-42124380D01*
X94211047Y-43124380D02*
X94211047Y-42124380D01*
X94544380Y-42838666D01*
X94877714Y-42124380D01*
X94877714Y-43124380D01*
X95544380Y-42124380D02*
X95734857Y-42124380D01*
X95830095Y-42172000D01*
X95925333Y-42267238D01*
X95972952Y-42457714D01*
X95972952Y-42791047D01*
X95925333Y-42981523D01*
X95830095Y-43076761D01*
X95734857Y-43124380D01*
X95544380Y-43124380D01*
X95449142Y-43076761D01*
X95353904Y-42981523D01*
X95306285Y-42791047D01*
X95306285Y-42457714D01*
X95353904Y-42267238D01*
X95449142Y-42172000D01*
X95544380Y-42124380D01*
X96258666Y-42124380D02*
X96592000Y-43124380D01*
X96925333Y-42124380D01*
X97258666Y-42600571D02*
X97592000Y-42600571D01*
X97734857Y-43124380D02*
X97258666Y-43124380D01*
X97258666Y-42124380D01*
X97734857Y-42124380D01*
X99258666Y-42600571D02*
X99401523Y-42648190D01*
X99449142Y-42695809D01*
X99496761Y-42791047D01*
X99496761Y-42933904D01*
X99449142Y-43029142D01*
X99401523Y-43076761D01*
X99306285Y-43124380D01*
X98925333Y-43124380D01*
X98925333Y-42124380D01*
X99258666Y-42124380D01*
X99353904Y-42172000D01*
X99401523Y-42219619D01*
X99449142Y-42314857D01*
X99449142Y-42410095D01*
X99401523Y-42505333D01*
X99353904Y-42552952D01*
X99258666Y-42600571D01*
X98925333Y-42600571D01*
X99925333Y-42600571D02*
X100258666Y-42600571D01*
X100401523Y-43124380D02*
X99925333Y-43124380D01*
X99925333Y-42124380D01*
X100401523Y-42124380D01*
X101163428Y-42600571D02*
X100830095Y-42600571D01*
X100830095Y-43124380D02*
X100830095Y-42124380D01*
X101306285Y-42124380D01*
X101877714Y-42124380D02*
X102068190Y-42124380D01*
X102163428Y-42172000D01*
X102258666Y-42267238D01*
X102306285Y-42457714D01*
X102306285Y-42791047D01*
X102258666Y-42981523D01*
X102163428Y-43076761D01*
X102068190Y-43124380D01*
X101877714Y-43124380D01*
X101782476Y-43076761D01*
X101687238Y-42981523D01*
X101639619Y-42791047D01*
X101639619Y-42457714D01*
X101687238Y-42267238D01*
X101782476Y-42172000D01*
X101877714Y-42124380D01*
X103306285Y-43124380D02*
X102972952Y-42648190D01*
X102734857Y-43124380D02*
X102734857Y-42124380D01*
X103115809Y-42124380D01*
X103211047Y-42172000D01*
X103258666Y-42219619D01*
X103306285Y-42314857D01*
X103306285Y-42457714D01*
X103258666Y-42552952D01*
X103211047Y-42600571D01*
X103115809Y-42648190D01*
X102734857Y-42648190D01*
X103734857Y-42600571D02*
X104068190Y-42600571D01*
X104211047Y-43124380D02*
X103734857Y-43124380D01*
X103734857Y-42124380D01*
X104211047Y-42124380D01*
X105734857Y-42600571D02*
X105401523Y-42600571D01*
X105401523Y-43124380D02*
X105401523Y-42124380D01*
X105877714Y-42124380D01*
X106734857Y-43124380D02*
X106258666Y-43124380D01*
X106258666Y-42124380D01*
X107068190Y-43124380D02*
X107068190Y-42124380D01*
X108068190Y-42172000D02*
X107972952Y-42124380D01*
X107830095Y-42124380D01*
X107687238Y-42172000D01*
X107592000Y-42267238D01*
X107544380Y-42362476D01*
X107496761Y-42552952D01*
X107496761Y-42695809D01*
X107544380Y-42886285D01*
X107592000Y-42981523D01*
X107687238Y-43076761D01*
X107830095Y-43124380D01*
X107925333Y-43124380D01*
X108068190Y-43076761D01*
X108115809Y-43029142D01*
X108115809Y-42695809D01*
X107925333Y-42695809D01*
X108544380Y-43124380D02*
X108544380Y-42124380D01*
X108544380Y-42600571D02*
X109115809Y-42600571D01*
X109115809Y-43124380D02*
X109115809Y-42124380D01*
X109449142Y-42124380D02*
X110020571Y-42124380D01*
X109734857Y-43124380D02*
X109734857Y-42124380D01*
D14*
%TO.C,G1*%
D15*
X183857142Y-58214285D02*
X186142857Y-58214285D01*
X185000000Y-59357142D02*
X185000000Y-57071428D01*
D14*
D15*
X163857142Y-58214285D02*
X166142857Y-58214285D01*
X165000000Y-59357142D02*
X165000000Y-57071428D01*
D14*
D15*
X164857142Y-115214285D02*
X167142857Y-115214285D01*
D14*
D15*
X183857142Y-115214285D02*
X186142857Y-115214285D01*
D14*
%TO.C,G3*%
D15*
X101867142Y-58214285D02*
X104152857Y-58214285D01*
X103010000Y-59357142D02*
X103010000Y-57071428D01*
D14*
D15*
X121867142Y-115214285D02*
X124152857Y-115214285D01*
D14*
D15*
X121867142Y-58214285D02*
X124152857Y-58214285D01*
X123010000Y-59357142D02*
X123010000Y-57071428D01*
D14*
D15*
X102867142Y-115214285D02*
X105152857Y-115214285D01*
D14*
%TO.C,G2*%
D15*
X133857142Y-115214285D02*
X136142857Y-115214285D01*
D14*
D15*
X152857142Y-58214285D02*
X155142857Y-58214285D01*
X154000000Y-59357142D02*
X154000000Y-57071428D01*
D14*
D15*
X132857142Y-58214285D02*
X135142857Y-58214285D01*
X134000000Y-59357142D02*
X134000000Y-57071428D01*
D14*
D15*
X152857142Y-115214285D02*
X155142857Y-115214285D01*
%TD*%
D16*
%TO.P,R26,1*%
%TO.N,Net-(N9-Pad15)*%
X153416000Y-118965000D03*
%TO.P,R26,2*%
%TO.N,GND*%
X153416000Y-117315000D03*
%TD*%
D17*
%TO.P,G1,1,+*%
%TO.N,Net-(F1-Pad1)*%
X175000000Y-58500000D03*
%TO.P,G1,2,-*%
%TO.N,GND*%
X175000000Y-114000000D03*
%TD*%
D18*
%TO.P,C13,1*%
%TO.N,+3V3*%
X187550000Y-44450000D03*
%TO.P,C13,2*%
%TO.N,GND*%
X190500000Y-44450000D03*
%TD*%
D19*
%TO.P,R11,1*%
%TO.N,Net-(C17-Pad1)*%
X191197000Y-62738000D03*
%TO.P,R11,2*%
%TO.N,TPS_A*%
X189547000Y-62738000D03*
%TD*%
D20*
%TO.P,N11,1,INA*%
%TO.N,TPS_C*%
X145854500Y-131953000D03*
%TO.P,N11,2,OUTA*%
%TO.N,TPS_C_S1*%
X145854500Y-132603000D03*
%TO.P,N11,3,ENA*%
%TO.N,TPS_C_S1_CTRL*%
X145854500Y-133253000D03*
%TO.P,N11,4,NC*%
%TO.N,unconnected-(N11-Pad4)*%
X145854500Y-133903000D03*
%TO.P,N11,5,FLGA*%
%TO.N,TPS_C_OC*%
X145854500Y-134553000D03*
%TO.P,N11,6,GND*%
%TO.N,GND*%
X145854500Y-135203000D03*
%TO.P,N11,7,ILMB*%
%TO.N,Net-(N11-Pad7)*%
X145854500Y-135853000D03*
%TO.P,N11,8,OUTB*%
%TO.N,TPS_C_S2*%
X145854500Y-136503000D03*
%TO.P,N11,9,INB*%
%TO.N,TPS_C*%
X151579500Y-136503000D03*
%TO.P,N11,10,NC*%
%TO.N,unconnected-(N11-Pad10)*%
X151579500Y-135853000D03*
%TO.P,N11,11,OUTB*%
%TO.N,TPS_C_S2*%
X151579500Y-135203000D03*
%TO.P,N11,12,ENB*%
%TO.N,TPS_C_S2_CTRL*%
X151579500Y-134553000D03*
%TO.P,N11,13,FLGB*%
%TO.N,TPS_C_OC*%
X151579500Y-133903000D03*
%TO.P,N11,14,GND*%
%TO.N,GND*%
X151579500Y-133253000D03*
%TO.P,N11,15,ILIMA*%
%TO.N,Net-(N11-Pad15)*%
X151579500Y-132603000D03*
%TO.P,N11,16,OUTA*%
%TO.N,TPS_C_S1*%
X151579500Y-131953000D03*
%TD*%
D21*
%TO.P,N1,1,EN*%
%TO.N,main_battery_unregulated*%
X157800400Y-53090300D03*
%TO.P,N1,2,NC*%
%TO.N,unconnected-(N1-Pad2)*%
X158450400Y-53090300D03*
%TO.P,N1,3,PG*%
%TO.N,unconnected-(N1-Pad3)*%
X159100400Y-53090300D03*
%TO.P,N1,4,Vout*%
%TO.N,+3V3*%
X159750400Y-53090300D03*
%TO.P,N1,5,SW*%
%TO.N,Net-(L1-Pad2)*%
X159750400Y-48865300D03*
%TO.P,N1,6,GND*%
%TO.N,GND*%
X159100400Y-48865300D03*
%TO.P,N1,7,GND*%
X158450400Y-48865300D03*
%TO.P,N1,8,Vin*%
%TO.N,main_battery_unregulated*%
X157800400Y-48865300D03*
%TD*%
D22*
%TO.P,R20,1*%
%TO.N,Net-(C24-Pad1)*%
X168148000Y-52769000D03*
%TO.P,R20,2*%
%TO.N,GND*%
X168148000Y-54419000D03*
%TD*%
D19*
%TO.P,R6,1*%
%TO.N,Net-(F1-Pad2)*%
X96962500Y-48250000D03*
%TO.P,R6,2*%
%TO.N,Net-(R6-Pad2)*%
X95312500Y-48250000D03*
%TD*%
D23*
%TO.P,Z1,1*%
%TO.N,Net-(N4-Pad1)*%
X137012500Y-50100000D03*
%TO.P,Z1,2*%
%TO.N,main_current_sense*%
X138587500Y-50100000D03*
%TD*%
D24*
%TO.P,C10,1*%
%TO.N,+3V3*%
X136850000Y-54900000D03*
%TO.P,C10,2*%
%TO.N,GND*%
X138750000Y-54900000D03*
%TD*%
D25*
%TO.P,R4,1*%
%TO.N,Net-(N4-Pad3)*%
X128075000Y-46800000D03*
%TO.P,R4,2*%
%TO.N,main_battery_unregulated*%
X131000000Y-46800000D03*
%TD*%
D26*
%TO.P,C7,1*%
%TO.N,main_voltage_sense*%
X146812000Y-42484000D03*
%TO.P,C7,2*%
%TO.N,GND*%
X146812000Y-44384000D03*
%TD*%
D22*
%TO.P,R35,1*%
%TO.N,TPS_C_S2_CTRL*%
X153416000Y-134557000D03*
%TO.P,R35,2*%
%TO.N,GND*%
X153416000Y-136207000D03*
%TD*%
D16*
%TO.P,R19,1*%
%TO.N,Net-(C24-Pad1)*%
X168148000Y-51371000D03*
%TO.P,R19,2*%
%TO.N,+3V3*%
X168148000Y-49721000D03*
%TD*%
D22*
%TO.P,R30,1*%
%TO.N,TPS_B_S2_CTRL*%
X153416000Y-127699000D03*
%TO.P,R30,2*%
%TO.N,GND*%
X153416000Y-129349000D03*
%TD*%
%TO.P,R2,1*%
%TO.N,main_voltage_sense*%
X144780000Y-42482000D03*
%TO.P,R2,2*%
%TO.N,GND*%
X144780000Y-44132000D03*
%TD*%
D26*
%TO.P,C2,1*%
%TO.N,+3V3*%
X137777000Y-39248000D03*
%TO.P,C2,2*%
%TO.N,GND*%
X137777000Y-41148000D03*
%TD*%
D17*
%TO.P,G3,1,+*%
%TO.N,Net-(F1-Pad1)*%
X113010000Y-58500000D03*
%TO.P,G3,2,-*%
%TO.N,GND*%
X113010000Y-114000000D03*
%TD*%
D27*
%TO.P,L4,1*%
%TO.N,main_battery_unregulated*%
X128821000Y-120950000D03*
%TO.P,L4,2*%
%TO.N,Net-(L4-Pad2)*%
X134271000Y-120950000D03*
%TD*%
D19*
%TO.P,R5,1*%
%TO.N,Net-(R5-Pad1)*%
X122325000Y-54100000D03*
%TO.P,R5,2*%
%TO.N,Net-(F1-Pad2)*%
X120675000Y-54100000D03*
%TD*%
D28*
%TO.P,MECH1,1,1*%
%TO.N,GND*%
X87500000Y-134000000D03*
D29*
X87500000Y-134000000D03*
%TD*%
D30*
%TO.P,N5,1,SW*%
%TO.N,Net-(L2-Pad2)*%
X100685000Y-125487000D03*
%TO.P,N5,2,SW*%
X100035000Y-125487000D03*
%TO.P,N5,3,PGND*%
%TO.N,GND*%
X99385000Y-125487000D03*
%TO.P,N5,4,PGND*%
X98735000Y-125487000D03*
%TO.P,N5,5,PGND*%
X98085000Y-125487000D03*
%TO.P,N5,6,VBAT*%
%TO.N,main_battery_unregulated*%
X97435000Y-125487000D03*
%TO.P,N5,7,LBI*%
X96785000Y-125487000D03*
%TO.P,N5,8,SYNC*%
%TO.N,GND*%
X96135000Y-125487000D03*
%TO.P,N5,9,EN*%
%TO.N,main_battery_unregulated*%
X96135000Y-131237000D03*
%TO.P,N5,10,LBO*%
%TO.N,unconnected-(N5-Pad10)*%
X96785000Y-131237000D03*
%TO.P,N5,11,GND*%
%TO.N,GND*%
X97435000Y-131237000D03*
%TO.P,N5,12,FB*%
%TO.N,Net-(N5-Pad12)*%
X98085000Y-131237000D03*
%TO.P,N5,13,VOUT*%
%TO.N,TPS_A*%
X98735000Y-131237000D03*
%TO.P,N5,14,VOUT*%
X99385000Y-131237000D03*
%TO.P,N5,15,VOUT*%
X100035000Y-131237000D03*
%TO.P,N5,16,NC*%
%TO.N,unconnected-(N5-Pad16)*%
X100685000Y-131237000D03*
D31*
%TO.P,N5,17,EPAD*%
%TO.N,GND*%
X97210000Y-127162000D03*
X97210000Y-129562000D03*
X99610000Y-127162000D03*
X99610000Y-129562000D03*
D32*
X98410000Y-128362000D03*
%TD*%
D20*
%TO.P,N9,1,INA*%
%TO.N,TPS_A*%
X145854500Y-118364000D03*
%TO.P,N9,2,OUTA*%
%TO.N,TPS_A_S1*%
X145854500Y-119014000D03*
%TO.P,N9,3,ENA*%
%TO.N,TPS_A_S1_CTRL*%
X145854500Y-119664000D03*
%TO.P,N9,4,NC*%
%TO.N,unconnected-(N9-Pad4)*%
X145854500Y-120314000D03*
%TO.P,N9,5,FLGA*%
%TO.N,TPS_A_OC*%
X145854500Y-120964000D03*
%TO.P,N9,6,GND*%
%TO.N,GND*%
X145854500Y-121614000D03*
%TO.P,N9,7,ILMB*%
%TO.N,Net-(N9-Pad7)*%
X145854500Y-122264000D03*
%TO.P,N9,8,OUTB*%
%TO.N,TPS_A_S2*%
X145854500Y-122914000D03*
%TO.P,N9,9,INB*%
%TO.N,TPS_A*%
X151579500Y-122914000D03*
%TO.P,N9,10,NC*%
%TO.N,unconnected-(N9-Pad10)*%
X151579500Y-122264000D03*
%TO.P,N9,11,OUTB*%
%TO.N,TPS_A_S2*%
X151579500Y-121614000D03*
%TO.P,N9,12,ENB*%
%TO.N,TPS_A_S2_CTRL*%
X151579500Y-120964000D03*
%TO.P,N9,13,FLGB*%
%TO.N,TPS_A_OC*%
X151579500Y-120314000D03*
%TO.P,N9,14,GND*%
%TO.N,GND*%
X151579500Y-119664000D03*
%TO.P,N9,15,ILIMA*%
%TO.N,Net-(N9-Pad15)*%
X151579500Y-119014000D03*
%TO.P,N9,16,OUTA*%
%TO.N,TPS_A_S1*%
X151579500Y-118364000D03*
%TD*%
D24*
%TO.P,C17,1*%
%TO.N,Net-(C17-Pad1)*%
X192852000Y-60960000D03*
%TO.P,C17,2*%
%TO.N,GND*%
X194752000Y-60960000D03*
%TD*%
D33*
%TO.P,N3,1*%
%TO.N,Net-(N3-Pad1)*%
X130950000Y-40782000D03*
%TO.P,N3,2,V-*%
%TO.N,GND*%
X130950000Y-41732000D03*
%TO.P,N3,3,+*%
%TO.N,Net-(N3-Pad3)*%
X130950000Y-42682000D03*
%TO.P,N3,4,-*%
%TO.N,Net-(N3-Pad1)*%
X133225000Y-42682000D03*
%TO.P,N3,5,V+*%
%TO.N,+3V3*%
X133225000Y-40782000D03*
%TD*%
D34*
%TO.P,V2,1,G*%
%TO.N,Net-(R6-Pad2)*%
X95312500Y-50350000D03*
%TO.P,V2,2,S*%
%TO.N,GND*%
X95312500Y-52250000D03*
%TO.P,V2,3,D*%
%TO.N,Net-(R5-Pad1)*%
X97187500Y-51300000D03*
%TD*%
D16*
%TO.P,R34,1*%
%TO.N,TPS_C_S1_CTRL*%
X142240000Y-133350000D03*
%TO.P,R34,2*%
%TO.N,GND*%
X142240000Y-131700000D03*
%TD*%
%TO.P,R1,1*%
%TO.N,main_voltage_sense*%
X144780000Y-40957000D03*
%TO.P,R1,2*%
%TO.N,Net-(N3-Pad1)*%
X144780000Y-39307000D03*
%TD*%
D35*
%TO.P,F1,1*%
%TO.N,Net-(F1-Pad1)*%
X113000000Y-54200000D03*
%TO.P,F1,2*%
%TO.N,Net-(F1-Pad2)*%
X113000000Y-51400000D03*
%TD*%
D22*
%TO.P,R3,1*%
%TO.N,Net-(N3-Pad3)*%
X128075000Y-42725000D03*
%TO.P,R3,2*%
%TO.N,Net-(N4-Pad3)*%
X128075000Y-44375000D03*
%TD*%
D30*
%TO.P,N8,1,SW*%
%TO.N,Net-(L4-Pad2)*%
X133821000Y-125695000D03*
%TO.P,N8,2,SW*%
X133171000Y-125695000D03*
%TO.P,N8,3,PGND*%
%TO.N,GND*%
X132521000Y-125695000D03*
%TO.P,N8,4,PGND*%
X131871000Y-125695000D03*
%TO.P,N8,5,PGND*%
X131221000Y-125695000D03*
%TO.P,N8,6,VBAT*%
%TO.N,main_battery_unregulated*%
X130571000Y-125695000D03*
%TO.P,N8,7,LBI*%
X129921000Y-125695000D03*
%TO.P,N8,8,SYNC*%
%TO.N,GND*%
X129271000Y-125695000D03*
%TO.P,N8,9,EN*%
%TO.N,main_battery_unregulated*%
X129271000Y-131445000D03*
%TO.P,N8,10,LBO*%
%TO.N,unconnected-(N8-Pad10)*%
X129921000Y-131445000D03*
%TO.P,N8,11,GND*%
%TO.N,GND*%
X130571000Y-131445000D03*
%TO.P,N8,12,FB*%
%TO.N,Net-(N8-Pad12)*%
X131221000Y-131445000D03*
%TO.P,N8,13,VOUT*%
%TO.N,TPS_C*%
X131871000Y-131445000D03*
%TO.P,N8,14,VOUT*%
X132521000Y-131445000D03*
%TO.P,N8,15,VOUT*%
X133171000Y-131445000D03*
%TO.P,N8,16,NC*%
%TO.N,unconnected-(N8-Pad16)*%
X133821000Y-131445000D03*
D31*
%TO.P,N8,17,EPAD*%
%TO.N,GND*%
X132746000Y-127370000D03*
X130346000Y-127370000D03*
D32*
X131546000Y-128570000D03*
D31*
X132746000Y-129770000D03*
X130346000Y-129770000D03*
%TD*%
D28*
%TO.P,MECH3,1,1*%
%TO.N,GND*%
X200500000Y-41000000D03*
D29*
X200500000Y-41000000D03*
%TD*%
D19*
%TO.P,R16,1*%
%TO.N,Net-(N7-Pad12)*%
X112443000Y-133315000D03*
%TO.P,R16,2*%
%TO.N,GND*%
X110793000Y-133315000D03*
%TD*%
D36*
%TO.P,C16,1*%
%TO.N,main_battery_unregulated*%
X92695000Y-122012000D03*
%TO.P,C16,2*%
%TO.N,GND*%
X92695000Y-124962000D03*
%TD*%
%TO.P,C27,1*%
%TO.N,main_battery_unregulated*%
X125831000Y-122142000D03*
%TO.P,C27,2*%
%TO.N,GND*%
X125831000Y-125092000D03*
%TD*%
D37*
%TO.P,N4,1*%
%TO.N,Net-(N4-Pad1)*%
X134850000Y-51800000D03*
%TO.P,N4,2,GND*%
%TO.N,GND*%
X133900000Y-51800000D03*
%TO.P,N4,3,+*%
%TO.N,Net-(N4-Pad3)*%
X132950000Y-51800000D03*
%TO.P,N4,4,-*%
%TO.N,main_battery_unregulated*%
X132950000Y-54075000D03*
%TO.P,N4,5,V+*%
%TO.N,+3V3*%
X134850000Y-54075000D03*
%TD*%
D23*
%TO.P,Z2,1*%
%TO.N,+3V3*%
X189712500Y-46736000D03*
%TO.P,Z2,2*%
%TO.N,Net-(C15-Pad1)*%
X191287500Y-46736000D03*
%TD*%
D38*
%TO.P,N2,1,+VS*%
%TO.N,+3V3*%
X146958000Y-52832000D03*
D39*
%TO.P,N2,2,Vout*%
%TO.N,battery_temp*%
X144888000Y-51562000D03*
%TO.P,N2,3,GND*%
%TO.N,GND*%
X146958000Y-50292000D03*
%TD*%
D40*
%TO.P,X1,1,In*%
%TO.N,Net-(R6-Pad2)*%
X89290000Y-50290000D03*
D41*
%TO.P,X1,2,Ext*%
%TO.N,GND*%
X91830000Y-52830000D03*
X91830000Y-47750000D03*
X86750000Y-52830000D03*
X86750000Y-47750000D03*
%TD*%
D29*
%TO.P,MECH2,1,1*%
%TO.N,GND*%
X200500000Y-134000000D03*
D28*
X200500000Y-134000000D03*
%TD*%
D19*
%TO.P,R17,1*%
%TO.N,Net-(C22-Pad1)*%
X198437000Y-70104000D03*
%TO.P,R17,2*%
%TO.N,TPS_C*%
X196787000Y-70104000D03*
%TD*%
D16*
%TO.P,R31,1*%
%TO.N,Net-(N10-Pad15)*%
X153416000Y-125984000D03*
%TO.P,R31,2*%
%TO.N,GND*%
X153416000Y-124334000D03*
%TD*%
D26*
%TO.P,C15,1*%
%TO.N,Net-(C15-Pad1)*%
X191262000Y-48580000D03*
%TO.P,C15,2*%
%TO.N,GND*%
X191262000Y-50480000D03*
%TD*%
D22*
%TO.P,R23,1*%
%TO.N,+3V3*%
X144018000Y-119235000D03*
%TO.P,R23,2*%
%TO.N,TPS_A_OC*%
X144018000Y-120885000D03*
%TD*%
D42*
%TO.P,R18,1*%
%TO.N,Net-(C22-Pad1)*%
X199898000Y-70104000D03*
%TO.P,R18,2*%
%TO.N,GND*%
X201548000Y-70104000D03*
%TD*%
D19*
%TO.P,R8,1*%
%TO.N,Net-(N5-Pad12)*%
X96314000Y-133188000D03*
%TO.P,R8,2*%
%TO.N,GND*%
X94664000Y-133188000D03*
%TD*%
D42*
%TO.P,R12,1*%
%TO.N,Net-(C17-Pad1)*%
X192723000Y-62738000D03*
%TO.P,R12,2*%
%TO.N,GND*%
X194373000Y-62738000D03*
%TD*%
D26*
%TO.P,C14,1*%
%TO.N,+3V3*%
X187706000Y-46802000D03*
%TO.P,C14,2*%
%TO.N,GND*%
X187706000Y-48702000D03*
%TD*%
D43*
%TO.P,C8,1*%
%TO.N,main_battery_unregulated*%
X133731000Y-46736000D03*
%TO.P,C8,2*%
%TO.N,GND*%
X139956000Y-46736000D03*
%TD*%
D16*
%TO.P,R29,1*%
%TO.N,TPS_B_S1_CTRL*%
X142240000Y-126365000D03*
%TO.P,R29,2*%
%TO.N,GND*%
X142240000Y-124715000D03*
%TD*%
D44*
%TO.P,V1,1,G*%
%TO.N,Net-(R5-Pad1)*%
X122250000Y-51300000D03*
D45*
%TO.P,V1,2,D*%
%TO.N,Net-(N4-Pad3)*%
X115950000Y-49000000D03*
D44*
X122250000Y-49000000D03*
%TO.P,V1,3,S*%
%TO.N,Net-(F1-Pad2)*%
X122250000Y-46700000D03*
%TD*%
D46*
%TO.P,C6,1*%
%TO.N,main_battery_unregulated*%
X156034000Y-51054000D03*
%TO.P,C6,2*%
%TO.N,GND*%
X153084000Y-51054000D03*
%TD*%
D47*
%TO.P,L1,1,1*%
%TO.N,main_battery_unregulated*%
X156777000Y-43746000D03*
%TO.P,L1,2,2*%
%TO.N,Net-(L1-Pad2)*%
X160787000Y-43746000D03*
%TD*%
D22*
%TO.P,R28,1*%
%TO.N,+3V3*%
X143891000Y-125540000D03*
%TO.P,R28,2*%
%TO.N,TPS_B_OC*%
X143891000Y-127190000D03*
%TD*%
%TO.P,R25,1*%
%TO.N,TPS_A_S2_CTRL*%
X153416000Y-121061000D03*
%TO.P,R25,2*%
%TO.N,GND*%
X153416000Y-122711000D03*
%TD*%
D30*
%TO.P,N7,1,SW*%
%TO.N,Net-(L3-Pad2)*%
X116941000Y-125614000D03*
%TO.P,N7,2,SW*%
X116291000Y-125614000D03*
%TO.P,N7,3,PGND*%
%TO.N,GND*%
X115641000Y-125614000D03*
%TO.P,N7,4,PGND*%
X114991000Y-125614000D03*
%TO.P,N7,5,PGND*%
X114341000Y-125614000D03*
%TO.P,N7,6,VBAT*%
%TO.N,main_battery_unregulated*%
X113691000Y-125614000D03*
%TO.P,N7,7,LBI*%
X113041000Y-125614000D03*
%TO.P,N7,8,SYNC*%
%TO.N,GND*%
X112391000Y-125614000D03*
%TO.P,N7,9,EN*%
%TO.N,main_battery_unregulated*%
X112391000Y-131364000D03*
%TO.P,N7,10,LBO*%
%TO.N,unconnected-(N7-Pad10)*%
X113041000Y-131364000D03*
%TO.P,N7,11,GND*%
%TO.N,GND*%
X113691000Y-131364000D03*
%TO.P,N7,12,FB*%
%TO.N,Net-(N7-Pad12)*%
X114341000Y-131364000D03*
%TO.P,N7,13,VOUT*%
%TO.N,TPS_B*%
X114991000Y-131364000D03*
%TO.P,N7,14,VOUT*%
X115641000Y-131364000D03*
%TO.P,N7,15,VOUT*%
X116291000Y-131364000D03*
%TO.P,N7,16,NC*%
%TO.N,unconnected-(N7-Pad16)*%
X116941000Y-131364000D03*
D31*
%TO.P,N7,17,EPAD*%
%TO.N,GND*%
X113466000Y-127289000D03*
X115866000Y-129689000D03*
X113466000Y-129689000D03*
X115866000Y-127289000D03*
D32*
X114666000Y-128489000D03*
%TD*%
D24*
%TO.P,C1,1*%
%TO.N,+3V3*%
X146878000Y-55626000D03*
%TO.P,C1,2*%
%TO.N,GND*%
X148778000Y-55626000D03*
%TD*%
D16*
%TO.P,R24,1*%
%TO.N,TPS_A_S1_CTRL*%
X142367000Y-120045000D03*
%TO.P,R24,2*%
%TO.N,GND*%
X142367000Y-118395000D03*
%TD*%
D22*
%TO.P,R10,1*%
%TO.N,+3V3*%
X195326000Y-42292000D03*
%TO.P,R10,2*%
%TO.N,LTPS_SCL*%
X195326000Y-43942000D03*
%TD*%
D24*
%TO.P,C9,1*%
%TO.N,+3V3*%
X136850000Y-52700000D03*
%TO.P,C9,2*%
%TO.N,GND*%
X138750000Y-52700000D03*
%TD*%
D36*
%TO.P,C23,1*%
%TO.N,main_battery_unregulated*%
X109078000Y-122061000D03*
%TO.P,C23,2*%
%TO.N,GND*%
X109078000Y-125011000D03*
%TD*%
D26*
%TO.P,C3,1*%
%TO.N,+3V3*%
X135527000Y-39248000D03*
%TO.P,C3,2*%
%TO.N,GND*%
X135527000Y-41148000D03*
%TD*%
D19*
%TO.P,R27,1*%
%TO.N,Net-(N9-Pad7)*%
X144018000Y-122428000D03*
%TO.P,R27,2*%
%TO.N,GND*%
X142368000Y-122428000D03*
%TD*%
%TO.P,R7,1*%
%TO.N,TPS_A*%
X99362000Y-133188000D03*
%TO.P,R7,2*%
%TO.N,Net-(N5-Pad12)*%
X97712000Y-133188000D03*
%TD*%
D48*
%TO.P,X2,0*%
%TO.N,GND*%
X159752000Y-127540000D03*
X193072000Y-127540000D03*
D49*
%TO.P,X2,1*%
%TO.N,TPS_A_OC*%
X185000000Y-125000000D03*
%TO.P,X2,2*%
%TO.N,TPS_B_OC*%
X182710000Y-125000000D03*
%TO.P,X2,3*%
%TO.N,TPS_C_OC*%
X180420000Y-125000000D03*
%TO.P,X2,4*%
%TO.N,TPS_A_S1*%
X178130000Y-125000000D03*
%TO.P,X2,5*%
%TO.N,TPS_A_S2*%
X175840000Y-125000000D03*
%TO.P,X2,6*%
%TO.N,TPS_B_S1*%
X173550000Y-125000000D03*
%TO.P,X2,7*%
%TO.N,TPS_B_S2*%
X171260000Y-125000000D03*
%TO.P,X2,8*%
%TO.N,TPS_C_S1*%
X168970000Y-125000000D03*
%TO.P,X2,9*%
%TO.N,TPS_C_S2*%
X166680000Y-125000000D03*
%TO.P,X2,10*%
%TO.N,GND*%
X186145000Y-127540000D03*
%TO.P,X2,11*%
X183855000Y-127540000D03*
%TO.P,X2,12*%
X181565000Y-127540000D03*
%TO.P,X2,13*%
X179275000Y-127540000D03*
%TO.P,X2,14*%
X176985000Y-127540000D03*
%TO.P,X2,15*%
X174695000Y-127540000D03*
%TO.P,X2,16*%
X172405000Y-127540000D03*
%TO.P,X2,17*%
X170115000Y-127540000D03*
%TO.P,X2,18*%
X167825000Y-127540000D03*
%TO.P,X2,19*%
%TO.N,TPS_A_S1_CTRL*%
X185000000Y-130080000D03*
%TO.P,X2,20*%
%TO.N,TPS_A_S2_CTRL*%
X182710000Y-130080000D03*
%TO.P,X2,21*%
%TO.N,TPS_B_S1_CTRL*%
X180420000Y-130080000D03*
%TO.P,X2,22*%
%TO.N,TPS_B_S2_CTRL*%
X178130000Y-130080000D03*
%TO.P,X2,23*%
%TO.N,TPS_C_S1_CTRL*%
X175840000Y-130080000D03*
%TO.P,X2,24*%
%TO.N,TPS_C_S2_CTRL*%
X173550000Y-130080000D03*
%TO.P,X2,25*%
%TO.N,LTPS_SCL*%
X171260000Y-130080000D03*
%TO.P,X2,26*%
%TO.N,LTPS_SDA*%
X168970000Y-130080000D03*
%TD*%
D19*
%TO.P,R37,1*%
%TO.N,Net-(N11-Pad7)*%
X143954000Y-135763000D03*
%TO.P,R37,2*%
%TO.N,GND*%
X142304000Y-135763000D03*
%TD*%
D24*
%TO.P,C22,1*%
%TO.N,Net-(C22-Pad1)*%
X200027000Y-68326000D03*
%TO.P,C22,2*%
%TO.N,GND*%
X201927000Y-68326000D03*
%TD*%
D26*
%TO.P,C24,1*%
%TO.N,Net-(C24-Pad1)*%
X170180000Y-52832000D03*
%TO.P,C24,2*%
%TO.N,GND*%
X170180000Y-54732000D03*
%TD*%
D27*
%TO.P,L3,1*%
%TO.N,main_battery_unregulated*%
X112068000Y-120869000D03*
%TO.P,L3,2*%
%TO.N,Net-(L3-Pad2)*%
X117518000Y-120869000D03*
%TD*%
D19*
%TO.P,R13,1*%
%TO.N,Net-(C18-Pad1)*%
X194690000Y-66294000D03*
%TO.P,R13,2*%
%TO.N,TPS_B*%
X193040000Y-66294000D03*
%TD*%
D27*
%TO.P,L2,1*%
%TO.N,main_battery_unregulated*%
X95812000Y-120742000D03*
%TO.P,L2,2*%
%TO.N,Net-(L2-Pad2)*%
X101262000Y-120742000D03*
%TD*%
D20*
%TO.P,N10,1,INA*%
%TO.N,TPS_B*%
X145854500Y-125106000D03*
%TO.P,N10,2,OUTA*%
%TO.N,TPS_B_S1*%
X145854500Y-125756000D03*
%TO.P,N10,3,ENA*%
%TO.N,TPS_B_S1_CTRL*%
X145854500Y-126406000D03*
%TO.P,N10,4,NC*%
%TO.N,unconnected-(N10-Pad4)*%
X145854500Y-127056000D03*
%TO.P,N10,5,FLGA*%
%TO.N,TPS_B_OC*%
X145854500Y-127706000D03*
%TO.P,N10,6,GND*%
%TO.N,GND*%
X145854500Y-128356000D03*
%TO.P,N10,7,ILMB*%
%TO.N,Net-(N10-Pad7)*%
X145854500Y-129006000D03*
%TO.P,N10,8,OUTB*%
%TO.N,TPS_B_S2*%
X145854500Y-129656000D03*
%TO.P,N10,9,INB*%
%TO.N,TPS_B*%
X151579500Y-129656000D03*
%TO.P,N10,10,NC*%
%TO.N,unconnected-(N10-Pad10)*%
X151579500Y-129006000D03*
%TO.P,N10,11,OUTB*%
%TO.N,TPS_B_S2*%
X151579500Y-128356000D03*
%TO.P,N10,12,ENB*%
%TO.N,TPS_B_S2_CTRL*%
X151579500Y-127706000D03*
%TO.P,N10,13,FLGB*%
%TO.N,TPS_B_OC*%
X151579500Y-127056000D03*
%TO.P,N10,14,GND*%
%TO.N,GND*%
X151579500Y-126406000D03*
%TO.P,N10,15,ILIMA*%
%TO.N,Net-(N10-Pad15)*%
X151579500Y-125756000D03*
%TO.P,N10,16,OUTA*%
%TO.N,TPS_B_S1*%
X151579500Y-125106000D03*
%TD*%
D24*
%TO.P,C18,1*%
%TO.N,Net-(C18-Pad1)*%
X196471000Y-64516000D03*
%TO.P,C18,2*%
%TO.N,GND*%
X198371000Y-64516000D03*
%TD*%
D50*
%TO.P,C25,1*%
%TO.N,TPS_C*%
X136915500Y-133298000D03*
%TO.P,C25,2*%
%TO.N,GND*%
X136915500Y-127073000D03*
%TD*%
D29*
%TO.P,MECH4,1,1*%
%TO.N,GND*%
X87500000Y-41000000D03*
D28*
X87500000Y-41000000D03*
%TD*%
D42*
%TO.P,R14,1*%
%TO.N,Net-(C18-Pad1)*%
X196342000Y-66294000D03*
%TO.P,R14,2*%
%TO.N,GND*%
X197992000Y-66294000D03*
%TD*%
D24*
%TO.P,C5,1*%
%TO.N,+3V3*%
X162331400Y-54152800D03*
%TO.P,C5,2*%
%TO.N,GND*%
X164231400Y-54152800D03*
%TD*%
D22*
%TO.P,R9,1*%
%TO.N,+3V3*%
X193675000Y-42292000D03*
%TO.P,R9,2*%
%TO.N,LTPS_SDA*%
X193675000Y-43942000D03*
%TD*%
D46*
%TO.P,C26,1*%
%TO.N,TPS_C*%
X132386000Y-135428000D03*
%TO.P,C26,2*%
%TO.N,GND*%
X129436000Y-135428000D03*
%TD*%
D19*
%TO.P,R21,1*%
%TO.N,TPS_C*%
X132562000Y-133396000D03*
%TO.P,R21,2*%
%TO.N,Net-(N8-Pad12)*%
X130912000Y-133396000D03*
%TD*%
D17*
%TO.P,G2,1,+*%
%TO.N,Net-(F1-Pad1)*%
X144000000Y-58500000D03*
%TO.P,G2,2,-*%
%TO.N,GND*%
X144000000Y-114000000D03*
%TD*%
D51*
%TO.P,N6,1,CH0*%
%TO.N,main_voltage_sense*%
X193051000Y-54170500D03*
%TO.P,N6,2,CH1*%
%TO.N,battery_temp*%
X193701000Y-54170500D03*
%TO.P,N6,3,CH2*%
%TO.N,main_current_sense*%
X194351000Y-54170500D03*
%TO.P,N6,4,CH3*%
%TO.N,Net-(C17-Pad1)*%
X195001000Y-54170500D03*
%TO.P,N6,5,CH4*%
%TO.N,Net-(C18-Pad1)*%
X195651000Y-54170500D03*
%TO.P,N6,6,CH5*%
%TO.N,Net-(C22-Pad1)*%
X196301000Y-54170500D03*
%TO.P,N6,7,CH6*%
%TO.N,Net-(C24-Pad1)*%
X196951000Y-54170500D03*
%TO.P,N6,8,CH7*%
%TO.N,unconnected-(N6-Pad8)*%
X197601000Y-54170500D03*
%TO.P,N6,9,GND*%
%TO.N,GND*%
X197601000Y-48445500D03*
%TO.P,N6,10,REF*%
%TO.N,Net-(C19-Pad1)*%
X196951000Y-48445500D03*
%TO.P,N6,11,COM*%
%TO.N,GND*%
X196301000Y-48445500D03*
%TO.P,N6,12,A0*%
X195651000Y-48445500D03*
%TO.P,N6,13,A1*%
X195001000Y-48445500D03*
%TO.P,N6,14,SCL*%
%TO.N,LTPS_SCL*%
X194351000Y-48445500D03*
%TO.P,N6,15,SDA*%
%TO.N,LTPS_SDA*%
X193701000Y-48445500D03*
%TO.P,N6,16,VDD*%
%TO.N,Net-(C15-Pad1)*%
X193051000Y-48445500D03*
%TD*%
D19*
%TO.P,R32,1*%
%TO.N,Net-(N10-Pad7)*%
X143954000Y-128778000D03*
%TO.P,R32,2*%
%TO.N,GND*%
X142304000Y-128778000D03*
%TD*%
%TO.P,R15,1*%
%TO.N,TPS_B*%
X115555000Y-133315000D03*
%TO.P,R15,2*%
%TO.N,Net-(N7-Pad12)*%
X113905000Y-133315000D03*
%TD*%
D18*
%TO.P,C4,1*%
%TO.N,+3V3*%
X162331400Y-51866800D03*
%TO.P,C4,2*%
%TO.N,GND*%
X165281400Y-51866800D03*
%TD*%
D19*
%TO.P,R22,1*%
%TO.N,Net-(N8-Pad12)*%
X129514000Y-133396000D03*
%TO.P,R22,2*%
%TO.N,GND*%
X127864000Y-133396000D03*
%TD*%
D46*
%TO.P,C21,1*%
%TO.N,TPS_B*%
X115506000Y-135347000D03*
%TO.P,C21,2*%
%TO.N,GND*%
X112556000Y-135347000D03*
%TD*%
D16*
%TO.P,R36,1*%
%TO.N,Net-(N11-Pad15)*%
X153416000Y-132842000D03*
%TO.P,R36,2*%
%TO.N,GND*%
X153416000Y-131192000D03*
%TD*%
D24*
%TO.P,C19,1*%
%TO.N,Net-(C19-Pad1)*%
X196916000Y-46228000D03*
%TO.P,C19,2*%
%TO.N,GND*%
X198816000Y-46228000D03*
%TD*%
D22*
%TO.P,R33,1*%
%TO.N,+3V3*%
X143891000Y-132525000D03*
%TO.P,R33,2*%
%TO.N,TPS_C_OC*%
X143891000Y-134175000D03*
%TD*%
D46*
%TO.P,C12,1*%
%TO.N,TPS_A*%
X99377000Y-135347000D03*
%TO.P,C12,2*%
%TO.N,GND*%
X96427000Y-135347000D03*
%TD*%
D50*
%TO.P,C11,1*%
%TO.N,TPS_A*%
X103744000Y-133061000D03*
%TO.P,C11,2*%
%TO.N,GND*%
X103744000Y-126836000D03*
%TD*%
%TO.P,C20,1*%
%TO.N,TPS_B*%
X120000000Y-133188000D03*
%TO.P,C20,2*%
%TO.N,GND*%
X120000000Y-126963000D03*
%TD*%
D52*
%TO.N,+3V3*%
X149225000Y-115189000D03*
D53*
X139192000Y-39243000D03*
D52*
X161036000Y-54356000D03*
D54*
%TO.N,GND*%
X154444500Y-129318293D03*
X133900000Y-50500000D03*
X151765000Y-50419000D03*
D53*
X197993000Y-62484000D03*
D54*
X150241000Y-126365000D03*
D53*
X194691000Y-59436000D03*
X200025000Y-46990000D03*
D54*
X151765000Y-51689000D03*
D53*
X150114000Y-55626000D03*
D54*
X141732000Y-46228000D03*
X147193000Y-135255000D03*
D53*
X109347000Y-133350000D03*
D54*
X141732000Y-47752000D03*
X144780000Y-45339000D03*
X164109400Y-51866800D03*
D53*
X109347000Y-131064000D03*
X158877000Y-50419000D03*
X126111000Y-131064000D03*
X126111000Y-128524000D03*
X195707000Y-49911000D03*
X131582000Y-128534000D03*
X187706000Y-50038000D03*
X201930000Y-66802000D03*
D54*
X166141400Y-53644800D03*
D53*
X109347000Y-128524000D03*
X114719500Y-128435500D03*
X195150500Y-46832660D03*
D54*
X97500000Y-52500000D03*
X95235000Y-135347000D03*
X152273000Y-117348000D03*
X141224000Y-131699000D03*
X141224000Y-118364000D03*
D53*
X154559000Y-136271000D03*
D54*
X142367000Y-121285000D03*
D53*
X93218000Y-133350000D03*
D54*
X147193000Y-121569000D03*
X141732000Y-45466000D03*
X165379400Y-53644800D03*
X139202000Y-41098000D03*
D53*
X93218000Y-131064000D03*
D54*
X141224000Y-124714000D03*
X150160555Y-133004500D03*
X142367000Y-134620000D03*
X129413000Y-41783000D03*
X147193000Y-128397000D03*
D53*
X158877000Y-47244000D03*
X126111000Y-133350000D03*
X189611000Y-50419000D03*
D54*
X141732000Y-46990000D03*
D53*
X93218000Y-128524000D03*
X197612000Y-49911000D03*
D54*
X94727000Y-134331000D03*
X138750000Y-56428600D03*
D53*
X98410000Y-128362000D03*
D54*
X151765000Y-51054000D03*
X142367000Y-127635000D03*
X150241000Y-118376500D03*
X152293391Y-124102563D03*
D53*
X191897000Y-44450000D03*
%TO.N,main_battery_unregulated*%
X92837000Y-120015000D03*
X156210000Y-48514000D03*
X132207000Y-46736000D03*
X109093000Y-120269000D03*
D54*
X131000000Y-48641000D03*
D53*
X129032000Y-118237000D03*
D54*
X134000000Y-54100000D03*
D53*
X135636000Y-46736000D03*
%TO.N,main_voltage_sense*%
X192024000Y-53340000D03*
D54*
X148336000Y-42418000D03*
%TO.N,TPS_A*%
X150114000Y-123317000D03*
D52*
X155829000Y-117729000D03*
D53*
X101346000Y-133604000D03*
D54*
X147320000Y-118237000D03*
D53*
%TO.N,TPS_B*%
X117602000Y-133604000D03*
D52*
X193040000Y-113411000D03*
D54*
X149733000Y-129540000D03*
X145796000Y-123952000D03*
D53*
%TO.N,TPS_C*%
X134620000Y-133604000D03*
X150368000Y-136652000D03*
X144399000Y-130683000D03*
D54*
%TO.N,battery_temp*%
X193167000Y-55753000D03*
%TO.N,main_current_sense*%
X194310000Y-55880000D03*
X139700000Y-50038000D03*
D52*
%TO.N,LTPS_SCL*%
X196850000Y-43942000D03*
%TO.N,LTPS_SDA*%
X192151000Y-43053000D03*
D54*
%TO.N,Net-(R5-Pad1)*%
X98806000Y-51308000D03*
X120294400Y-51308000D03*
D52*
%TO.N,TPS_B_S1_CTRL*%
X147320000Y-126619000D03*
%TO.N,TPS_C_S1_CTRL*%
X147828000Y-133604000D03*
X162179000Y-134112000D03*
%TO.N,TPS_B_S2_CTRL*%
X164592000Y-131445000D03*
X164592000Y-134747000D03*
%TO.N,TPS_A_S1_CTRL*%
X140970000Y-120015000D03*
%TO.N,TPS_A_S2_CTRL*%
X159893000Y-130683000D03*
X154940000Y-121793000D03*
X158115000Y-132461000D03*
D54*
%TO.N,TPS_B_S1*%
X149098000Y-125349000D03*
D53*
%TO.N,TPS_C_S1*%
X149225000Y-131953000D03*
D54*
%TO.N,TPS_B_S2*%
X149098000Y-128397000D03*
D53*
%TO.N,TPS_C_S2*%
X148971000Y-135255000D03*
D54*
%TO.N,TPS_A_S1*%
X148844000Y-119507000D03*
%TO.N,TPS_A_S2*%
X149606000Y-121666000D03*
%TD*%
D55*
%TO.N,+3V3*%
X152400000Y-52832000D02*
X153924000Y-54356000D01*
D56*
X187550000Y-46646000D02*
X187706000Y-46802000D01*
D55*
X139573000Y-121666000D02*
X139573000Y-128143000D01*
X136850000Y-54900000D02*
X136850000Y-52700000D01*
X145161000Y-115951000D02*
X148463000Y-115951000D01*
D56*
X162623000Y-49721000D02*
X168148000Y-49721000D01*
X162331400Y-50012600D02*
X162623000Y-49721000D01*
X187706000Y-46802000D02*
X189646500Y-46802000D01*
X187550000Y-42828000D02*
X187550000Y-44450000D01*
D55*
X143764000Y-116840000D02*
X144018000Y-117094000D01*
X136850000Y-51618000D02*
X136850000Y-52700000D01*
X135527000Y-39248000D02*
X137777000Y-39248000D01*
X143637000Y-123698000D02*
X141605000Y-123698000D01*
X143891000Y-131699000D02*
X143891000Y-132525000D01*
X139573000Y-128143000D02*
X141986000Y-130556000D01*
X134850000Y-54075000D02*
X135278800Y-54075000D01*
X153924000Y-54356000D02*
X154178000Y-54610000D01*
X144018000Y-119235000D02*
X144018000Y-117094000D01*
D56*
X195326000Y-42292000D02*
X193675000Y-42292000D01*
D55*
X146878000Y-53152000D02*
X146558000Y-52832000D01*
X168148000Y-49721000D02*
X168148000Y-47752000D01*
D56*
X189646500Y-46802000D02*
X189712500Y-46736000D01*
D55*
X136103800Y-54900000D02*
X136850000Y-54900000D01*
X141605000Y-123698000D02*
X139573000Y-121666000D01*
X168148000Y-47752000D02*
X169164000Y-46736000D01*
X187640000Y-46736000D02*
X187706000Y-46802000D01*
D56*
X187550000Y-44450000D02*
X187550000Y-46646000D01*
D55*
X154178000Y-54610000D02*
X160020000Y-54610000D01*
X140335000Y-116840000D02*
X143764000Y-116840000D01*
X137160000Y-51308000D02*
X136850000Y-51618000D01*
X148463000Y-115951000D02*
X149225000Y-115189000D01*
X139192000Y-39243000D02*
X137782000Y-39243000D01*
X146878000Y-55626000D02*
X146878000Y-53152000D01*
X135527000Y-39248000D02*
X133622000Y-39248000D01*
X142748000Y-130556000D02*
X143891000Y-131699000D01*
X133622000Y-39248000D02*
X133225000Y-39645000D01*
X143891000Y-123952000D02*
X143637000Y-123698000D01*
X169164000Y-46736000D02*
X187640000Y-46736000D01*
X142367000Y-52832000D02*
X140843000Y-51308000D01*
X135278800Y-54075000D02*
X136103800Y-54900000D01*
D56*
X193675000Y-42292000D02*
X188086000Y-42292000D01*
X188086000Y-42292000D02*
X187550000Y-42828000D01*
D55*
X146558000Y-52832000D02*
X142367000Y-52832000D01*
X146558000Y-52832000D02*
X152400000Y-52832000D01*
D56*
X162331400Y-51866800D02*
X162331400Y-50012600D01*
D55*
X139573000Y-121666000D02*
X139573000Y-117602000D01*
X140843000Y-51308000D02*
X137160000Y-51308000D01*
X143891000Y-125540000D02*
X143891000Y-123952000D01*
X137782000Y-39243000D02*
X137777000Y-39248000D01*
X139573000Y-117602000D02*
X140335000Y-116840000D01*
X144018000Y-117094000D02*
X145161000Y-115951000D01*
X133225000Y-39645000D02*
X133225000Y-40782000D01*
X141986000Y-130556000D02*
X142748000Y-130556000D01*
D56*
%TO.N,GND*%
X153416000Y-131192000D02*
X153416000Y-129349000D01*
X197992000Y-66294000D02*
X198120000Y-66294000D01*
D55*
X114341000Y-128164000D02*
X114666000Y-128489000D01*
D56*
X196301000Y-48445500D02*
X195001000Y-48445500D01*
D55*
X158847300Y-50389300D02*
X158877000Y-50419000D01*
X131582000Y-128534000D02*
X131546000Y-128570000D01*
D56*
X142240000Y-124715000D02*
X141225000Y-124715000D01*
X198816000Y-46228000D02*
X199771000Y-46228000D01*
X194752000Y-59497000D02*
X194691000Y-59436000D01*
D55*
X114991000Y-128164000D02*
X114719500Y-128435500D01*
D56*
X147148000Y-121614000D02*
X147193000Y-121569000D01*
D55*
X112577000Y-127289000D02*
X113466000Y-127289000D01*
D56*
X154495000Y-136207000D02*
X154559000Y-136271000D01*
X201930000Y-69850000D02*
X201930000Y-68329000D01*
X197601000Y-48445500D02*
X197601000Y-49900000D01*
X133900000Y-51800000D02*
X133900000Y-50500000D01*
X194752000Y-62359000D02*
X194373000Y-62738000D01*
X144780000Y-44132000D02*
X144780000Y-45339000D01*
D55*
X114991000Y-125614000D02*
X114991000Y-128164000D01*
D56*
X153416000Y-136207000D02*
X154495000Y-136207000D01*
X151579500Y-126406000D02*
X150282000Y-126406000D01*
X141225000Y-124715000D02*
X141224000Y-124714000D01*
D55*
X158847300Y-48865300D02*
X158847300Y-50389300D01*
X158847300Y-47273700D02*
X158877000Y-47244000D01*
X138750000Y-54900000D02*
X138750000Y-56428600D01*
X98085000Y-125487000D02*
X98085000Y-128037000D01*
X114341000Y-125614000D02*
X114341000Y-128164000D01*
D56*
X195001000Y-48445500D02*
X195001000Y-46982160D01*
X98735000Y-128037000D02*
X98410000Y-128362000D01*
X151579500Y-119664000D02*
X150926994Y-119664000D01*
X190500000Y-44450000D02*
X191897000Y-44450000D01*
D57*
X96135000Y-125487000D02*
X96135000Y-126849000D01*
D56*
X142368000Y-121286000D02*
X142367000Y-121285000D01*
X194752000Y-60960000D02*
X194752000Y-59497000D01*
D55*
X158450400Y-48865300D02*
X158847300Y-48865300D01*
D57*
X96448000Y-127162000D02*
X97210000Y-127162000D01*
D55*
X112391000Y-125614000D02*
X112391000Y-127103000D01*
D56*
X195651000Y-48445500D02*
X195651000Y-49855000D01*
X147141000Y-135203000D02*
X147193000Y-135255000D01*
D55*
X132521000Y-127595000D02*
X131582000Y-128534000D01*
D56*
X191262000Y-50480000D02*
X189672000Y-50480000D01*
D55*
X130571000Y-131445000D02*
X130571000Y-129545000D01*
X99385000Y-125487000D02*
X99385000Y-126937000D01*
D56*
X187706000Y-48702000D02*
X187706000Y-50038000D01*
D55*
X94664000Y-133188000D02*
X94664000Y-134268000D01*
D56*
X197601000Y-49900000D02*
X197612000Y-49911000D01*
X201548000Y-70104000D02*
X201676000Y-70104000D01*
D55*
X137777000Y-41148000D02*
X139152000Y-41148000D01*
D56*
X142304000Y-128778000D02*
X142304000Y-127698000D01*
X189672000Y-50480000D02*
X189611000Y-50419000D01*
D55*
X135527000Y-41148000D02*
X137777000Y-41148000D01*
X131871000Y-128245000D02*
X131546000Y-128570000D01*
D56*
X153416000Y-117315000D02*
X152306000Y-117315000D01*
D55*
X129271000Y-125695000D02*
X129271000Y-127311000D01*
D56*
X141255000Y-118395000D02*
X141224000Y-118364000D01*
X145854500Y-121614000D02*
X147148000Y-121614000D01*
X142304000Y-135763000D02*
X142304000Y-134683000D01*
D57*
X97435000Y-131237000D02*
X97435000Y-129787000D01*
D56*
X145854500Y-128356000D02*
X147152000Y-128356000D01*
D55*
X168148000Y-54419000D02*
X166915600Y-54419000D01*
X139152000Y-41148000D02*
X139202000Y-41098000D01*
D56*
X198374000Y-66040000D02*
X198374000Y-64519000D01*
X153416000Y-122711000D02*
X153416000Y-124334000D01*
D55*
X131221000Y-125695000D02*
X131221000Y-128245000D01*
X98735000Y-125487000D02*
X98735000Y-128037000D01*
D56*
X99385000Y-126937000D02*
X99610000Y-127162000D01*
D55*
X96427000Y-135347000D02*
X95235000Y-135347000D01*
D56*
X98085000Y-128037000D02*
X98410000Y-128362000D01*
X145857000Y-44384000D02*
X145605000Y-44132000D01*
X199771000Y-46228000D02*
X200152000Y-46609000D01*
D55*
X114719500Y-128435500D02*
X114666000Y-128489000D01*
X168461000Y-54732000D02*
X168148000Y-54419000D01*
D56*
X152306000Y-117315000D02*
X152273000Y-117348000D01*
D55*
X129330000Y-127370000D02*
X130346000Y-127370000D01*
X130571000Y-129545000D02*
X131546000Y-128570000D01*
X113691000Y-129914000D02*
X113466000Y-129689000D01*
D56*
X201927000Y-68326000D02*
X201927000Y-66805000D01*
X195651000Y-49855000D02*
X195707000Y-49911000D01*
X154413793Y-129349000D02*
X154444500Y-129318293D01*
X201676000Y-70104000D02*
X201930000Y-69850000D01*
D55*
X129271000Y-127311000D02*
X129330000Y-127370000D01*
D56*
X142367000Y-118395000D02*
X141255000Y-118395000D01*
D55*
X170180000Y-54732000D02*
X168461000Y-54732000D01*
D56*
X150282000Y-126406000D02*
X150241000Y-126365000D01*
X153416000Y-124334000D02*
X152524828Y-124334000D01*
D57*
X96135000Y-126849000D02*
X96448000Y-127162000D01*
D56*
X130950000Y-41732000D02*
X129464000Y-41732000D01*
X146812000Y-44384000D02*
X145857000Y-44384000D01*
X198120000Y-66294000D02*
X198374000Y-66040000D01*
D55*
X115641000Y-125614000D02*
X115641000Y-127514000D01*
X132521000Y-125695000D02*
X132521000Y-127595000D01*
X112391000Y-127103000D02*
X112577000Y-127289000D01*
X97250000Y-52250000D02*
X97500000Y-52500000D01*
D56*
X145854500Y-135203000D02*
X147141000Y-135203000D01*
D55*
X158847300Y-48865300D02*
X159100400Y-48865300D01*
D56*
X201927000Y-66805000D02*
X201930000Y-66802000D01*
X195001000Y-46982160D02*
X195150500Y-46832660D01*
X142304000Y-127698000D02*
X142367000Y-127635000D01*
D55*
X148778000Y-55626000D02*
X150114000Y-55626000D01*
D56*
X151579500Y-133253000D02*
X150409055Y-133253000D01*
X153416000Y-129349000D02*
X154413793Y-129349000D01*
X150241000Y-118978006D02*
X150241000Y-118376500D01*
X142368000Y-122428000D02*
X142368000Y-121286000D01*
X198371000Y-64516000D02*
X198371000Y-62862000D01*
D55*
X131871000Y-125695000D02*
X131871000Y-128245000D01*
D56*
X150409055Y-133253000D02*
X150160555Y-133004500D01*
X142304000Y-134683000D02*
X142367000Y-134620000D01*
D55*
X131221000Y-128245000D02*
X131546000Y-128570000D01*
D57*
X97435000Y-129787000D02*
X97210000Y-129562000D01*
D56*
X198371000Y-62862000D02*
X197993000Y-62484000D01*
D55*
X138750000Y-56428600D02*
X138760200Y-56438800D01*
D56*
X129464000Y-41732000D02*
X129413000Y-41783000D01*
X145605000Y-44132000D02*
X144780000Y-44132000D01*
X147152000Y-128356000D02*
X147193000Y-128397000D01*
X201930000Y-68329000D02*
X201927000Y-68326000D01*
D55*
X166915600Y-54419000D02*
X166141400Y-53644800D01*
D56*
X150926994Y-119664000D02*
X150241000Y-118978006D01*
X152524828Y-124334000D02*
X152293391Y-124102563D01*
X141225000Y-131700000D02*
X141224000Y-131699000D01*
X142240000Y-131700000D02*
X141225000Y-131700000D01*
D55*
X95312500Y-52250000D02*
X97250000Y-52250000D01*
X115641000Y-127514000D02*
X114666000Y-128489000D01*
D56*
X194752000Y-60960000D02*
X194752000Y-62359000D01*
D55*
X158847300Y-48865300D02*
X158847300Y-47273700D01*
D56*
X198374000Y-64519000D02*
X198371000Y-64516000D01*
D55*
X138750000Y-54900000D02*
X138750000Y-52700000D01*
X113691000Y-131364000D02*
X113691000Y-129914000D01*
X94664000Y-134268000D02*
X94727000Y-134331000D01*
D56*
%TO.N,main_battery_unregulated*%
X112391000Y-131364000D02*
X111933000Y-131364000D01*
X95570000Y-131237000D02*
X95362000Y-131029000D01*
X129264480Y-131438480D02*
X128771480Y-131438480D01*
X129271000Y-131445000D02*
X129264480Y-131438480D01*
X128821000Y-122512000D02*
X128821000Y-120950000D01*
X111933000Y-131364000D02*
X111379000Y-130810000D01*
D58*
X131064000Y-46736000D02*
X131000000Y-46800000D01*
D56*
X111379000Y-121558000D02*
X112068000Y-120869000D01*
X128397000Y-122936000D02*
X128821000Y-122512000D01*
X132950000Y-54075000D02*
X133975000Y-54075000D01*
X128771480Y-131438480D02*
X128397000Y-131064000D01*
X95362000Y-131029000D02*
X95362000Y-123917000D01*
X133975000Y-54075000D02*
X134000000Y-54100000D01*
X128397000Y-131064000D02*
X128397000Y-122936000D01*
X111379000Y-130810000D02*
X111379000Y-121558000D01*
X131000000Y-46800000D02*
X131000000Y-48641000D01*
D59*
X133731000Y-46736000D02*
X132207000Y-46736000D01*
X132207000Y-46736000D02*
X131064000Y-46736000D01*
D56*
X96135000Y-131237000D02*
X95570000Y-131237000D01*
%TO.N,main_voltage_sense*%
X192786000Y-53340000D02*
X193051000Y-53605000D01*
X144780000Y-40957000D02*
X144780000Y-42482000D01*
X146812000Y-42484000D02*
X148270000Y-42484000D01*
X144780000Y-42482000D02*
X146810000Y-42482000D01*
X192024000Y-53340000D02*
X192786000Y-53340000D01*
X193051000Y-53605000D02*
X193051000Y-54170500D01*
X146810000Y-42482000D02*
X146812000Y-42484000D01*
X148270000Y-42484000D02*
X148336000Y-42418000D01*
D55*
%TO.N,TPS_A*%
X151579500Y-122914000D02*
X150517000Y-122914000D01*
D60*
X145854500Y-118364000D02*
X147193000Y-118364000D01*
D56*
X147193000Y-118364000D02*
X147320000Y-118237000D01*
D55*
X150517000Y-122914000D02*
X150114000Y-123317000D01*
D56*
X186944000Y-117729000D02*
X155829000Y-117729000D01*
X189547000Y-62738000D02*
X189547000Y-115126000D01*
X189547000Y-115126000D02*
X186944000Y-117729000D01*
%TO.N,Net-(C15-Pad1)*%
X191287500Y-48554500D02*
X191262000Y-48580000D01*
X192916500Y-48580000D02*
X193051000Y-48445500D01*
X191262000Y-48580000D02*
X192916500Y-48580000D01*
X191287500Y-46736000D02*
X191287500Y-48554500D01*
%TO.N,Net-(C17-Pad1)*%
X195001000Y-56967000D02*
X195001000Y-54170500D01*
X192852000Y-59116000D02*
X195001000Y-56967000D01*
X191197000Y-62738000D02*
X192723000Y-62738000D01*
X192723000Y-62738000D02*
X192723000Y-61089000D01*
X192852000Y-60960000D02*
X192852000Y-59116000D01*
X192723000Y-61089000D02*
X192852000Y-60960000D01*
%TO.N,Net-(C18-Pad1)*%
X196342000Y-64645000D02*
X196471000Y-64516000D01*
X196342000Y-66294000D02*
X196342000Y-64645000D01*
X196469000Y-57531000D02*
X196469000Y-64514000D01*
X196469000Y-64514000D02*
X196471000Y-64516000D01*
X195651000Y-56713000D02*
X196469000Y-57531000D01*
X195651000Y-54170500D02*
X195651000Y-56713000D01*
X194690000Y-66294000D02*
X196342000Y-66294000D01*
%TO.N,Net-(C19-Pad1)*%
X196951000Y-46263000D02*
X196916000Y-46228000D01*
X196951000Y-48445500D02*
X196951000Y-46263000D01*
%TO.N,TPS_B*%
X193040000Y-66294000D02*
X193040000Y-113411000D01*
D58*
X145854500Y-124010500D02*
X145854500Y-124806480D01*
X145796000Y-123952000D02*
X145854500Y-124010500D01*
D55*
X149733000Y-129540000D02*
X149849000Y-129656000D01*
X149849000Y-129656000D02*
X151579500Y-129656000D01*
D56*
%TO.N,Net-(C22-Pad1)*%
X196301000Y-54170500D02*
X196301000Y-55839000D01*
X200027000Y-59565000D02*
X200027000Y-68326000D01*
X200027000Y-69975000D02*
X199898000Y-70104000D01*
X196301000Y-55839000D02*
X200027000Y-59565000D01*
X200027000Y-68326000D02*
X200027000Y-69975000D01*
X198437000Y-70104000D02*
X199898000Y-70104000D01*
%TO.N,Net-(C24-Pad1)*%
X196977000Y-52959000D02*
X196977000Y-54144500D01*
X170180000Y-52832000D02*
X182626000Y-52832000D01*
X168148000Y-51371000D02*
X168148000Y-52769000D01*
X170180000Y-52832000D02*
X168211000Y-52832000D01*
X183261000Y-52197000D02*
X196215000Y-52197000D01*
X182626000Y-52832000D02*
X183261000Y-52197000D01*
X196215000Y-52197000D02*
X196977000Y-52959000D01*
X168211000Y-52832000D02*
X168148000Y-52769000D01*
X196977000Y-54144500D02*
X196951000Y-54170500D01*
%TO.N,TPS_C*%
X196787000Y-129603000D02*
X189992000Y-136398000D01*
D58*
X144399000Y-130683000D02*
X145415000Y-130683000D01*
X145415000Y-130683000D02*
X145796000Y-131064000D01*
D56*
X196787000Y-70104000D02*
X196787000Y-129603000D01*
D55*
X150517000Y-136503000D02*
X150368000Y-136652000D01*
D58*
X145796000Y-131064000D02*
X145796000Y-131572000D01*
D56*
X153035000Y-135382000D02*
X152616520Y-135800480D01*
X155829000Y-135382000D02*
X153035000Y-135382000D01*
D55*
X151579500Y-136503000D02*
X150517000Y-136503000D01*
D56*
X152232006Y-136503000D02*
X151579500Y-136503000D01*
X156845000Y-136398000D02*
X155829000Y-135382000D01*
X152616520Y-135800480D02*
X152616520Y-136118486D01*
X152616520Y-136118486D02*
X152232006Y-136503000D01*
X189992000Y-136398000D02*
X156845000Y-136398000D01*
D59*
%TO.N,Net-(F1-Pad1)*%
X113000000Y-54200000D02*
X113000000Y-58490000D01*
%TO.N,Net-(F1-Pad2)*%
X121700000Y-44600000D02*
X122375000Y-45275000D01*
X114900000Y-44600000D02*
X121700000Y-44600000D01*
D56*
X106924000Y-48250000D02*
X110074000Y-51400000D01*
X115300000Y-54100000D02*
X114400000Y-53200000D01*
D59*
X122375000Y-45275000D02*
X122375000Y-46750000D01*
D56*
X114100000Y-51400000D02*
X113000000Y-51400000D01*
D59*
X113000000Y-51400000D02*
X113000000Y-46500000D01*
D56*
X114400000Y-51700000D02*
X114100000Y-51400000D01*
D59*
X113000000Y-46500000D02*
X114900000Y-44600000D01*
D56*
X120675000Y-54100000D02*
X115300000Y-54100000D01*
X96962500Y-48250000D02*
X106924000Y-48250000D01*
X114400000Y-53200000D02*
X114400000Y-51700000D01*
X110074000Y-51400000D02*
X113000000Y-51400000D01*
%TO.N,battery_temp*%
X193701000Y-55219000D02*
X193167000Y-55753000D01*
X193701000Y-54170500D02*
X193701000Y-55219000D01*
D55*
%TO.N,Net-(N3-Pad1)*%
X131625000Y-40782000D02*
X132375000Y-41532000D01*
D56*
X140452000Y-42682000D02*
X140970000Y-42164000D01*
D55*
X132375000Y-42132000D02*
X132925000Y-42682000D01*
D56*
X140970000Y-39878000D02*
X141541000Y-39307000D01*
X133225000Y-42682000D02*
X140452000Y-42682000D01*
X140970000Y-42164000D02*
X140970000Y-39878000D01*
D55*
X132375000Y-41532000D02*
X132375000Y-42132000D01*
X130950000Y-40782000D02*
X131625000Y-40782000D01*
D56*
X141541000Y-39307000D02*
X144780000Y-39307000D01*
%TO.N,Net-(N3-Pad3)*%
X128075000Y-42725000D02*
X130907000Y-42725000D01*
X130907000Y-42725000D02*
X130950000Y-42682000D01*
%TO.N,Net-(N4-Pad1)*%
X134850000Y-50250000D02*
X135000000Y-50100000D01*
X135000000Y-50100000D02*
X137012500Y-50100000D01*
X134850000Y-51800000D02*
X134850000Y-50250000D01*
%TO.N,Net-(N4-Pad3)*%
X129050000Y-51800000D02*
X128000000Y-50750000D01*
D59*
X123502571Y-49050000D02*
X125752571Y-46800000D01*
D56*
X128075000Y-44375000D02*
X128075000Y-46800000D01*
X128000000Y-50750000D02*
X128000000Y-46875000D01*
D59*
X121250000Y-49050000D02*
X121300000Y-49000000D01*
X116075000Y-49050000D02*
X121250000Y-49050000D01*
X125752571Y-46800000D02*
X128075000Y-46800000D01*
X122375000Y-49050000D02*
X123502571Y-49050000D01*
D56*
X132950000Y-51800000D02*
X129050000Y-51800000D01*
%TO.N,Net-(N5-Pad12)*%
X97712000Y-132645000D02*
X97712000Y-133188000D01*
X98085000Y-131237000D02*
X98085000Y-132272000D01*
X97712000Y-133188000D02*
X96314000Y-133188000D01*
X98085000Y-132272000D02*
X97712000Y-132645000D01*
%TO.N,main_current_sense*%
X194351000Y-55839000D02*
X194310000Y-55880000D01*
X194351000Y-54170500D02*
X194351000Y-55839000D01*
X139638000Y-50100000D02*
X139700000Y-50038000D01*
X138587500Y-50100000D02*
X139638000Y-50100000D01*
%TO.N,LTPS_SCL*%
X194351000Y-48445500D02*
X194351000Y-46060000D01*
X195326000Y-45085000D02*
X195326000Y-43942000D01*
X196850000Y-43942000D02*
X195326000Y-43942000D01*
X194351000Y-46060000D02*
X195326000Y-45085000D01*
%TO.N,LTPS_SDA*%
X193701000Y-43968000D02*
X193675000Y-43942000D01*
X192151000Y-43053000D02*
X192786000Y-43053000D01*
X193701000Y-48445500D02*
X193701000Y-43968000D01*
X192786000Y-43053000D02*
X193675000Y-43942000D01*
%TO.N,Net-(N7-Pad12)*%
X112443000Y-133315000D02*
X113905000Y-133315000D01*
X113905000Y-133095000D02*
X113905000Y-133315000D01*
X114341000Y-131364000D02*
X114341000Y-132659000D01*
X114341000Y-132659000D02*
X113905000Y-133095000D01*
%TO.N,Net-(N8-Pad12)*%
X129514000Y-133396000D02*
X130912000Y-133396000D01*
X131221000Y-131445000D02*
X131221000Y-132779000D01*
X130912000Y-133088000D02*
X130912000Y-133396000D01*
X131221000Y-132779000D02*
X130912000Y-133088000D01*
%TO.N,Net-(R5-Pad1)*%
X122325000Y-54100000D02*
X122250000Y-54025000D01*
X98721800Y-51300000D02*
X98729800Y-51308000D01*
X122250000Y-54025000D02*
X122250000Y-51300000D01*
X122375000Y-51350000D02*
X120336400Y-51350000D01*
X120336400Y-51350000D02*
X120319800Y-51333400D01*
X97187500Y-51300000D02*
X98721800Y-51300000D01*
%TO.N,Net-(R6-Pad2)*%
X95252500Y-50290000D02*
X95312500Y-50350000D01*
X95312500Y-50350000D02*
X95312500Y-48250000D01*
X89290000Y-50290000D02*
X95252500Y-50290000D01*
%TO.N,TPS_A_OC*%
X156673000Y-120314000D02*
X151579500Y-120314000D01*
X149053000Y-120314000D02*
X151579500Y-120314000D01*
X145854500Y-120964000D02*
X148403000Y-120964000D01*
X145775500Y-120885000D02*
X145854500Y-120964000D01*
X157861000Y-119126000D02*
X156673000Y-120314000D01*
X148403000Y-120964000D02*
X149053000Y-120314000D01*
X144018000Y-120885000D02*
X145775500Y-120885000D01*
X185000000Y-122008000D02*
X182118000Y-119126000D01*
X182118000Y-119126000D02*
X157861000Y-119126000D01*
X185000000Y-125000000D02*
X185000000Y-122008000D01*
%TO.N,TPS_B_S1_CTRL*%
X145854500Y-126406000D02*
X147107000Y-126406000D01*
X147107000Y-126406000D02*
X147320000Y-126619000D01*
X142281000Y-126406000D02*
X145854500Y-126406000D01*
X142240000Y-126365000D02*
X142281000Y-126406000D01*
%TO.N,TPS_C_S1_CTRL*%
X175840000Y-130080000D02*
X175840000Y-133024000D01*
X147477000Y-133253000D02*
X147828000Y-133604000D01*
X175840000Y-133024000D02*
X174816501Y-134047499D01*
X142240000Y-133350000D02*
X145757500Y-133350000D01*
X145757500Y-133350000D02*
X145854500Y-133253000D01*
X162243501Y-134047499D02*
X162179000Y-134112000D01*
X174816501Y-134047499D02*
X162243501Y-134047499D01*
X145854500Y-133253000D02*
X147477000Y-133253000D01*
%TO.N,Net-(N9-Pad7)*%
X144018000Y-122428000D02*
X144145000Y-122301000D01*
X145817500Y-122301000D02*
X145854500Y-122264000D01*
X144149000Y-122264000D02*
X144018000Y-122395000D01*
X144145000Y-122301000D02*
X145817500Y-122301000D01*
%TO.N,TPS_B_S2_CTRL*%
X178130000Y-133401000D02*
X177038000Y-134493000D01*
X157099000Y-129667000D02*
X158877000Y-131445000D01*
X155131000Y-127699000D02*
X157099000Y-129667000D01*
X153416000Y-127699000D02*
X151586500Y-127699000D01*
X151586500Y-127699000D02*
X151579500Y-127706000D01*
X158877000Y-131445000D02*
X164592000Y-131445000D01*
X177038000Y-134493000D02*
X176784000Y-134747000D01*
X153416000Y-127699000D02*
X155131000Y-127699000D01*
X176784000Y-134747000D02*
X164592000Y-134747000D01*
X178130000Y-130080000D02*
X178130000Y-133401000D01*
%TO.N,TPS_C_S2_CTRL*%
X172910500Y-133286500D02*
X173550000Y-132647000D01*
X151583500Y-134557000D02*
X151579500Y-134553000D01*
X158813000Y-134557000D02*
X160083500Y-133286500D01*
X153416000Y-134557000D02*
X151583500Y-134557000D01*
X153416000Y-134557000D02*
X158813000Y-134557000D01*
X160083500Y-133286500D02*
X172910500Y-133286500D01*
X173550000Y-132647000D02*
X173550000Y-130080000D01*
%TO.N,Net-(N9-Pad15)*%
X151628500Y-118965000D02*
X151579500Y-119014000D01*
X153416000Y-118965000D02*
X151628500Y-118965000D01*
%TO.N,TPS_A_S1_CTRL*%
X142367000Y-120045000D02*
X144780000Y-120045000D01*
X142367000Y-120045000D02*
X141000000Y-120045000D01*
X144780000Y-120045000D02*
X145161000Y-119664000D01*
X145161000Y-119664000D02*
X145854500Y-119664000D01*
X141000000Y-120045000D02*
X140970000Y-120015000D01*
%TO.N,TPS_A_S2_CTRL*%
X153416000Y-121061000D02*
X154208000Y-121061000D01*
X153319000Y-120964000D02*
X153416000Y-121061000D01*
X154208000Y-121061000D02*
X154940000Y-121793000D01*
X151579500Y-120964000D02*
X153319000Y-120964000D01*
D55*
%TO.N,TPS_B_S1*%
X149341000Y-125106000D02*
X149098000Y-125349000D01*
X145854500Y-125756000D02*
X148691000Y-125756000D01*
X151579500Y-125106000D02*
X149341000Y-125106000D01*
X148691000Y-125756000D02*
X149098000Y-125349000D01*
%TO.N,TPS_C_S1*%
X149225000Y-131953000D02*
X151579500Y-131953000D01*
X148575000Y-132603000D02*
X149225000Y-131953000D01*
X145854500Y-132603000D02*
X148575000Y-132603000D01*
%TO.N,TPS_B_S2*%
X145854500Y-129656000D02*
X147839000Y-129656000D01*
X149139000Y-128356000D02*
X151579500Y-128356000D01*
X149098000Y-128397000D02*
X149139000Y-128356000D01*
X147839000Y-129656000D02*
X149098000Y-128397000D01*
%TO.N,TPS_C_S2*%
X147723000Y-136503000D02*
X148971000Y-135255000D01*
X148971000Y-135255000D02*
X149023000Y-135203000D01*
X149023000Y-135203000D02*
X151579500Y-135203000D01*
X145854500Y-136503000D02*
X147723000Y-136503000D01*
%TO.N,TPS_A_S1*%
X148351000Y-119014000D02*
X148844000Y-119507000D01*
X149930545Y-117626999D02*
X148844000Y-118713544D01*
X150842499Y-117626999D02*
X149930545Y-117626999D01*
X151579500Y-118364000D02*
X150842499Y-117626999D01*
X145854500Y-119014000D02*
X148351000Y-119014000D01*
X148844000Y-118713544D02*
X148844000Y-119507000D01*
%TO.N,TPS_A_S2*%
X145854500Y-122914000D02*
X148993000Y-122914000D01*
X149606000Y-121666000D02*
X149658000Y-121614000D01*
X148993000Y-122914000D02*
X149606000Y-122301000D01*
X149606000Y-122301000D02*
X149606000Y-121666000D01*
X149658000Y-121614000D02*
X151579500Y-121614000D01*
D56*
%TO.N,TPS_B_OC*%
X144851000Y-127706000D02*
X145854500Y-127706000D01*
X182710000Y-122258000D02*
X182710000Y-125000000D01*
X157353000Y-124968000D02*
X157353000Y-121793000D01*
X151636020Y-126999480D02*
X155321520Y-126999480D01*
X143891000Y-127190000D02*
X144335000Y-127190000D01*
X151579500Y-127056000D02*
X149042000Y-127056000D01*
X155321520Y-126999480D02*
X157353000Y-124968000D01*
X151579500Y-127056000D02*
X151636020Y-126999480D01*
X148392000Y-127706000D02*
X145854500Y-127706000D01*
X159258000Y-119888000D02*
X180340000Y-119888000D01*
X144335000Y-127190000D02*
X144851000Y-127706000D01*
X157353000Y-121793000D02*
X159258000Y-119888000D01*
X149042000Y-127056000D02*
X148392000Y-127706000D01*
X180340000Y-119888000D02*
X182710000Y-122258000D01*
%TO.N,Net-(N10-Pad7)*%
X145854500Y-129006000D02*
X144182000Y-129006000D01*
X144182000Y-129006000D02*
X143954000Y-128778000D01*
%TO.N,Net-(N10-Pad15)*%
X152908000Y-125984000D02*
X152654000Y-125730000D01*
X152654000Y-125730000D02*
X151605500Y-125730000D01*
X153416000Y-125984000D02*
X152908000Y-125984000D01*
X151605500Y-125730000D02*
X151579500Y-125756000D01*
%TO.N,TPS_C_OC*%
X143891000Y-134175000D02*
X144269000Y-134553000D01*
X179197000Y-120777000D02*
X180420000Y-122000000D01*
X148403000Y-134553000D02*
X145854500Y-134553000D01*
X149053000Y-133903000D02*
X148403000Y-134553000D01*
X180420000Y-122000000D02*
X180420000Y-125000000D01*
X165481000Y-132588000D02*
X166243000Y-131826000D01*
X166243000Y-128524000D02*
X164338000Y-126619000D01*
X159512000Y-132588000D02*
X165481000Y-132588000D01*
X164338000Y-122047000D02*
X165608000Y-120777000D01*
X151579500Y-133903000D02*
X151625020Y-133857480D01*
X165608000Y-120777000D02*
X179197000Y-120777000D01*
X158242520Y-133857480D02*
X159512000Y-132588000D01*
X151579500Y-133903000D02*
X149053000Y-133903000D01*
X144269000Y-134553000D02*
X145854500Y-134553000D01*
X166243000Y-131826000D02*
X166243000Y-128524000D01*
X164338000Y-126619000D02*
X164338000Y-122047000D01*
X151625020Y-133857480D02*
X158242520Y-133857480D01*
%TO.N,Net-(N11-Pad7)*%
X145764500Y-135763000D02*
X145854500Y-135853000D01*
X143954000Y-135763000D02*
X145764500Y-135763000D01*
%TO.N,Net-(N11-Pad15)*%
X153177000Y-132603000D02*
X153416000Y-132842000D01*
X151579500Y-132603000D02*
X153177000Y-132603000D01*
%TD*%
%TA.AperFunction,Conductor*%
%TO.N,GND*%
G36*
X120946188Y-125597078D02*
G01*
X121050963Y-125610872D01*
X121082735Y-125619385D01*
X121172674Y-125656639D01*
X121201160Y-125673086D01*
X121278393Y-125732349D01*
X121301651Y-125755607D01*
X121360914Y-125832840D01*
X121377361Y-125861326D01*
X121414615Y-125951265D01*
X121423128Y-125983037D01*
X121436922Y-126087812D01*
X121438000Y-126104258D01*
X121438000Y-128643742D01*
X121436922Y-128660188D01*
X121423128Y-128764963D01*
X121414615Y-128796735D01*
X121377361Y-128886674D01*
X121360914Y-128915160D01*
X121301651Y-128992393D01*
X121278393Y-129015651D01*
X121201160Y-129074914D01*
X121172674Y-129091361D01*
X121082735Y-129128615D01*
X121050963Y-129137128D01*
X120946188Y-129150922D01*
X120929742Y-129152000D01*
X115977258Y-129152000D01*
X115960812Y-129150922D01*
X115856037Y-129137128D01*
X115824265Y-129128615D01*
X115734326Y-129091361D01*
X115705840Y-129074914D01*
X115628607Y-129015651D01*
X115605349Y-128992393D01*
X115546086Y-128915160D01*
X115529639Y-128886674D01*
X115492385Y-128796735D01*
X115483872Y-128764963D01*
X115470078Y-128660188D01*
X115469000Y-128643742D01*
X115469000Y-128390258D01*
X115470078Y-128373812D01*
X115483872Y-128269037D01*
X115492385Y-128237265D01*
X115529639Y-128147326D01*
X115546086Y-128118840D01*
X115605349Y-128041607D01*
X115628607Y-128018349D01*
X115705840Y-127959086D01*
X115734326Y-127942639D01*
X115824265Y-127905385D01*
X115856037Y-127896872D01*
X115960812Y-127883078D01*
X115977258Y-127882000D01*
X118017000Y-127882000D01*
X118146410Y-127864963D01*
X118154039Y-127861803D01*
X118259372Y-127818173D01*
X118259374Y-127818172D01*
X118267000Y-127815013D01*
X118370553Y-127735553D01*
X118450013Y-127632000D01*
X118499963Y-127511410D01*
X118517000Y-127382000D01*
X118517000Y-126104258D01*
X118518078Y-126087812D01*
X118531872Y-125983037D01*
X118540385Y-125951265D01*
X118577639Y-125861326D01*
X118594086Y-125832840D01*
X118653349Y-125755607D01*
X118676607Y-125732349D01*
X118753840Y-125673086D01*
X118782326Y-125656639D01*
X118872265Y-125619385D01*
X118904037Y-125610872D01*
X119008812Y-125597078D01*
X119025258Y-125596000D01*
X120929742Y-125596000D01*
X120946188Y-125597078D01*
G37*
%TD.AperFunction*%
%TD*%
%TA.AperFunction,Conductor*%
%TO.N,TPS_C*%
G36*
X132970188Y-130522078D02*
G01*
X133074963Y-130535872D01*
X133106735Y-130544385D01*
X133196674Y-130581639D01*
X133225160Y-130598086D01*
X133271583Y-130633708D01*
X133313450Y-130691046D01*
X133319809Y-130738481D01*
X133320500Y-130738481D01*
X133320501Y-132151518D01*
X133321276Y-132156409D01*
X133321276Y-132156412D01*
X133332357Y-132226378D01*
X133335354Y-132245304D01*
X133392950Y-132358342D01*
X133482658Y-132448050D01*
X133595696Y-132505646D01*
X133605485Y-132507196D01*
X133605487Y-132507197D01*
X133632849Y-132511530D01*
X133689481Y-132520500D01*
X133770196Y-132520500D01*
X133818411Y-132530090D01*
X133832590Y-132535963D01*
X133962000Y-132553000D01*
X134351000Y-132553000D01*
X134391218Y-132545000D01*
X134436033Y-132536086D01*
X134436035Y-132536085D01*
X134448202Y-132533665D01*
X134458517Y-132526773D01*
X134458519Y-132526772D01*
X134520289Y-132485498D01*
X134530605Y-132478605D01*
X134537498Y-132468289D01*
X134578772Y-132406519D01*
X134578773Y-132406517D01*
X134585665Y-132396202D01*
X134591802Y-132365353D01*
X134619446Y-132226378D01*
X134638260Y-132180958D01*
X134665471Y-132140234D01*
X134700234Y-132105471D01*
X134740958Y-132078260D01*
X134786378Y-132059446D01*
X134846829Y-132047421D01*
X134871411Y-132045000D01*
X137906742Y-132045000D01*
X137923188Y-132046078D01*
X138027963Y-132059872D01*
X138059735Y-132068385D01*
X138149674Y-132105639D01*
X138178160Y-132122086D01*
X138255393Y-132181349D01*
X138278651Y-132204607D01*
X138337914Y-132281840D01*
X138354361Y-132310326D01*
X138391615Y-132400265D01*
X138400128Y-132432037D01*
X138413922Y-132536812D01*
X138415000Y-132553258D01*
X138415000Y-134076742D01*
X138413922Y-134093188D01*
X138400128Y-134197963D01*
X138391615Y-134229735D01*
X138354361Y-134319674D01*
X138337914Y-134348160D01*
X138278651Y-134425393D01*
X138255393Y-134448651D01*
X138178160Y-134507914D01*
X138149674Y-134524361D01*
X138059735Y-134561615D01*
X138027963Y-134570128D01*
X137923188Y-134583922D01*
X137906742Y-134585000D01*
X133962000Y-134585000D01*
X133832590Y-134602037D01*
X133824961Y-134605197D01*
X133719628Y-134648827D01*
X133719626Y-134648828D01*
X133712000Y-134651987D01*
X133608447Y-134731447D01*
X133528987Y-134835000D01*
X133479037Y-134955590D01*
X133462000Y-135085000D01*
X133462000Y-136108742D01*
X133460922Y-136125188D01*
X133447128Y-136229963D01*
X133438615Y-136261735D01*
X133401361Y-136351674D01*
X133384914Y-136380160D01*
X133325651Y-136457393D01*
X133302393Y-136480651D01*
X133225160Y-136539914D01*
X133196674Y-136556361D01*
X133106735Y-136593615D01*
X133074963Y-136602128D01*
X132970188Y-136615922D01*
X132953742Y-136617000D01*
X132192258Y-136617000D01*
X132175812Y-136615922D01*
X132071037Y-136602128D01*
X132039265Y-136593615D01*
X131949326Y-136556361D01*
X131920840Y-136539914D01*
X131843607Y-136480651D01*
X131820349Y-136457393D01*
X131761086Y-136380160D01*
X131744639Y-136351674D01*
X131707385Y-136261735D01*
X131698872Y-136229963D01*
X131685078Y-136125188D01*
X131684000Y-136108742D01*
X131684000Y-132320000D01*
X131697733Y-132262798D01*
X131702144Y-132254140D01*
X131702144Y-132254139D01*
X131706646Y-132245304D01*
X131721500Y-132151519D01*
X131721499Y-130867253D01*
X131731091Y-130819032D01*
X131744640Y-130786324D01*
X131761085Y-130757842D01*
X131820348Y-130680608D01*
X131843607Y-130657349D01*
X131920840Y-130598086D01*
X131949326Y-130581639D01*
X132039265Y-130544385D01*
X132071037Y-130535872D01*
X132175812Y-130522078D01*
X132192258Y-130521000D01*
X132953742Y-130521000D01*
X132970188Y-130522078D01*
G37*
%TD.AperFunction*%
%TD*%
%TA.AperFunction,Conductor*%
%TO.N,GND*%
G36*
X141748188Y-45086078D02*
G01*
X141852963Y-45099872D01*
X141884735Y-45108385D01*
X141974674Y-45145639D01*
X142003160Y-45162086D01*
X142080393Y-45221349D01*
X142103651Y-45244607D01*
X142162914Y-45321840D01*
X142179361Y-45350326D01*
X142216615Y-45440265D01*
X142225128Y-45472037D01*
X142238922Y-45576812D01*
X142240000Y-45593258D01*
X142240000Y-47751742D01*
X142238922Y-47768188D01*
X142225128Y-47872963D01*
X142216615Y-47904735D01*
X142179361Y-47994674D01*
X142162914Y-48023160D01*
X142103651Y-48100393D01*
X142080393Y-48123651D01*
X142003160Y-48182914D01*
X141974674Y-48199361D01*
X141884735Y-48236615D01*
X141852963Y-48245128D01*
X141748188Y-48258922D01*
X141731742Y-48260000D01*
X139192258Y-48260000D01*
X139175812Y-48258922D01*
X139071037Y-48245128D01*
X139039265Y-48236615D01*
X138949326Y-48199361D01*
X138920840Y-48182914D01*
X138843607Y-48123651D01*
X138820349Y-48100393D01*
X138761086Y-48023160D01*
X138744639Y-47994674D01*
X138707385Y-47904735D01*
X138698872Y-47872963D01*
X138685078Y-47768188D01*
X138684000Y-47751742D01*
X138684000Y-45593258D01*
X138685078Y-45576812D01*
X138698872Y-45472037D01*
X138707385Y-45440265D01*
X138744639Y-45350326D01*
X138761086Y-45321840D01*
X138820349Y-45244607D01*
X138843607Y-45221349D01*
X138920840Y-45162086D01*
X138949326Y-45145639D01*
X139039265Y-45108385D01*
X139071037Y-45099872D01*
X139175812Y-45086078D01*
X139192258Y-45085000D01*
X141731742Y-45085000D01*
X141748188Y-45086078D01*
G37*
%TD.AperFunction*%
%TD*%
%TA.AperFunction,Conductor*%
%TO.N,main_battery_unregulated*%
G36*
X130303188Y-116806078D02*
G01*
X130407963Y-116819872D01*
X130439735Y-116828385D01*
X130529674Y-116865639D01*
X130558160Y-116882086D01*
X130635393Y-116941349D01*
X130658651Y-116964607D01*
X130717914Y-117041840D01*
X130734361Y-117070326D01*
X130771615Y-117160265D01*
X130780128Y-117192037D01*
X130793922Y-117296812D01*
X130795000Y-117313258D01*
X130795000Y-124747384D01*
X130781267Y-124804587D01*
X130735354Y-124894696D01*
X130720500Y-124988481D01*
X130720500Y-125429044D01*
X130712090Y-125468616D01*
X130713365Y-125468986D01*
X130671285Y-125613825D01*
X130670500Y-125624515D01*
X130670500Y-126515189D01*
X130650498Y-126583310D01*
X130633595Y-126604284D01*
X130625884Y-126611995D01*
X130593992Y-126635167D01*
X130505639Y-126680185D01*
X130468146Y-126692367D01*
X130370210Y-126707878D01*
X130330790Y-126707878D01*
X130232854Y-126692367D01*
X130195361Y-126680185D01*
X130107008Y-126635167D01*
X130075116Y-126611995D01*
X130005005Y-126541884D01*
X129981833Y-126509992D01*
X129936815Y-126421639D01*
X129924633Y-126384146D01*
X129907551Y-126276293D01*
X129906000Y-126256583D01*
X129906000Y-123528000D01*
X129888963Y-123398590D01*
X129839013Y-123278000D01*
X129759553Y-123174447D01*
X129656000Y-123094987D01*
X129648374Y-123091828D01*
X129648372Y-123091827D01*
X129543039Y-123048197D01*
X129535410Y-123045037D01*
X129406000Y-123028000D01*
X125207258Y-123028000D01*
X125190812Y-123026922D01*
X125086037Y-123013128D01*
X125054265Y-123004615D01*
X124964326Y-122967361D01*
X124935840Y-122950914D01*
X124858607Y-122891651D01*
X124835349Y-122868393D01*
X124776086Y-122791160D01*
X124759639Y-122762674D01*
X124722385Y-122672735D01*
X124713872Y-122640963D01*
X124700078Y-122536188D01*
X124699000Y-122519742D01*
X124699000Y-121631258D01*
X124700078Y-121614812D01*
X124713872Y-121510037D01*
X124722385Y-121478265D01*
X124759639Y-121388326D01*
X124776086Y-121359840D01*
X124835349Y-121282607D01*
X124858607Y-121259349D01*
X124935840Y-121200086D01*
X124964326Y-121183639D01*
X125054265Y-121146385D01*
X125086037Y-121137872D01*
X125190812Y-121124078D01*
X125207258Y-121123000D01*
X126612000Y-121123000D01*
X126741410Y-121105963D01*
X126749039Y-121102803D01*
X126854372Y-121059173D01*
X126854374Y-121059172D01*
X126862000Y-121056013D01*
X126965553Y-120976553D01*
X127045013Y-120873000D01*
X127094963Y-120752410D01*
X127112000Y-120623000D01*
X127112000Y-117313258D01*
X127113078Y-117296812D01*
X127126872Y-117192037D01*
X127135385Y-117160265D01*
X127172639Y-117070326D01*
X127189086Y-117041840D01*
X127248349Y-116964607D01*
X127271607Y-116941349D01*
X127348840Y-116882086D01*
X127377326Y-116865639D01*
X127467265Y-116828385D01*
X127499037Y-116819872D01*
X127603812Y-116806078D01*
X127620258Y-116805000D01*
X130286742Y-116805000D01*
X130303188Y-116806078D01*
G37*
%TD.AperFunction*%
%TD*%
%TA.AperFunction,Conductor*%
%TO.N,Net-(L3-Pad2)*%
G36*
X117603188Y-118838078D02*
G01*
X117707963Y-118851872D01*
X117739735Y-118860385D01*
X117829674Y-118897639D01*
X117858160Y-118914086D01*
X117935393Y-118973349D01*
X117958651Y-118996607D01*
X118017914Y-119073840D01*
X118034361Y-119102326D01*
X118071615Y-119192265D01*
X118080128Y-119224037D01*
X118093922Y-119328812D01*
X118095000Y-119345258D01*
X118095000Y-126075742D01*
X118093922Y-126092188D01*
X118080128Y-126196963D01*
X118071615Y-126228735D01*
X118034361Y-126318674D01*
X118017914Y-126347160D01*
X117958651Y-126424393D01*
X117935393Y-126447651D01*
X117858160Y-126506914D01*
X117829674Y-126523361D01*
X117739735Y-126560615D01*
X117707963Y-126569128D01*
X117603188Y-126582922D01*
X117586742Y-126584000D01*
X116571258Y-126584000D01*
X116554812Y-126582922D01*
X116450037Y-126569128D01*
X116418265Y-126560615D01*
X116328326Y-126523361D01*
X116299839Y-126506914D01*
X116240795Y-126461607D01*
X116198928Y-126404268D01*
X116191500Y-126361645D01*
X116191500Y-125576215D01*
X116176206Y-125464568D01*
X116151862Y-125408313D01*
X116141499Y-125358272D01*
X116141499Y-124907482D01*
X116126646Y-124813696D01*
X116076733Y-124715736D01*
X116063000Y-124658534D01*
X116063000Y-124552000D01*
X116045985Y-124488500D01*
X115999500Y-124442015D01*
X115906105Y-124416990D01*
X115845483Y-124380038D01*
X115817009Y-124327890D01*
X115813292Y-124314016D01*
X115809000Y-124281409D01*
X115809000Y-119345258D01*
X115810078Y-119328812D01*
X115823872Y-119224037D01*
X115832385Y-119192265D01*
X115869639Y-119102326D01*
X115886086Y-119073840D01*
X115945349Y-118996607D01*
X115968607Y-118973349D01*
X116045840Y-118914086D01*
X116074326Y-118897639D01*
X116164265Y-118860385D01*
X116196037Y-118851872D01*
X116300812Y-118838078D01*
X116317258Y-118837000D01*
X117586742Y-118837000D01*
X117603188Y-118838078D01*
G37*
%TD.AperFunction*%
%TD*%
%TA.AperFunction,Conductor*%
%TO.N,GND*%
G36*
X126894671Y-124345921D02*
G01*
X126955122Y-124357946D01*
X127000542Y-124376760D01*
X127041266Y-124403971D01*
X127076029Y-124438734D01*
X127103240Y-124479458D01*
X127122054Y-124524878D01*
X127133087Y-124580340D01*
X127155835Y-124694702D01*
X127162727Y-124705017D01*
X127162728Y-124705019D01*
X127179779Y-124730537D01*
X127210895Y-124777105D01*
X127221211Y-124783998D01*
X127282981Y-124825272D01*
X127282983Y-124825273D01*
X127293298Y-124832165D01*
X127305465Y-124834585D01*
X127305467Y-124834586D01*
X127350282Y-124843500D01*
X127390500Y-124851500D01*
X127870500Y-124851500D01*
X127938621Y-124871502D01*
X127985114Y-124925158D01*
X127996500Y-124977500D01*
X127996500Y-131127433D01*
X127999564Y-131136864D01*
X127999565Y-131136868D01*
X128003297Y-131148353D01*
X128007913Y-131167578D01*
X128011354Y-131189304D01*
X128015855Y-131198137D01*
X128015856Y-131198141D01*
X128021341Y-131208906D01*
X128028905Y-131227166D01*
X128035704Y-131248090D01*
X128048639Y-131265893D01*
X128058965Y-131282745D01*
X128068950Y-131302342D01*
X128091513Y-131324905D01*
X128091516Y-131324909D01*
X128510571Y-131743964D01*
X128510575Y-131743967D01*
X128533138Y-131766530D01*
X128541977Y-131771034D01*
X128541979Y-131771035D01*
X128552738Y-131776517D01*
X128569594Y-131786845D01*
X128587391Y-131799776D01*
X128608312Y-131806574D01*
X128626572Y-131814138D01*
X128637339Y-131819624D01*
X128637343Y-131819625D01*
X128646176Y-131824126D01*
X128655969Y-131825677D01*
X128664209Y-131826982D01*
X128728362Y-131857392D01*
X128765891Y-131917660D01*
X128770501Y-131951431D01*
X128770501Y-132010407D01*
X128769870Y-132022997D01*
X128588735Y-133826535D01*
X128594166Y-133965220D01*
X128637512Y-134097069D01*
X128715434Y-134211923D01*
X128722177Y-134217559D01*
X128722178Y-134217560D01*
X128815181Y-134295295D01*
X128815184Y-134295297D01*
X128821926Y-134300932D01*
X128948784Y-134357237D01*
X128957476Y-134358455D01*
X128957479Y-134358456D01*
X129081892Y-134375892D01*
X129081895Y-134375892D01*
X129086232Y-134376500D01*
X129676242Y-134376500D01*
X129692688Y-134377578D01*
X129797463Y-134391372D01*
X129829235Y-134399885D01*
X129919174Y-134437139D01*
X129947660Y-134453586D01*
X130024893Y-134512849D01*
X130048151Y-134536107D01*
X130107414Y-134613340D01*
X130123861Y-134641826D01*
X130161115Y-134731765D01*
X130169628Y-134763537D01*
X130183422Y-134868312D01*
X130184500Y-134884758D01*
X130184500Y-136027242D01*
X130183422Y-136043688D01*
X130169628Y-136148463D01*
X130161115Y-136180235D01*
X130123861Y-136270174D01*
X130107414Y-136298660D01*
X130048151Y-136375893D01*
X130024893Y-136399151D01*
X129947660Y-136458414D01*
X129919174Y-136474861D01*
X129829235Y-136512115D01*
X129797463Y-136520628D01*
X129692688Y-136534422D01*
X129676242Y-136535500D01*
X125231758Y-136535500D01*
X125215312Y-136534422D01*
X125110537Y-136520628D01*
X125078765Y-136512115D01*
X124988826Y-136474861D01*
X124960340Y-136458414D01*
X124883107Y-136399151D01*
X124859849Y-136375893D01*
X124800586Y-136298660D01*
X124784139Y-136270174D01*
X124746885Y-136180235D01*
X124738372Y-136148463D01*
X124724578Y-136043688D01*
X124723500Y-136027242D01*
X124723500Y-124851758D01*
X124724578Y-124835312D01*
X124738372Y-124730537D01*
X124746885Y-124698765D01*
X124784139Y-124608826D01*
X124800586Y-124580340D01*
X124859849Y-124503107D01*
X124883107Y-124479849D01*
X124960340Y-124420586D01*
X124988826Y-124404139D01*
X125078765Y-124366885D01*
X125110537Y-124358372D01*
X125215312Y-124344578D01*
X125231758Y-124343500D01*
X126870089Y-124343500D01*
X126894671Y-124345921D01*
G37*
%TD.AperFunction*%
%TA.AperFunction,Conductor*%
G36*
X129057688Y-124852578D02*
G01*
X129162463Y-124866372D01*
X129194235Y-124874885D01*
X129284174Y-124912139D01*
X129312661Y-124928586D01*
X129371205Y-124973509D01*
X129413072Y-125030847D01*
X129420500Y-125073471D01*
X129420501Y-126401518D01*
X129435354Y-126495304D01*
X129492950Y-126608342D01*
X129512595Y-126627987D01*
X129546621Y-126690299D01*
X129549500Y-126717082D01*
X129549500Y-127399500D01*
X129566537Y-127528910D01*
X129616487Y-127649500D01*
X129695947Y-127753053D01*
X129799500Y-127832513D01*
X129807126Y-127835672D01*
X129807128Y-127835673D01*
X129912461Y-127879303D01*
X129920090Y-127882463D01*
X130049500Y-127899500D01*
X130565242Y-127899500D01*
X130581688Y-127900578D01*
X130686463Y-127914372D01*
X130718235Y-127922885D01*
X130808174Y-127960139D01*
X130836660Y-127976586D01*
X130913893Y-128035849D01*
X130937151Y-128059107D01*
X130996414Y-128136340D01*
X131012861Y-128164826D01*
X131050115Y-128254765D01*
X131058628Y-128286537D01*
X131072422Y-128391312D01*
X131073500Y-128407758D01*
X131073500Y-128814664D01*
X131072059Y-128833665D01*
X131053657Y-128954297D01*
X131042327Y-128990569D01*
X130993034Y-129091544D01*
X130971406Y-129122786D01*
X130894253Y-129204467D01*
X130864291Y-129227842D01*
X130766288Y-129282808D01*
X130730718Y-129296187D01*
X130611335Y-129321430D01*
X130592448Y-129323951D01*
X129462781Y-129388417D01*
X129462775Y-129388418D01*
X129458337Y-129388671D01*
X129383724Y-129403669D01*
X129328951Y-129414679D01*
X129328950Y-129414679D01*
X129320201Y-129416438D01*
X129195297Y-129481642D01*
X129093543Y-129579103D01*
X129089078Y-129586826D01*
X129032581Y-129684543D01*
X128981168Y-129733505D01*
X128911446Y-129746898D01*
X128845551Y-129720471D01*
X128804405Y-129662614D01*
X128797500Y-129621476D01*
X128797500Y-124977500D01*
X128817502Y-124909379D01*
X128871158Y-124862886D01*
X128923500Y-124851500D01*
X129041242Y-124851500D01*
X129057688Y-124852578D01*
G37*
%TD.AperFunction*%
%TD*%
%TA.AperFunction,Conductor*%
%TO.N,+3V3*%
G36*
X162908521Y-50743802D02*
G01*
X162955014Y-50797458D01*
X162966400Y-50849800D01*
X162966400Y-54596500D01*
X162946398Y-54664621D01*
X162892742Y-54711114D01*
X162840400Y-54722500D01*
X162467857Y-54722500D01*
X162467857Y-54788800D01*
X162447855Y-54856921D01*
X162394199Y-54903414D01*
X162341857Y-54914800D01*
X159663400Y-54914800D01*
X159595279Y-54894798D01*
X159548786Y-54841142D01*
X159537400Y-54788800D01*
X159537400Y-54053828D01*
X159551133Y-53996625D01*
X159581545Y-53936937D01*
X159586046Y-53928104D01*
X159600900Y-53834319D01*
X159600899Y-52346282D01*
X159586046Y-52252496D01*
X159551133Y-52183975D01*
X159537400Y-52126772D01*
X159537400Y-50909675D01*
X159558452Y-50839948D01*
X159589584Y-50793091D01*
X159589585Y-50793089D01*
X159593483Y-50787222D01*
X159594277Y-50787750D01*
X159638965Y-50740761D01*
X159702105Y-50723800D01*
X162840400Y-50723800D01*
X162908521Y-50743802D01*
G37*
%TD.AperFunction*%
%TD*%
%TA.AperFunction,Conductor*%
%TO.N,main_battery_unregulated*%
G36*
X136414188Y-45086078D02*
G01*
X136518963Y-45099872D01*
X136550735Y-45108385D01*
X136640674Y-45145639D01*
X136669160Y-45162086D01*
X136746393Y-45221349D01*
X136769651Y-45244607D01*
X136828914Y-45321840D01*
X136845361Y-45350326D01*
X136882615Y-45440265D01*
X136891128Y-45472037D01*
X136904922Y-45576812D01*
X136906000Y-45593258D01*
X136906000Y-47751742D01*
X136904922Y-47768188D01*
X136891128Y-47872963D01*
X136882615Y-47904735D01*
X136845361Y-47994674D01*
X136828914Y-48023160D01*
X136769651Y-48100393D01*
X136746393Y-48123651D01*
X136669160Y-48182914D01*
X136640674Y-48199361D01*
X136550735Y-48236615D01*
X136518963Y-48245128D01*
X136414188Y-48258922D01*
X136397742Y-48260000D01*
X133223258Y-48260000D01*
X133206812Y-48258922D01*
X133102037Y-48245128D01*
X133070265Y-48236615D01*
X132980326Y-48199361D01*
X132951840Y-48182914D01*
X132874607Y-48123651D01*
X132851349Y-48100393D01*
X132792086Y-48023160D01*
X132775639Y-47994674D01*
X132738385Y-47904735D01*
X132729872Y-47872963D01*
X132716078Y-47768188D01*
X132715000Y-47751742D01*
X132715000Y-45593258D01*
X132716078Y-45576812D01*
X132729872Y-45472037D01*
X132738385Y-45440265D01*
X132775639Y-45350326D01*
X132792086Y-45321840D01*
X132851349Y-45244607D01*
X132874607Y-45221349D01*
X132951840Y-45162086D01*
X132980326Y-45145639D01*
X133070265Y-45108385D01*
X133102037Y-45099872D01*
X133206812Y-45086078D01*
X133223258Y-45085000D01*
X136397742Y-45085000D01*
X136414188Y-45086078D01*
G37*
%TD.AperFunction*%
%TD*%
%TA.AperFunction,Conductor*%
%TO.N,main_battery_unregulated*%
G36*
X97283188Y-118238078D02*
G01*
X97387963Y-118251872D01*
X97419735Y-118260385D01*
X97509674Y-118297639D01*
X97538160Y-118314086D01*
X97615393Y-118373349D01*
X97638651Y-118396607D01*
X97697914Y-118473840D01*
X97714361Y-118502326D01*
X97751615Y-118592265D01*
X97760128Y-118624037D01*
X97773922Y-118728812D01*
X97775000Y-118745258D01*
X97775000Y-124403418D01*
X97754998Y-124471539D01*
X97738095Y-124492513D01*
X97656950Y-124573658D01*
X97599354Y-124686696D01*
X97584500Y-124780481D01*
X97584500Y-125221044D01*
X97576090Y-125260616D01*
X97577365Y-125260986D01*
X97535285Y-125405825D01*
X97534500Y-125416515D01*
X97534500Y-125828887D01*
X97514498Y-125897008D01*
X97456718Y-125945296D01*
X97419735Y-125960615D01*
X97387963Y-125969128D01*
X97283446Y-125982888D01*
X97250554Y-125982888D01*
X97146037Y-125969128D01*
X97114265Y-125960615D01*
X97024326Y-125923361D01*
X96995840Y-125906914D01*
X96918607Y-125847651D01*
X96895349Y-125824393D01*
X96836086Y-125747160D01*
X96819639Y-125718674D01*
X96782385Y-125628735D01*
X96773872Y-125596963D01*
X96760078Y-125492188D01*
X96759000Y-125475742D01*
X96759000Y-124452000D01*
X96741963Y-124322590D01*
X96692013Y-124202000D01*
X96612553Y-124098447D01*
X96509000Y-124018987D01*
X96501374Y-124015828D01*
X96501372Y-124015827D01*
X96396039Y-123972197D01*
X96388410Y-123969037D01*
X96259000Y-123952000D01*
X94600258Y-123952000D01*
X94583812Y-123950922D01*
X94479037Y-123937128D01*
X94447265Y-123928615D01*
X94357326Y-123891361D01*
X94328840Y-123874914D01*
X94251607Y-123815651D01*
X94228349Y-123792393D01*
X94169086Y-123715160D01*
X94152639Y-123686674D01*
X94115385Y-123596735D01*
X94106872Y-123564963D01*
X94093078Y-123460188D01*
X94092000Y-123443742D01*
X94092000Y-118745258D01*
X94093078Y-118728812D01*
X94106872Y-118624037D01*
X94115385Y-118592265D01*
X94152639Y-118502326D01*
X94169086Y-118473840D01*
X94228349Y-118396607D01*
X94251607Y-118373349D01*
X94328840Y-118314086D01*
X94357326Y-118297639D01*
X94447265Y-118260385D01*
X94479037Y-118251872D01*
X94583812Y-118238078D01*
X94600258Y-118237000D01*
X97266742Y-118237000D01*
X97283188Y-118238078D01*
G37*
%TD.AperFunction*%
%TD*%
%TA.AperFunction,Conductor*%
%TO.N,TPS_B*%
G36*
X116079188Y-130395078D02*
G01*
X116183963Y-130408872D01*
X116215735Y-130417385D01*
X116305674Y-130454639D01*
X116334160Y-130471086D01*
X116395828Y-130518406D01*
X116437695Y-130575744D01*
X116443573Y-130638078D01*
X116440500Y-130657481D01*
X116440501Y-132070518D01*
X116441276Y-132075409D01*
X116441276Y-132075412D01*
X116445072Y-132099378D01*
X116455354Y-132164304D01*
X116512950Y-132277342D01*
X116602658Y-132367050D01*
X116715696Y-132424646D01*
X116725485Y-132426196D01*
X116725487Y-132426197D01*
X116752849Y-132430530D01*
X116809481Y-132439500D01*
X116940973Y-132439500D01*
X117072518Y-132439499D01*
X117147961Y-132427551D01*
X117167670Y-132426000D01*
X117714000Y-132426000D01*
X117754218Y-132418000D01*
X117799033Y-132409086D01*
X117799035Y-132409085D01*
X117811202Y-132406665D01*
X117821517Y-132399773D01*
X117821519Y-132399772D01*
X117883289Y-132358498D01*
X117893605Y-132351605D01*
X117924721Y-132305037D01*
X117941772Y-132279519D01*
X117941773Y-132279517D01*
X117948665Y-132269202D01*
X117967205Y-132176000D01*
X117982446Y-132099378D01*
X118001260Y-132053958D01*
X118028471Y-132013234D01*
X118063234Y-131978471D01*
X118103958Y-131951260D01*
X118149378Y-131932446D01*
X118209829Y-131920421D01*
X118234411Y-131918000D01*
X121015742Y-131918000D01*
X121032188Y-131919078D01*
X121136963Y-131932872D01*
X121168735Y-131941385D01*
X121258674Y-131978639D01*
X121287160Y-131995086D01*
X121364393Y-132054349D01*
X121387651Y-132077607D01*
X121446914Y-132154840D01*
X121463361Y-132183326D01*
X121500615Y-132273265D01*
X121509128Y-132305037D01*
X121522922Y-132409812D01*
X121524000Y-132426258D01*
X121524000Y-133949742D01*
X121522922Y-133966188D01*
X121509128Y-134070963D01*
X121500615Y-134102735D01*
X121463361Y-134192674D01*
X121446914Y-134221160D01*
X121387651Y-134298393D01*
X121364393Y-134321651D01*
X121287160Y-134380914D01*
X121258674Y-134397361D01*
X121168735Y-134434615D01*
X121136963Y-134443128D01*
X121032188Y-134456922D01*
X121015742Y-134458000D01*
X116944000Y-134458000D01*
X116814590Y-134475037D01*
X116806961Y-134478197D01*
X116701628Y-134521827D01*
X116701626Y-134521828D01*
X116694000Y-134524987D01*
X116590447Y-134604447D01*
X116510987Y-134708000D01*
X116461037Y-134828590D01*
X116444000Y-134958000D01*
X116444000Y-135981742D01*
X116442922Y-135998188D01*
X116429128Y-136102963D01*
X116420615Y-136134735D01*
X116383361Y-136224674D01*
X116366914Y-136253160D01*
X116307651Y-136330393D01*
X116284393Y-136353651D01*
X116207160Y-136412914D01*
X116178674Y-136429361D01*
X116088735Y-136466615D01*
X116056963Y-136475128D01*
X115952188Y-136488922D01*
X115935742Y-136490000D01*
X115301258Y-136490000D01*
X115284812Y-136488922D01*
X115180037Y-136475128D01*
X115148265Y-136466615D01*
X115058326Y-136429361D01*
X115029840Y-136412914D01*
X114952607Y-136353651D01*
X114929349Y-136330393D01*
X114870086Y-136253160D01*
X114853639Y-136224674D01*
X114816385Y-136134735D01*
X114807872Y-136102963D01*
X114794078Y-135998188D01*
X114793000Y-135981742D01*
X114793000Y-132260588D01*
X114806733Y-132203385D01*
X114826646Y-132164304D01*
X114841500Y-132070519D01*
X114841499Y-130713697D01*
X114851091Y-130665476D01*
X114853642Y-130659318D01*
X114870086Y-130630840D01*
X114929349Y-130553607D01*
X114952607Y-130530349D01*
X115029840Y-130471086D01*
X115058326Y-130454639D01*
X115148265Y-130417385D01*
X115180037Y-130408872D01*
X115284812Y-130395078D01*
X115301258Y-130394000D01*
X116062742Y-130394000D01*
X116079188Y-130395078D01*
G37*
%TD.AperFunction*%
%TD*%
%TA.AperFunction,Conductor*%
%TO.N,GND*%
G36*
X153612121Y-49931002D02*
G01*
X153658614Y-49984658D01*
X153670000Y-50037000D01*
X153670000Y-52071000D01*
X153649998Y-52139121D01*
X153596342Y-52185614D01*
X153544000Y-52197000D01*
X151510000Y-52197000D01*
X151441879Y-52176998D01*
X151395386Y-52123342D01*
X151384000Y-52071000D01*
X151384000Y-50037000D01*
X151404002Y-49968879D01*
X151457658Y-49922386D01*
X151510000Y-49911000D01*
X153544000Y-49911000D01*
X153612121Y-49931002D01*
G37*
%TD.AperFunction*%
%TD*%
%TA.AperFunction,Conductor*%
%TO.N,GND*%
G36*
X110920621Y-124219002D02*
G01*
X110967114Y-124272658D01*
X110978500Y-124325000D01*
X110978500Y-130873433D01*
X110981564Y-130882864D01*
X110981565Y-130882868D01*
X110985297Y-130894353D01*
X110989913Y-130913578D01*
X110993354Y-130935304D01*
X110997855Y-130944137D01*
X110997856Y-130944141D01*
X111003341Y-130954906D01*
X111010905Y-130973166D01*
X111017704Y-130994090D01*
X111030639Y-131011893D01*
X111040965Y-131028745D01*
X111050950Y-131048342D01*
X111073503Y-131070895D01*
X111073516Y-131070909D01*
X111604950Y-131602342D01*
X111606701Y-131604093D01*
X111640726Y-131666406D01*
X111643600Y-131694460D01*
X111623095Y-133726956D01*
X111639036Y-133857345D01*
X111688385Y-133979082D01*
X111693406Y-133985706D01*
X111762716Y-134077143D01*
X111762719Y-134077146D01*
X111767737Y-134083766D01*
X111819676Y-134123968D01*
X111865042Y-134159083D01*
X111865045Y-134159085D01*
X111871615Y-134164170D01*
X111879282Y-134167369D01*
X111879283Y-134167369D01*
X111985179Y-134211546D01*
X111985181Y-134211547D01*
X111992848Y-134214745D01*
X112001085Y-134215836D01*
X112001087Y-134215837D01*
X112118947Y-134231454D01*
X112118952Y-134231454D01*
X112123070Y-134232000D01*
X113436742Y-134232000D01*
X113453188Y-134233078D01*
X113557963Y-134246872D01*
X113589735Y-134255385D01*
X113679674Y-134292639D01*
X113708160Y-134309086D01*
X113785393Y-134368349D01*
X113808651Y-134391607D01*
X113867914Y-134468840D01*
X113884361Y-134497326D01*
X113921615Y-134587265D01*
X113930128Y-134619037D01*
X113943922Y-134723812D01*
X113945000Y-134740258D01*
X113945000Y-136009742D01*
X113943922Y-136026188D01*
X113930128Y-136130963D01*
X113921615Y-136162735D01*
X113884361Y-136252674D01*
X113867914Y-136281160D01*
X113808651Y-136358393D01*
X113785393Y-136381651D01*
X113708160Y-136440914D01*
X113679674Y-136457361D01*
X113589735Y-136494615D01*
X113557963Y-136503128D01*
X113453188Y-136516922D01*
X113436742Y-136518000D01*
X108357258Y-136518000D01*
X108340812Y-136516922D01*
X108236037Y-136503128D01*
X108204265Y-136494615D01*
X108114326Y-136457361D01*
X108085840Y-136440914D01*
X108008607Y-136381651D01*
X107985349Y-136358393D01*
X107926086Y-136281160D01*
X107909639Y-136252674D01*
X107872385Y-136162735D01*
X107863872Y-136130963D01*
X107850078Y-136026188D01*
X107849000Y-136009742D01*
X107849000Y-124707258D01*
X107850078Y-124690812D01*
X107863872Y-124586037D01*
X107872385Y-124554265D01*
X107909639Y-124464326D01*
X107926086Y-124435840D01*
X107985349Y-124358607D01*
X108008607Y-124335349D01*
X108085840Y-124276086D01*
X108114326Y-124259639D01*
X108204265Y-124222385D01*
X108236037Y-124213872D01*
X108340812Y-124200078D01*
X108357258Y-124199000D01*
X110852500Y-124199000D01*
X110920621Y-124219002D01*
G37*
%TD.AperFunction*%
%TA.AperFunction,Conductor*%
G36*
X112056188Y-124200078D02*
G01*
X112160963Y-124213872D01*
X112192735Y-124222385D01*
X112282674Y-124259639D01*
X112311160Y-124276086D01*
X112388393Y-124335349D01*
X112411651Y-124358607D01*
X112470914Y-124435840D01*
X112487361Y-124464326D01*
X112524615Y-124554265D01*
X112533128Y-124586037D01*
X112546922Y-124690812D01*
X112548000Y-124707258D01*
X112548000Y-124850210D01*
X112546449Y-124869920D01*
X112540500Y-124907481D01*
X112540501Y-126320518D01*
X112541276Y-126325411D01*
X112541276Y-126325412D01*
X112546449Y-126358076D01*
X112548000Y-126377785D01*
X112548000Y-127120000D01*
X112566647Y-127237735D01*
X112620765Y-127343946D01*
X112705054Y-127428235D01*
X112811265Y-127482353D01*
X112821056Y-127483904D01*
X112821057Y-127483904D01*
X112866514Y-127491103D01*
X113027029Y-127516526D01*
X113064514Y-127528706D01*
X113135168Y-127564707D01*
X113167057Y-127587876D01*
X113223124Y-127643943D01*
X113246293Y-127675832D01*
X113282294Y-127746486D01*
X113294475Y-127783974D01*
X113308449Y-127872207D01*
X113310000Y-127891917D01*
X113310000Y-129659742D01*
X113308922Y-129676188D01*
X113295128Y-129780963D01*
X113286615Y-129812735D01*
X113249361Y-129902674D01*
X113232914Y-129931160D01*
X113173651Y-130008393D01*
X113150393Y-130031651D01*
X113073160Y-130090914D01*
X113044674Y-130107361D01*
X112954735Y-130144615D01*
X112922963Y-130153128D01*
X112818188Y-130166922D01*
X112801742Y-130168000D01*
X112153981Y-130168000D01*
X112111115Y-130173607D01*
X112033516Y-130183756D01*
X112033513Y-130183757D01*
X112025384Y-130184820D01*
X112017801Y-130187939D01*
X112017796Y-130187940D01*
X111953424Y-130214414D01*
X111882816Y-130221825D01*
X111819409Y-130189886D01*
X111783336Y-130128737D01*
X111779500Y-130097884D01*
X111779500Y-124325000D01*
X111799502Y-124256879D01*
X111853158Y-124210386D01*
X111905500Y-124199000D01*
X112039742Y-124199000D01*
X112056188Y-124200078D01*
G37*
%TD.AperFunction*%
%TD*%
%TA.AperFunction,Conductor*%
%TO.N,GND*%
G36*
X166591521Y-50616802D02*
G01*
X166638014Y-50670458D01*
X166649400Y-50722800D01*
X166649400Y-54596500D01*
X166629398Y-54664621D01*
X166575742Y-54711114D01*
X166523400Y-54722500D01*
X163727400Y-54722500D01*
X163659279Y-54702498D01*
X163612786Y-54648842D01*
X163601400Y-54596500D01*
X163601400Y-50722800D01*
X163621402Y-50654679D01*
X163675058Y-50608186D01*
X163727400Y-50596800D01*
X166523400Y-50596800D01*
X166591521Y-50616802D01*
G37*
%TD.AperFunction*%
%TD*%
%TA.AperFunction,Conductor*%
%TO.N,Net-(L1-Pad2)*%
G36*
X161867121Y-40152002D02*
G01*
X161913614Y-40205658D01*
X161925000Y-40258000D01*
X161925000Y-49912000D01*
X161904998Y-49980121D01*
X161851342Y-50026614D01*
X161799000Y-50038000D01*
X159652753Y-50038000D01*
X159584632Y-50017998D01*
X159545900Y-49978771D01*
X159531147Y-49955162D01*
X159512000Y-49888391D01*
X159512000Y-49877084D01*
X159529706Y-49816782D01*
X159528450Y-49816142D01*
X159531858Y-49809453D01*
X159586046Y-49703104D01*
X159600900Y-49609319D01*
X159600900Y-49122352D01*
X159608349Y-49079671D01*
X159641024Y-48988912D01*
X159643933Y-48980832D01*
X159654980Y-48830409D01*
X159638720Y-48749768D01*
X159626865Y-48690979D01*
X159625167Y-48682557D01*
X159614632Y-48661881D01*
X159600899Y-48604678D01*
X159600899Y-48121282D01*
X159586046Y-48027496D01*
X159528450Y-47914458D01*
X159530933Y-47913193D01*
X159512206Y-47860719D01*
X159512000Y-47853516D01*
X159512000Y-47772905D01*
X159533052Y-47703178D01*
X159589582Y-47618093D01*
X159593483Y-47612222D01*
X159608168Y-47573564D01*
X159654757Y-47450919D01*
X159654758Y-47450914D01*
X159657257Y-47444336D01*
X159682251Y-47266493D01*
X159682565Y-47244000D01*
X159662546Y-47065528D01*
X159603485Y-46895927D01*
X159508316Y-46743625D01*
X159421594Y-46656296D01*
X159387787Y-46593866D01*
X159385000Y-46567512D01*
X159385000Y-40258000D01*
X159405002Y-40189879D01*
X159458658Y-40143386D01*
X159511000Y-40132000D01*
X161799000Y-40132000D01*
X161867121Y-40152002D01*
G37*
%TD.AperFunction*%
%TD*%
%TA.AperFunction,Conductor*%
%TO.N,main_battery_unregulated*%
G36*
X158311121Y-40152002D02*
G01*
X158357614Y-40205658D01*
X158369000Y-40258000D01*
X158369000Y-46568035D01*
X158348998Y-46636156D01*
X158331157Y-46658059D01*
X158257767Y-46729928D01*
X158252732Y-46734859D01*
X158155446Y-46885817D01*
X158094022Y-47054578D01*
X158071514Y-47232753D01*
X158072201Y-47239760D01*
X158072201Y-47239763D01*
X158074822Y-47266493D01*
X158089039Y-47411486D01*
X158091262Y-47418168D01*
X158091262Y-47418169D01*
X158108559Y-47470166D01*
X158115000Y-47509937D01*
X158115000Y-47769618D01*
X158094998Y-47837739D01*
X158078095Y-47858713D01*
X158022350Y-47914458D01*
X157964754Y-48027496D01*
X157949900Y-48121281D01*
X157949900Y-48608248D01*
X157942451Y-48650929D01*
X157906867Y-48749768D01*
X157895820Y-48900191D01*
X157897517Y-48908606D01*
X157897517Y-48908609D01*
X157914772Y-48994178D01*
X157925633Y-49048043D01*
X157935253Y-49066924D01*
X157936168Y-49068719D01*
X157949901Y-49125922D01*
X157949901Y-49609318D01*
X157964754Y-49703104D01*
X158022350Y-49816142D01*
X158078095Y-49871887D01*
X158112121Y-49934199D01*
X158115000Y-49960982D01*
X158115000Y-50149725D01*
X158107401Y-50192819D01*
X158094022Y-50229578D01*
X158071514Y-50407753D01*
X158072201Y-50414760D01*
X158072201Y-50414763D01*
X158074822Y-50441493D01*
X158089039Y-50586486D01*
X158091262Y-50593168D01*
X158091262Y-50593169D01*
X158108559Y-50645166D01*
X158115000Y-50684937D01*
X158115000Y-51994618D01*
X158094998Y-52062739D01*
X158078095Y-52083713D01*
X158022350Y-52139458D01*
X157964754Y-52252496D01*
X157949900Y-52346281D01*
X157949900Y-52351234D01*
X157949901Y-53595000D01*
X157929899Y-53663121D01*
X157876243Y-53709614D01*
X157823901Y-53721000D01*
X155447000Y-53721000D01*
X155378879Y-53700998D01*
X155332386Y-53647342D01*
X155321000Y-53595000D01*
X155321000Y-40258000D01*
X155341002Y-40189879D01*
X155394658Y-40143386D01*
X155447000Y-40132000D01*
X158243000Y-40132000D01*
X158311121Y-40152002D01*
G37*
%TD.AperFunction*%
%TD*%
%TA.AperFunction,Conductor*%
%TO.N,GND*%
G36*
X104833188Y-125512078D02*
G01*
X104937963Y-125525872D01*
X104969735Y-125534385D01*
X105059674Y-125571639D01*
X105088160Y-125588086D01*
X105165393Y-125647349D01*
X105188651Y-125670607D01*
X105247914Y-125747840D01*
X105264361Y-125776326D01*
X105301615Y-125866265D01*
X105310128Y-125898037D01*
X105323922Y-126002812D01*
X105325000Y-126019258D01*
X105325000Y-128431742D01*
X105323922Y-128448188D01*
X105310128Y-128552963D01*
X105301615Y-128584735D01*
X105264361Y-128674674D01*
X105247914Y-128703160D01*
X105188651Y-128780393D01*
X105165393Y-128803651D01*
X105088160Y-128862914D01*
X105059674Y-128879361D01*
X104969735Y-128916615D01*
X104937963Y-128925128D01*
X104833188Y-128938922D01*
X104816742Y-128940000D01*
X99610258Y-128940000D01*
X99593812Y-128938922D01*
X99489037Y-128925128D01*
X99457265Y-128916615D01*
X99367326Y-128879361D01*
X99338840Y-128862914D01*
X99261607Y-128803651D01*
X99238349Y-128780393D01*
X99179086Y-128703160D01*
X99162639Y-128674674D01*
X99125385Y-128584735D01*
X99116872Y-128552963D01*
X99103078Y-128448188D01*
X99102000Y-128431742D01*
X99102000Y-128305258D01*
X99103078Y-128288812D01*
X99116872Y-128184037D01*
X99125385Y-128152265D01*
X99162639Y-128062326D01*
X99179086Y-128033840D01*
X99238349Y-127956607D01*
X99261607Y-127933349D01*
X99338840Y-127874086D01*
X99367326Y-127857639D01*
X99457265Y-127820385D01*
X99489037Y-127811872D01*
X99593812Y-127798078D01*
X99610258Y-127797000D01*
X101777000Y-127797000D01*
X101906410Y-127779963D01*
X101914039Y-127776803D01*
X102019372Y-127733173D01*
X102019374Y-127733172D01*
X102027000Y-127730013D01*
X102130553Y-127650553D01*
X102210013Y-127547000D01*
X102259963Y-127426410D01*
X102277000Y-127297000D01*
X102277000Y-126019258D01*
X102278078Y-126002812D01*
X102291872Y-125898037D01*
X102300385Y-125866265D01*
X102337639Y-125776326D01*
X102354086Y-125747840D01*
X102413349Y-125670607D01*
X102436607Y-125647349D01*
X102513840Y-125588086D01*
X102542326Y-125571639D01*
X102632265Y-125534385D01*
X102664037Y-125525872D01*
X102768812Y-125512078D01*
X102785258Y-125511000D01*
X104816742Y-125511000D01*
X104833188Y-125512078D01*
G37*
%TD.AperFunction*%
%TD*%
%TA.AperFunction,Conductor*%
%TO.N,Net-(L4-Pad2)*%
G36*
X135510188Y-118965078D02*
G01*
X135614963Y-118978872D01*
X135646735Y-118987385D01*
X135736674Y-119024639D01*
X135765160Y-119041086D01*
X135842393Y-119100349D01*
X135865651Y-119123607D01*
X135924914Y-119200840D01*
X135941361Y-119229326D01*
X135978615Y-119319265D01*
X135987128Y-119351037D01*
X136000922Y-119455812D01*
X136002000Y-119472258D01*
X136002000Y-124043742D01*
X136000922Y-124060188D01*
X135987128Y-124164963D01*
X135978615Y-124196735D01*
X135941361Y-124286674D01*
X135924914Y-124315160D01*
X135865651Y-124392393D01*
X135842393Y-124415651D01*
X135765160Y-124474914D01*
X135736674Y-124491361D01*
X135646735Y-124528615D01*
X135614963Y-124537128D01*
X135510188Y-124550922D01*
X135493742Y-124552000D01*
X135359000Y-124552000D01*
X135229590Y-124569037D01*
X135221961Y-124572197D01*
X135116628Y-124615827D01*
X135116626Y-124615828D01*
X135109000Y-124618987D01*
X135005447Y-124698447D01*
X134925987Y-124802000D01*
X134876037Y-124922590D01*
X134874959Y-124930778D01*
X134868007Y-124983588D01*
X134859000Y-125052000D01*
X134859000Y-126202742D01*
X134857922Y-126219188D01*
X134844128Y-126323963D01*
X134835615Y-126355735D01*
X134798361Y-126445674D01*
X134781914Y-126474160D01*
X134722651Y-126551393D01*
X134699393Y-126574651D01*
X134622160Y-126633914D01*
X134593674Y-126650361D01*
X134503735Y-126687615D01*
X134471963Y-126696128D01*
X134367188Y-126709922D01*
X134350742Y-126711000D01*
X133462258Y-126711000D01*
X133445812Y-126709922D01*
X133341037Y-126696128D01*
X133309265Y-126687615D01*
X133219326Y-126650361D01*
X133190840Y-126633914D01*
X133120796Y-126580167D01*
X133078929Y-126522829D01*
X133071500Y-126480205D01*
X133071500Y-125657215D01*
X133056206Y-125545568D01*
X133031862Y-125489313D01*
X133021499Y-125439272D01*
X133021499Y-124988482D01*
X133020724Y-124983588D01*
X133008198Y-124904494D01*
X133008197Y-124904492D01*
X133006646Y-124894696D01*
X132967733Y-124818325D01*
X132954000Y-124761122D01*
X132954000Y-123980500D01*
X132928478Y-123885250D01*
X132858750Y-123815522D01*
X132842730Y-123811229D01*
X132842729Y-123811229D01*
X132774795Y-123793026D01*
X132700859Y-123773216D01*
X132644376Y-123740604D01*
X132622396Y-123718624D01*
X132589784Y-123662140D01*
X132577293Y-123615522D01*
X132573000Y-123582911D01*
X132573000Y-119472258D01*
X132574078Y-119455812D01*
X132587872Y-119351037D01*
X132596385Y-119319265D01*
X132633639Y-119229326D01*
X132650086Y-119200840D01*
X132709349Y-119123607D01*
X132732607Y-119100349D01*
X132809840Y-119041086D01*
X132838326Y-119024639D01*
X132928265Y-118987385D01*
X132960037Y-118978872D01*
X133064812Y-118965078D01*
X133081258Y-118964000D01*
X135493742Y-118964000D01*
X135510188Y-118965078D01*
G37*
%TD.AperFunction*%
%TD*%
%TA.AperFunction,Conductor*%
%TO.N,TPS_A*%
G36*
X99823188Y-130268078D02*
G01*
X99927963Y-130281872D01*
X99959735Y-130290385D01*
X100049674Y-130327639D01*
X100078160Y-130344086D01*
X100139828Y-130391406D01*
X100181695Y-130448744D01*
X100187573Y-130511078D01*
X100184500Y-130530481D01*
X100184501Y-131943518D01*
X100199354Y-132037304D01*
X100256950Y-132150342D01*
X100346658Y-132240050D01*
X100459696Y-132297646D01*
X100469489Y-132299197D01*
X100478922Y-132302262D01*
X100477902Y-132305402D01*
X100517001Y-132322182D01*
X100565000Y-132359013D01*
X100572626Y-132362172D01*
X100572628Y-132362173D01*
X100651733Y-132394939D01*
X100685590Y-132408963D01*
X100693778Y-132410041D01*
X100805832Y-132424793D01*
X100815000Y-132426000D01*
X101394500Y-132426000D01*
X101405192Y-132423873D01*
X101503832Y-132404253D01*
X101503833Y-132404252D01*
X101516002Y-132401832D01*
X101619006Y-132333006D01*
X101687832Y-132230002D01*
X101698169Y-132178037D01*
X101728109Y-132027513D01*
X101731278Y-132011580D01*
X101750092Y-131966159D01*
X101761951Y-131948412D01*
X101791071Y-131904831D01*
X101825832Y-131870070D01*
X101887160Y-131829091D01*
X101932580Y-131810278D01*
X102017328Y-131793421D01*
X102041910Y-131791000D01*
X104759742Y-131791000D01*
X104776188Y-131792078D01*
X104880963Y-131805872D01*
X104912735Y-131814385D01*
X105002674Y-131851639D01*
X105031160Y-131868086D01*
X105108393Y-131927349D01*
X105131651Y-131950607D01*
X105190914Y-132027840D01*
X105207361Y-132056326D01*
X105244615Y-132146265D01*
X105253128Y-132178037D01*
X105266922Y-132282812D01*
X105268000Y-132299258D01*
X105268000Y-133822742D01*
X105266922Y-133839188D01*
X105253128Y-133943963D01*
X105244615Y-133975735D01*
X105207361Y-134065674D01*
X105190914Y-134094160D01*
X105131651Y-134171393D01*
X105108393Y-134194651D01*
X105031160Y-134253914D01*
X105002674Y-134270361D01*
X104912735Y-134307615D01*
X104880963Y-134316128D01*
X104776188Y-134329922D01*
X104759742Y-134331000D01*
X100815000Y-134331000D01*
X100685590Y-134348037D01*
X100677961Y-134351197D01*
X100572628Y-134394827D01*
X100572626Y-134394828D01*
X100565000Y-134397987D01*
X100461447Y-134477447D01*
X100381987Y-134581000D01*
X100332037Y-134701590D01*
X100315000Y-134831000D01*
X100315000Y-135981742D01*
X100313922Y-135998188D01*
X100300128Y-136102963D01*
X100291615Y-136134735D01*
X100254361Y-136224674D01*
X100237914Y-136253160D01*
X100178651Y-136330393D01*
X100155393Y-136353651D01*
X100078160Y-136412914D01*
X100049674Y-136429361D01*
X99959735Y-136466615D01*
X99927963Y-136475128D01*
X99823188Y-136488922D01*
X99806742Y-136490000D01*
X98918258Y-136490000D01*
X98901812Y-136488922D01*
X98797037Y-136475128D01*
X98765265Y-136466615D01*
X98675326Y-136429361D01*
X98646840Y-136412914D01*
X98569607Y-136353651D01*
X98546349Y-136330393D01*
X98487086Y-136253160D01*
X98470639Y-136224674D01*
X98433385Y-136134735D01*
X98424872Y-136102963D01*
X98411078Y-135998188D01*
X98410000Y-135981742D01*
X98410000Y-133540213D01*
X98410737Y-133526605D01*
X98412131Y-133513774D01*
X98412131Y-133513773D01*
X98412500Y-133510377D01*
X98412499Y-132865624D01*
X98410737Y-132849402D01*
X98410000Y-132835796D01*
X98410000Y-132546986D01*
X98434064Y-132472925D01*
X98440466Y-132464114D01*
X98440467Y-132464111D01*
X98446296Y-132456089D01*
X98453094Y-132435168D01*
X98460658Y-132416908D01*
X98466144Y-132406141D01*
X98466145Y-132406137D01*
X98470646Y-132397304D01*
X98474087Y-132375578D01*
X98478703Y-132356353D01*
X98482435Y-132344868D01*
X98482436Y-132344864D01*
X98485500Y-132335433D01*
X98485500Y-132226562D01*
X98505502Y-132158441D01*
X98506694Y-132156698D01*
X98513050Y-132150342D01*
X98570646Y-132037304D01*
X98585500Y-131943519D01*
X98585499Y-130530482D01*
X98577550Y-130480289D01*
X98586650Y-130409878D01*
X98625297Y-130360616D01*
X98646843Y-130344084D01*
X98675326Y-130327639D01*
X98720295Y-130309012D01*
X98765266Y-130290385D01*
X98797037Y-130281872D01*
X98901812Y-130268078D01*
X98918258Y-130267000D01*
X99806742Y-130267000D01*
X99823188Y-130268078D01*
G37*
%TD.AperFunction*%
%TD*%
%TA.AperFunction,Conductor*%
%TO.N,main_battery_unregulated*%
G36*
X113412188Y-118238078D02*
G01*
X113516963Y-118251872D01*
X113548735Y-118260385D01*
X113638674Y-118297639D01*
X113667160Y-118314086D01*
X113744393Y-118373349D01*
X113767651Y-118396607D01*
X113826914Y-118473840D01*
X113843361Y-118502326D01*
X113880615Y-118592265D01*
X113889128Y-118624037D01*
X113902922Y-118728812D01*
X113904000Y-118745258D01*
X113904000Y-124687972D01*
X113890267Y-124745175D01*
X113855354Y-124813696D01*
X113840500Y-124907481D01*
X113840500Y-125348044D01*
X113832090Y-125387616D01*
X113833365Y-125387986D01*
X113791285Y-125532825D01*
X113790500Y-125543515D01*
X113790500Y-125777189D01*
X113770498Y-125845310D01*
X113753595Y-125866284D01*
X113734884Y-125884995D01*
X113702992Y-125908167D01*
X113614639Y-125953185D01*
X113577146Y-125965367D01*
X113479210Y-125980878D01*
X113439790Y-125980878D01*
X113341854Y-125965367D01*
X113304361Y-125953185D01*
X113216008Y-125908167D01*
X113184116Y-125884995D01*
X113114005Y-125814884D01*
X113090833Y-125782992D01*
X113045815Y-125694639D01*
X113033633Y-125657146D01*
X113016551Y-125549293D01*
X113015000Y-125529583D01*
X113015000Y-123436000D01*
X112997963Y-123306590D01*
X112948013Y-123186000D01*
X112868553Y-123082447D01*
X112765000Y-123002987D01*
X112757374Y-122999828D01*
X112757372Y-122999827D01*
X112652039Y-122956197D01*
X112644410Y-122953037D01*
X112515000Y-122936000D01*
X108443258Y-122936000D01*
X108426812Y-122934922D01*
X108322037Y-122921128D01*
X108290265Y-122912615D01*
X108200326Y-122875361D01*
X108171840Y-122858914D01*
X108094607Y-122799651D01*
X108071349Y-122776393D01*
X108012086Y-122699160D01*
X107995639Y-122670674D01*
X107958385Y-122580735D01*
X107949872Y-122548963D01*
X107936078Y-122444188D01*
X107935000Y-122427742D01*
X107935000Y-118745258D01*
X107936078Y-118728812D01*
X107949872Y-118624037D01*
X107958385Y-118592265D01*
X107995639Y-118502326D01*
X108012086Y-118473840D01*
X108071349Y-118396607D01*
X108094607Y-118373349D01*
X108171840Y-118314086D01*
X108200326Y-118297639D01*
X108290265Y-118260385D01*
X108322037Y-118251872D01*
X108426812Y-118238078D01*
X108443258Y-118237000D01*
X113395742Y-118237000D01*
X113412188Y-118238078D01*
G37*
%TD.AperFunction*%
%TD*%
%TA.AperFunction,Conductor*%
%TO.N,GND*%
G36*
X93663522Y-124175293D02*
G01*
X93710141Y-124187784D01*
X93766624Y-124220396D01*
X93788604Y-124242376D01*
X93821216Y-124298859D01*
X93863522Y-124456750D01*
X93933250Y-124526478D01*
X93949270Y-124530771D01*
X93949271Y-124530771D01*
X93974584Y-124537553D01*
X94028500Y-124552000D01*
X94835500Y-124552000D01*
X94903621Y-124572002D01*
X94950114Y-124625658D01*
X94961500Y-124678000D01*
X94961500Y-131092433D01*
X94964564Y-131101864D01*
X94964565Y-131101868D01*
X94968297Y-131113353D01*
X94972913Y-131132578D01*
X94976354Y-131154304D01*
X94980855Y-131163137D01*
X94980856Y-131163141D01*
X94986341Y-131173906D01*
X94993905Y-131192166D01*
X95000704Y-131213090D01*
X95013639Y-131230893D01*
X95023965Y-131247745D01*
X95033950Y-131267342D01*
X95056503Y-131289895D01*
X95056516Y-131289909D01*
X95241950Y-131475342D01*
X95331658Y-131565050D01*
X95340494Y-131569552D01*
X95340495Y-131569553D01*
X95351259Y-131575038D01*
X95368116Y-131585368D01*
X95385910Y-131598296D01*
X95401938Y-131603504D01*
X95460543Y-131643577D01*
X95488179Y-131708974D01*
X95489000Y-131723336D01*
X95489000Y-133704000D01*
X95506037Y-133833410D01*
X95555987Y-133954000D01*
X95635447Y-134057553D01*
X95739000Y-134137013D01*
X95746626Y-134140172D01*
X95746628Y-134140173D01*
X95851961Y-134183803D01*
X95859590Y-134186963D01*
X95989000Y-134204000D01*
X97393742Y-134204000D01*
X97410188Y-134205078D01*
X97514963Y-134218872D01*
X97546735Y-134227385D01*
X97636674Y-134264639D01*
X97665160Y-134281086D01*
X97742393Y-134340349D01*
X97765651Y-134363607D01*
X97824914Y-134440840D01*
X97841361Y-134469326D01*
X97878615Y-134559265D01*
X97887128Y-134591037D01*
X97900922Y-134695812D01*
X97902000Y-134712258D01*
X97902000Y-135981742D01*
X97900922Y-135998188D01*
X97887128Y-136102963D01*
X97878615Y-136134735D01*
X97841361Y-136224674D01*
X97824914Y-136253160D01*
X97765651Y-136330393D01*
X97742393Y-136353651D01*
X97665160Y-136412914D01*
X97636674Y-136429361D01*
X97546735Y-136466615D01*
X97514963Y-136475128D01*
X97410188Y-136488922D01*
X97393742Y-136490000D01*
X92060258Y-136490000D01*
X92043812Y-136488922D01*
X91939037Y-136475128D01*
X91907265Y-136466615D01*
X91817326Y-136429361D01*
X91788840Y-136412914D01*
X91711607Y-136353651D01*
X91688349Y-136330393D01*
X91629086Y-136253160D01*
X91612639Y-136224674D01*
X91575385Y-136134735D01*
X91566872Y-136102963D01*
X91553078Y-135998188D01*
X91552000Y-135981742D01*
X91552000Y-124679258D01*
X91553078Y-124662812D01*
X91566872Y-124558037D01*
X91575385Y-124526265D01*
X91612639Y-124436326D01*
X91629086Y-124407840D01*
X91688349Y-124330607D01*
X91711607Y-124307349D01*
X91788840Y-124248086D01*
X91817326Y-124231639D01*
X91907265Y-124194385D01*
X91939037Y-124185872D01*
X92043812Y-124172078D01*
X92060258Y-124171000D01*
X93630911Y-124171000D01*
X93663522Y-124175293D01*
G37*
%TD.AperFunction*%
%TA.AperFunction,Conductor*%
G36*
X95975071Y-124564780D02*
G01*
X95990964Y-124566872D01*
X96022735Y-124575385D01*
X96112674Y-124612639D01*
X96141161Y-124629086D01*
X96218395Y-124688351D01*
X96241650Y-124711606D01*
X96258460Y-124733512D01*
X96284063Y-124799732D01*
X96284500Y-124810219D01*
X96284501Y-126193518D01*
X96299354Y-126287304D01*
X96354718Y-126395961D01*
X96356950Y-126400342D01*
X96356256Y-126400696D01*
X96378000Y-126467616D01*
X96378000Y-127282500D01*
X96399755Y-127419858D01*
X96462892Y-127543771D01*
X96561229Y-127642108D01*
X96685142Y-127705245D01*
X96694935Y-127706796D01*
X96940146Y-127745633D01*
X96977639Y-127757815D01*
X97065992Y-127802833D01*
X97097884Y-127826005D01*
X97167995Y-127896116D01*
X97191167Y-127928008D01*
X97236185Y-128016361D01*
X97248367Y-128053854D01*
X97265449Y-128161707D01*
X97267000Y-128181417D01*
X97267000Y-128615742D01*
X97265922Y-128632188D01*
X97252128Y-128736963D01*
X97243615Y-128768735D01*
X97206361Y-128858674D01*
X97189914Y-128887160D01*
X97130651Y-128964393D01*
X97107393Y-128987651D01*
X97030160Y-129046914D01*
X97001674Y-129063361D01*
X96911735Y-129100615D01*
X96879963Y-129109128D01*
X96775188Y-129122922D01*
X96758742Y-129124000D01*
X95989000Y-129124000D01*
X95904945Y-129135066D01*
X95834798Y-129124127D01*
X95781699Y-129076999D01*
X95762500Y-129010144D01*
X95762500Y-124680469D01*
X95782502Y-124612348D01*
X95836158Y-124565855D01*
X95904945Y-124555547D01*
X95975071Y-124564780D01*
G37*
%TD.AperFunction*%
%TD*%
%TA.AperFunction,Conductor*%
%TO.N,Net-(L2-Pad2)*%
G36*
X101728188Y-118711078D02*
G01*
X101832963Y-118724872D01*
X101864735Y-118733385D01*
X101954674Y-118770639D01*
X101983160Y-118787086D01*
X102060393Y-118846349D01*
X102083651Y-118869607D01*
X102142914Y-118946840D01*
X102159361Y-118975326D01*
X102196615Y-119065265D01*
X102205128Y-119097037D01*
X102218922Y-119201812D01*
X102220000Y-119218258D01*
X102220000Y-124805742D01*
X102218922Y-124822188D01*
X102205128Y-124926963D01*
X102196615Y-124958735D01*
X102159361Y-125048674D01*
X102142914Y-125077160D01*
X102083651Y-125154393D01*
X102060393Y-125177651D01*
X101983160Y-125236914D01*
X101954674Y-125253361D01*
X101864735Y-125290615D01*
X101832963Y-125299128D01*
X101728188Y-125312922D01*
X101711742Y-125314000D01*
X101704000Y-125314000D01*
X101699914Y-125314538D01*
X101699913Y-125314538D01*
X101582778Y-125329959D01*
X101574590Y-125331037D01*
X101566961Y-125334197D01*
X101461628Y-125377827D01*
X101461626Y-125377828D01*
X101454000Y-125380987D01*
X101350447Y-125460447D01*
X101270987Y-125564000D01*
X101221037Y-125684590D01*
X101204000Y-125814000D01*
X101204000Y-125948742D01*
X101202922Y-125965188D01*
X101189128Y-126069963D01*
X101180615Y-126101735D01*
X101143361Y-126191674D01*
X101126914Y-126220160D01*
X101067651Y-126297393D01*
X101044393Y-126320651D01*
X100967160Y-126379914D01*
X100938674Y-126396361D01*
X100848735Y-126433615D01*
X100816963Y-126442128D01*
X100712188Y-126455922D01*
X100695742Y-126457000D01*
X100315258Y-126457000D01*
X100298812Y-126455922D01*
X100194037Y-126442128D01*
X100162265Y-126433615D01*
X100072326Y-126396361D01*
X100043839Y-126379914D01*
X99984795Y-126334607D01*
X99942928Y-126277268D01*
X99935500Y-126234645D01*
X99935500Y-125449215D01*
X99920206Y-125337568D01*
X99895862Y-125281313D01*
X99885499Y-125231272D01*
X99885499Y-124780482D01*
X99870646Y-124686696D01*
X99820733Y-124588736D01*
X99807000Y-124531534D01*
X99807000Y-119218258D01*
X99808078Y-119201812D01*
X99821872Y-119097037D01*
X99830385Y-119065265D01*
X99867639Y-118975326D01*
X99884086Y-118946840D01*
X99943349Y-118869607D01*
X99966607Y-118846349D01*
X100043840Y-118787086D01*
X100072326Y-118770639D01*
X100162265Y-118733385D01*
X100194037Y-118724872D01*
X100298812Y-118711078D01*
X100315258Y-118710000D01*
X101711742Y-118710000D01*
X101728188Y-118711078D01*
G37*
%TD.AperFunction*%
%TD*%
%TA.AperFunction,Conductor*%
%TO.N,GND*%
G36*
X137923188Y-125823078D02*
G01*
X138027963Y-125836872D01*
X138059735Y-125845385D01*
X138149674Y-125882639D01*
X138178160Y-125899086D01*
X138255393Y-125958349D01*
X138278651Y-125981607D01*
X138337914Y-126058840D01*
X138354361Y-126087326D01*
X138391615Y-126177265D01*
X138400128Y-126209037D01*
X138413922Y-126313812D01*
X138415000Y-126330258D01*
X138415000Y-128869742D01*
X138413922Y-128886188D01*
X138400128Y-128990963D01*
X138391615Y-129022735D01*
X138354361Y-129112674D01*
X138337914Y-129141160D01*
X138278651Y-129218393D01*
X138255393Y-129241651D01*
X138178160Y-129300914D01*
X138149674Y-129317361D01*
X138059735Y-129354615D01*
X138027963Y-129363128D01*
X137923188Y-129376922D01*
X137906742Y-129378000D01*
X132827258Y-129378000D01*
X132810812Y-129376922D01*
X132706037Y-129363128D01*
X132674265Y-129354615D01*
X132584326Y-129317361D01*
X132555840Y-129300914D01*
X132478607Y-129241651D01*
X132455349Y-129218393D01*
X132396086Y-129141160D01*
X132379639Y-129112674D01*
X132342385Y-129022735D01*
X132333872Y-128990963D01*
X132320078Y-128886188D01*
X132319000Y-128869742D01*
X132319000Y-128362258D01*
X132320078Y-128345812D01*
X132333872Y-128241037D01*
X132342385Y-128209265D01*
X132379639Y-128119326D01*
X132396086Y-128090840D01*
X132455349Y-128013607D01*
X132478607Y-127990349D01*
X132555840Y-127931086D01*
X132584326Y-127914639D01*
X132674265Y-127877385D01*
X132706037Y-127868872D01*
X132810812Y-127855078D01*
X132827258Y-127854000D01*
X134740000Y-127854000D01*
X134869410Y-127836963D01*
X134877039Y-127833803D01*
X134982372Y-127790173D01*
X134982374Y-127790172D01*
X134990000Y-127787013D01*
X135093553Y-127707553D01*
X135173013Y-127604000D01*
X135222963Y-127483410D01*
X135240000Y-127354000D01*
X135240000Y-126330258D01*
X135241078Y-126313812D01*
X135254872Y-126209037D01*
X135263385Y-126177265D01*
X135300639Y-126087326D01*
X135317086Y-126058840D01*
X135376349Y-125981607D01*
X135399607Y-125958349D01*
X135476840Y-125899086D01*
X135505326Y-125882639D01*
X135595265Y-125845385D01*
X135627037Y-125836872D01*
X135731812Y-125823078D01*
X135748258Y-125822000D01*
X137906742Y-125822000D01*
X137923188Y-125823078D01*
G37*
%TD.AperFunction*%
%TD*%
%TA.AperFunction,Conductor*%
%TO.N,main_battery_unregulated*%
G36*
X97773922Y-118728812D02*
G01*
X97775000Y-118745258D01*
X97775000Y-122774000D01*
X92060258Y-122774000D01*
X92043812Y-122772922D01*
X91939037Y-122759128D01*
X91907265Y-122750615D01*
X91817326Y-122713361D01*
X91788840Y-122696914D01*
X91711607Y-122637651D01*
X91688349Y-122614393D01*
X91629086Y-122537160D01*
X91612639Y-122508674D01*
X91575385Y-122418735D01*
X91566872Y-122386963D01*
X91553078Y-122282188D01*
X91552000Y-122265742D01*
X91552000Y-119218258D01*
X91553078Y-119201812D01*
X91566872Y-119097037D01*
X91575385Y-119065265D01*
X91612639Y-118975326D01*
X91629086Y-118946840D01*
X91688349Y-118869607D01*
X91711607Y-118846349D01*
X91788840Y-118787086D01*
X91817326Y-118770639D01*
X91907265Y-118733385D01*
X91939037Y-118724872D01*
X92043812Y-118711078D01*
X92060258Y-118710000D01*
X97771445Y-118710000D01*
X97773922Y-118728812D01*
G37*
%TD.AperFunction*%
%TD*%
M02*
